<svg xmlns="http://www.w3.org/2000/svg" viewBox="0 0 1280 720" fill="none">
<defs>
  <linearGradient id="bg-grad-7" x1="0" y1="0" x2="1" y2="1">
    <stop offset="0%" stop-color="#2DAA6E" stop-opacity="0.06"/>
    <stop offset="100%" stop-color="#A8E063" stop-opacity="0.03"/>
  </linearGradient>
</defs>
  <rect width="1280" height="720" fill="url(#bg-grad-7)"/>
  <path d="M 536.9 349.1 C 572.9 354.1, 596.9 346.5, 629.8 364.6 C 662.6 382.7, 726.8 419.1, 734.2 457.4 C 741.6 495.7, 707.0 575.4, 674.1 594.6 C 641.2 613.8, 579.4 575.8, 536.9 572.6 C 494.5 569.3, 439.3 594.1, 419.5 574.9 C 399.7 555.7, 419.2 497.5, 418.3 457.4 C 417.4 417.3, 394.2 352.5, 413.9 334.4 C 433.7 316.4, 501.0 344.0, 536.9 349.1 Z" fill="#2DAA6E" opacity="0.07"/>
  <path d="M 517.6 -206.1 C 595.4 -205.4, 717.9 -165.1, 749.1 -110.6 C 780.3 -56.1, 720.2 59.1, 704.7 120.8 C 689.3 182.5, 687.6 227.4, 656.4 259.6 C 625.2 291.7, 568.9 308.8, 517.6 313.8 C 466.3 318.9, 390.2 322.0, 348.6 289.9 C 307.0 257.7, 279.0 188.2, 268.0 120.8 C 256.9 53.4, 240.7 -60.0, 282.3 -114.5 C 323.9 -169.0, 439.8 -206.7, 517.6 -206.1 Z" fill="#A8E063" opacity="0.09"/>
  <path d="M 270.1 -84.5 C 306.0 -92.1, 369.2 -60.3, 400.5 -29.4 C 431.8 1.6, 458.7 58.4, 457.8 101.0 C 457.0 143.6, 426.8 200.9, 395.5 226.4 C 364.2 251.9, 311.6 254.6, 270.1 254.3 C 228.7 253.9, 174.5 249.9, 146.8 224.3 C 119.1 198.8, 97.4 135.7, 103.9 101.0 C 110.3 66.3, 157.7 47.2, 185.4 16.3 C 213.1 -14.6, 234.3 -76.9, 270.1 -84.5 Z" fill="#2DAA6E" opacity="0.09"/>
  <circle cx="800.7" cy="634.4" r="2.5" fill="#2DAA6E" opacity="0.09"/>
  <circle cx="147.0" cy="279.0" r="3.7" fill="#2DAA6E" opacity="0.09"/>
  <circle cx="877.2" cy="220.7" r="3.1" fill="#2DAA6E" opacity="0.09"/>
  <circle cx="707.3" cy="343.0" r="2.2" fill="#2DAA6E" opacity="0.09"/>
  <circle cx="460.7" cy="313.7" r="3.6" fill="#2DAA6E" opacity="0.09"/>
  <circle cx="516.5" cy="371.2" r="4.6" fill="#2DAA6E" opacity="0.09"/>
  <circle cx="1063.7" cy="474.1" r="5.0" fill="#2DAA6E" opacity="0.09"/>
  <circle cx="991.6" cy="534.8" r="3.6" fill="#2DAA6E" opacity="0.09"/>
  <circle cx="1100.8" cy="254.7" r="3.5" fill="#2DAA6E" opacity="0.09"/>
  <circle cx="582.5" cy="185.7" r="4.9" fill="#2DAA6E" opacity="0.09"/>
  <circle cx="462.4" cy="584.1" r="2.6" fill="#2DAA6E" opacity="0.09"/>
  <circle cx="151.5" cy="256.2" r="4.4" fill="#2DAA6E" opacity="0.09"/>
  <circle cx="460.2" cy="578.6" r="4.8" fill="#2DAA6E" opacity="0.09"/>
  <circle cx="973.2" cy="170.4" r="2.4" fill="#2DAA6E" opacity="0.09"/>
  <circle cx="1052.4" cy="621.6" r="3.5" fill="#2DAA6E" opacity="0.09"/>
  <circle cx="456.4" cy="473.3" r="4.7" fill="#2DAA6E" opacity="0.09"/>
  <circle cx="479.4" cy="441.6" r="3.1" fill="#2DAA6E" opacity="0.09"/>
  <circle cx="484.7" cy="514.4" r="4.3" fill="#2DAA6E" opacity="0.09"/>
  <circle cx="323.5" cy="131.3" r="4.3" fill="#2DAA6E" opacity="0.09"/>
  <circle cx="129.9" cy="594.7" r="4.0" fill="#2DAA6E" opacity="0.09"/>
  <path d="M 80 138.45764677971601 C 440.52215442061424 154.10206741653383, 951.8643519375473 392.69251404330134, 1200 478.9248895831406" fill="none" stroke="#A8E063" stroke-width="2" opacity="0.1" stroke-linecap="round"/>

  <ellipse cx="640" cy="420" rx="35" ry="22" fill="#2DAA6E" opacity="0.25"/>
  <ellipse cx="640" cy="420" rx="35" ry="22" fill="none" stroke="#2DAA6E" stroke-width="2" opacity="0.5"/>
  <path d="M 640 420 C 640 380, 640 340, 620 280 C 610 260, 590 250, 580 260 C 570 270, 580 290, 600 300 C 620 310, 635 310, 640 340" fill="#A8E063" opacity="0.2" stroke="#A8E063" stroke-width="1.5"/>
  <path d="M 640 370 C 650 340, 670 310, 690 290 C 700 280, 710 285, 705 300 C 700 315, 680 330, 660 350" fill="#2DAA6E" opacity="0.18" stroke="#2DAA6E" stroke-width="1.5"/>
</svg>