<svg xmlns="http://www.w3.org/2000/svg" viewBox="0 0 1280 720" fill="none">
<defs>
  <linearGradient id="bg-7-6" x1="0" y1="0" x2="1" y2="1">
    <stop offset="0%" stop-color="#2DAA6E" stop-opacity="0.05"/>
    <stop offset="100%" stop-color="#A8E063" stop-opacity="0.03"/>
  </linearGradient>
</defs>
  <rect width="1280" height="720" fill="url(#bg-7-6)"/>
  <path d="M 1050.4 23.6 C 1069.9 23.9, 1088.3 49.5, 1108.2 66.3 C 1128.1 83.0, 1170.7 105.7, 1169.8 124.0 C 1169.0 142.4, 1122.7 161.0, 1102.8 176.4 C 1082.9 191.9, 1071.6 213.1, 1050.4 216.8 C 1029.2 220.5, 996.1 214.1, 975.8 198.6 C 955.6 183.2, 926.3 146.3, 928.9 124.0 C 931.4 101.7, 970.9 81.5, 991.2 64.8 C 1011.4 48.1, 1030.9 23.4, 1050.4 23.6 Z" fill="#2DAA6E" opacity="0.05"/>
  <circle cx="709.6" cy="123.0" r="1.8" fill="#2DAA6E" opacity="0.06"/>
  <circle cx="885.9" cy="388.3" r="2.4" fill="#2DAA6E" opacity="0.06"/>
  <circle cx="166.6" cy="207.8" r="1.5" fill="#2DAA6E" opacity="0.06"/>
  <circle cx="829.0" cy="587.1" r="2.4" fill="#2DAA6E" opacity="0.06"/>
  <circle cx="633.4" cy="305.7" r="2.8" fill="#2DAA6E" opacity="0.06"/>
  <circle cx="155.3" cy="630.9" r="3.2" fill="#2DAA6E" opacity="0.06"/>
  <circle cx="382.0" cy="304.9" r="1.5" fill="#2DAA6E" opacity="0.06"/>
  <circle cx="575.3" cy="357.7" r="2.5" fill="#2DAA6E" opacity="0.06"/>
  <circle cx="241.5" cy="329.7" r="2.7" fill="#2DAA6E" opacity="0.06"/>
  <line x1="640.0" y1="144.0" x2="640.0" y2="576.0" stroke="#2DAA6E" stroke-width="1" opacity="0.15" stroke-dasharray="6 4"/>
  <path d="M 302.6 423.6 C 316.3 424.7, 331.3 437.2, 338.0 448.7 C 344.8 460.2, 349.2 482.6, 343.3 492.7 C 337.4 502.8, 317.2 508.8, 302.6 509.4 C 287.9 510.0, 263.3 507.6, 255.5 496.4 C 247.6 485.2, 247.8 454.2, 255.7 442.1 C 263.5 430.0, 288.8 422.5, 302.6 423.6 Z" fill="#A8E063" opacity="0.07"/>
  <path d="M 332.3 348.5 C 343.0 347.7, 362.8 361.0, 368.2 371.5 C 373.6 381.9, 370.8 400.6, 364.8 410.9 C 358.8 421.2, 343.0 433.2, 332.3 433.1 C 321.6 433.0, 305.3 420.0, 300.6 410.5 C 296.0 401.0, 299.2 386.5, 304.5 376.1 C 309.8 365.8, 321.7 349.2, 332.3 348.5 Z" fill="#A8E063" opacity="0.06"/>
  <path d="M 337.9 302.7 C 354.1 302.9, 379.1 310.7, 385.4 322.2 C 391.7 333.6, 383.6 360.0, 375.7 371.4 C 367.8 382.8, 352.0 389.8, 337.9 390.7 C 323.9 391.5, 299.8 387.9, 291.6 376.3 C 283.3 364.7, 280.8 333.3, 288.5 321.0 C 296.2 308.8, 321.8 302.5, 337.9 302.7 Z" fill="#A8E063" opacity="0.07"/>
  <line x1="281.6" y1="158.4" x2="512.0" y2="158.4" stroke="#A8E063" stroke-width="2" opacity="0.12" stroke-linecap="round"/>
  <path d="M 877.8 298.4 C 898.0 296.7, 933.5 293.7, 944.6 306.4 C 955.7 319.2, 951.7 358.1, 944.3 374.9 C 937.0 391.7, 918.6 395.8, 900.7 407.3 C 882.9 418.8, 852.1 449.4, 837.2 443.9 C 822.4 438.5, 814.0 396.1, 811.7 374.8 C 809.4 353.5, 812.3 329.0, 823.3 316.3 C 834.4 303.5, 857.6 300.0, 877.8 298.4 Z" fill="#2DAA6E" opacity="0.12"/>
  <path d="M 899.1 225.9 C 906.7 224.6, 920.2 221.7, 926.6 227.1 C 933.1 232.4, 939.7 248.4, 937.9 257.9 C 936.2 267.5, 925.4 279.8, 916.1 284.3 C 906.7 288.9, 888.3 290.3, 881.6 285.3 C 874.9 280.3, 876.1 262.8, 876.0 254.3 C 875.9 245.9, 877.2 239.4, 881.0 234.7 C 884.9 229.9, 891.5 227.2, 899.1 225.9 Z" fill="#2DAA6E" opacity="0.16"/>
  <path d="M 852.1 174.7 C 875.1 174.9, 910.2 166.1, 920.6 178.2 C 931.0 190.2, 921.1 228.1, 914.4 247.0 C 907.7 265.9, 894.8 285.3, 880.3 291.4 C 865.9 297.4, 843.6 290.6, 827.7 283.4 C 811.9 276.2, 792.7 265.7, 785.2 248.0 C 777.7 230.4, 771.4 189.5, 782.6 177.3 C 793.7 165.1, 829.1 174.6, 852.1 174.7 Z" fill="#2DAA6E" opacity="0.13"/>
  <path d="M 798.1 439.2 C 809.6 439.3, 825.6 457.7, 832.0 468.5 C 838.4 479.4, 839.0 493.5, 836.4 504.3 C 833.8 515.2, 826.2 528.0, 816.5 533.6 C 806.7 539.2, 788.7 542.4, 777.7 537.9 C 766.7 533.4, 752.9 518.1, 750.5 506.4 C 748.1 494.8, 755.4 479.1, 763.4 467.9 C 771.3 456.7, 786.7 439.1, 798.1 439.2 Z" fill="#2DAA6E" opacity="0.16"/>
  <path d="M 972.0 310.6 C 981.1 310.9, 992.7 310.1, 998.2 315.7 C 1003.7 321.2, 1007.5 337.0, 1004.8 344.0 C 1002.1 351.0, 990.1 353.9, 982.2 357.7 C 974.3 361.4, 962.5 369.4, 957.5 366.7 C 952.6 363.9, 954.9 349.8, 952.6 341.0 C 950.3 332.2, 940.4 319.0, 943.7 313.9 C 946.9 308.9, 962.9 310.3, 972.0 310.6 Z" fill="#2DAA6E" opacity="0.09"/>
  <circle cx="747.5" cy="374.6" r="3.6" fill="#2DAA6E" opacity="0.12"/>
  <circle cx="826.5" cy="198.4" r="4.0" fill="#2DAA6E" opacity="0.12"/>
  <circle cx="1055.8" cy="195.6" r="3.2" fill="#2DAA6E" opacity="0.12"/>
  <circle cx="745.3" cy="456.5" r="4.0" fill="#2DAA6E" opacity="0.12"/>
  <circle cx="927.2" cy="306.4" r="3.0" fill="#2DAA6E" opacity="0.12"/>
  <circle cx="1019.0" cy="402.5" r="4.8" fill="#2DAA6E" opacity="0.12"/>
  <circle cx="804.6" cy="500.4" r="3.8" fill="#2DAA6E" opacity="0.12"/>
  <circle cx="932.3" cy="350.7" r="2.4" fill="#2DAA6E" opacity="0.12"/>
  <line x1="768.0" y1="158.4" x2="998.4" y2="158.4" stroke="#2DAA6E" stroke-width="2.5" opacity="0.2" stroke-linecap="round"/>
  <rect x="635.0" y="355.0" width="10" height="10" fill="#2DAA6E" opacity="0.2" transform="rotate(45 640.0 360.0)"/>

</svg>