<svg xmlns="http://www.w3.org/2000/svg" viewBox="0 0 1280 720" fill="none">
<defs>
  <linearGradient id="bg-7-8" x1="0" y1="0" x2="1" y2="1">
    <stop offset="0%" stop-color="#2DAA6E" stop-opacity="0.05"/>
    <stop offset="100%" stop-color="#A8E063" stop-opacity="0.03"/>
  </linearGradient>
</defs>
  <rect width="1280" height="720" fill="url(#bg-7-8)"/>
  <path d="M 1026.4 169.9 C 1045.8 170.4, 1065.4 176.0, 1083.4 188.6 C 1101.4 201.2, 1135.3 227.5, 1134.4 245.6 C 1133.4 263.7, 1095.9 280.5, 1077.9 297.1 C 1059.9 313.7, 1048.9 340.1, 1026.4 345.5 C 1003.9 350.8, 963.7 345.9, 942.7 329.3 C 921.7 312.7, 896.6 269.5, 900.6 245.6 C 904.6 221.7, 945.7 198.5, 966.7 185.9 C 987.7 173.3, 1006.9 169.5, 1026.4 169.9 Z" fill="#2DAA6E" opacity="0.06"/>
  <circle cx="624.5" cy="158.0" r="3.4" fill="#2DAA6E" opacity="0.07"/>
  <circle cx="573.5" cy="543.0" r="2.2" fill="#2DAA6E" opacity="0.07"/>
  <circle cx="617.2" cy="228.2" r="1.5" fill="#2DAA6E" opacity="0.07"/>
  <circle cx="940.6" cy="83.9" r="3.7" fill="#2DAA6E" opacity="0.07"/>
  <circle cx="137.9" cy="337.3" r="2.5" fill="#2DAA6E" opacity="0.07"/>
  <circle cx="681.9" cy="88.4" r="2.1" fill="#2DAA6E" opacity="0.07"/>
  <circle cx="360.3" cy="405.7" r="3.3" fill="#2DAA6E" opacity="0.07"/>
  <circle cx="825.2" cy="258.4" r="3.3" fill="#2DAA6E" opacity="0.07"/>
  <circle cx="951.5" cy="548.8" r="3.5" fill="#2DAA6E" opacity="0.07"/>
  <circle cx="685.2" cy="403.9" r="3.2" fill="#2DAA6E" opacity="0.07"/>
  <circle cx="852.2" cy="622.9" r="2.5" fill="#2DAA6E" opacity="0.07"/>
  <rect x="0" y="417.6" width="1280" height="302.4" fill="#2DAA6E" opacity="0.04"/>
  <path d="M 0 417.6 Q 80.0 409.9, 160.0 412.7 Q 240.0 410.2, 320.0 411.9 Q 400.0 421.7, 480.0 420.0 Q 560.0 421.6, 640.0 418.8 Q 720.0 414.2, 800.0 414.0 Q 880.0 411.3, 960.0 414.1 Q 1040.0 426.1, 1120.0 423.7 Q 1200.0 421.2, 1280.0 417.0" fill="none" stroke="#2DAA6E" stroke-width="1.5" opacity="0.15"/>
  <path d="M 192.1 373.2 C 198.4 374.1, 203.3 377.6, 206.6 382.4 C 210.0 387.3, 214.5 396.0, 212.0 402.4 C 209.6 408.7, 198.7 420.3, 192.1 420.3 C 185.4 420.3, 175.9 409.7, 171.9 402.5 C 167.9 395.3, 164.9 382.0, 168.3 377.1 C 171.6 372.2, 185.7 372.3, 192.1 373.2 Z" fill="#2DAA6E" opacity="0.14"/>
  <line x1="192.1" y1="402.4" x2="192.1" y2="432.6" stroke="#2DAA6E" stroke-width="1.5" opacity="0.12"/>
  <path d="M 1053.7 342.3 C 1067.7 341.4, 1092.7 357.8, 1100.2 371.5 C 1107.7 385.2, 1106.5 413.0, 1098.8 424.3 C 1091.0 435.7, 1067.9 440.0, 1053.7 439.5 C 1039.6 439.1, 1020.1 431.8, 1013.8 421.4 C 1007.6 410.9, 1009.5 389.8, 1016.2 376.6 C 1022.8 363.5, 1039.7 343.1, 1053.7 342.3 Z" fill="#2DAA6E" opacity="0.08"/>
  <line x1="1053.7" y1="423.4" x2="1053.7" y2="432.6" stroke="#2DAA6E" stroke-width="1.5" opacity="0.12"/>
  <path d="M 1069.5 342.8 C 1080.1 342.8, 1092.9 357.0, 1101.3 369.4 C 1109.7 381.7, 1125.1 407.0, 1119.8 416.8 C 1114.5 426.6, 1085.1 428.6, 1069.5 428.0 C 1053.9 427.3, 1031.5 422.6, 1026.1 412.8 C 1020.8 403.0, 1030.0 380.8, 1037.2 369.2 C 1044.5 357.5, 1058.8 342.8, 1069.5 342.8 Z" fill="#A8E063" opacity="0.09"/>
  <line x1="1069.5" y1="412.4" x2="1069.5" y2="432.6" stroke="#A8E063" stroke-width="1.5" opacity="0.12"/>
  <path d="M 959.0 341.2 C 973.5 342.4, 988.7 354.9, 996.7 367.5 C 1004.8 380.2, 1013.3 404.1, 1007.0 417.1 C 1000.7 430.1, 972.4 447.0, 959.0 445.5 C 945.5 444.1, 934.5 422.4, 926.2 408.3 C 917.9 394.1, 903.9 371.9, 909.3 360.7 C 914.8 349.5, 944.4 340.1, 959.0 341.2 Z" fill="#2DAA6E" opacity="0.10"/>
  <line x1="959.0" y1="415.6" x2="959.0" y2="432.6" stroke="#2DAA6E" stroke-width="1.5" opacity="0.12"/>
  <path d="M 745.0 346.1 C 759.8 347.8, 774.1 361.1, 780.6 372.7 C 787.1 384.3, 789.9 406.2, 784.0 415.7 C 778.1 425.3, 760.8 428.3, 745.0 429.9 C 729.3 431.5, 698.3 436.6, 689.4 425.3 C 680.5 414.1, 682.4 375.7, 691.7 362.4 C 700.9 349.2, 730.2 344.3, 745.0 346.1 Z" fill="#A8E063" opacity="0.12"/>
  <line x1="745.0" y1="418.1" x2="745.0" y2="432.6" stroke="#A8E063" stroke-width="1.5" opacity="0.12"/>
  <circle cx="275.4" cy="281.6" r="3.6" fill="#A8E063" opacity="0.08"/>
  <circle cx="319.8" cy="211.8" r="1.6" fill="#A8E063" opacity="0.08"/>
  <circle cx="900.8" cy="244.1" r="1.7" fill="#A8E063" opacity="0.08"/>
  <circle cx="729.9" cy="154.3" r="2.9" fill="#A8E063" opacity="0.08"/>
  <circle cx="253.4" cy="396.0" r="2.8" fill="#A8E063" opacity="0.08"/>
  <circle cx="845.1" cy="241.6" r="1.9" fill="#A8E063" opacity="0.08"/>
  <path d="M 384.0 437.6 Q 640.0 457.6, 960.0 432.6" fill="none" stroke="#A8E063" stroke-width="2" opacity="0.12" stroke-linecap="round"/>

</svg>