<svg xmlns="http://www.w3.org/2000/svg" viewBox="0 0 1280 720" fill="none">
<defs>
  <linearGradient id="bg-7-5" x1="0" y1="0" x2="1" y2="1">
    <stop offset="0%" stop-color="#2DAA6E" stop-opacity="0.05"/>
    <stop offset="100%" stop-color="#A8E063" stop-opacity="0.03"/>
  </linearGradient>
</defs>
  <rect width="1280" height="720" fill="url(#bg-7-5)"/>
  <path d="M 713.7 11.4 C 769.6 16.0, 841.2 -22.5, 867.6 1.5 C 893.9 25.5, 872.1 104.2, 872.0 155.4 C 872.0 206.6, 893.6 276.6, 867.2 308.9 C 840.8 341.2, 767.0 346.8, 713.7 349.0 C 660.4 351.1, 575.2 353.9, 547.5 321.6 C 519.7 289.4, 549.7 213.4, 547.1 155.4 C 544.6 97.4, 504.4 -2.2, 532.2 -26.2 C 559.9 -50.2, 657.8 6.7, 713.7 11.4 Z" fill="#2DAA6E" opacity="0.05"/>
  <path d="M 757.9 140.2 C 778.1 143.2, 794.0 165.9, 809.4 181.4 C 824.9 196.8, 845.2 210.3, 850.6 232.9 C 855.9 255.4, 857.2 304.5, 841.7 316.6 C 826.3 328.8, 783.6 307.9, 757.9 305.7 C 732.2 303.4, 709.0 315.4, 687.5 303.3 C 666.0 291.1, 628.7 256.1, 628.9 232.9 C 629.1 209.6, 667.2 179.1, 688.7 163.7 C 710.3 148.2, 737.8 137.3, 757.9 140.2 Z" fill="#A8E063" opacity="0.04"/>
  <circle cx="845.3" cy="58.4" r="2.6" fill="#2DAA6E" opacity="0.09"/>
  <circle cx="240.3" cy="666.5" r="3.2" fill="#2DAA6E" opacity="0.09"/>
  <circle cx="786.3" cy="265.5" r="3.8" fill="#2DAA6E" opacity="0.09"/>
  <circle cx="74.7" cy="611.2" r="3.4" fill="#2DAA6E" opacity="0.09"/>
  <circle cx="969.8" cy="240.5" r="3.0" fill="#2DAA6E" opacity="0.09"/>
  <circle cx="551.3" cy="403.3" r="3.5" fill="#2DAA6E" opacity="0.09"/>
  <circle cx="1140.2" cy="479.9" r="3.3" fill="#2DAA6E" opacity="0.09"/>
  <circle cx="585.5" cy="84.0" r="2.2" fill="#2DAA6E" opacity="0.09"/>
  <path d="M 640.0 180.0 C 690.0 216.0, 700.0 324.0, 695.0 432.0 C 690.0 504.0, 670.0 561.6, 640.0 576.0" fill="none" stroke="#2DAA6E" stroke-width="2" opacity="0.2" stroke-linecap="round"/>
  <path d="M 640.0 180.0 C 590.0 216.0, 580.0 324.0, 585.0 432.0 C 590.0 504.0, 610.0 561.6, 640.0 576.0" fill="none" stroke="#2DAA6E" stroke-width="2" opacity="0.2" stroke-linecap="round"/>
  <circle cx="640.0" cy="244.8" r="15.4" fill="#2DAA6E" opacity="0.12"/>
  <circle cx="640.0" cy="244.8" r="15.4" fill="none" stroke="#2DAA6E" stroke-width="1.5" opacity="0.3"/>
  <circle cx="625.0" cy="374.4" r="19.4" fill="#A8E063" opacity="0.12"/>
  <circle cx="625.0" cy="374.4" r="19.4" fill="none" stroke="#A8E063" stroke-width="1.5" opacity="0.3"/>
  <circle cx="660.0" cy="446.4" r="21.6" fill="#2DAA6E" opacity="0.12"/>
  <circle cx="660.0" cy="446.4" r="21.6" fill="none" stroke="#2DAA6E" stroke-width="1.5" opacity="0.3"/>
  <line x1="640.0" y1="244.8" x2="625.0" y2="374.4" stroke="#2DAA6E" stroke-width="1.5" opacity="0.15" stroke-dasharray="4 3"/>
  <circle cx="636.3" cy="277.2" r="2" fill="#A8E063" opacity="0.2"/>
  <circle cx="632.5" cy="309.6" r="2" fill="#A8E063" opacity="0.2"/>
  <circle cx="628.8" cy="342.0" r="2" fill="#A8E063" opacity="0.2"/>
  <line x1="625.0" y1="374.4" x2="660.0" y2="446.4" stroke="#2DAA6E" stroke-width="1.5" opacity="0.15" stroke-dasharray="4 3"/>
  <circle cx="633.8" cy="392.4" r="2" fill="#A8E063" opacity="0.2"/>
  <circle cx="642.5" cy="410.4" r="2" fill="#A8E063" opacity="0.2"/>
  <circle cx="651.3" cy="428.4" r="2" fill="#A8E063" opacity="0.2"/>

</svg>