<svg xmlns="http://www.w3.org/2000/svg" viewBox="0 0 1280 720" fill="none">
<defs>
  <linearGradient id="bg-7-3" x1="0" y1="0" x2="1" y2="1">
    <stop offset="0%" stop-color="#2DAA6E" stop-opacity="0.05"/>
    <stop offset="100%" stop-color="#A8E063" stop-opacity="0.03"/>
  </linearGradient>
</defs>
  <rect width="1280" height="720" fill="url(#bg-7-3)"/>
  <path d="M 910.7 194.5 C 952.4 187.1, 1017.1 205.4, 1058.1 237.1 C 1099.1 268.8, 1162.9 341.4, 1156.9 384.5 C 1150.8 427.6, 1062.9 467.0, 1021.9 495.7 C 980.8 524.3, 955.5 548.7, 910.7 556.4 C 865.9 564.2, 775.4 571.0, 752.9 542.3 C 730.3 513.7, 766.1 428.0, 775.2 384.5 C 784.4 341.0, 785.1 313.2, 807.7 281.5 C 830.3 249.8, 869.0 201.9, 910.7 194.5 Z" fill="#2DAA6E" opacity="0.06"/>
  <path d="M 933.9 184.3 C 982.0 191.0, 1028.9 182.3, 1058.1 206.7 C 1087.2 231.2, 1101.8 282.6, 1108.7 330.9 C 1115.5 379.1, 1128.3 454.6, 1099.2 496.1 C 1070.0 537.6, 985.2 583.7, 933.9 579.9 C 882.7 576.1, 822.2 514.7, 791.6 473.2 C 761.1 431.7, 754.2 381.9, 750.5 330.9 C 746.9 279.8, 739.3 191.2, 769.9 166.8 C 800.5 142.4, 885.9 177.7, 933.9 184.3 Z" fill="#A8E063" opacity="0.03"/>
  <circle cx="532.0" cy="363.8" r="1.8" fill="#2DAA6E" opacity="0.09"/>
  <circle cx="571.1" cy="536.4" r="2.3" fill="#2DAA6E" opacity="0.09"/>
  <circle cx="287.8" cy="305.4" r="2.4" fill="#2DAA6E" opacity="0.09"/>
  <circle cx="357.9" cy="129.0" r="2.6" fill="#2DAA6E" opacity="0.09"/>
  <circle cx="327.5" cy="635.8" r="1.6" fill="#2DAA6E" opacity="0.09"/>
  <circle cx="1190.3" cy="236.2" r="2.0" fill="#2DAA6E" opacity="0.09"/>
  <circle cx="441.4" cy="327.5" r="3.9" fill="#2DAA6E" opacity="0.09"/>
  <line x1="350.1" y1="441.0" x2="974.5" y2="441.0" stroke="#2DAA6E" stroke-width="0.5" opacity="0.1"/>
  <line x1="350.1" y1="360.0" x2="974.5" y2="360.0" stroke="#2DAA6E" stroke-width="0.5" opacity="0.1"/>
  <line x1="350.1" y1="279.0" x2="974.5" y2="279.0" stroke="#2DAA6E" stroke-width="0.5" opacity="0.1"/>
  <line x1="350.1" y1="198.0" x2="974.5" y2="198.0" stroke="#2DAA6E" stroke-width="0.5" opacity="0.1"/>
  <line x1="350.1" y1="522.0" x2="974.5" y2="522.0" stroke="#2DAA6E" stroke-width="1.5" opacity="0.2"/>
  <rect x="360.1" y="301.9" width="68.3" height="220.1" rx="4" fill="#2DAA6E" opacity="0.15"/>
  <rect x="360.1" y="301.9" width="68.3" height="220.1" rx="4" fill="none" stroke="#2DAA6E" stroke-width="1" opacity="0.25"/>
  <rect x="483.0" y="414.3" width="68.3" height="107.7" rx="4" fill="#A8E063" opacity="0.21"/>
  <rect x="483.0" y="414.3" width="68.3" height="107.7" rx="4" fill="none" stroke="#A8E063" stroke-width="1" opacity="0.25"/>
  <rect x="605.9" y="279.6" width="68.3" height="242.4" rx="4" fill="#2DAA6E" opacity="0.13"/>
  <rect x="605.9" y="279.6" width="68.3" height="242.4" rx="4" fill="none" stroke="#2DAA6E" stroke-width="1" opacity="0.25"/>
  <rect x="728.7" y="340.5" width="68.3" height="181.5" rx="4" fill="#A8E063" opacity="0.15"/>
  <rect x="728.7" y="340.5" width="68.3" height="181.5" rx="4" fill="none" stroke="#A8E063" stroke-width="1" opacity="0.25"/>
  <rect x="851.6" y="313.0" width="68.3" height="209.0" rx="4" fill="#2DAA6E" opacity="0.21"/>
  <rect x="851.6" y="313.0" width="68.3" height="209.0" rx="4" fill="none" stroke="#2DAA6E" stroke-width="1" opacity="0.25"/>

</svg>