<svg xmlns="http://www.w3.org/2000/svg" viewBox="0 0 1280 720" fill="none">
<defs>
  <linearGradient id="bg-7-2" x1="0" y1="0" x2="1" y2="1">
    <stop offset="0%" stop-color="#2DAA6E" stop-opacity="0.05"/>
    <stop offset="100%" stop-color="#A8E063" stop-opacity="0.03"/>
  </linearGradient>
</defs>
  <rect width="1280" height="720" fill="url(#bg-7-2)"/>
  <path d="M 667.4 434.3 C 706.1 436.7, 758.2 404.2, 776.3 419.9 C 794.4 435.7, 776.3 492.8, 776.0 528.8 C 775.8 564.9, 792.7 615.3, 774.6 636.1 C 756.5 656.9, 700.5 656.4, 667.4 653.8 C 634.2 651.2, 597.5 641.3, 575.7 620.5 C 553.9 599.7, 542.1 564.6, 536.8 528.8 C 531.6 493.0, 522.5 421.4, 544.2 405.7 C 566.0 389.9, 628.7 431.9, 667.4 434.3 Z" fill="#2DAA6E" opacity="0.06"/>
  <circle cx="523.1" cy="247.6" r="2.1" fill="#2DAA6E" opacity="0.08"/>
  <circle cx="295.6" cy="117.5" r="2.8" fill="#2DAA6E" opacity="0.08"/>
  <circle cx="814.8" cy="203.5" r="3.5" fill="#2DAA6E" opacity="0.08"/>
  <circle cx="138.8" cy="229.4" r="2.7" fill="#2DAA6E" opacity="0.08"/>
  <circle cx="868.3" cy="236.2" r="2.2" fill="#2DAA6E" opacity="0.08"/>
  <circle cx="430.0" cy="159.5" r="3.7" fill="#2DAA6E" opacity="0.08"/>
  <circle cx="998.5" cy="536.9" r="1.7" fill="#2DAA6E" opacity="0.08"/>
  <circle cx="1156.6" cy="158.3" r="2.0" fill="#2DAA6E" opacity="0.08"/>
  <circle cx="262.2" cy="445.7" r="3.9" fill="#2DAA6E" opacity="0.08"/>
  <circle cx="369.7" cy="579.6" r="4.0" fill="#2DAA6E" opacity="0.08"/>
  <circle cx="276.2" cy="233.7" r="1.6" fill="#2DAA6E" opacity="0.08"/>
  <circle cx="288.0" cy="350.1" r="31.5" fill="#2DAA6E" opacity="0.1"/>
  <circle cx="288.0" cy="350.1" r="31.5" fill="none" stroke="#2DAA6E" stroke-width="1.8" opacity="0.3"/>
  <circle cx="288.0" cy="350.1" r="7.6" fill="#2DAA6E" opacity="0.2"/>
  <path d="M 323.5 350.1 Q 405.3 320.7, 487.2 359.6" fill="none" stroke="#2DAA6E" stroke-width="1.5" opacity="0.25" stroke-linecap="round"/>
  <circle cx="485.2" cy="359.6" r="3" fill="#2DAA6E" opacity="0.3"/>
  <circle cx="522.7" cy="360.4" r="31.5" fill="#A8E063" opacity="0.1"/>
  <circle cx="522.7" cy="360.4" r="31.5" fill="none" stroke="#A8E063" stroke-width="1.8" opacity="0.3"/>
  <circle cx="522.7" cy="360.4" r="6.1" fill="#A8E063" opacity="0.2"/>
  <path d="M 558.2 360.4 Q 640.0 334.3, 721.8 365.8" fill="none" stroke="#2DAA6E" stroke-width="1.5" opacity="0.25" stroke-linecap="round"/>
  <circle cx="719.8" cy="365.8" r="3" fill="#2DAA6E" opacity="0.3"/>
  <circle cx="757.3" cy="369.7" r="31.5" fill="#2DAA6E" opacity="0.1"/>
  <circle cx="757.3" cy="369.7" r="31.5" fill="none" stroke="#2DAA6E" stroke-width="1.8" opacity="0.3"/>
  <circle cx="757.3" cy="369.7" r="8.0" fill="#2DAA6E" opacity="0.2"/>
  <path d="M 792.8 369.7 Q 874.7 344.9, 956.5 372.4" fill="none" stroke="#2DAA6E" stroke-width="1.5" opacity="0.25" stroke-linecap="round"/>
  <circle cx="954.5" cy="372.4" r="3" fill="#2DAA6E" opacity="0.3"/>
  <circle cx="992.0" cy="357.0" r="31.5" fill="#A8E063" opacity="0.1"/>
  <circle cx="992.0" cy="357.0" r="31.5" fill="none" stroke="#A8E063" stroke-width="1.8" opacity="0.3"/>
  <circle cx="992.0" cy="357.0" r="6.7" fill="#A8E063" opacity="0.2"/>

</svg>