<svg xmlns="http://www.w3.org/2000/svg" viewBox="0 0 1280 720" fill="none">
<defs>
  <linearGradient id="bg-14-4" x1="0" y1="0" x2="1" y2="1">
    <stop offset="0%" stop-color="#A8E063" stop-opacity="0.05"/>
    <stop offset="100%" stop-color="#2DAA6E" stop-opacity="0.03"/>
  </linearGradient>
</defs>
  <rect width="1280" height="720" fill="url(#bg-14-4)"/>
  <path d="M 803.5 50.0 C 831.1 53.6, 856.1 113.7, 875.5 140.9 C 894.8 168.1, 916.8 186.2, 919.5 212.9 C 922.2 239.5, 910.9 273.6, 891.5 300.9 C 872.2 328.2, 831.8 377.5, 803.5 376.4 C 775.2 375.3, 737.9 321.7, 721.9 294.5 C 706.0 267.2, 709.7 242.1, 707.7 212.9 C 705.7 183.6, 693.7 146.2, 709.6 119.0 C 725.6 91.9, 775.9 46.3, 803.5 50.0 Z" fill="#A8E063" opacity="0.05"/>
  <circle cx="743.5" cy="127.8" r="2.2" fill="#A8E063" opacity="0.09"/>
  <circle cx="809.6" cy="266.6" r="4.0" fill="#A8E063" opacity="0.09"/>
  <circle cx="881.0" cy="300.3" r="1.5" fill="#A8E063" opacity="0.09"/>
  <circle cx="95.9" cy="437.4" r="3.9" fill="#A8E063" opacity="0.09"/>
  <circle cx="695.5" cy="292.8" r="1.6" fill="#A8E063" opacity="0.09"/>
  <circle cx="155.3" cy="542.2" r="2.0" fill="#A8E063" opacity="0.09"/>
  <circle cx="1155.2" cy="250.6" r="2.7" fill="#A8E063" opacity="0.09"/>
  <circle cx="314.5" cy="149.9" r="3.7" fill="#A8E063" opacity="0.09"/>
  <circle cx="1021.3" cy="674.1" r="2.1" fill="#A8E063" opacity="0.09"/>
  <circle cx="886.4" cy="406.7" r="1.6" fill="#A8E063" opacity="0.09"/>
  <circle cx="68.3" cy="451.0" r="3.8" fill="#A8E063" opacity="0.09"/>
  <circle cx="640.0" cy="360.0" r="201.6" fill="#A8E063" opacity="0.05"/>
  <circle cx="640.0" cy="360.0" r="201.6" fill="none" stroke="#A8E063" stroke-width="2" opacity="0.25"/>
  <circle cx="640.0" cy="360.0" r="131.0" fill="none" stroke="#2DAA6E" stroke-width="1" opacity="0.12"/>
  <path d="M 640.0 360.0 L 640.0 158.4 A 201.6 201.6 0 0 1 841.6 360.0 Z" fill="#A8E063" opacity="0.050"/>
  <line x1="640.0" y1="360.0" x2="640.0" y2="158.4" stroke="#A8E063" stroke-width="1" opacity="0.12"/>
  <path d="M 640.0 360.0 L 841.6 360.0 A 201.6 201.6 0 0 1 640.0 561.6 Z" fill="#2DAA6E" opacity="0.075"/>
  <line x1="640.0" y1="360.0" x2="841.6" y2="360.0" stroke="#A8E063" stroke-width="1" opacity="0.12"/>
  <path d="M 640.0 360.0 L 640.0 561.6 A 201.6 201.6 0 0 1 438.4 360.0 Z" fill="#A8E063" opacity="0.100"/>
  <line x1="640.0" y1="360.0" x2="640.0" y2="561.6" stroke="#A8E063" stroke-width="1" opacity="0.12"/>
  <path d="M 640.0 360.0 L 438.4 360.0 A 201.6 201.6 0 0 1 640.0 158.4 Z" fill="#2DAA6E" opacity="0.125"/>
  <line x1="640.0" y1="360.0" x2="438.4" y2="360.0" stroke="#A8E063" stroke-width="1" opacity="0.12"/>
  <circle cx="640.0" cy="360.0" r="4" fill="#A8E063" opacity="0.3"/>

</svg>