<svg xmlns="http://www.w3.org/2000/svg" viewBox="0 0 1280 720" fill="none">
<defs>
  <linearGradient id="bg-14-2" x1="0" y1="0" x2="1" y2="1">
    <stop offset="0%" stop-color="#A8E063" stop-opacity="0.05"/>
    <stop offset="100%" stop-color="#2DAA6E" stop-opacity="0.03"/>
  </linearGradient>
</defs>
  <rect width="1280" height="720" fill="url(#bg-14-2)"/>
  <path d="M 829.1 18.7 C 862.0 17.3, 911.5 4.5, 931.7 22.1 C 951.8 39.8, 953.3 93.9, 949.9 124.7 C 946.5 155.5, 931.4 185.9, 911.2 206.9 C 891.1 227.9, 854.5 252.9, 829.1 250.9 C 803.6 249.0, 780.6 216.3, 758.5 195.3 C 736.5 174.2, 700.8 152.3, 696.8 124.7 C 692.8 97.2, 712.3 47.7, 734.4 30.0 C 756.4 12.3, 796.2 20.0, 829.1 18.7 Z" fill="#A8E063" opacity="0.07"/>
  <circle cx="109.5" cy="176.3" r="1.9" fill="#A8E063" opacity="0.09"/>
  <circle cx="1110.8" cy="453.9" r="4.0" fill="#A8E063" opacity="0.09"/>
  <circle cx="789.1" cy="464.8" r="2.1" fill="#A8E063" opacity="0.09"/>
  <circle cx="1216.5" cy="157.1" r="3.0" fill="#A8E063" opacity="0.09"/>
  <circle cx="913.1" cy="581.0" r="2.0" fill="#A8E063" opacity="0.09"/>
  <circle cx="89.7" cy="654.8" r="2.8" fill="#A8E063" opacity="0.09"/>
  <line x1="640.0" y1="144.0" x2="640.0" y2="576.0" stroke="#A8E063" stroke-width="1" opacity="0.15" stroke-dasharray="6 4"/>
  <path d="M 425.3 388.9 C 449.4 388.3, 492.2 406.8, 500.5 424.8 C 508.8 442.8, 487.9 475.3, 475.3 497.1 C 462.8 518.9, 445.5 553.7, 425.3 555.8 C 405.1 557.8, 365.5 530.6, 353.9 509.4 C 342.4 488.2, 344.3 448.4, 356.2 428.3 C 368.1 408.2, 401.3 389.5, 425.3 388.9 Z" fill="#2DAA6E" opacity="0.07"/>
  <path d="M 338.6 328.6 C 349.6 329.4, 359.6 334.0, 367.6 344.0 C 375.6 354.0, 391.6 378.1, 386.7 388.6 C 381.9 399.0, 351.5 408.5, 338.6 406.7 C 325.6 404.9, 315.4 389.0, 309.2 377.8 C 302.9 366.5, 296.3 347.4, 301.2 339.2 C 306.1 331.0, 327.5 327.8, 338.6 328.6 Z" fill="#2DAA6E" opacity="0.04"/>
  <path d="M 318.8 217.4 C 333.2 217.7, 353.5 221.2, 360.7 231.8 C 367.9 242.5, 369.2 268.8, 362.3 281.1 C 355.3 293.4, 331.8 306.4, 318.8 305.5 C 305.8 304.7, 291.6 288.6, 284.1 276.0 C 276.7 263.5, 268.3 240.0, 274.0 230.2 C 279.8 220.4, 304.4 217.1, 318.8 217.4 Z" fill="#2DAA6E" opacity="0.08"/>
  <line x1="281.6" y1="158.4" x2="512.0" y2="158.4" stroke="#2DAA6E" stroke-width="2" opacity="0.12" stroke-linecap="round"/>
  <path d="M 894.8 414.3 C 909.4 413.7, 934.4 418.8, 940.7 428.8 C 947.1 438.8, 936.8 460.0, 933.0 474.1 C 929.2 488.2, 928.6 506.0, 918.0 513.5 C 907.3 520.9, 883.0 524.7, 869.0 519.0 C 855.0 513.3, 836.6 493.7, 834.0 479.3 C 831.4 464.9, 843.4 443.3, 853.5 432.4 C 863.6 421.6, 880.3 414.9, 894.8 414.3 Z" fill="#A8E063" opacity="0.15"/>
  <path d="M 967.8 289.6 C 986.0 291.3, 1003.8 310.4, 1015.9 325.5 C 1028.0 340.7, 1043.3 363.5, 1040.3 380.4 C 1037.4 397.3, 1014.5 421.1, 998.2 427.0 C 982.0 432.9, 959.5 423.7, 942.8 415.8 C 926.1 408.0, 904.0 396.6, 898.0 379.8 C 892.0 363.1, 895.3 330.4, 906.9 315.3 C 918.6 300.3, 949.7 287.9, 967.8 289.6 Z" fill="#A8E063" opacity="0.12"/>
  <path d="M 844.1 229.3 C 860.0 229.2, 883.2 232.3, 892.1 242.9 C 900.9 253.6, 901.8 280.0, 897.2 293.3 C 892.5 306.7, 878.9 313.3, 864.3 323.2 C 849.7 333.1, 821.1 357.8, 809.6 352.7 C 798.2 347.5, 797.9 310.5, 795.7 292.3 C 793.5 274.1, 788.6 253.9, 796.7 243.4 C 804.7 233.0, 828.2 229.4, 844.1 229.3 Z" fill="#A8E063" opacity="0.16"/>
  <path d="M 878.6 350.7 C 892.3 350.7, 912.9 358.5, 919.6 368.4 C 926.2 378.3, 922.5 399.3, 918.3 410.2 C 914.0 421.0, 904.8 426.5, 894.1 433.4 C 883.5 440.2, 864.9 454.8, 854.4 451.3 C 843.9 447.7, 833.9 425.8, 831.1 411.9 C 828.3 398.1, 829.7 378.6, 837.6 368.4 C 845.5 358.2, 864.9 350.7, 878.6 350.7 Z" fill="#A8E063" opacity="0.09"/>
  <path d="M 864.8 401.7 C 876.1 401.9, 893.3 408.8, 898.0 416.8 C 902.7 424.9, 895.9 439.9, 892.9 449.7 C 890.0 459.5, 887.0 472.9, 880.4 475.7 C 873.9 478.5, 862.1 470.6, 853.7 466.5 C 845.2 462.4, 833.5 459.8, 829.6 451.4 C 825.7 442.9, 824.6 424.2, 830.5 415.9 C 836.4 407.7, 853.6 401.6, 864.8 401.7 Z" fill="#A8E063" opacity="0.10"/>
  <circle cx="713.5" cy="184.0" r="3.6" fill="#A8E063" opacity="0.12"/>
  <circle cx="938.7" cy="475.5" r="3.2" fill="#A8E063" opacity="0.12"/>
  <circle cx="1077.6" cy="303.9" r="4.8" fill="#A8E063" opacity="0.12"/>
  <circle cx="1061.8" cy="367.3" r="2.0" fill="#A8E063" opacity="0.12"/>
  <circle cx="971.7" cy="412.0" r="3.6" fill="#A8E063" opacity="0.12"/>
  <circle cx="1053.5" cy="334.5" r="2.9" fill="#A8E063" opacity="0.12"/>
  <circle cx="1028.2" cy="388.5" r="2.3" fill="#A8E063" opacity="0.12"/>
  <circle cx="727.9" cy="267.6" r="3.9" fill="#A8E063" opacity="0.12"/>
  <line x1="768.0" y1="158.4" x2="998.4" y2="158.4" stroke="#A8E063" stroke-width="2.5" opacity="0.2" stroke-linecap="round"/>
  <rect x="635.0" y="355.0" width="10" height="10" fill="#A8E063" opacity="0.2" transform="rotate(45 640.0 360.0)"/>

</svg>