<svg xmlns="http://www.w3.org/2000/svg" viewBox="0 0 1280 720" fill="none">
<defs>
  <linearGradient id="bg-14-5" x1="0" y1="0" x2="1" y2="1">
    <stop offset="0%" stop-color="#A8E063" stop-opacity="0.05"/>
    <stop offset="100%" stop-color="#2DAA6E" stop-opacity="0.03"/>
  </linearGradient>
</defs>
  <rect width="1280" height="720" fill="url(#bg-14-5)"/>
  <path d="M 956.4 110.9 C 990.3 114.8, 1023.7 144.6, 1046.6 169.3 C 1069.5 194.1, 1094.1 229.7, 1093.9 259.6 C 1093.7 289.5, 1068.3 323.7, 1045.4 348.6 C 1022.5 373.6, 983.4 411.9, 956.4 409.2 C 929.3 406.6, 904.2 357.6, 883.3 332.7 C 862.4 307.7, 837.5 290.7, 830.7 259.6 C 823.9 228.5, 821.8 170.8, 842.7 146.0 C 863.7 121.2, 922.4 107.0, 956.4 110.9 Z" fill="#A8E063" opacity="0.06"/>
  <path d="M 761.3 28.6 C 807.9 14.8, 919.3 -33.6, 942.6 -9.8 C 965.8 14.0, 913.5 123.6, 900.9 171.5 C 888.4 219.4, 890.5 241.1, 867.3 277.5 C 844.0 313.9, 795.4 391.1, 761.3 389.9 C 727.1 388.7, 692.1 306.9, 662.3 270.5 C 632.5 234.1, 582.6 204.4, 582.7 171.5 C 582.8 138.6, 633.1 96.9, 662.9 73.1 C 692.6 49.3, 714.7 42.5, 761.3 28.6 Z" fill="#2DAA6E" opacity="0.05"/>
  <circle cx="676.3" cy="476.5" r="3.3" fill="#A8E063" opacity="0.11"/>
  <circle cx="837.1" cy="513.8" r="2.3" fill="#A8E063" opacity="0.11"/>
  <circle cx="1112.0" cy="600.5" r="3.6" fill="#A8E063" opacity="0.11"/>
  <circle cx="123.9" cy="647.2" r="3.1" fill="#A8E063" opacity="0.11"/>
  <circle cx="334.1" cy="440.8" r="1.8" fill="#A8E063" opacity="0.11"/>
  <circle cx="227.7" cy="50.2" r="3.2" fill="#A8E063" opacity="0.11"/>
  <circle cx="898.8" cy="472.0" r="3.0" fill="#A8E063" opacity="0.11"/>
  <circle cx="870.3" cy="222.4" r="3.6" fill="#A8E063" opacity="0.11"/>
  <circle cx="542.5" cy="662.0" r="3.7" fill="#A8E063" opacity="0.11"/>
  <circle cx="738.5" cy="483.6" r="3.9" fill="#A8E063" opacity="0.11"/>
  <line x1="256.0" y1="360.0" x2="1024.0" y2="360.0" stroke="#A8E063" stroke-width="2" opacity="0.2" stroke-linecap="round"/>
  <line x1="256.0" y1="360.0" x2="793.6" y2="360.0" stroke="#A8E063" stroke-width="3" opacity="0.15" stroke-linecap="round"/>
  <circle cx="256.0" cy="360.0" r="5" fill="#A8E063" opacity="0.3"/>
  <rect x="188.8" y="210.4" width="134.4" height="129.6" rx="8" fill="#A8E063" opacity="0.07"/>
  <rect x="188.8" y="210.4" width="134.4" height="129.6" rx="8" fill="none" stroke="#A8E063" stroke-width="1" opacity="0.2"/>
  <line x1="256.0" y1="355.0" x2="256.0" y2="340.0" stroke="#A8E063" stroke-width="0.8" opacity="0.15"/>
  <line x1="211.9" y1="275.2" x2="300.1" y2="275.2" stroke="#A8E063" stroke-width="1.5" opacity="0.1" stroke-linecap="round"/>
  <circle cx="448.0" cy="360.0" r="5" fill="#2DAA6E" opacity="0.3"/>
  <rect x="380.8" y="380.0" width="134.4" height="129.6" rx="8" fill="#2DAA6E" opacity="0.07"/>
  <rect x="380.8" y="380.0" width="134.4" height="129.6" rx="8" fill="none" stroke="#2DAA6E" stroke-width="1" opacity="0.2"/>
  <line x1="448.0" y1="365.0" x2="448.0" y2="380.0" stroke="#2DAA6E" stroke-width="0.8" opacity="0.15"/>
  <line x1="414.5" y1="444.8" x2="481.5" y2="444.8" stroke="#2DAA6E" stroke-width="1.5" opacity="0.1" stroke-linecap="round"/>
  <circle cx="640.0" cy="360.0" r="5" fill="#A8E063" opacity="0.3"/>
  <rect x="572.8" y="210.4" width="134.4" height="129.6" rx="8" fill="#A8E063" opacity="0.07"/>
  <rect x="572.8" y="210.4" width="134.4" height="129.6" rx="8" fill="none" stroke="#A8E063" stroke-width="1" opacity="0.2"/>
  <line x1="640.0" y1="355.0" x2="640.0" y2="340.0" stroke="#A8E063" stroke-width="0.8" opacity="0.15"/>
  <line x1="598.5" y1="275.2" x2="681.5" y2="275.2" stroke="#A8E063" stroke-width="1.5" opacity="0.1" stroke-linecap="round"/>
  <circle cx="832.0" cy="360.0" r="5" fill="#2DAA6E" opacity="0.3"/>
  <rect x="764.8" y="380.0" width="134.4" height="129.6" rx="8" fill="#2DAA6E" opacity="0.07"/>
  <rect x="764.8" y="380.0" width="134.4" height="129.6" rx="8" fill="none" stroke="#2DAA6E" stroke-width="1" opacity="0.2"/>
  <line x1="832.0" y1="365.0" x2="832.0" y2="380.0" stroke="#2DAA6E" stroke-width="0.8" opacity="0.15"/>
  <line x1="800.1" y1="444.8" x2="863.9" y2="444.8" stroke="#2DAA6E" stroke-width="1.5" opacity="0.1" stroke-linecap="round"/>
  <circle cx="1024.0" cy="360.0" r="5" fill="#A8E063" opacity="0.3"/>
  <rect x="956.8" y="210.4" width="134.4" height="129.6" rx="8" fill="#A8E063" opacity="0.07"/>
  <rect x="956.8" y="210.4" width="134.4" height="129.6" rx="8" fill="none" stroke="#A8E063" stroke-width="1" opacity="0.2"/>
  <line x1="1024.0" y1="355.0" x2="1024.0" y2="340.0" stroke="#A8E063" stroke-width="0.8" opacity="0.15"/>
  <line x1="989.2" y1="275.2" x2="1058.8" y2="275.2" stroke="#A8E063" stroke-width="1.5" opacity="0.1" stroke-linecap="round"/>

</svg>