<svg xmlns="http://www.w3.org/2000/svg" viewBox="0 0 1280 720" fill="none">
<defs>
  <linearGradient id="bg-14-7" x1="0" y1="0" x2="1" y2="1">
    <stop offset="0%" stop-color="#A8E063" stop-opacity="0.05"/>
    <stop offset="100%" stop-color="#2DAA6E" stop-opacity="0.03"/>
  </linearGradient>
</defs>
  <rect width="1280" height="720" fill="url(#bg-14-7)"/>
  <path d="M 825.2 93.6 C 861.4 93.0, 905.7 131.6, 935.5 161.2 C 965.4 190.9, 1001.1 231.5, 1004.3 271.5 C 1007.5 311.5, 984.7 371.4, 954.9 401.2 C 925.0 431.0, 869.0 449.7, 825.2 450.3 C 781.5 450.8, 717.3 434.2, 692.3 404.4 C 667.4 374.6, 670.9 311.4, 675.3 271.5 C 679.7 231.6, 693.6 194.5, 718.6 164.9 C 743.6 135.2, 789.1 94.2, 825.2 93.6 Z" fill="#A8E063" opacity="0.05"/>
  <path d="M 769.6 372.9 C 813.5 371.5, 875.7 436.2, 905.4 476.1 C 935.1 515.9, 953.0 571.8, 947.8 611.8 C 942.5 651.8, 903.7 675.4, 874.0 716.2 C 844.3 757.0, 808.8 852.3, 769.6 856.7 C 730.4 861.1, 667.9 783.4, 638.9 742.5 C 609.8 701.7, 594.8 654.8, 595.4 611.8 C 595.9 568.8, 613.3 524.3, 642.3 484.5 C 671.4 444.7, 725.8 374.3, 769.6 372.9 Z" fill="#2DAA6E" opacity="0.06"/>
  <circle cx="894.1" cy="564.0" r="3.9" fill="#A8E063" opacity="0.08"/>
  <circle cx="282.1" cy="244.8" r="2.9" fill="#A8E063" opacity="0.08"/>
  <circle cx="844.7" cy="606.7" r="3.7" fill="#A8E063" opacity="0.08"/>
  <circle cx="833.9" cy="40.7" r="2.5" fill="#A8E063" opacity="0.08"/>
  <circle cx="681.0" cy="81.5" r="3.0" fill="#A8E063" opacity="0.08"/>
  <circle cx="283.9" cy="678.7" r="2.9" fill="#A8E063" opacity="0.08"/>
  <circle cx="93.5" cy="676.4" r="1.6" fill="#A8E063" opacity="0.08"/>
  <line x1="256.0" y1="360.0" x2="1024.0" y2="360.0" stroke="#A8E063" stroke-width="2" opacity="0.2" stroke-linecap="round"/>
  <line x1="256.0" y1="360.0" x2="793.6" y2="360.0" stroke="#A8E063" stroke-width="3" opacity="0.15" stroke-linecap="round"/>
  <circle cx="256.0" cy="360.0" r="5" fill="#A8E063" opacity="0.3"/>
  <rect x="188.8" y="210.4" width="134.4" height="129.6" rx="8" fill="#A8E063" opacity="0.07"/>
  <rect x="188.8" y="210.4" width="134.4" height="129.6" rx="8" fill="none" stroke="#A8E063" stroke-width="1" opacity="0.2"/>
  <line x1="256.0" y1="355.0" x2="256.0" y2="340.0" stroke="#A8E063" stroke-width="0.8" opacity="0.15"/>
  <line x1="209.8" y1="275.2" x2="302.2" y2="275.2" stroke="#A8E063" stroke-width="1.5" opacity="0.1" stroke-linecap="round"/>
  <circle cx="448.0" cy="360.0" r="5" fill="#2DAA6E" opacity="0.3"/>
  <rect x="380.8" y="380.0" width="134.4" height="129.6" rx="8" fill="#2DAA6E" opacity="0.07"/>
  <rect x="380.8" y="380.0" width="134.4" height="129.6" rx="8" fill="none" stroke="#2DAA6E" stroke-width="1" opacity="0.2"/>
  <line x1="448.0" y1="365.0" x2="448.0" y2="380.0" stroke="#2DAA6E" stroke-width="0.8" opacity="0.15"/>
  <line x1="417.1" y1="444.8" x2="478.9" y2="444.8" stroke="#2DAA6E" stroke-width="1.5" opacity="0.1" stroke-linecap="round"/>
  <circle cx="640.0" cy="360.0" r="5" fill="#A8E063" opacity="0.3"/>
  <rect x="572.8" y="210.4" width="134.4" height="129.6" rx="8" fill="#A8E063" opacity="0.07"/>
  <rect x="572.8" y="210.4" width="134.4" height="129.6" rx="8" fill="none" stroke="#A8E063" stroke-width="1" opacity="0.2"/>
  <line x1="640.0" y1="355.0" x2="640.0" y2="340.0" stroke="#A8E063" stroke-width="0.8" opacity="0.15"/>
  <line x1="593.1" y1="275.2" x2="686.9" y2="275.2" stroke="#A8E063" stroke-width="1.5" opacity="0.1" stroke-linecap="round"/>
  <circle cx="832.0" cy="360.0" r="5" fill="#2DAA6E" opacity="0.3"/>
  <rect x="764.8" y="380.0" width="134.4" height="129.6" rx="8" fill="#2DAA6E" opacity="0.07"/>
  <rect x="764.8" y="380.0" width="134.4" height="129.6" rx="8" fill="none" stroke="#2DAA6E" stroke-width="1" opacity="0.2"/>
  <line x1="832.0" y1="365.0" x2="832.0" y2="380.0" stroke="#2DAA6E" stroke-width="0.8" opacity="0.15"/>
  <line x1="789.5" y1="444.8" x2="874.5" y2="444.8" stroke="#2DAA6E" stroke-width="1.5" opacity="0.1" stroke-linecap="round"/>
  <circle cx="1024.0" cy="360.0" r="5" fill="#A8E063" opacity="0.3"/>
  <rect x="956.8" y="210.4" width="134.4" height="129.6" rx="8" fill="#A8E063" opacity="0.07"/>
  <rect x="956.8" y="210.4" width="134.4" height="129.6" rx="8" fill="none" stroke="#A8E063" stroke-width="1" opacity="0.2"/>
  <line x1="1024.0" y1="355.0" x2="1024.0" y2="340.0" stroke="#A8E063" stroke-width="0.8" opacity="0.15"/>
  <line x1="984.8" y1="275.2" x2="1063.2" y2="275.2" stroke="#A8E063" stroke-width="1.5" opacity="0.1" stroke-linecap="round"/>

</svg>