<svg xmlns="http://www.w3.org/2000/svg" viewBox="0 0 1280 720" fill="none">
<defs>
  <linearGradient id="bg-23-5" x1="0" y1="0" x2="1" y2="1">
    <stop offset="0%" stop-color="#F5A623" stop-opacity="0.05"/>
    <stop offset="100%" stop-color="#F5C518" stop-opacity="0.03"/>
  </linearGradient>
</defs>
  <rect width="1280" height="720" fill="url(#bg-23-5)"/>
  <path d="M 598.3 349.8 C 640.2 358.1, 675.9 393.7, 699.0 422.7 C 722.2 451.6, 729.4 482.0, 737.2 523.5 C 745.0 564.9, 769.2 645.9, 746.1 671.3 C 722.9 696.7, 645.4 678.0, 598.3 675.8 C 551.1 673.7, 490.2 683.8, 463.4 658.4 C 436.5 633.0, 439.8 571.1, 437.2 523.5 C 434.5 475.9, 420.7 401.7, 447.6 372.8 C 474.4 343.8, 556.3 341.4, 598.3 349.8 Z" fill="#F5A623" opacity="0.05"/>
  <path d="M 955.4 513.7 C 975.6 516.1, 992.1 513.5, 1008.8 524.2 C 1025.5 534.8, 1053.2 557.5, 1055.6 577.6 C 1057.9 597.8, 1039.6 627.0, 1022.9 645.2 C 1006.2 663.3, 980.0 684.5, 955.4 686.6 C 930.7 688.8, 893.2 676.1, 875.1 657.9 C 857.0 639.8, 844.8 602.4, 846.8 577.6 C 848.9 552.9, 869.1 520.1, 887.2 509.5 C 905.3 498.8, 935.1 511.2, 955.4 513.7 Z" fill="#F5C518" opacity="0.07"/>
  <circle cx="759.7" cy="56.7" r="2.0" fill="#F5A623" opacity="0.10"/>
  <circle cx="674.3" cy="242.8" r="2.9" fill="#F5A623" opacity="0.10"/>
  <circle cx="628.5" cy="53.5" r="3.2" fill="#F5A623" opacity="0.10"/>
  <circle cx="984.6" cy="331.7" r="3.8" fill="#F5A623" opacity="0.10"/>
  <circle cx="487.8" cy="502.4" r="3.7" fill="#F5A623" opacity="0.10"/>
  <circle cx="598.2" cy="593.3" r="1.7" fill="#F5A623" opacity="0.10"/>
  <circle cx="657.9" cy="129.0" r="3.2" fill="#F5A623" opacity="0.10"/>
  <circle cx="161.9" cy="318.1" r="2.4" fill="#F5A623" opacity="0.10"/>
  <circle cx="323.1" cy="568.2" r="3.5" fill="#F5A623" opacity="0.10"/>
  <circle cx="953.0" cy="253.1" r="1.5" fill="#F5A623" opacity="0.10"/>
  <rect x="243.2" y="162.0" width="255.2" height="191.0" rx="10" fill="#F5A623" opacity="0.09"/>
  <rect x="243.2" y="162.0" width="255.2" height="191.0" rx="10" fill="none" stroke="#F5A623" stroke-width="1.2" opacity="0.25"/>
  <circle cx="370.8" cy="190.8" r="14.3" fill="#F5A623" opacity="0.15"/>
  <line x1="299.7" y1="267.1" x2="441.9" y2="267.1" stroke="#F5A623" stroke-width="2" opacity="0.12" stroke-linecap="round"/>
  <line x1="284.7" y1="281.1" x2="456.9" y2="281.1" stroke="#F5A623" stroke-width="2" opacity="0.12" stroke-linecap="round"/>
  <rect x="512.4" y="162.0" width="255.2" height="191.0" rx="10" fill="#F5C518" opacity="0.15"/>
  <rect x="512.4" y="162.0" width="255.2" height="191.0" rx="10" fill="none" stroke="#F5C518" stroke-width="1.2" opacity="0.25"/>
  <circle cx="640.0" cy="185.1" r="11.2" fill="#F5C518" opacity="0.15"/>
  <line x1="550.8" y1="267.1" x2="729.2" y2="267.1" stroke="#F5C518" stroke-width="2" opacity="0.12" stroke-linecap="round"/>
  <line x1="572.6" y1="281.1" x2="707.4" y2="281.1" stroke="#F5C518" stroke-width="2" opacity="0.12" stroke-linecap="round"/>
  <rect x="781.6" y="162.0" width="255.2" height="191.0" rx="10" fill="#F5A623" opacity="0.10"/>
  <rect x="781.6" y="162.0" width="255.2" height="191.0" rx="10" fill="none" stroke="#F5A623" stroke-width="1.2" opacity="0.25"/>
  <circle cx="909.2" cy="191.4" r="15.8" fill="#F5A623" opacity="0.15"/>
  <line x1="828.9" y1="267.1" x2="989.5" y2="267.1" stroke="#F5A623" stroke-width="2" opacity="0.12" stroke-linecap="round"/>
  <line x1="829.8" y1="281.1" x2="988.6" y2="281.1" stroke="#F5A623" stroke-width="2" opacity="0.12" stroke-linecap="round"/>
  <rect x="243.2" y="367.0" width="255.2" height="191.0" rx="10" fill="#F5C518" opacity="0.12"/>
  <rect x="243.2" y="367.0" width="255.2" height="191.0" rx="10" fill="none" stroke="#F5C518" stroke-width="1.2" opacity="0.25"/>
  <circle cx="370.8" cy="393.0" r="12.2" fill="#F5C518" opacity="0.15"/>
  <line x1="289.1" y1="472.1" x2="452.5" y2="472.1" stroke="#F5C518" stroke-width="2" opacity="0.12" stroke-linecap="round"/>
  <line x1="279.4" y1="486.1" x2="462.2" y2="486.1" stroke="#F5C518" stroke-width="2" opacity="0.12" stroke-linecap="round"/>
  <rect x="512.4" y="367.0" width="255.2" height="191.0" rx="10" fill="#F5A623" opacity="0.11"/>
  <rect x="512.4" y="367.0" width="255.2" height="191.0" rx="10" fill="none" stroke="#F5A623" stroke-width="1.2" opacity="0.25"/>
  <circle cx="640.0" cy="393.6" r="14.9" fill="#F5A623" opacity="0.15"/>
  <line x1="552.5" y1="472.1" x2="727.5" y2="472.1" stroke="#F5A623" stroke-width="2" opacity="0.12" stroke-linecap="round"/>
  <line x1="542.3" y1="486.1" x2="737.7" y2="486.1" stroke="#F5A623" stroke-width="2" opacity="0.12" stroke-linecap="round"/>
  <rect x="781.6" y="367.0" width="255.2" height="191.0" rx="10" fill="#F5C518" opacity="0.10"/>
  <rect x="781.6" y="367.0" width="255.2" height="191.0" rx="10" fill="none" stroke="#F5C518" stroke-width="1.2" opacity="0.25"/>
  <circle cx="909.2" cy="392.8" r="10.5" fill="#F5C518" opacity="0.15"/>
  <line x1="808.6" y1="472.1" x2="1009.8" y2="472.1" stroke="#F5C518" stroke-width="2" opacity="0.12" stroke-linecap="round"/>
  <line x1="835.2" y1="486.1" x2="983.2" y2="486.1" stroke="#F5C518" stroke-width="2" opacity="0.12" stroke-linecap="round"/>

</svg>