<svg xmlns="http://www.w3.org/2000/svg" viewBox="0 0 1280 720" fill="none">
<defs>
  <linearGradient id="bg-23-6" x1="0" y1="0" x2="1" y2="1">
    <stop offset="0%" stop-color="#F5A623" stop-opacity="0.05"/>
    <stop offset="100%" stop-color="#F5C518" stop-opacity="0.03"/>
  </linearGradient>
</defs>
  <rect width="1280" height="720" fill="url(#bg-23-6)"/>
  <path d="M 488.0 46.4 C 517.9 46.9, 558.7 54.3, 576.1 73.5 C 593.4 92.7, 595.9 135.8, 592.3 161.6 C 588.7 187.4, 571.9 211.4, 554.5 228.1 C 537.1 244.9, 513.0 259.4, 488.0 262.3 C 462.9 265.1, 422.4 262.0, 404.3 245.2 C 386.2 228.4, 380.5 190.7, 379.2 161.6 C 378.0 132.4, 378.6 89.5, 396.7 70.3 C 414.8 51.1, 458.1 45.9, 488.0 46.4 Z" fill="#F5A623" opacity="0.05"/>
  <circle cx="1142.3" cy="329.1" r="3.4" fill="#F5A623" opacity="0.11"/>
  <circle cx="1078.9" cy="125.6" r="2.4" fill="#F5A623" opacity="0.11"/>
  <circle cx="312.8" cy="442.3" r="3.9" fill="#F5A623" opacity="0.11"/>
  <circle cx="648.9" cy="292.1" r="3.0" fill="#F5A623" opacity="0.11"/>
  <circle cx="150.2" cy="618.8" r="2.0" fill="#F5A623" opacity="0.11"/>
  <circle cx="226.8" cy="296.2" r="1.9" fill="#F5A623" opacity="0.11"/>
  <circle cx="698.6" cy="644.6" r="3.7" fill="#F5A623" opacity="0.11"/>
  <circle cx="716.7" cy="640.3" r="3.5" fill="#F5A623" opacity="0.11"/>
  <circle cx="684.9" cy="312.6" r="3.2" fill="#F5A623" opacity="0.11"/>
  <circle cx="106.8" cy="582.4" r="3.1" fill="#F5A623" opacity="0.11"/>
  <circle cx="640.0" cy="360.0" r="32.9" fill="#F5A623" opacity="0.12"/>
  <circle cx="640.0" cy="360.0" r="32.9" fill="none" stroke="#F5A623" stroke-width="2" opacity="0.35"/>
  <circle cx="640.0" cy="360.0" r="13.2" fill="#F5A623" opacity="0.15"/>
  <line x1="640.0" y1="327.1" x2="640.0" y2="151.9" stroke="#F5A623" stroke-width="1.5" opacity="0.2"/>
  <circle cx="640.0" cy="151.9" r="17.3" fill="#F5A623" opacity="0.1"/>
  <circle cx="640.0" cy="151.9" r="17.3" fill="none" stroke="#F5A623" stroke-width="1.2" opacity="0.3"/>
  <circle cx="640.0" cy="151.9" r="3" fill="#F5A623" opacity="0.25"/>
  <line x1="668.5" y1="343.6" x2="817.4" y2="257.6" stroke="#F5C518" stroke-width="1.5" opacity="0.2"/>
  <circle cx="817.4" cy="257.6" r="11.1" fill="#F5C518" opacity="0.1"/>
  <circle cx="817.4" cy="257.6" r="11.1" fill="none" stroke="#F5C518" stroke-width="1.2" opacity="0.3"/>
  <circle cx="817.4" cy="257.6" r="3" fill="#F5C518" opacity="0.25"/>
  <line x1="668.5" y1="376.4" x2="811.9" y2="459.3" stroke="#F5A623" stroke-width="1.5" opacity="0.2"/>
  <circle cx="811.9" cy="459.3" r="17.6" fill="#F5A623" opacity="0.1"/>
  <circle cx="811.9" cy="459.3" r="17.6" fill="none" stroke="#F5A623" stroke-width="1.2" opacity="0.3"/>
  <circle cx="811.9" cy="459.3" r="3" fill="#F5A623" opacity="0.25"/>
  <line x1="640.0" y1="392.9" x2="640.0" y2="568.8" stroke="#F5C518" stroke-width="1.5" opacity="0.2"/>
  <circle cx="640.0" cy="568.8" r="16.7" fill="#F5C518" opacity="0.1"/>
  <circle cx="640.0" cy="568.8" r="16.7" fill="none" stroke="#F5C518" stroke-width="1.2" opacity="0.3"/>
  <circle cx="640.0" cy="568.8" r="3" fill="#F5C518" opacity="0.25"/>
  <line x1="611.5" y1="376.4" x2="466.0" y2="460.5" stroke="#F5A623" stroke-width="1.5" opacity="0.2"/>
  <circle cx="466.0" cy="460.5" r="13.3" fill="#F5A623" opacity="0.1"/>
  <circle cx="466.0" cy="460.5" r="13.3" fill="none" stroke="#F5A623" stroke-width="1.2" opacity="0.3"/>
  <circle cx="466.0" cy="460.5" r="3" fill="#F5A623" opacity="0.25"/>
  <line x1="611.5" y1="343.6" x2="462.5" y2="257.5" stroke="#F5C518" stroke-width="1.5" opacity="0.2"/>
  <circle cx="462.5" cy="257.5" r="15.1" fill="#F5C518" opacity="0.1"/>
  <circle cx="462.5" cy="257.5" r="15.1" fill="none" stroke="#F5C518" stroke-width="1.2" opacity="0.3"/>
  <circle cx="462.5" cy="257.5" r="3" fill="#F5C518" opacity="0.25"/>

</svg>