<svg xmlns="http://www.w3.org/2000/svg" viewBox="0 0 1280 720" fill="none">
<defs>
  <linearGradient id="bg-18-3" x1="0" y1="0" x2="1" y2="1">
    <stop offset="0%" stop-color="#F5C518" stop-opacity="0.05"/>
    <stop offset="100%" stop-color="#F5A623" stop-opacity="0.03"/>
  </linearGradient>
</defs>
  <rect width="1280" height="720" fill="url(#bg-18-3)"/>
  <path d="M 822.4 374.1 C 845.8 372.6, 884.8 359.1, 897.0 371.0 C 909.2 382.9, 899.0 424.1, 895.6 445.6 C 892.2 467.1, 888.9 483.9, 876.7 499.9 C 864.5 515.8, 843.3 538.3, 822.4 541.1 C 801.6 543.9, 767.5 532.6, 751.4 516.7 C 735.2 500.8, 724.5 468.4, 725.4 445.6 C 726.3 422.8, 740.6 391.9, 756.8 380.0 C 773.0 368.1, 799.1 375.6, 822.4 374.1 Z" fill="#F5C518" opacity="0.05"/>
  <path d="M 418.1 238.1 C 446.8 244.3, 463.7 243.8, 485.5 258.4 C 507.4 273.1, 544.3 298.6, 549.2 325.9 C 554.0 353.2, 536.3 403.5, 514.5 422.3 C 492.6 441.0, 450.6 437.9, 418.1 438.3 C 385.6 438.7, 333.8 443.4, 319.3 424.6 C 304.9 405.9, 332.3 359.8, 331.3 325.9 C 330.3 292.0, 298.9 235.8, 313.3 221.1 C 327.8 206.5, 389.4 231.9, 418.1 238.1 Z" fill="#F5A623" opacity="0.05"/>
  <circle cx="764.3" cy="349.1" r="2.0" fill="#F5C518" opacity="0.09"/>
  <circle cx="797.2" cy="303.4" r="1.7" fill="#F5C518" opacity="0.09"/>
  <circle cx="613.8" cy="250.3" r="1.9" fill="#F5C518" opacity="0.09"/>
  <circle cx="777.5" cy="592.5" r="2.2" fill="#F5C518" opacity="0.09"/>
  <circle cx="206.1" cy="677.8" r="2.2" fill="#F5C518" opacity="0.09"/>
  <circle cx="781.5" cy="234.5" r="1.9" fill="#F5C518" opacity="0.09"/>
  <circle cx="720.0" cy="300.8" r="2.6" fill="#F5C518" opacity="0.09"/>
  <circle cx="389.7" cy="157.2" r="3.6" fill="#F5C518" opacity="0.09"/>
  <line x1="256.0" y1="360.0" x2="1024.0" y2="360.0" stroke="#F5C518" stroke-width="2" opacity="0.2" stroke-linecap="round"/>
  <line x1="256.0" y1="360.0" x2="793.6" y2="360.0" stroke="#F5C518" stroke-width="3" opacity="0.15" stroke-linecap="round"/>
  <circle cx="256.0" cy="360.0" r="5" fill="#F5C518" opacity="0.3"/>
  <rect x="188.8" y="210.4" width="134.4" height="129.6" rx="8" fill="#F5C518" opacity="0.07"/>
  <rect x="188.8" y="210.4" width="134.4" height="129.6" rx="8" fill="none" stroke="#F5C518" stroke-width="1" opacity="0.2"/>
  <line x1="256.0" y1="355.0" x2="256.0" y2="340.0" stroke="#F5C518" stroke-width="0.8" opacity="0.15"/>
  <line x1="224.4" y1="275.2" x2="287.6" y2="275.2" stroke="#F5C518" stroke-width="1.5" opacity="0.1" stroke-linecap="round"/>
  <circle cx="448.0" cy="360.0" r="5" fill="#F5A623" opacity="0.3"/>
  <rect x="380.8" y="380.0" width="134.4" height="129.6" rx="8" fill="#F5A623" opacity="0.07"/>
  <rect x="380.8" y="380.0" width="134.4" height="129.6" rx="8" fill="none" stroke="#F5A623" stroke-width="1" opacity="0.2"/>
  <line x1="448.0" y1="365.0" x2="448.0" y2="380.0" stroke="#F5A623" stroke-width="0.8" opacity="0.15"/>
  <line x1="412.2" y1="444.8" x2="483.8" y2="444.8" stroke="#F5A623" stroke-width="1.5" opacity="0.1" stroke-linecap="round"/>
  <circle cx="640.0" cy="360.0" r="5" fill="#F5C518" opacity="0.3"/>
  <rect x="572.8" y="210.4" width="134.4" height="129.6" rx="8" fill="#F5C518" opacity="0.07"/>
  <rect x="572.8" y="210.4" width="134.4" height="129.6" rx="8" fill="none" stroke="#F5C518" stroke-width="1" opacity="0.2"/>
  <line x1="640.0" y1="355.0" x2="640.0" y2="340.0" stroke="#F5C518" stroke-width="0.8" opacity="0.15"/>
  <line x1="608.9" y1="275.2" x2="671.1" y2="275.2" stroke="#F5C518" stroke-width="1.5" opacity="0.1" stroke-linecap="round"/>
  <circle cx="832.0" cy="360.0" r="5" fill="#F5A623" opacity="0.3"/>
  <rect x="764.8" y="380.0" width="134.4" height="129.6" rx="8" fill="#F5A623" opacity="0.07"/>
  <rect x="764.8" y="380.0" width="134.4" height="129.6" rx="8" fill="none" stroke="#F5A623" stroke-width="1" opacity="0.2"/>
  <line x1="832.0" y1="365.0" x2="832.0" y2="380.0" stroke="#F5A623" stroke-width="0.8" opacity="0.15"/>
  <line x1="797.7" y1="444.8" x2="866.3" y2="444.8" stroke="#F5A623" stroke-width="1.5" opacity="0.1" stroke-linecap="round"/>
  <circle cx="1024.0" cy="360.0" r="5" fill="#F5C518" opacity="0.3"/>
  <rect x="956.8" y="210.4" width="134.4" height="129.6" rx="8" fill="#F5C518" opacity="0.07"/>
  <rect x="956.8" y="210.4" width="134.4" height="129.6" rx="8" fill="none" stroke="#F5C518" stroke-width="1" opacity="0.2"/>
  <line x1="1024.0" y1="355.0" x2="1024.0" y2="340.0" stroke="#F5C518" stroke-width="0.8" opacity="0.15"/>
  <line x1="981.5" y1="275.2" x2="1066.5" y2="275.2" stroke="#F5C518" stroke-width="1.5" opacity="0.1" stroke-linecap="round"/>

</svg>