<svg xmlns="http://www.w3.org/2000/svg" viewBox="0 0 1280 720" fill="none">
<defs>
  <linearGradient id="bg-18-6" x1="0" y1="0" x2="1" y2="1">
    <stop offset="0%" stop-color="#F5C518" stop-opacity="0.05"/>
    <stop offset="100%" stop-color="#F5A623" stop-opacity="0.03"/>
  </linearGradient>
</defs>
  <rect width="1280" height="720" fill="url(#bg-18-6)"/>
  <path d="M 899.5 518.6 C 926.7 515.7, 968.2 505.2, 989.6 520.6 C 1011.0 535.9, 1028.0 580.8, 1027.8 610.7 C 1027.7 640.5, 1009.9 682.1, 988.5 699.7 C 967.1 717.2, 930.0 715.1, 899.5 715.9 C 869.0 716.8, 819.9 722.2, 805.5 704.7 C 791.0 687.1, 809.4 638.5, 812.9 610.7 C 816.4 582.8, 811.9 552.9, 826.3 537.5 C 840.8 522.2, 872.3 521.4, 899.5 518.6 Z" fill="#F5C518" opacity="0.05"/>
  <circle cx="473.4" cy="82.8" r="3.1" fill="#F5C518" opacity="0.10"/>
  <circle cx="503.9" cy="544.3" r="2.0" fill="#F5C518" opacity="0.10"/>
  <circle cx="701.4" cy="384.1" r="3.4" fill="#F5C518" opacity="0.10"/>
  <circle cx="902.5" cy="372.9" r="3.8" fill="#F5C518" opacity="0.10"/>
  <circle cx="820.4" cy="189.9" r="2.4" fill="#F5C518" opacity="0.10"/>
  <circle cx="206.9" cy="167.0" r="2.9" fill="#F5C518" opacity="0.10"/>
  <circle cx="206.3" cy="134.6" r="3.4" fill="#F5C518" opacity="0.10"/>
  <circle cx="411.6" cy="628.4" r="2.6" fill="#F5C518" opacity="0.10"/>
  <line x1="256.0" y1="360.0" x2="1024.0" y2="360.0" stroke="#F5C518" stroke-width="2" opacity="0.2" stroke-linecap="round"/>
  <line x1="256.0" y1="360.0" x2="793.6" y2="360.0" stroke="#F5C518" stroke-width="3" opacity="0.15" stroke-linecap="round"/>
  <circle cx="256.0" cy="360.0" r="5" fill="#F5C518" opacity="0.3"/>
  <rect x="188.8" y="210.4" width="134.4" height="129.6" rx="8" fill="#F5C518" opacity="0.07"/>
  <rect x="188.8" y="210.4" width="134.4" height="129.6" rx="8" fill="none" stroke="#F5C518" stroke-width="1" opacity="0.2"/>
  <line x1="256.0" y1="355.0" x2="256.0" y2="340.0" stroke="#F5C518" stroke-width="0.8" opacity="0.15"/>
  <line x1="215.6" y1="275.2" x2="296.4" y2="275.2" stroke="#F5C518" stroke-width="1.5" opacity="0.1" stroke-linecap="round"/>
  <circle cx="448.0" cy="360.0" r="5" fill="#F5A623" opacity="0.3"/>
  <rect x="380.8" y="380.0" width="134.4" height="129.6" rx="8" fill="#F5A623" opacity="0.07"/>
  <rect x="380.8" y="380.0" width="134.4" height="129.6" rx="8" fill="none" stroke="#F5A623" stroke-width="1" opacity="0.2"/>
  <line x1="448.0" y1="365.0" x2="448.0" y2="380.0" stroke="#F5A623" stroke-width="0.8" opacity="0.15"/>
  <line x1="416.6" y1="444.8" x2="479.4" y2="444.8" stroke="#F5A623" stroke-width="1.5" opacity="0.1" stroke-linecap="round"/>
  <circle cx="640.0" cy="360.0" r="5" fill="#F5C518" opacity="0.3"/>
  <rect x="572.8" y="210.4" width="134.4" height="129.6" rx="8" fill="#F5C518" opacity="0.07"/>
  <rect x="572.8" y="210.4" width="134.4" height="129.6" rx="8" fill="none" stroke="#F5C518" stroke-width="1" opacity="0.2"/>
  <line x1="640.0" y1="355.0" x2="640.0" y2="340.0" stroke="#F5C518" stroke-width="0.8" opacity="0.15"/>
  <line x1="605.3" y1="275.2" x2="674.7" y2="275.2" stroke="#F5C518" stroke-width="1.5" opacity="0.1" stroke-linecap="round"/>
  <circle cx="832.0" cy="360.0" r="5" fill="#F5A623" opacity="0.3"/>
  <rect x="764.8" y="380.0" width="134.4" height="129.6" rx="8" fill="#F5A623" opacity="0.07"/>
  <rect x="764.8" y="380.0" width="134.4" height="129.6" rx="8" fill="none" stroke="#F5A623" stroke-width="1" opacity="0.2"/>
  <line x1="832.0" y1="365.0" x2="832.0" y2="380.0" stroke="#F5A623" stroke-width="0.8" opacity="0.15"/>
  <line x1="791.2" y1="444.8" x2="872.8" y2="444.8" stroke="#F5A623" stroke-width="1.5" opacity="0.1" stroke-linecap="round"/>
  <circle cx="1024.0" cy="360.0" r="5" fill="#F5C518" opacity="0.3"/>
  <rect x="956.8" y="210.4" width="134.4" height="129.6" rx="8" fill="#F5C518" opacity="0.07"/>
  <rect x="956.8" y="210.4" width="134.4" height="129.6" rx="8" fill="none" stroke="#F5C518" stroke-width="1" opacity="0.2"/>
  <line x1="1024.0" y1="355.0" x2="1024.0" y2="340.0" stroke="#F5C518" stroke-width="0.8" opacity="0.15"/>
  <line x1="986.6" y1="275.2" x2="1061.4" y2="275.2" stroke="#F5C518" stroke-width="1.5" opacity="0.1" stroke-linecap="round"/>

</svg>