<svg xmlns="http://www.w3.org/2000/svg" viewBox="0 0 1280 720" fill="none">
<defs>
  <linearGradient id="bg-grad-16" x1="0" y1="0" x2="1" y2="1">
    <stop offset="0%" stop-color="#F5C518" stop-opacity="0.06"/>
    <stop offset="100%" stop-color="#F5A623" stop-opacity="0.03"/>
  </linearGradient>
</defs>
  <rect width="1280" height="720" fill="url(#bg-grad-16)"/>
  <path d="M 879.8 149.4 C 918.3 151.6, 954.7 169.6, 988.7 195.4 C 1022.7 221.2, 1081.9 266.1, 1083.9 304.3 C 1085.8 342.5, 1034.4 386.7, 1000.4 424.9 C 966.3 463.1, 918.2 535.2, 879.8 533.4 C 841.4 531.7, 813.8 452.4, 769.9 414.2 C 725.9 376.0, 618.1 343.0, 616.1 304.3 C 614.0 265.6, 713.7 208.0, 757.6 182.2 C 801.6 156.4, 841.3 147.2, 879.8 149.4 Z" fill="#F5C518" opacity="0.10"/>
  <path d="M 563.2 207.8 C 591.4 209.7, 620.7 223.7, 642.3 242.7 C 663.9 261.7, 694.0 296.6, 692.9 321.8 C 691.7 347.1, 657.3 375.8, 635.6 394.3 C 614.0 412.7, 585.2 434.7, 563.2 432.6 C 541.2 430.5, 523.2 399.9, 503.6 381.5 C 483.9 363.0, 450.5 346.8, 445.4 321.8 C 440.4 296.9, 453.5 250.7, 473.1 231.7 C 492.7 212.7, 535.0 206.0, 563.2 207.8 Z" fill="#F5A623" opacity="0.09"/>
  <circle cx="829.7" cy="119.4" r="2.4" fill="#F5C518" opacity="0.14"/>
  <circle cx="81.7" cy="630.9" r="4.0" fill="#F5C518" opacity="0.14"/>
  <circle cx="1028.8" cy="283.2" r="4.5" fill="#F5C518" opacity="0.14"/>
  <circle cx="166.7" cy="158.5" r="4.6" fill="#F5C518" opacity="0.14"/>
  <circle cx="402.2" cy="434.8" r="3.1" fill="#F5C518" opacity="0.14"/>
  <circle cx="1105.8" cy="200.8" r="4.1" fill="#F5C518" opacity="0.14"/>
  <circle cx="656.4" cy="557.6" r="4.1" fill="#F5C518" opacity="0.14"/>
  <circle cx="915.8" cy="107.7" r="3.8" fill="#F5C518" opacity="0.14"/>
  <circle cx="893.2" cy="175.8" r="2.2" fill="#F5C518" opacity="0.14"/>
  <circle cx="963.9" cy="340.0" r="3.2" fill="#F5C518" opacity="0.14"/>
  <circle cx="494.4" cy="163.9" r="4.9" fill="#F5C518" opacity="0.14"/>
  <circle cx="1120.4" cy="369.5" r="2.7" fill="#F5C518" opacity="0.14"/>
  <circle cx="961.4" cy="193.5" r="4.5" fill="#F5C518" opacity="0.14"/>
  <circle cx="873.5" cy="617.2" r="5.0" fill="#F5C518" opacity="0.14"/>
  <circle cx="767.9" cy="336.6" r="2.8" fill="#F5C518" opacity="0.14"/>
  <circle cx="526.2" cy="572.4" r="3.4" fill="#F5C518" opacity="0.14"/>
  <circle cx="789.6" cy="352.3" r="3.1" fill="#F5C518" opacity="0.14"/>
  <circle cx="1035.6" cy="322.5" r="4.1" fill="#F5C518" opacity="0.14"/>
  <path d="M 80 229.9550222698599 C 411.4210134372115 224.0248077083379, 811.4325119648129 570.3715503681451, 1200 571.760615427047" fill="none" stroke="#F5A623" stroke-width="2" opacity="0.1" stroke-linecap="round"/>

  <circle cx="640" cy="350" r="100" fill="#F5C518" opacity="0.06"/>
  <circle cx="640" cy="350" r="100" fill="none" stroke="#F5C518" stroke-width="2" opacity="0.3"/>
  <circle cx="640" cy="350" r="75" fill="none" stroke="#F5A623" stroke-width="1" opacity="0.15"/>
  <line x1="640" y1="250" x2="640" y2="450" stroke="#F5A623" stroke-width="1" opacity="0.15"/>
  <line x1="540" y1="350" x2="740" y2="350" stroke="#F5A623" stroke-width="1" opacity="0.15"/>
  <path d="M 640 275 A 75 75 0 0 1 715 350" fill="#F5C518" opacity="0.1"/>
  <path d="M 640 275 A 75 75 0 0 0 565 350" fill="#F5A623" opacity="0.08"/>
  <path d="M 565 350 A 75 75 0 0 0 640 425" fill="#F5C518" opacity="0.06"/>
  <path d="M 640 425 A 75 75 0 0 0 715 350" fill="#F5A623" opacity="0.12"/>
</svg>