<svg xmlns="http://www.w3.org/2000/svg" viewBox="0 0 1280 720" fill="none">
<defs>
  <linearGradient id="bg-16-5" x1="0" y1="0" x2="1" y2="1">
    <stop offset="0%" stop-color="#F5C518" stop-opacity="0.05"/>
    <stop offset="100%" stop-color="#F5A623" stop-opacity="0.03"/>
  </linearGradient>
</defs>
  <rect width="1280" height="720" fill="url(#bg-16-5)"/>
  <path d="M 265.2 190.1 C 296.4 195.1, 321.3 241.2, 343.7 267.2 C 366.1 293.1, 399.7 319.5, 399.7 345.6 C 399.7 371.8, 365.8 407.7, 343.4 423.8 C 321.0 440.0, 295.0 438.7, 265.2 442.4 C 235.5 446.1, 185.2 462.2, 164.8 446.1 C 144.4 429.9, 144.3 380.4, 143.0 345.6 C 141.6 310.8, 136.5 263.2, 156.9 237.3 C 177.3 211.4, 234.1 185.1, 265.2 190.1 Z" fill="#F5C518" opacity="0.05"/>
  <path d="M 1073.3 175.9 C 1099.6 173.3, 1135.9 166.5, 1159.8 182.0 C 1183.8 197.4, 1214.7 237.1, 1217.2 268.5 C 1219.8 299.9, 1199.0 354.9, 1175.0 370.2 C 1151.0 385.6, 1105.1 362.7, 1073.3 360.6 C 1041.5 358.5, 1001.3 373.1, 984.1 357.7 C 966.9 342.4, 967.3 295.3, 970.3 268.5 C 973.3 241.8, 984.8 212.6, 1001.9 197.2 C 1019.1 181.7, 1047.0 178.4, 1073.3 175.9 Z" fill="#F5A623" opacity="0.05"/>
  <circle cx="1042.3" cy="577.4" r="2.1" fill="#F5C518" opacity="0.06"/>
  <circle cx="261.3" cy="620.5" r="1.7" fill="#F5C518" opacity="0.06"/>
  <circle cx="791.8" cy="492.4" r="2.9" fill="#F5C518" opacity="0.06"/>
  <circle cx="916.3" cy="572.7" r="1.8" fill="#F5C518" opacity="0.06"/>
  <circle cx="1172.2" cy="219.0" r="1.9" fill="#F5C518" opacity="0.06"/>
  <circle cx="147.8" cy="80.2" r="1.7" fill="#F5C518" opacity="0.06"/>
  <circle cx="532.2" cy="46.2" r="1.8" fill="#F5C518" opacity="0.06"/>
  <line x1="256.0" y1="360.0" x2="1024.0" y2="360.0" stroke="#F5C518" stroke-width="2" opacity="0.2" stroke-linecap="round"/>
  <line x1="256.0" y1="360.0" x2="793.6" y2="360.0" stroke="#F5C518" stroke-width="3" opacity="0.15" stroke-linecap="round"/>
  <circle cx="256.0" cy="360.0" r="5" fill="#F5C518" opacity="0.3"/>
  <rect x="188.8" y="210.4" width="134.4" height="129.6" rx="8" fill="#F5C518" opacity="0.07"/>
  <rect x="188.8" y="210.4" width="134.4" height="129.6" rx="8" fill="none" stroke="#F5C518" stroke-width="1" opacity="0.2"/>
  <line x1="256.0" y1="355.0" x2="256.0" y2="340.0" stroke="#F5C518" stroke-width="0.8" opacity="0.15"/>
  <line x1="223.6" y1="275.2" x2="288.4" y2="275.2" stroke="#F5C518" stroke-width="1.5" opacity="0.1" stroke-linecap="round"/>
  <circle cx="448.0" cy="360.0" r="5" fill="#F5A623" opacity="0.3"/>
  <rect x="380.8" y="380.0" width="134.4" height="129.6" rx="8" fill="#F5A623" opacity="0.07"/>
  <rect x="380.8" y="380.0" width="134.4" height="129.6" rx="8" fill="none" stroke="#F5A623" stroke-width="1" opacity="0.2"/>
  <line x1="448.0" y1="365.0" x2="448.0" y2="380.0" stroke="#F5A623" stroke-width="0.8" opacity="0.15"/>
  <line x1="407.2" y1="444.8" x2="488.8" y2="444.8" stroke="#F5A623" stroke-width="1.5" opacity="0.1" stroke-linecap="round"/>
  <circle cx="640.0" cy="360.0" r="5" fill="#F5C518" opacity="0.3"/>
  <rect x="572.8" y="210.4" width="134.4" height="129.6" rx="8" fill="#F5C518" opacity="0.07"/>
  <rect x="572.8" y="210.4" width="134.4" height="129.6" rx="8" fill="none" stroke="#F5C518" stroke-width="1" opacity="0.2"/>
  <line x1="640.0" y1="355.0" x2="640.0" y2="340.0" stroke="#F5C518" stroke-width="0.8" opacity="0.15"/>
  <line x1="594.7" y1="275.2" x2="685.3" y2="275.2" stroke="#F5C518" stroke-width="1.5" opacity="0.1" stroke-linecap="round"/>
  <circle cx="832.0" cy="360.0" r="5" fill="#F5A623" opacity="0.3"/>
  <rect x="764.8" y="380.0" width="134.4" height="129.6" rx="8" fill="#F5A623" opacity="0.07"/>
  <rect x="764.8" y="380.0" width="134.4" height="129.6" rx="8" fill="none" stroke="#F5A623" stroke-width="1" opacity="0.2"/>
  <line x1="832.0" y1="365.0" x2="832.0" y2="380.0" stroke="#F5A623" stroke-width="0.8" opacity="0.15"/>
  <line x1="787.4" y1="444.8" x2="876.6" y2="444.8" stroke="#F5A623" stroke-width="1.5" opacity="0.1" stroke-linecap="round"/>
  <circle cx="1024.0" cy="360.0" r="5" fill="#F5C518" opacity="0.3"/>
  <rect x="956.8" y="210.4" width="134.4" height="129.6" rx="8" fill="#F5C518" opacity="0.07"/>
  <rect x="956.8" y="210.4" width="134.4" height="129.6" rx="8" fill="none" stroke="#F5C518" stroke-width="1" opacity="0.2"/>
  <line x1="1024.0" y1="355.0" x2="1024.0" y2="340.0" stroke="#F5C518" stroke-width="0.8" opacity="0.15"/>
  <line x1="984.9" y1="275.2" x2="1063.1" y2="275.2" stroke="#F5C518" stroke-width="1.5" opacity="0.1" stroke-linecap="round"/>

</svg>