<svg xmlns="http://www.w3.org/2000/svg" viewBox="0 0 1280 720" fill="none">
<defs>
  <linearGradient id="bg-16-2" x1="0" y1="0" x2="1" y2="1">
    <stop offset="0%" stop-color="#F5C518" stop-opacity="0.05"/>
    <stop offset="100%" stop-color="#F5A623" stop-opacity="0.03"/>
  </linearGradient>
</defs>
  <rect width="1280" height="720" fill="url(#bg-16-2)"/>
  <path d="M 553.9 23.9 C 572.0 25.8, 590.9 51.9, 602.8 67.3 C 614.8 82.6, 624.9 99.1, 625.7 116.2 C 626.5 133.3, 619.4 154.6, 607.4 169.7 C 595.4 184.8, 572.9 205.7, 553.9 206.8 C 534.9 208.0, 512.6 191.8, 493.4 176.7 C 474.2 161.6, 438.5 136.3, 438.6 116.2 C 438.6 96.1, 474.6 71.6, 493.8 56.2 C 513.0 40.8, 535.7 22.1, 553.9 23.9 Z" fill="#F5C518" opacity="0.04"/>
  <circle cx="102.1" cy="280.6" r="2.6" fill="#F5C518" opacity="0.06"/>
  <circle cx="330.5" cy="133.9" r="2.8" fill="#F5C518" opacity="0.06"/>
  <circle cx="941.1" cy="671.1" r="2.3" fill="#F5C518" opacity="0.06"/>
  <circle cx="807.5" cy="265.6" r="3.4" fill="#F5C518" opacity="0.06"/>
  <circle cx="1098.9" cy="303.8" r="2.7" fill="#F5C518" opacity="0.06"/>
  <circle cx="524.6" cy="46.6" r="1.8" fill="#F5C518" opacity="0.06"/>
  <circle cx="917.0" cy="211.0" r="2.7" fill="#F5C518" opacity="0.06"/>
  <circle cx="728.5" cy="637.7" r="2.9" fill="#F5C518" opacity="0.06"/>
  <circle cx="1174.7" cy="134.5" r="1.8" fill="#F5C518" opacity="0.06"/>
  <rect x="343.5" y="175.2" width="593.1" height="86.4" rx="8" fill="#F5C518" opacity="0.08"/>
  <rect x="343.5" y="175.2" width="593.1" height="86.4" rx="8" fill="none" stroke="#F5C518" stroke-width="1.2" opacity="0.25"/>
  <circle cx="640.0" cy="218.4" r="7.5" fill="#F5C518" opacity="0.2"/>
  <line x1="502.5" y1="218.4" x2="793.5" y2="218.4" stroke="#F5C518" stroke-width="1.5" opacity="0.1" stroke-linecap="round"/>
  <rect x="420.6" y="269.6" width="438.9" height="86.4" rx="8" fill="#F5A623" opacity="0.11"/>
  <rect x="420.6" y="269.6" width="438.9" height="86.4" rx="8" fill="none" stroke="#F5A623" stroke-width="1.2" opacity="0.25"/>
  <circle cx="640.0" cy="312.8" r="7.6" fill="#F5A623" opacity="0.2"/>
  <line x1="524.5" y1="312.8" x2="771.5" y2="312.8" stroke="#F5A623" stroke-width="1.5" opacity="0.1" stroke-linecap="round"/>
  <rect x="495.2" y="364.0" width="289.7" height="86.4" rx="8" fill="#F5C518" opacity="0.14"/>
  <rect x="495.2" y="364.0" width="289.7" height="86.4" rx="8" fill="none" stroke="#F5C518" stroke-width="1.2" opacity="0.25"/>
  <circle cx="640.0" cy="407.2" r="7.5" fill="#F5C518" opacity="0.2"/>
  <line x1="586.3" y1="407.2" x2="709.7" y2="407.2" stroke="#F5C518" stroke-width="1.5" opacity="0.1" stroke-linecap="round"/>
  <rect x="563.9" y="458.4" width="152.1" height="86.4" rx="8" fill="#F5A623" opacity="0.17"/>
  <rect x="563.9" y="458.4" width="152.1" height="86.4" rx="8" fill="none" stroke="#F5A623" stroke-width="1.2" opacity="0.25"/>
  <circle cx="640.0" cy="501.6" r="7.8" fill="#F5A623" opacity="0.2"/>
  <line x1="621.2" y1="501.6" x2="674.8" y2="501.6" stroke="#F5A623" stroke-width="1.5" opacity="0.1" stroke-linecap="round"/>

</svg>