<svg xmlns="http://www.w3.org/2000/svg" viewBox="0 0 1280 720" fill="none">
<defs>
  <linearGradient id="bg-16-4" x1="0" y1="0" x2="1" y2="1">
    <stop offset="0%" stop-color="#F5C518" stop-opacity="0.05"/>
    <stop offset="100%" stop-color="#F5A623" stop-opacity="0.03"/>
  </linearGradient>
</defs>
  <rect width="1280" height="720" fill="url(#bg-16-4)"/>
  <path d="M 500.0 295.0 C 528.5 294.6, 565.7 300.8, 587.0 319.3 C 608.2 337.9, 620.6 370.4, 627.4 406.3 C 634.3 442.2, 649.4 504.3, 628.1 534.5 C 606.9 564.6, 534.1 595.6, 500.0 587.1 C 465.8 578.5, 453.3 513.3, 423.1 483.1 C 393.0 453.0, 320.5 433.2, 319.3 406.3 C 318.1 379.5, 385.6 340.6, 415.8 322.1 C 445.9 303.5, 471.4 295.5, 500.0 295.0 Z" fill="#F5C518" opacity="0.05"/>
  <circle cx="887.1" cy="381.5" r="2.8" fill="#F5C518" opacity="0.07"/>
  <circle cx="1176.8" cy="669.7" r="3.5" fill="#F5C518" opacity="0.07"/>
  <circle cx="1158.9" cy="552.3" r="1.7" fill="#F5C518" opacity="0.07"/>
  <circle cx="267.2" cy="636.0" r="2.0" fill="#F5C518" opacity="0.07"/>
  <circle cx="1145.8" cy="264.0" r="2.4" fill="#F5C518" opacity="0.07"/>
  <circle cx="687.5" cy="122.2" r="3.4" fill="#F5C518" opacity="0.07"/>
  <circle cx="1126.7" cy="506.3" r="2.4" fill="#F5C518" opacity="0.07"/>
  <rect x="243.2" y="162.0" width="255.2" height="191.0" rx="10" fill="#F5C518" opacity="0.14"/>
  <rect x="243.2" y="162.0" width="255.2" height="191.0" rx="10" fill="none" stroke="#F5C518" stroke-width="1.2" opacity="0.25"/>
  <circle cx="370.8" cy="186.5" r="11.7" fill="#F5C518" opacity="0.15"/>
  <line x1="292.1" y1="267.1" x2="449.5" y2="267.1" stroke="#F5C518" stroke-width="2" opacity="0.12" stroke-linecap="round"/>
  <line x1="278.3" y1="281.1" x2="463.3" y2="281.1" stroke="#F5C518" stroke-width="2" opacity="0.12" stroke-linecap="round"/>
  <rect x="512.4" y="162.0" width="255.2" height="191.0" rx="10" fill="#F5A623" opacity="0.14"/>
  <rect x="512.4" y="162.0" width="255.2" height="191.0" rx="10" fill="none" stroke="#F5A623" stroke-width="1.2" opacity="0.25"/>
  <circle cx="640.0" cy="188.6" r="11.0" fill="#F5A623" opacity="0.15"/>
  <line x1="570.4" y1="267.1" x2="709.6" y2="267.1" stroke="#F5A623" stroke-width="2" opacity="0.12" stroke-linecap="round"/>
  <line x1="546.5" y1="281.1" x2="733.5" y2="281.1" stroke="#F5A623" stroke-width="2" opacity="0.12" stroke-linecap="round"/>
  <rect x="781.6" y="162.0" width="255.2" height="191.0" rx="10" fill="#F5C518" opacity="0.13"/>
  <rect x="781.6" y="162.0" width="255.2" height="191.0" rx="10" fill="none" stroke="#F5C518" stroke-width="1.2" opacity="0.25"/>
  <circle cx="909.2" cy="190.1" r="10.3" fill="#F5C518" opacity="0.15"/>
  <line x1="843.0" y1="267.1" x2="975.4" y2="267.1" stroke="#F5C518" stroke-width="2" opacity="0.12" stroke-linecap="round"/>
  <line x1="842.3" y1="281.1" x2="976.1" y2="281.1" stroke="#F5C518" stroke-width="2" opacity="0.12" stroke-linecap="round"/>
  <rect x="243.2" y="367.0" width="255.2" height="191.0" rx="10" fill="#F5A623" opacity="0.15"/>
  <rect x="243.2" y="367.0" width="255.2" height="191.0" rx="10" fill="none" stroke="#F5A623" stroke-width="1.2" opacity="0.25"/>
  <circle cx="370.8" cy="395.6" r="14.7" fill="#F5A623" opacity="0.15"/>
  <line x1="279.2" y1="472.1" x2="462.4" y2="472.1" stroke="#F5A623" stroke-width="2" opacity="0.12" stroke-linecap="round"/>
  <line x1="270.8" y1="486.1" x2="470.8" y2="486.1" stroke="#F5A623" stroke-width="2" opacity="0.12" stroke-linecap="round"/>
  <rect x="512.4" y="367.0" width="255.2" height="191.0" rx="10" fill="#F5C518" opacity="0.12"/>
  <rect x="512.4" y="367.0" width="255.2" height="191.0" rx="10" fill="none" stroke="#F5C518" stroke-width="1.2" opacity="0.25"/>
  <circle cx="640.0" cy="389.9" r="14.8" fill="#F5C518" opacity="0.15"/>
  <line x1="569.3" y1="472.1" x2="710.7" y2="472.1" stroke="#F5C518" stroke-width="2" opacity="0.12" stroke-linecap="round"/>
  <line x1="571.3" y1="486.1" x2="708.7" y2="486.1" stroke="#F5C518" stroke-width="2" opacity="0.12" stroke-linecap="round"/>
  <rect x="781.6" y="367.0" width="255.2" height="191.0" rx="10" fill="#F5A623" opacity="0.09"/>
  <rect x="781.6" y="367.0" width="255.2" height="191.0" rx="10" fill="none" stroke="#F5A623" stroke-width="1.2" opacity="0.25"/>
  <circle cx="909.2" cy="393.2" r="13.6" fill="#F5A623" opacity="0.15"/>
  <line x1="823.1" y1="472.1" x2="995.3" y2="472.1" stroke="#F5A623" stroke-width="2" opacity="0.12" stroke-linecap="round"/>
  <line x1="815.6" y1="486.1" x2="1002.8" y2="486.1" stroke="#F5A623" stroke-width="2" opacity="0.12" stroke-linecap="round"/>

</svg>