<svg xmlns="http://www.w3.org/2000/svg" viewBox="0 0 1280 720" fill="none">
<defs>
  <linearGradient id="bg-grad-24" x1="0" y1="0" x2="1" y2="1">
    <stop offset="0%" stop-color="#F5A623" stop-opacity="0.06"/>
    <stop offset="100%" stop-color="#F5C518" stop-opacity="0.03"/>
  </linearGradient>
</defs>
  <rect width="1280" height="720" fill="url(#bg-grad-24)"/>
  <path d="M 927.9 44.3 C 981.5 31.9, 1084.8 90.7, 1125.7 139.5 C 1166.6 188.3, 1181.8 280.0, 1173.1 337.3 C 1164.4 394.5, 1114.3 455.2, 1073.5 482.8 C 1032.6 510.5, 973.9 505.7, 927.9 503.2 C 882.0 500.6, 832.9 495.1, 797.8 467.4 C 762.6 439.8, 715.7 379.5, 716.8 337.3 C 718.0 295.0, 769.3 262.7, 804.5 213.8 C 839.7 165.0, 874.4 56.7, 927.9 44.3 Z" fill="#F5A623" opacity="0.08"/>
  <path d="M 542.1 -67.5 C 597.7 -66.7, 668.6 -86.6, 706.2 -57.6 C 743.8 -28.6, 769.7 53.7, 767.7 106.5 C 765.8 159.2, 732.1 210.0, 694.5 258.8 C 656.9 307.6, 589.3 402.8, 542.1 399.1 C 495.0 395.5, 449.6 285.6, 411.8 236.8 C 373.9 188.0, 321.3 156.4, 314.9 106.5 C 308.4 56.5, 335.2 -33.6, 373.1 -62.6 C 411.0 -91.6, 486.6 -68.3, 542.1 -67.5 Z" fill="#F5C518" opacity="0.08"/>
  <circle cx="521.3" cy="485.4" r="2.7" fill="#F5A623" opacity="0.09"/>
  <circle cx="840.6" cy="97.1" r="4.1" fill="#F5A623" opacity="0.09"/>
  <circle cx="462.3" cy="613.9" r="3.5" fill="#F5A623" opacity="0.09"/>
  <circle cx="1122.9" cy="629.3" r="3.6" fill="#F5A623" opacity="0.09"/>
  <circle cx="1061.5" cy="587.7" r="3.9" fill="#F5A623" opacity="0.09"/>
  <circle cx="179.6" cy="493.8" r="3.4" fill="#F5A623" opacity="0.09"/>
  <circle cx="494.1" cy="584.9" r="3.9" fill="#F5A623" opacity="0.09"/>
  <circle cx="852.0" cy="576.5" r="2.9" fill="#F5A623" opacity="0.09"/>
  <circle cx="700.6" cy="126.4" r="2.8" fill="#F5A623" opacity="0.09"/>
  <circle cx="737.3" cy="64.4" r="3.8" fill="#F5A623" opacity="0.09"/>
  <circle cx="1090.7" cy="286.2" r="2.9" fill="#F5A623" opacity="0.09"/>
  <circle cx="749.1" cy="166.9" r="2.9" fill="#F5A623" opacity="0.09"/>
  <circle cx="215.7" cy="466.7" r="3.7" fill="#F5A623" opacity="0.09"/>
  <circle cx="784.6" cy="189.9" r="2.1" fill="#F5A623" opacity="0.09"/>
  <path d="M 80 131.8702157586813 C 317.8191271610558 60.63728150911629, 997.5676948204637 674.5404362212867, 1200 586.3261676859111" fill="none" stroke="#F5C518" stroke-width="2" opacity="0.1" stroke-linecap="round"/>
  <circle cx="640" cy="350" r="20" fill="none" stroke="#F5A623" stroke-width="2" opacity="0.30"/>
  <circle cx="640" cy="350" r="40" fill="none" stroke="#F5C518" stroke-width="2" opacity="0.27"/>
  <circle cx="640" cy="350" r="60" fill="none" stroke="#F5A623" stroke-width="2" opacity="0.23"/>
  <circle cx="640" cy="350" r="80" fill="none" stroke="#F5C518" stroke-width="2" opacity="0.19"/>
  <circle cx="640" cy="350" r="100" fill="none" stroke="#F5A623" stroke-width="2" opacity="0.16"/>
  <circle cx="640" cy="350" r="120" fill="none" stroke="#F5C518" stroke-width="2" opacity="0.12"/>
  <circle cx="640" cy="350" r="140" fill="none" stroke="#F5A623" stroke-width="2" opacity="0.09"/>
  <circle cx="640" cy="350" r="6" fill="#F5A623" opacity="0.4"/>

</svg>