<svg xmlns="http://www.w3.org/2000/svg" viewBox="0 0 1280 720" fill="none">
<defs>
  <linearGradient id="bg-24-4" x1="0" y1="0" x2="1" y2="1">
    <stop offset="0%" stop-color="#F5A623" stop-opacity="0.05"/>
    <stop offset="100%" stop-color="#F5C518" stop-opacity="0.03"/>
  </linearGradient>
</defs>
  <rect width="1280" height="720" fill="url(#bg-24-4)"/>
  <path d="M 575.1 312.9 C 611.7 307.0, 677.9 327.7, 702.6 356.1 C 727.2 384.6, 722.6 440.8, 723.0 483.6 C 723.3 526.5, 729.2 593.7, 704.6 613.2 C 679.9 632.6, 612.3 606.4, 575.1 600.4 C 537.9 594.4, 506.8 596.8, 481.4 577.3 C 456.0 557.8, 422.5 514.6, 422.8 483.6 C 423.0 452.6, 457.5 419.9, 482.9 391.4 C 508.2 363.0, 538.5 318.8, 575.1 312.9 Z" fill="#F5A623" opacity="0.04"/>
  <circle cx="139.5" cy="282.1" r="3.1" fill="#F5A623" opacity="0.07"/>
  <circle cx="331.3" cy="553.1" r="3.0" fill="#F5A623" opacity="0.07"/>
  <circle cx="716.6" cy="303.1" r="1.8" fill="#F5A623" opacity="0.07"/>
  <circle cx="110.0" cy="337.4" r="3.1" fill="#F5A623" opacity="0.07"/>
  <circle cx="1104.6" cy="188.0" r="2.8" fill="#F5A623" opacity="0.07"/>
  <circle cx="653.3" cy="272.0" r="2.1" fill="#F5A623" opacity="0.07"/>
  <circle cx="160.4" cy="447.2" r="2.9" fill="#F5A623" opacity="0.07"/>
  <circle cx="628.3" cy="433.9" r="3.6" fill="#F5A623" opacity="0.07"/>
  <circle cx="171.5" cy="503.3" r="2.7" fill="#F5A623" opacity="0.07"/>
  <circle cx="131.0" cy="129.6" r="3.5" fill="#F5A623" opacity="0.07"/>
  <circle cx="971.6" cy="167.2" r="3.9" fill="#F5A623" opacity="0.07"/>
  <path d="M 640.0 180.0 C 690.0 216.0, 700.0 324.0, 695.0 432.0 C 690.0 504.0, 670.0 561.6, 640.0 576.0" fill="none" stroke="#F5A623" stroke-width="2" opacity="0.2" stroke-linecap="round"/>
  <path d="M 640.0 180.0 C 590.0 216.0, 580.0 324.0, 585.0 432.0 C 590.0 504.0, 610.0 561.6, 640.0 576.0" fill="none" stroke="#F5A623" stroke-width="2" opacity="0.2" stroke-linecap="round"/>
  <circle cx="640.0" cy="244.8" r="15.4" fill="#F5A623" opacity="0.12"/>
  <circle cx="640.0" cy="244.8" r="15.4" fill="none" stroke="#F5A623" stroke-width="1.5" opacity="0.3"/>
  <circle cx="625.0" cy="374.4" r="17.4" fill="#F5C518" opacity="0.12"/>
  <circle cx="625.0" cy="374.4" r="17.4" fill="none" stroke="#F5C518" stroke-width="1.5" opacity="0.3"/>
  <circle cx="660.0" cy="446.4" r="17.5" fill="#F5A623" opacity="0.12"/>
  <circle cx="660.0" cy="446.4" r="17.5" fill="none" stroke="#F5A623" stroke-width="1.5" opacity="0.3"/>
  <line x1="640.0" y1="244.8" x2="625.0" y2="374.4" stroke="#F5A623" stroke-width="1.5" opacity="0.15" stroke-dasharray="4 3"/>
  <circle cx="636.3" cy="277.2" r="2" fill="#F5C518" opacity="0.2"/>
  <circle cx="632.5" cy="309.6" r="2" fill="#F5C518" opacity="0.2"/>
  <circle cx="628.8" cy="342.0" r="2" fill="#F5C518" opacity="0.2"/>
  <line x1="625.0" y1="374.4" x2="660.0" y2="446.4" stroke="#F5A623" stroke-width="1.5" opacity="0.15" stroke-dasharray="4 3"/>
  <circle cx="633.8" cy="392.4" r="2" fill="#F5C518" opacity="0.2"/>
  <circle cx="642.5" cy="410.4" r="2" fill="#F5C518" opacity="0.2"/>
  <circle cx="651.3" cy="428.4" r="2" fill="#F5C518" opacity="0.2"/>

</svg>