<svg xmlns="http://www.w3.org/2000/svg" viewBox="0 0 1280 720" fill="none">
<defs>
  <linearGradient id="bg-24-5" x1="0" y1="0" x2="1" y2="1">
    <stop offset="0%" stop-color="#F5A623" stop-opacity="0.05"/>
    <stop offset="100%" stop-color="#F5C518" stop-opacity="0.03"/>
  </linearGradient>
</defs>
  <rect width="1280" height="720" fill="url(#bg-24-5)"/>
  <path d="M 455.7 453.7 C 503.3 443.0, 604.5 396.8, 630.6 420.4 C 656.6 444.0, 611.7 536.7, 612.0 595.3 C 612.3 653.9, 658.5 736.3, 632.4 772.0 C 606.4 807.7, 515.0 808.9, 455.7 809.3 C 396.4 809.6, 304.3 809.9, 276.8 774.2 C 249.2 738.5, 279.0 643.6, 290.3 595.3 C 301.7 547.0, 317.2 507.9, 344.7 484.3 C 372.3 460.7, 408.0 464.3, 455.7 453.7 Z" fill="#F5A623" opacity="0.05"/>
  <path d="M 514.5 257.4 C 535.4 258.4, 561.3 253.5, 574.1 264.6 C 586.9 275.7, 593.2 306.1, 591.4 324.2 C 589.6 342.2, 576.1 357.5, 563.2 372.9 C 550.4 388.3, 531.4 416.2, 514.5 416.8 C 497.7 417.4, 473.2 391.9, 462.2 376.5 C 451.2 361.1, 450.6 343.8, 448.4 324.2 C 446.1 304.5, 437.8 269.6, 448.8 258.4 C 459.8 247.3, 493.6 256.4, 514.5 257.4 Z" fill="#F5C518" opacity="0.04"/>
  <circle cx="702.1" cy="262.8" r="2.6" fill="#F5A623" opacity="0.09"/>
  <circle cx="166.4" cy="198.2" r="3.1" fill="#F5A623" opacity="0.09"/>
  <circle cx="338.9" cy="255.4" r="1.6" fill="#F5A623" opacity="0.09"/>
  <circle cx="1214.2" cy="149.4" r="3.4" fill="#F5A623" opacity="0.09"/>
  <circle cx="950.1" cy="643.3" r="2.7" fill="#F5A623" opacity="0.09"/>
  <circle cx="560.5" cy="417.6" r="4.0" fill="#F5A623" opacity="0.09"/>
  <circle cx="326.5" cy="166.1" r="2.6" fill="#F5A623" opacity="0.09"/>
  <circle cx="76.3" cy="310.8" r="2.8" fill="#F5A623" opacity="0.09"/>
  <circle cx="333.6" cy="519.3" r="3.4" fill="#F5A623" opacity="0.09"/>
  <circle cx="281.6" cy="233.4" r="2.7" fill="#F5A623" opacity="0.09"/>
  <line x1="256.0" y1="360.0" x2="1024.0" y2="360.0" stroke="#F5A623" stroke-width="2" opacity="0.2" stroke-linecap="round"/>
  <line x1="256.0" y1="360.0" x2="793.6" y2="360.0" stroke="#F5A623" stroke-width="3" opacity="0.15" stroke-linecap="round"/>
  <circle cx="256.0" cy="360.0" r="5" fill="#F5A623" opacity="0.3"/>
  <rect x="188.8" y="210.4" width="134.4" height="129.6" rx="8" fill="#F5A623" opacity="0.07"/>
  <rect x="188.8" y="210.4" width="134.4" height="129.6" rx="8" fill="none" stroke="#F5A623" stroke-width="1" opacity="0.2"/>
  <line x1="256.0" y1="355.0" x2="256.0" y2="340.0" stroke="#F5A623" stroke-width="0.8" opacity="0.15"/>
  <line x1="210.7" y1="275.2" x2="301.3" y2="275.2" stroke="#F5A623" stroke-width="1.5" opacity="0.1" stroke-linecap="round"/>
  <circle cx="448.0" cy="360.0" r="5" fill="#F5C518" opacity="0.3"/>
  <rect x="380.8" y="380.0" width="134.4" height="129.6" rx="8" fill="#F5C518" opacity="0.07"/>
  <rect x="380.8" y="380.0" width="134.4" height="129.6" rx="8" fill="none" stroke="#F5C518" stroke-width="1" opacity="0.2"/>
  <line x1="448.0" y1="365.0" x2="448.0" y2="380.0" stroke="#F5C518" stroke-width="0.8" opacity="0.15"/>
  <line x1="413.5" y1="444.8" x2="482.5" y2="444.8" stroke="#F5C518" stroke-width="1.5" opacity="0.1" stroke-linecap="round"/>
  <circle cx="640.0" cy="360.0" r="5" fill="#F5A623" opacity="0.3"/>
  <rect x="572.8" y="210.4" width="134.4" height="129.6" rx="8" fill="#F5A623" opacity="0.07"/>
  <rect x="572.8" y="210.4" width="134.4" height="129.6" rx="8" fill="none" stroke="#F5A623" stroke-width="1" opacity="0.2"/>
  <line x1="640.0" y1="355.0" x2="640.0" y2="340.0" stroke="#F5A623" stroke-width="0.8" opacity="0.15"/>
  <line x1="604.7" y1="275.2" x2="675.3" y2="275.2" stroke="#F5A623" stroke-width="1.5" opacity="0.1" stroke-linecap="round"/>
  <circle cx="832.0" cy="360.0" r="5" fill="#F5C518" opacity="0.3"/>
  <rect x="764.8" y="380.0" width="134.4" height="129.6" rx="8" fill="#F5C518" opacity="0.07"/>
  <rect x="764.8" y="380.0" width="134.4" height="129.6" rx="8" fill="none" stroke="#F5C518" stroke-width="1" opacity="0.2"/>
  <line x1="832.0" y1="365.0" x2="832.0" y2="380.0" stroke="#F5C518" stroke-width="0.8" opacity="0.15"/>
  <line x1="804.9" y1="444.8" x2="859.1" y2="444.8" stroke="#F5C518" stroke-width="1.5" opacity="0.1" stroke-linecap="round"/>
  <circle cx="1024.0" cy="360.0" r="5" fill="#F5A623" opacity="0.3"/>
  <rect x="956.8" y="210.4" width="134.4" height="129.6" rx="8" fill="#F5A623" opacity="0.07"/>
  <rect x="956.8" y="210.4" width="134.4" height="129.6" rx="8" fill="none" stroke="#F5A623" stroke-width="1" opacity="0.2"/>
  <line x1="1024.0" y1="355.0" x2="1024.0" y2="340.0" stroke="#F5A623" stroke-width="0.8" opacity="0.15"/>
  <line x1="982.6" y1="275.2" x2="1065.4" y2="275.2" stroke="#F5A623" stroke-width="1.5" opacity="0.1" stroke-linecap="round"/>

</svg>