<svg xmlns="http://www.w3.org/2000/svg" viewBox="0 0 1280 720" fill="none">
<defs>
  <linearGradient id="bg-24-2" x1="0" y1="0" x2="1" y2="1">
    <stop offset="0%" stop-color="#F5A623" stop-opacity="0.05"/>
    <stop offset="100%" stop-color="#F5C518" stop-opacity="0.03"/>
  </linearGradient>
</defs>
  <rect width="1280" height="720" fill="url(#bg-24-2)"/>
  <path d="M 1005.5 229.0 C 1046.9 224.3, 1106.5 238.2, 1144.1 267.8 C 1181.7 297.4, 1235.6 364.8, 1231.1 406.5 C 1226.5 448.2, 1154.4 480.0, 1116.8 517.9 C 1079.2 555.7, 1049.8 626.6, 1005.5 633.9 C 961.1 641.1, 881.6 599.1, 850.7 561.2 C 819.8 523.3, 812.7 450.6, 820.1 406.5 C 827.6 362.4, 864.5 326.0, 895.4 296.5 C 926.3 266.9, 964.0 233.8, 1005.5 229.0 Z" fill="#F5A623" opacity="0.04"/>
  <circle cx="1050.1" cy="50.6" r="3.9" fill="#F5A623" opacity="0.07"/>
  <circle cx="1164.9" cy="361.3" r="3.1" fill="#F5A623" opacity="0.07"/>
  <circle cx="426.9" cy="257.1" r="2.8" fill="#F5A623" opacity="0.07"/>
  <circle cx="737.8" cy="246.3" r="2.6" fill="#F5A623" opacity="0.07"/>
  <circle cx="396.5" cy="139.3" r="3.3" fill="#F5A623" opacity="0.07"/>
  <circle cx="927.2" cy="306.7" r="1.7" fill="#F5A623" opacity="0.07"/>
  <circle cx="680.0" cy="64.4" r="2.8" fill="#F5A623" opacity="0.07"/>
  <path d="M 640.0 180.0 C 690.0 216.0, 700.0 324.0, 695.0 432.0 C 690.0 504.0, 670.0 561.6, 640.0 576.0" fill="none" stroke="#F5A623" stroke-width="2" opacity="0.2" stroke-linecap="round"/>
  <path d="M 640.0 180.0 C 590.0 216.0, 580.0 324.0, 585.0 432.0 C 590.0 504.0, 610.0 561.6, 640.0 576.0" fill="none" stroke="#F5A623" stroke-width="2" opacity="0.2" stroke-linecap="round"/>
  <circle cx="640.0" cy="244.8" r="15.0" fill="#F5A623" opacity="0.12"/>
  <circle cx="640.0" cy="244.8" r="15.0" fill="none" stroke="#F5A623" stroke-width="1.5" opacity="0.3"/>
  <circle cx="625.0" cy="374.4" r="19.4" fill="#F5C518" opacity="0.12"/>
  <circle cx="625.0" cy="374.4" r="19.4" fill="none" stroke="#F5C518" stroke-width="1.5" opacity="0.3"/>
  <circle cx="660.0" cy="446.4" r="17.8" fill="#F5A623" opacity="0.12"/>
  <circle cx="660.0" cy="446.4" r="17.8" fill="none" stroke="#F5A623" stroke-width="1.5" opacity="0.3"/>
  <line x1="640.0" y1="244.8" x2="625.0" y2="374.4" stroke="#F5A623" stroke-width="1.5" opacity="0.15" stroke-dasharray="4 3"/>
  <circle cx="636.3" cy="277.2" r="2" fill="#F5C518" opacity="0.2"/>
  <circle cx="632.5" cy="309.6" r="2" fill="#F5C518" opacity="0.2"/>
  <circle cx="628.8" cy="342.0" r="2" fill="#F5C518" opacity="0.2"/>
  <line x1="625.0" y1="374.4" x2="660.0" y2="446.4" stroke="#F5A623" stroke-width="1.5" opacity="0.15" stroke-dasharray="4 3"/>
  <circle cx="633.8" cy="392.4" r="2" fill="#F5C518" opacity="0.2"/>
  <circle cx="642.5" cy="410.4" r="2" fill="#F5C518" opacity="0.2"/>
  <circle cx="651.3" cy="428.4" r="2" fill="#F5C518" opacity="0.2"/>

</svg>