<svg xmlns="http://www.w3.org/2000/svg" viewBox="0 0 1280 720" fill="none">
<defs>
  <linearGradient id="bg-4-6" x1="0" y1="0" x2="1" y2="1">
    <stop offset="0%" stop-color="#4CB648" stop-opacity="0.05"/>
    <stop offset="100%" stop-color="#A8E063" stop-opacity="0.03"/>
  </linearGradient>
</defs>
  <rect width="1280" height="720" fill="url(#bg-4-6)"/>
  <path d="M 363.2 116.8 C 414.1 111.4, 507.5 159.0, 532.1 201.2 C 556.7 243.4, 516.2 319.2, 510.8 370.1 C 505.4 421.0, 524.5 481.4, 499.9 506.8 C 475.3 532.2, 411.0 520.2, 363.2 522.4 C 315.5 524.6, 246.0 545.5, 213.2 520.1 C 180.4 494.7, 164.2 417.8, 166.4 370.1 C 168.7 322.4, 194.0 275.9, 226.8 233.7 C 259.6 191.5, 312.3 122.2, 363.2 116.8 Z" fill="#4CB648" opacity="0.06"/>
  <circle cx="839.1" cy="528.7" r="3.5" fill="#4CB648" opacity="0.09"/>
  <circle cx="94.4" cy="498.6" r="2.6" fill="#4CB648" opacity="0.09"/>
  <circle cx="96.6" cy="171.3" r="3.0" fill="#4CB648" opacity="0.09"/>
  <circle cx="476.8" cy="639.4" r="3.8" fill="#4CB648" opacity="0.09"/>
  <circle cx="854.9" cy="208.6" r="2.1" fill="#4CB648" opacity="0.09"/>
  <circle cx="591.9" cy="430.3" r="4.0" fill="#4CB648" opacity="0.09"/>
  <circle cx="441.8" cy="205.9" r="3.5" fill="#4CB648" opacity="0.09"/>
  <circle cx="990.4" cy="151.2" r="3.7" fill="#4CB648" opacity="0.09"/>
  <rect x="243.2" y="162.0" width="255.2" height="191.0" rx="10" fill="#4CB648" opacity="0.09"/>
  <rect x="243.2" y="162.0" width="255.2" height="191.0" rx="10" fill="none" stroke="#4CB648" stroke-width="1.2" opacity="0.25"/>
  <circle cx="370.8" cy="187.9" r="12.6" fill="#4CB648" opacity="0.15"/>
  <line x1="281.7" y1="267.1" x2="459.9" y2="267.1" stroke="#4CB648" stroke-width="2" opacity="0.12" stroke-linecap="round"/>
  <line x1="297.7" y1="281.1" x2="443.9" y2="281.1" stroke="#4CB648" stroke-width="2" opacity="0.12" stroke-linecap="round"/>
  <rect x="512.4" y="162.0" width="255.2" height="191.0" rx="10" fill="#A8E063" opacity="0.13"/>
  <rect x="512.4" y="162.0" width="255.2" height="191.0" rx="10" fill="none" stroke="#A8E063" stroke-width="1.2" opacity="0.25"/>
  <circle cx="640.0" cy="187.1" r="10.1" fill="#A8E063" opacity="0.15"/>
  <line x1="564.4" y1="267.1" x2="715.6" y2="267.1" stroke="#A8E063" stroke-width="2" opacity="0.12" stroke-linecap="round"/>
  <line x1="559.4" y1="281.1" x2="720.6" y2="281.1" stroke="#A8E063" stroke-width="2" opacity="0.12" stroke-linecap="round"/>
  <rect x="781.6" y="162.0" width="255.2" height="191.0" rx="10" fill="#4CB648" opacity="0.13"/>
  <rect x="781.6" y="162.0" width="255.2" height="191.0" rx="10" fill="none" stroke="#4CB648" stroke-width="1.2" opacity="0.25"/>
  <circle cx="909.2" cy="189.2" r="10.3" fill="#4CB648" opacity="0.15"/>
  <line x1="820.4" y1="267.1" x2="998.0" y2="267.1" stroke="#4CB648" stroke-width="2" opacity="0.12" stroke-linecap="round"/>
  <line x1="823.3" y1="281.1" x2="995.1" y2="281.1" stroke="#4CB648" stroke-width="2" opacity="0.12" stroke-linecap="round"/>
  <rect x="243.2" y="367.0" width="255.2" height="191.0" rx="10" fill="#A8E063" opacity="0.11"/>
  <rect x="243.2" y="367.0" width="255.2" height="191.0" rx="10" fill="none" stroke="#A8E063" stroke-width="1.2" opacity="0.25"/>
  <circle cx="370.8" cy="391.2" r="12.6" fill="#A8E063" opacity="0.15"/>
  <line x1="282.5" y1="472.1" x2="459.1" y2="472.1" stroke="#A8E063" stroke-width="2" opacity="0.12" stroke-linecap="round"/>
  <line x1="271.8" y1="486.1" x2="469.8" y2="486.1" stroke="#A8E063" stroke-width="2" opacity="0.12" stroke-linecap="round"/>
  <rect x="512.4" y="367.0" width="255.2" height="191.0" rx="10" fill="#4CB648" opacity="0.09"/>
  <rect x="512.4" y="367.0" width="255.2" height="191.0" rx="10" fill="none" stroke="#4CB648" stroke-width="1.2" opacity="0.25"/>
  <circle cx="640.0" cy="394.2" r="13.1" fill="#4CB648" opacity="0.15"/>
  <line x1="548.8" y1="472.1" x2="731.2" y2="472.1" stroke="#4CB648" stroke-width="2" opacity="0.12" stroke-linecap="round"/>
  <line x1="555.0" y1="486.1" x2="725.0" y2="486.1" stroke="#4CB648" stroke-width="2" opacity="0.12" stroke-linecap="round"/>
  <rect x="781.6" y="367.0" width="255.2" height="191.0" rx="10" fill="#A8E063" opacity="0.13"/>
  <rect x="781.6" y="367.0" width="255.2" height="191.0" rx="10" fill="none" stroke="#A8E063" stroke-width="1.2" opacity="0.25"/>
  <circle cx="909.2" cy="392.6" r="10.2" fill="#A8E063" opacity="0.15"/>
  <line x1="812.1" y1="472.1" x2="1006.3" y2="472.1" stroke="#A8E063" stroke-width="2" opacity="0.12" stroke-linecap="round"/>
  <line x1="820.0" y1="486.1" x2="998.4" y2="486.1" stroke="#A8E063" stroke-width="2" opacity="0.12" stroke-linecap="round"/>

</svg>