<svg xmlns="http://www.w3.org/2000/svg" viewBox="0 0 1280 720" fill="none">
<defs>
  <linearGradient id="bg-4-8" x1="0" y1="0" x2="1" y2="1">
    <stop offset="0%" stop-color="#4CB648" stop-opacity="0.05"/>
    <stop offset="100%" stop-color="#A8E063" stop-opacity="0.03"/>
  </linearGradient>
</defs>
  <rect width="1280" height="720" fill="url(#bg-4-8)"/>
  <path d="M 925.3 256.1 C 955.8 253.0, 1008.7 266.9, 1026.2 289.2 C 1043.7 311.6, 1036.5 362.5, 1030.4 390.1 C 1024.3 417.7, 1007.2 440.6, 989.7 454.5 C 972.2 468.4, 952.7 467.5, 925.3 473.4 C 897.9 479.3, 843.3 503.9, 825.4 490.0 C 807.5 476.1, 815.0 420.5, 817.9 390.1 C 820.8 359.7, 825.0 330.1, 842.9 307.7 C 860.8 285.4, 894.7 259.2, 925.3 256.1 Z" fill="#4CB648" opacity="0.06"/>
  <circle cx="953.3" cy="405.6" r="2.0" fill="#4CB648" opacity="0.09"/>
  <circle cx="251.6" cy="459.8" r="2.6" fill="#4CB648" opacity="0.09"/>
  <circle cx="1166.2" cy="125.8" r="2.6" fill="#4CB648" opacity="0.09"/>
  <circle cx="1042.3" cy="45.2" r="2.0" fill="#4CB648" opacity="0.09"/>
  <circle cx="1008.6" cy="203.7" r="2.8" fill="#4CB648" opacity="0.09"/>
  <circle cx="77.5" cy="68.9" r="3.0" fill="#4CB648" opacity="0.09"/>
  <line x1="640.0" y1="144.0" x2="640.0" y2="576.0" stroke="#4CB648" stroke-width="1" opacity="0.15" stroke-dasharray="6 4"/>
  <path d="M 332.0 343.4 C 346.2 344.8, 361.8 357.8, 367.6 368.8 C 373.3 379.8, 372.4 395.8, 366.5 409.3 C 360.5 422.8, 346.0 448.3, 332.0 449.8 C 317.9 451.3, 290.3 433.1, 282.0 418.2 C 273.7 403.4, 273.9 373.2, 282.2 360.7 C 290.6 348.2, 317.7 342.1, 332.0 343.4 Z" fill="#A8E063" opacity="0.05"/>
  <path d="M 289.8 293.9 C 300.3 294.5, 310.8 312.5, 317.9 324.3 C 325.0 336.2, 337.0 355.3, 332.3 365.1 C 327.6 374.9, 302.1 384.4, 289.8 383.3 C 277.6 382.2, 264.6 368.9, 258.8 358.4 C 253.0 348.0, 249.9 331.3, 255.1 320.5 C 260.3 309.7, 279.3 293.3, 289.8 293.9 Z" fill="#A8E063" opacity="0.04"/>
  <path d="M 356.8 429.0 C 371.3 430.3, 384.8 436.7, 393.5 448.5 C 402.3 460.4, 415.3 487.4, 409.2 500.0 C 403.0 512.6, 374.8 523.7, 356.8 524.1 C 338.8 524.4, 309.6 515.8, 301.2 501.8 C 292.8 487.9, 297.0 452.8, 306.3 440.6 C 315.6 428.5, 342.2 427.7, 356.8 429.0 Z" fill="#A8E063" opacity="0.05"/>
  <line x1="281.6" y1="158.4" x2="512.0" y2="158.4" stroke="#A8E063" stroke-width="2" opacity="0.12" stroke-linecap="round"/>
  <path d="M 800.9 384.5 C 809.5 384.5, 819.2 391.5, 826.8 399.1 C 834.5 406.7, 848.1 420.4, 846.8 430.3 C 845.6 440.1, 830.2 453.2, 819.4 458.1 C 808.5 463.0, 791.0 464.6, 781.7 459.6 C 772.5 454.6, 764.9 438.3, 763.9 428.2 C 762.8 418.2, 769.3 406.8, 775.5 399.5 C 781.6 392.2, 792.3 384.6, 800.9 384.5 Z" fill="#4CB648" opacity="0.10"/>
  <path d="M 810.5 303.8 C 828.5 303.2, 855.7 319.8, 866.6 334.9 C 877.6 350.1, 880.9 377.6, 876.2 394.7 C 871.5 411.7, 852.7 432.6, 838.3 437.3 C 823.9 442.1, 802.1 430.8, 789.7 423.0 C 777.2 415.2, 768.7 404.5, 763.6 390.4 C 758.5 376.4, 751.2 353.0, 759.0 338.6 C 766.8 324.2, 792.6 304.4, 810.5 303.8 Z" fill="#4CB648" opacity="0.16"/>
  <path d="M 815.4 364.0 C 830.3 365.8, 844.2 377.5, 853.4 388.7 C 862.5 400.0, 872.0 417.4, 870.1 431.5 C 868.1 445.7, 854.9 467.5, 841.7 473.9 C 828.5 480.3, 802.7 477.3, 790.9 469.9 C 779.0 462.5, 775.1 444.7, 770.5 429.3 C 765.9 413.9, 755.9 388.5, 763.4 377.6 C 770.9 366.8, 800.4 362.1, 815.4 364.0 Z" fill="#4CB648" opacity="0.09"/>
  <path d="M 951.8 396.3 C 966.1 394.0, 992.8 410.6, 1003.6 424.6 C 1014.3 438.7, 1020.7 465.0, 1016.2 480.7 C 1011.8 496.3, 992.5 511.1, 977.1 518.5 C 961.6 525.9, 936.0 531.9, 923.3 525.1 C 910.6 518.3, 901.9 492.0, 900.9 477.6 C 899.9 463.2, 909.0 452.1, 917.5 438.6 C 925.9 425.1, 937.4 398.7, 951.8 396.3 Z" fill="#4CB648" opacity="0.15"/>
  <path d="M 915.0 280.9 C 922.7 279.3, 940.5 279.2, 944.3 284.5 C 948.1 289.9, 941.0 306.0, 937.7 313.1 C 934.3 320.3, 929.7 325.1, 924.4 327.4 C 919.0 329.8, 912.6 329.4, 905.6 327.5 C 898.5 325.5, 883.1 321.0, 881.9 315.5 C 880.6 310.0, 892.4 300.1, 897.9 294.4 C 903.4 288.6, 907.2 282.6, 915.0 280.9 Z" fill="#4CB648" opacity="0.10"/>
  <circle cx="737.4" cy="467.6" r="2.9" fill="#4CB648" opacity="0.12"/>
  <circle cx="845.0" cy="196.4" r="2.8" fill="#4CB648" opacity="0.12"/>
  <circle cx="728.5" cy="452.4" r="4.0" fill="#4CB648" opacity="0.12"/>
  <circle cx="957.3" cy="506.3" r="2.4" fill="#4CB648" opacity="0.12"/>
  <circle cx="749.0" cy="446.5" r="3.3" fill="#4CB648" opacity="0.12"/>
  <circle cx="960.0" cy="501.1" r="4.0" fill="#4CB648" opacity="0.12"/>
  <circle cx="938.2" cy="288.4" r="4.5" fill="#4CB648" opacity="0.12"/>
  <circle cx="840.2" cy="200.1" r="2.1" fill="#4CB648" opacity="0.12"/>
  <line x1="768.0" y1="158.4" x2="998.4" y2="158.4" stroke="#4CB648" stroke-width="2.5" opacity="0.2" stroke-linecap="round"/>
  <rect x="635.0" y="355.0" width="10" height="10" fill="#4CB648" opacity="0.2" transform="rotate(45 640.0 360.0)"/>

</svg>