<svg xmlns="http://www.w3.org/2000/svg" viewBox="0 0 1280 720" fill="none">
<defs>
  <linearGradient id="bg-4-9" x1="0" y1="0" x2="1" y2="1">
    <stop offset="0%" stop-color="#4CB648" stop-opacity="0.05"/>
    <stop offset="100%" stop-color="#A8E063" stop-opacity="0.03"/>
  </linearGradient>
</defs>
  <rect width="1280" height="720" fill="url(#bg-4-9)"/>
  <path d="M 465.6 221.8 C 514.5 219.8, 597.2 194.4, 618.1 219.4 C 639.1 244.5, 590.9 320.7, 591.3 372.0 C 591.7 423.2, 641.7 503.6, 620.7 527.1 C 599.8 550.6, 510.7 519.5, 465.6 513.0 C 420.4 506.4, 375.6 511.3, 349.8 487.8 C 323.9 464.3, 314.7 414.7, 310.5 372.0 C 306.4 329.2, 298.9 256.2, 324.8 231.2 C 350.6 206.1, 416.7 223.7, 465.6 221.8 Z" fill="#4CB648" opacity="0.05"/>
  <path d="M 876.9 17.6 C 897.8 19.2, 920.2 71.1, 934.7 93.4 C 949.2 115.7, 957.7 125.7, 963.9 151.2 C 970.2 176.7, 986.6 231.4, 972.1 246.5 C 957.6 261.5, 907.8 242.3, 876.9 241.5 C 845.9 240.7, 804.3 256.7, 786.5 241.6 C 768.7 226.6, 766.4 177.6, 770.1 151.2 C 773.9 124.9, 791.4 105.8, 809.2 83.5 C 827.0 61.3, 855.9 15.9, 876.9 17.6 Z" fill="#A8E063" opacity="0.05"/>
  <circle cx="770.2" cy="497.9" r="2.9" fill="#4CB648" opacity="0.11"/>
  <circle cx="167.0" cy="366.2" r="1.8" fill="#4CB648" opacity="0.11"/>
  <circle cx="786.5" cy="488.3" r="3.0" fill="#4CB648" opacity="0.11"/>
  <circle cx="692.1" cy="236.7" r="2.1" fill="#4CB648" opacity="0.11"/>
  <circle cx="1120.8" cy="618.1" r="3.8" fill="#4CB648" opacity="0.11"/>
  <circle cx="784.4" cy="371.5" r="3.7" fill="#4CB648" opacity="0.11"/>
  <circle cx="938.4" cy="605.4" r="3.9" fill="#4CB648" opacity="0.11"/>
  <circle cx="297.1" cy="265.2" r="4.0" fill="#4CB648" opacity="0.11"/>
  <rect x="0" y="417.6" width="1280" height="302.4" fill="#4CB648" opacity="0.04"/>
  <path d="M 0 417.6 Q 80.0 416.3, 160.0 416.3 Q 240.0 420.4, 320.0 424.1 Q 400.0 423.7, 480.0 420.8 Q 560.0 412.7, 640.0 412.6 Q 720.0 413.9, 800.0 414.1 Q 880.0 423.6, 960.0 418.8 Q 1040.0 414.1, 1120.0 418.2 Q 1200.0 420.4, 1280.0 418.0" fill="none" stroke="#4CB648" stroke-width="1.5" opacity="0.15"/>
  <path d="M 879.4 367.7 C 887.1 367.0, 902.7 372.2, 906.0 378.5 C 909.4 384.8, 903.8 399.3, 899.3 405.4 C 894.9 411.5, 886.2 415.2, 879.4 415.2 C 872.6 415.3, 861.8 411.3, 858.5 405.9 C 855.3 400.5, 856.5 389.0, 859.9 382.7 C 863.4 376.3, 871.7 368.4, 879.4 367.7 Z" fill="#4CB648" opacity="0.11"/>
  <line x1="879.4" y1="407.2" x2="879.4" y2="432.6" stroke="#4CB648" stroke-width="1.5" opacity="0.12"/>
  <path d="M 561.7 355.9 C 572.5 355.9, 586.9 361.2, 593.6 370.6 C 600.3 380.0, 607.4 403.6, 602.1 412.3 C 596.7 420.9, 573.0 423.8, 561.7 422.5 C 550.5 421.3, 540.1 413.4, 534.6 404.6 C 529.2 395.9, 524.6 378.3, 529.2 370.2 C 533.7 362.0, 551.0 355.8, 561.7 355.9 Z" fill="#A8E063" opacity="0.10"/>
  <line x1="561.7" y1="409.5" x2="561.7" y2="432.6" stroke="#A8E063" stroke-width="1.5" opacity="0.12"/>
  <path d="M 254.3 357.8 C 267.1 357.9, 286.8 367.5, 292.1 377.4 C 297.3 387.3, 292.0 406.8, 285.7 417.4 C 279.4 427.9, 265.8 440.2, 254.3 440.7 C 242.8 441.3, 223.3 431.5, 216.8 420.9 C 210.4 410.2, 209.2 387.3, 215.5 376.8 C 221.7 366.3, 241.6 357.7, 254.3 357.8 Z" fill="#A8E063" opacity="0.08"/>
  <line x1="254.3" y1="419.8" x2="254.3" y2="432.6" stroke="#A8E063" stroke-width="1.5" opacity="0.12"/>
  <path d="M 471.9 362.3 C 487.8 361.4, 518.5 360.0, 523.8 369.2 C 529.2 378.5, 512.6 403.7, 504.0 417.7 C 495.3 431.8, 485.2 451.9, 471.9 453.4 C 458.6 455.0, 431.2 440.1, 424.0 426.9 C 416.7 413.7, 420.7 385.0, 428.7 374.3 C 436.7 363.5, 456.1 363.1, 471.9 362.3 Z" fill="#4CB648" opacity="0.10"/>
  <line x1="471.9" y1="424.1" x2="471.9" y2="432.6" stroke="#4CB648" stroke-width="1.5" opacity="0.12"/>
  <path d="M 323.6 380.5 C 329.7 380.7, 338.2 382.4, 340.8 386.5 C 343.4 390.7, 342.0 399.6, 339.1 405.4 C 336.2 411.1, 329.4 420.5, 323.6 420.9 C 317.8 421.3, 307.5 413.5, 304.3 407.6 C 301.1 401.7, 301.0 389.8, 304.3 385.2 C 307.5 380.7, 317.5 380.3, 323.6 380.5 Z" fill="#A8E063" opacity="0.08"/>
  <line x1="323.6" y1="407.1" x2="323.6" y2="432.6" stroke="#A8E063" stroke-width="1.5" opacity="0.12"/>
  <circle cx="923.9" cy="337.2" r="3.0" fill="#A8E063" opacity="0.08"/>
  <circle cx="219.6" cy="259.4" r="2.2" fill="#A8E063" opacity="0.08"/>
  <circle cx="866.6" cy="319.9" r="2.2" fill="#A8E063" opacity="0.08"/>
  <circle cx="279.0" cy="293.1" r="1.8" fill="#A8E063" opacity="0.08"/>
  <circle cx="928.0" cy="322.5" r="2.9" fill="#A8E063" opacity="0.08"/>
  <circle cx="282.2" cy="356.9" r="2.3" fill="#A8E063" opacity="0.08"/>
  <path d="M 384.0 437.6 Q 640.0 457.6, 960.0 432.6" fill="none" stroke="#A8E063" stroke-width="2" opacity="0.12" stroke-linecap="round"/>

</svg>