<svg xmlns="http://www.w3.org/2000/svg" viewBox="0 0 1280 1280" fill="none">
<defs>
  <linearGradient id="bg-4-2" x1="0" y1="0" x2="1" y2="1">
    <stop offset="0%" stop-color="#4CB648" stop-opacity="0.05"/>
    <stop offset="100%" stop-color="#A8E063" stop-opacity="0.03"/>
  </linearGradient>
</defs>
  <rect width="1280" height="1280" fill="url(#bg-4-2)"/>
  <path d="M 837.2 780.8 C 867.6 784.7, 889.9 832.9, 916.6 859.2 C 943.2 885.5, 993.4 908.5, 997.0 938.6 C 1000.6 968.7, 964.9 1010.8, 938.3 1039.6 C 911.6 1068.5, 870.5 1112.0, 837.2 1111.6 C 803.9 1111.3, 758.8 1066.3, 738.3 1037.5 C 717.8 1008.6, 714.9 972.2, 714.3 938.6 C 713.6 905.0, 713.9 862.0, 734.4 835.8 C 754.9 809.5, 806.9 776.9, 837.2 780.8 Z" fill="#4CB648" opacity="0.04"/>
  <circle cx="560.4" cy="74.6" r="1.8" fill="#4CB648" opacity="0.06"/>
  <circle cx="531.6" cy="650.6" r="3.9" fill="#4CB648" opacity="0.06"/>
  <circle cx="1040.4" cy="169.6" r="2.3" fill="#4CB648" opacity="0.06"/>
  <circle cx="1138.3" cy="1029.6" r="2.5" fill="#4CB648" opacity="0.06"/>
  <circle cx="964.5" cy="1095.6" r="3.4" fill="#4CB648" opacity="0.06"/>
  <circle cx="280.2" cy="94.2" r="2.8" fill="#4CB648" opacity="0.06"/>
  <circle cx="69.4" cy="790.2" r="4.0" fill="#4CB648" opacity="0.06"/>
  <circle cx="330.5" cy="189.1" r="3.2" fill="#4CB648" opacity="0.06"/>
  <circle cx="866.8" cy="725.1" r="2.5" fill="#4CB648" opacity="0.06"/>
  <circle cx="338.9" cy="1013.4" r="3.8" fill="#4CB648" opacity="0.06"/>
  <circle cx="640.0" cy="640.0" r="358.4" fill="#4CB648" opacity="0.05"/>
  <circle cx="640.0" cy="640.0" r="358.4" fill="none" stroke="#4CB648" stroke-width="2" opacity="0.25"/>
  <circle cx="640.0" cy="640.0" r="233.0" fill="none" stroke="#A8E063" stroke-width="1" opacity="0.12"/>
  <path d="M 640.0 640.0 L 640.0 281.6 A 358.4 358.4 0 0 1 998.4 640.0 Z" fill="#4CB648" opacity="0.050"/>
  <line x1="640.0" y1="640.0" x2="640.0" y2="281.6" stroke="#4CB648" stroke-width="1" opacity="0.12"/>
  <path d="M 640.0 640.0 L 998.4 640.0 A 358.4 358.4 0 0 1 640.0 998.4 Z" fill="#A8E063" opacity="0.075"/>
  <line x1="640.0" y1="640.0" x2="998.4" y2="640.0" stroke="#4CB648" stroke-width="1" opacity="0.12"/>
  <path d="M 640.0 640.0 L 640.0 998.4 A 358.4 358.4 0 0 1 281.6 640.0 Z" fill="#4CB648" opacity="0.100"/>
  <line x1="640.0" y1="640.0" x2="640.0" y2="998.4" stroke="#4CB648" stroke-width="1" opacity="0.12"/>
  <path d="M 640.0 640.0 L 281.6 640.0 A 358.4 358.4 0 0 1 640.0 281.6 Z" fill="#A8E063" opacity="0.125"/>
  <line x1="640.0" y1="640.0" x2="281.6" y2="640.0" stroke="#4CB648" stroke-width="1" opacity="0.12"/>
  <circle cx="640.0" cy="640.0" r="4" fill="#4CB648" opacity="0.3"/>

</svg>