<svg xmlns="http://www.w3.org/2000/svg" viewBox="0 0 1280 720" fill="none">
<defs>
  <linearGradient id="bg-4-4" x1="0" y1="0" x2="1" y2="1">
    <stop offset="0%" stop-color="#4CB648" stop-opacity="0.05"/>
    <stop offset="100%" stop-color="#A8E063" stop-opacity="0.03"/>
  </linearGradient>
</defs>
  <rect width="1280" height="720" fill="url(#bg-4-4)"/>
  <path d="M 758.6 16.5 C 779.8 14.8, 812.4 30.9, 827.4 47.5 C 842.5 64.1, 845.8 90.4, 848.8 116.3 C 851.7 142.2, 860.2 187.0, 845.1 202.8 C 830.1 218.5, 786.4 211.8, 758.6 210.7 C 730.9 209.6, 690.1 211.8, 678.9 196.0 C 667.7 180.3, 687.6 139.3, 691.2 116.3 C 694.8 93.3, 689.2 74.7, 700.4 58.0 C 711.6 41.4, 737.5 18.3, 758.6 16.5 Z" fill="#4CB648" opacity="0.07"/>
  <circle cx="70.2" cy="298.5" r="3.6" fill="#4CB648" opacity="0.10"/>
  <circle cx="1209.3" cy="578.5" r="2.2" fill="#4CB648" opacity="0.10"/>
  <circle cx="628.3" cy="462.9" r="3.8" fill="#4CB648" opacity="0.10"/>
  <circle cx="452.6" cy="624.1" r="2.7" fill="#4CB648" opacity="0.10"/>
  <circle cx="530.6" cy="219.5" r="3.1" fill="#4CB648" opacity="0.10"/>
  <circle cx="961.9" cy="111.5" r="2.0" fill="#4CB648" opacity="0.10"/>
  <circle cx="302.9" cy="609.3" r="2.3" fill="#4CB648" opacity="0.10"/>
  <circle cx="708.9" cy="625.6" r="3.4" fill="#4CB648" opacity="0.10"/>
  <circle cx="624.5" cy="199.9" r="1.6" fill="#4CB648" opacity="0.10"/>
  <circle cx="627.3" cy="604.9" r="3.1" fill="#4CB648" opacity="0.10"/>
  <circle cx="1074.5" cy="89.4" r="1.9" fill="#4CB648" opacity="0.10"/>
  <line x1="256.0" y1="360.0" x2="1024.0" y2="360.0" stroke="#4CB648" stroke-width="2" opacity="0.2" stroke-linecap="round"/>
  <line x1="256.0" y1="360.0" x2="793.6" y2="360.0" stroke="#4CB648" stroke-width="3" opacity="0.15" stroke-linecap="round"/>
  <circle cx="256.0" cy="360.0" r="5" fill="#4CB648" opacity="0.3"/>
  <rect x="188.8" y="210.4" width="134.4" height="129.6" rx="8" fill="#4CB648" opacity="0.07"/>
  <rect x="188.8" y="210.4" width="134.4" height="129.6" rx="8" fill="none" stroke="#4CB648" stroke-width="1" opacity="0.2"/>
  <line x1="256.0" y1="355.0" x2="256.0" y2="340.0" stroke="#4CB648" stroke-width="0.8" opacity="0.15"/>
  <line x1="220.8" y1="275.2" x2="291.2" y2="275.2" stroke="#4CB648" stroke-width="1.5" opacity="0.1" stroke-linecap="round"/>
  <circle cx="448.0" cy="360.0" r="5" fill="#A8E063" opacity="0.3"/>
  <rect x="380.8" y="380.0" width="134.4" height="129.6" rx="8" fill="#A8E063" opacity="0.07"/>
  <rect x="380.8" y="380.0" width="134.4" height="129.6" rx="8" fill="none" stroke="#A8E063" stroke-width="1" opacity="0.2"/>
  <line x1="448.0" y1="365.0" x2="448.0" y2="380.0" stroke="#A8E063" stroke-width="0.8" opacity="0.15"/>
  <line x1="406.9" y1="444.8" x2="489.1" y2="444.8" stroke="#A8E063" stroke-width="1.5" opacity="0.1" stroke-linecap="round"/>
  <circle cx="640.0" cy="360.0" r="5" fill="#4CB648" opacity="0.3"/>
  <rect x="572.8" y="210.4" width="134.4" height="129.6" rx="8" fill="#4CB648" opacity="0.07"/>
  <rect x="572.8" y="210.4" width="134.4" height="129.6" rx="8" fill="none" stroke="#4CB648" stroke-width="1" opacity="0.2"/>
  <line x1="640.0" y1="355.0" x2="640.0" y2="340.0" stroke="#4CB648" stroke-width="0.8" opacity="0.15"/>
  <line x1="595.5" y1="275.2" x2="684.5" y2="275.2" stroke="#4CB648" stroke-width="1.5" opacity="0.1" stroke-linecap="round"/>
  <circle cx="832.0" cy="360.0" r="5" fill="#A8E063" opacity="0.3"/>
  <rect x="764.8" y="380.0" width="134.4" height="129.6" rx="8" fill="#A8E063" opacity="0.07"/>
  <rect x="764.8" y="380.0" width="134.4" height="129.6" rx="8" fill="none" stroke="#A8E063" stroke-width="1" opacity="0.2"/>
  <line x1="832.0" y1="365.0" x2="832.0" y2="380.0" stroke="#A8E063" stroke-width="0.8" opacity="0.15"/>
  <line x1="789.4" y1="444.8" x2="874.6" y2="444.8" stroke="#A8E063" stroke-width="1.5" opacity="0.1" stroke-linecap="round"/>
  <circle cx="1024.0" cy="360.0" r="5" fill="#4CB648" opacity="0.3"/>
  <rect x="956.8" y="210.4" width="134.4" height="129.6" rx="8" fill="#4CB648" opacity="0.07"/>
  <rect x="956.8" y="210.4" width="134.4" height="129.6" rx="8" fill="none" stroke="#4CB648" stroke-width="1" opacity="0.2"/>
  <line x1="1024.0" y1="355.0" x2="1024.0" y2="340.0" stroke="#4CB648" stroke-width="0.8" opacity="0.15"/>
  <line x1="984.3" y1="275.2" x2="1063.7" y2="275.2" stroke="#4CB648" stroke-width="1.5" opacity="0.1" stroke-linecap="round"/>

</svg>