<svg xmlns="http://www.w3.org/2000/svg" viewBox="0 0 1280 720" fill="none">
<defs>
  <linearGradient id="bg-4-5" x1="0" y1="0" x2="1" y2="1">
    <stop offset="0%" stop-color="#4CB648" stop-opacity="0.05"/>
    <stop offset="100%" stop-color="#A8E063" stop-opacity="0.03"/>
  </linearGradient>
</defs>
  <rect width="1280" height="720" fill="url(#bg-4-5)"/>
  <path d="M 309.9 12.7 C 348.3 11.4, 397.8 37.6, 428.9 66.3 C 460.1 95.1, 498.1 146.7, 497.1 185.3 C 496.0 224.0, 453.8 271.1, 422.7 298.1 C 391.5 325.1, 342.4 352.4, 309.9 347.3 C 277.4 342.2, 259.2 294.6, 227.7 267.6 C 196.2 240.6, 125.6 217.6, 120.7 185.3 C 115.9 153.1, 167.2 102.9, 198.7 74.1 C 230.2 45.3, 271.6 14.0, 309.9 12.7 Z" fill="#4CB648" opacity="0.06"/>
  <path d="M 334.3 290.0 C 359.4 286.1, 401.8 275.1, 421.3 289.6 C 440.8 304.0, 454.8 351.2, 451.1 376.6 C 447.5 401.9, 418.8 428.5, 399.3 441.6 C 379.8 454.7, 357.1 454.1, 334.3 455.2 C 311.5 456.4, 278.5 461.5, 262.5 448.4 C 246.5 435.3, 237.1 399.1, 238.4 376.6 C 239.8 354.0, 254.9 327.5, 270.8 313.1 C 286.8 298.7, 309.2 294.0, 334.3 290.0 Z" fill="#A8E063" opacity="0.05"/>
  <circle cx="302.4" cy="57.8" r="3.4" fill="#4CB648" opacity="0.06"/>
  <circle cx="921.4" cy="525.8" r="2.4" fill="#4CB648" opacity="0.06"/>
  <circle cx="662.7" cy="611.1" r="2.2" fill="#4CB648" opacity="0.06"/>
  <circle cx="801.0" cy="412.1" r="2.4" fill="#4CB648" opacity="0.06"/>
  <circle cx="112.4" cy="211.7" r="2.9" fill="#4CB648" opacity="0.06"/>
  <circle cx="1161.9" cy="644.4" r="2.8" fill="#4CB648" opacity="0.06"/>
  <circle cx="260.3" cy="536.2" r="2.9" fill="#4CB648" opacity="0.06"/>
  <rect x="243.2" y="162.0" width="255.2" height="191.0" rx="10" fill="#4CB648" opacity="0.13"/>
  <rect x="243.2" y="162.0" width="255.2" height="191.0" rx="10" fill="none" stroke="#4CB648" stroke-width="1.2" opacity="0.25"/>
  <circle cx="370.8" cy="191.1" r="13.6" fill="#4CB648" opacity="0.15"/>
  <line x1="296.9" y1="267.1" x2="444.7" y2="267.1" stroke="#4CB648" stroke-width="2" opacity="0.12" stroke-linecap="round"/>
  <line x1="276.5" y1="281.1" x2="465.1" y2="281.1" stroke="#4CB648" stroke-width="2" opacity="0.12" stroke-linecap="round"/>
  <rect x="512.4" y="162.0" width="255.2" height="191.0" rx="10" fill="#A8E063" opacity="0.09"/>
  <rect x="512.4" y="162.0" width="255.2" height="191.0" rx="10" fill="none" stroke="#A8E063" stroke-width="1.2" opacity="0.25"/>
  <circle cx="640.0" cy="190.5" r="12.8" fill="#A8E063" opacity="0.15"/>
  <line x1="542.5" y1="267.1" x2="737.5" y2="267.1" stroke="#A8E063" stroke-width="2" opacity="0.12" stroke-linecap="round"/>
  <line x1="556.8" y1="281.1" x2="723.2" y2="281.1" stroke="#A8E063" stroke-width="2" opacity="0.12" stroke-linecap="round"/>
  <rect x="781.6" y="162.0" width="255.2" height="191.0" rx="10" fill="#4CB648" opacity="0.13"/>
  <rect x="781.6" y="162.0" width="255.2" height="191.0" rx="10" fill="none" stroke="#4CB648" stroke-width="1.2" opacity="0.25"/>
  <circle cx="909.2" cy="185.0" r="15.6" fill="#4CB648" opacity="0.15"/>
  <line x1="813.7" y1="267.1" x2="1004.7" y2="267.1" stroke="#4CB648" stroke-width="2" opacity="0.12" stroke-linecap="round"/>
  <line x1="815.0" y1="281.1" x2="1003.4" y2="281.1" stroke="#4CB648" stroke-width="2" opacity="0.12" stroke-linecap="round"/>
  <rect x="243.2" y="367.0" width="255.2" height="191.0" rx="10" fill="#A8E063" opacity="0.15"/>
  <rect x="243.2" y="367.0" width="255.2" height="191.0" rx="10" fill="none" stroke="#A8E063" stroke-width="1.2" opacity="0.25"/>
  <circle cx="370.8" cy="391.8" r="13.6" fill="#A8E063" opacity="0.15"/>
  <line x1="304.1" y1="472.1" x2="437.5" y2="472.1" stroke="#A8E063" stroke-width="2" opacity="0.12" stroke-linecap="round"/>
  <line x1="289.3" y1="486.1" x2="452.3" y2="486.1" stroke="#A8E063" stroke-width="2" opacity="0.12" stroke-linecap="round"/>
  <rect x="512.4" y="367.0" width="255.2" height="191.0" rx="10" fill="#4CB648" opacity="0.11"/>
  <rect x="512.4" y="367.0" width="255.2" height="191.0" rx="10" fill="none" stroke="#4CB648" stroke-width="1.2" opacity="0.25"/>
  <circle cx="640.0" cy="392.5" r="10.4" fill="#4CB648" opacity="0.15"/>
  <line x1="539.7" y1="472.1" x2="740.3" y2="472.1" stroke="#4CB648" stroke-width="2" opacity="0.12" stroke-linecap="round"/>
  <line x1="543.9" y1="486.1" x2="736.1" y2="486.1" stroke="#4CB648" stroke-width="2" opacity="0.12" stroke-linecap="round"/>
  <rect x="781.6" y="367.0" width="255.2" height="191.0" rx="10" fill="#A8E063" opacity="0.09"/>
  <rect x="781.6" y="367.0" width="255.2" height="191.0" rx="10" fill="none" stroke="#A8E063" stroke-width="1.2" opacity="0.25"/>
  <circle cx="909.2" cy="390.6" r="14.3" fill="#A8E063" opacity="0.15"/>
  <line x1="830.8" y1="472.1" x2="987.6" y2="472.1" stroke="#A8E063" stroke-width="2" opacity="0.12" stroke-linecap="round"/>
  <line x1="812.4" y1="486.1" x2="1006.0" y2="486.1" stroke="#A8E063" stroke-width="2" opacity="0.12" stroke-linecap="round"/>

</svg>