<svg xmlns="http://www.w3.org/2000/svg" viewBox="0 0 1280 720" fill="none">
<defs>
  <linearGradient id="bg-2-7" x1="0" y1="0" x2="1" y2="1">
    <stop offset="0%" stop-color="#4CB648" stop-opacity="0.05"/>
    <stop offset="100%" stop-color="#A8E063" stop-opacity="0.03"/>
  </linearGradient>
</defs>
  <rect width="1280" height="720" fill="url(#bg-2-7)"/>
  <path d="M 767.9 496.8 C 793.3 496.1, 826.6 504.3, 846.0 521.5 C 865.3 538.6, 883.9 573.4, 884.0 599.5 C 884.1 625.6, 865.9 660.0, 846.6 678.1 C 827.2 696.2, 793.5 708.5, 767.9 707.9 C 742.4 707.3, 708.9 692.4, 693.1 674.3 C 677.3 656.3, 673.0 624.3, 673.1 599.5 C 673.2 574.7, 678.1 542.5, 693.9 525.4 C 709.7 508.3, 742.6 497.5, 767.9 496.8 Z" fill="#4CB648" opacity="0.05"/>
  <path d="M 428.6 35.7 C 463.7 39.2, 492.7 95.6, 523.5 126.5 C 554.2 157.5, 614.6 191.1, 613.2 221.4 C 611.8 251.6, 546.0 278.0, 515.3 308.1 C 484.5 338.1, 464.0 395.1, 428.6 401.5 C 393.3 408.0, 327.6 376.9, 303.2 346.8 C 278.8 316.8, 280.7 261.6, 282.4 221.4 C 284.0 181.2, 288.7 136.8, 313.1 105.8 C 337.5 74.9, 393.6 32.3, 428.6 35.7 Z" fill="#A8E063" opacity="0.06"/>
  <circle cx="73.6" cy="116.6" r="3.8" fill="#4CB648" opacity="0.10"/>
  <circle cx="886.5" cy="107.9" r="3.7" fill="#4CB648" opacity="0.10"/>
  <circle cx="893.3" cy="262.1" r="1.9" fill="#4CB648" opacity="0.10"/>
  <circle cx="680.7" cy="75.4" r="1.6" fill="#4CB648" opacity="0.10"/>
  <circle cx="100.0" cy="446.8" r="1.6" fill="#4CB648" opacity="0.10"/>
  <circle cx="795.6" cy="277.1" r="2.0" fill="#4CB648" opacity="0.10"/>
  <circle cx="307.3" cy="580.2" r="3.0" fill="#4CB648" opacity="0.10"/>
  <circle cx="955.4" cy="295.6" r="3.8" fill="#4CB648" opacity="0.10"/>
  <circle cx="542.7" cy="109.5" r="1.7" fill="#4CB648" opacity="0.10"/>
  <circle cx="508.3" cy="622.1" r="3.6" fill="#4CB648" opacity="0.10"/>
  <circle cx="698.1" cy="285.9" r="3.7" fill="#4CB648" opacity="0.10"/>
  <path d="M 640.0 180.0 C 690.0 216.0, 700.0 324.0, 695.0 432.0 C 690.0 504.0, 670.0 561.6, 640.0 576.0" fill="none" stroke="#4CB648" stroke-width="2" opacity="0.2" stroke-linecap="round"/>
  <path d="M 640.0 180.0 C 590.0 216.0, 580.0 324.0, 585.0 432.0 C 590.0 504.0, 610.0 561.6, 640.0 576.0" fill="none" stroke="#4CB648" stroke-width="2" opacity="0.2" stroke-linecap="round"/>
  <circle cx="640.0" cy="244.8" r="18.2" fill="#4CB648" opacity="0.12"/>
  <circle cx="640.0" cy="244.8" r="18.2" fill="none" stroke="#4CB648" stroke-width="1.5" opacity="0.3"/>
  <circle cx="625.0" cy="374.4" r="14.4" fill="#A8E063" opacity="0.12"/>
  <circle cx="625.0" cy="374.4" r="14.4" fill="none" stroke="#A8E063" stroke-width="1.5" opacity="0.3"/>
  <circle cx="660.0" cy="446.4" r="19.8" fill="#4CB648" opacity="0.12"/>
  <circle cx="660.0" cy="446.4" r="19.8" fill="none" stroke="#4CB648" stroke-width="1.5" opacity="0.3"/>
  <line x1="640.0" y1="244.8" x2="625.0" y2="374.4" stroke="#4CB648" stroke-width="1.5" opacity="0.15" stroke-dasharray="4 3"/>
  <circle cx="636.3" cy="277.2" r="2" fill="#A8E063" opacity="0.2"/>
  <circle cx="632.5" cy="309.6" r="2" fill="#A8E063" opacity="0.2"/>
  <circle cx="628.8" cy="342.0" r="2" fill="#A8E063" opacity="0.2"/>
  <line x1="625.0" y1="374.4" x2="660.0" y2="446.4" stroke="#4CB648" stroke-width="1.5" opacity="0.15" stroke-dasharray="4 3"/>
  <circle cx="633.8" cy="392.4" r="2" fill="#A8E063" opacity="0.2"/>
  <circle cx="642.5" cy="410.4" r="2" fill="#A8E063" opacity="0.2"/>
  <circle cx="651.3" cy="428.4" r="2" fill="#A8E063" opacity="0.2"/>

</svg>