<svg xmlns="http://www.w3.org/2000/svg" viewBox="0 0 1280 720" fill="none">
<defs>
  <linearGradient id="bg-2-10" x1="0" y1="0" x2="1" y2="1">
    <stop offset="0%" stop-color="#4CB648" stop-opacity="0.05"/>
    <stop offset="100%" stop-color="#A8E063" stop-opacity="0.03"/>
  </linearGradient>
</defs>
  <rect width="1280" height="720" fill="url(#bg-2-10)"/>
  <path d="M 854.4 372.6 C 876.4 374.8, 893.6 426.4, 913.8 449.0 C 934.1 471.6, 974.5 487.1, 976.0 508.4 C 977.5 529.7, 943.0 555.3, 922.7 576.8 C 902.4 598.2, 875.3 638.9, 854.4 637.0 C 833.5 635.1, 811.4 586.8, 797.5 565.4 C 783.5 543.9, 773.1 530.0, 770.5 508.4 C 767.9 486.9, 768.0 458.7, 782.0 436.0 C 795.9 413.4, 832.4 370.5, 854.4 372.6 Z" fill="#4CB648" opacity="0.05"/>
  <circle cx="154.4" cy="572.5" r="3.0" fill="#4CB648" opacity="0.06"/>
  <circle cx="148.0" cy="594.2" r="2.1" fill="#4CB648" opacity="0.06"/>
  <circle cx="454.4" cy="500.7" r="2.5" fill="#4CB648" opacity="0.06"/>
  <circle cx="295.3" cy="602.8" r="2.1" fill="#4CB648" opacity="0.06"/>
  <circle cx="184.5" cy="602.3" r="3.9" fill="#4CB648" opacity="0.06"/>
  <circle cx="1148.5" cy="514.4" r="3.7" fill="#4CB648" opacity="0.06"/>
  <line x1="350.1" y1="441.0" x2="974.5" y2="441.0" stroke="#4CB648" stroke-width="0.5" opacity="0.1"/>
  <line x1="350.1" y1="360.0" x2="974.5" y2="360.0" stroke="#4CB648" stroke-width="0.5" opacity="0.1"/>
  <line x1="350.1" y1="279.0" x2="974.5" y2="279.0" stroke="#4CB648" stroke-width="0.5" opacity="0.1"/>
  <line x1="350.1" y1="198.0" x2="974.5" y2="198.0" stroke="#4CB648" stroke-width="0.5" opacity="0.1"/>
  <line x1="350.1" y1="522.0" x2="974.5" y2="522.0" stroke="#4CB648" stroke-width="1.5" opacity="0.2"/>
  <rect x="360.1" y="429.8" width="68.3" height="92.2" rx="4" fill="#4CB648" opacity="0.12"/>
  <rect x="360.1" y="429.8" width="68.3" height="92.2" rx="4" fill="none" stroke="#4CB648" stroke-width="1" opacity="0.25"/>
  <rect x="483.0" y="250.4" width="68.3" height="271.6" rx="4" fill="#A8E063" opacity="0.21"/>
  <rect x="483.0" y="250.4" width="68.3" height="271.6" rx="4" fill="none" stroke="#A8E063" stroke-width="1" opacity="0.25"/>
  <rect x="605.9" y="287.0" width="68.3" height="235.0" rx="4" fill="#4CB648" opacity="0.22"/>
  <rect x="605.9" y="287.0" width="68.3" height="235.0" rx="4" fill="none" stroke="#4CB648" stroke-width="1" opacity="0.25"/>
  <rect x="728.7" y="410.7" width="68.3" height="111.3" rx="4" fill="#A8E063" opacity="0.12"/>
  <rect x="728.7" y="410.7" width="68.3" height="111.3" rx="4" fill="none" stroke="#A8E063" stroke-width="1" opacity="0.25"/>
  <rect x="851.6" y="217.8" width="68.3" height="304.2" rx="4" fill="#4CB648" opacity="0.15"/>
  <rect x="851.6" y="217.8" width="68.3" height="304.2" rx="4" fill="none" stroke="#4CB648" stroke-width="1" opacity="0.25"/>

</svg>