<svg xmlns="http://www.w3.org/2000/svg" viewBox="0 0 1280 720" fill="none">
<defs>
  <linearGradient id="bg-2-6" x1="0" y1="0" x2="1" y2="1">
    <stop offset="0%" stop-color="#4CB648" stop-opacity="0.05"/>
    <stop offset="100%" stop-color="#A8E063" stop-opacity="0.03"/>
  </linearGradient>
</defs>
  <rect width="1280" height="720" fill="url(#bg-2-6)"/>
  <path d="M 367.9 173.4 C 404.5 172.1, 465.0 152.8, 481.7 171.4 C 498.4 190.1, 473.8 252.9, 468.2 285.2 C 462.7 317.6, 465.1 347.3, 448.3 365.7 C 431.6 384.0, 392.7 397.4, 367.9 395.4 C 343.1 393.4, 321.2 372.0, 299.5 353.7 C 277.7 335.3, 243.7 314.3, 237.5 285.2 C 231.3 256.2, 240.5 198.2, 262.2 179.6 C 284.0 161.0, 331.3 174.8, 367.9 173.4 Z" fill="#4CB648" opacity="0.06"/>
  <circle cx="477.0" cy="244.9" r="1.9" fill="#4CB648" opacity="0.07"/>
  <circle cx="797.7" cy="669.3" r="2.1" fill="#4CB648" opacity="0.07"/>
  <circle cx="785.2" cy="537.3" r="1.7" fill="#4CB648" opacity="0.07"/>
  <circle cx="268.9" cy="293.6" r="3.2" fill="#4CB648" opacity="0.07"/>
  <circle cx="345.1" cy="40.8" r="2.8" fill="#4CB648" opacity="0.07"/>
  <circle cx="238.6" cy="132.5" r="1.8" fill="#4CB648" opacity="0.07"/>
  <circle cx="442.2" cy="404.1" r="1.7" fill="#4CB648" opacity="0.07"/>
  <circle cx="996.1" cy="461.2" r="3.9" fill="#4CB648" opacity="0.07"/>
  <circle cx="939.2" cy="43.0" r="1.8" fill="#4CB648" opacity="0.07"/>
  <line x1="640.0" y1="144.0" x2="640.0" y2="576.0" stroke="#4CB648" stroke-width="1" opacity="0.15" stroke-dasharray="6 4"/>
  <path d="M 293.9 366.2 C 303.3 366.6, 314.6 384.0, 320.0 394.4 C 325.5 404.8, 331.0 419.5, 326.7 428.5 C 322.3 437.4, 305.8 447.6, 293.9 448.1 C 281.9 448.7, 260.3 441.2, 255.2 431.9 C 250.1 422.5, 257.0 402.9, 263.4 392.0 C 269.9 381.0, 284.4 365.8, 293.9 366.2 Z" fill="#A8E063" opacity="0.06"/>
  <path d="M 379.3 378.4 C 389.6 378.3, 403.9 386.1, 410.7 396.1 C 417.6 406.0, 425.8 425.8, 420.5 438.0 C 415.3 450.2, 391.3 470.2, 379.3 469.3 C 367.2 468.3, 353.3 444.3, 348.2 432.2 C 343.1 420.0, 343.5 405.5, 348.7 396.6 C 353.9 387.6, 368.9 378.5, 379.3 378.4 Z" fill="#A8E063" opacity="0.07"/>
  <path d="M 277.6 253.8 C 288.8 254.9, 301.0 258.6, 305.3 265.7 C 309.7 272.9, 308.3 289.1, 303.7 296.8 C 299.0 304.6, 286.6 312.0, 277.6 312.2 C 268.6 312.4, 256.4 306.7, 249.8 297.8 C 243.2 288.9, 233.4 266.3, 238.1 258.9 C 242.7 251.6, 266.4 252.7, 277.6 253.8 Z" fill="#A8E063" opacity="0.07"/>
  <line x1="281.6" y1="158.4" x2="512.0" y2="158.4" stroke="#A8E063" stroke-width="2" opacity="0.12" stroke-linecap="round"/>
  <path d="M 890.1 333.9 C 906.7 331.9, 937.6 338.9, 947.3 351.7 C 956.9 364.4, 954.0 395.2, 948.2 410.5 C 942.4 425.8, 925.9 437.9, 912.4 443.6 C 898.9 449.3, 880.4 450.2, 867.3 444.6 C 854.2 439.1, 836.9 423.7, 833.6 410.1 C 830.3 396.6, 838.1 376.0, 847.6 363.3 C 857.0 350.6, 873.5 335.8, 890.1 333.9 Z" fill="#4CB648" opacity="0.12"/>
  <path d="M 930.4 410.6 C 941.2 409.4, 961.0 413.7, 967.6 422.1 C 974.1 430.4, 973.8 451.2, 969.8 460.7 C 965.8 470.2, 953.1 474.3, 943.6 479.0 C 934.0 483.7, 920.1 492.3, 912.5 489.0 C 904.9 485.7, 899.5 469.0, 897.9 459.1 C 896.3 449.3, 897.4 437.8, 902.8 429.7 C 908.3 421.6, 919.7 411.9, 930.4 410.6 Z" fill="#4CB648" opacity="0.08"/>
  <path d="M 856.8 349.2 C 873.6 349.6, 892.1 359.3, 905.8 372.9 C 919.4 386.4, 943.0 416.4, 938.5 430.6 C 934.1 444.7, 898.3 449.0, 878.9 457.9 C 859.5 466.7, 838.8 488.4, 822.2 483.7 C 805.7 478.9, 782.4 448.4, 779.4 429.6 C 776.5 410.7, 791.8 383.8, 804.7 370.4 C 817.6 357.0, 839.9 348.8, 856.8 349.2 Z" fill="#4CB648" opacity="0.14"/>
  <path d="M 949.4 336.3 C 969.3 336.7, 1000.5 327.5, 1007.5 336.9 C 1014.5 346.3, 997.9 378.5, 991.4 392.8 C 984.9 407.1, 979.2 416.4, 968.4 422.6 C 957.6 428.9, 938.4 435.1, 926.6 430.5 C 914.8 425.9, 903.8 411.1, 897.4 395.0 C 891.0 379.0, 879.5 344.1, 888.2 334.3 C 896.8 324.6, 929.5 335.9, 949.4 336.3 Z" fill="#4CB648" opacity="0.10"/>
  <path d="M 839.8 336.9 C 855.4 334.3, 884.6 337.2, 896.3 349.5 C 908.1 361.9, 916.4 395.9, 910.5 410.8 C 904.6 425.6, 877.4 431.7, 861.0 438.6 C 844.6 445.5, 825.4 457.3, 812.1 452.2 C 798.7 447.1, 782.6 422.5, 781.1 408.0 C 779.5 393.5, 793.0 377.0, 802.8 365.1 C 812.6 353.2, 824.2 339.5, 839.8 336.9 Z" fill="#4CB648" opacity="0.14"/>
  <circle cx="1048.5" cy="402.7" r="4.3" fill="#4CB648" opacity="0.12"/>
  <circle cx="704.0" cy="363.6" r="2.2" fill="#4CB648" opacity="0.12"/>
  <circle cx="1033.5" cy="269.8" r="4.3" fill="#4CB648" opacity="0.12"/>
  <circle cx="1063.3" cy="539.2" r="2.3" fill="#4CB648" opacity="0.12"/>
  <circle cx="849.3" cy="522.4" r="3.4" fill="#4CB648" opacity="0.12"/>
  <circle cx="1020.5" cy="188.2" r="4.3" fill="#4CB648" opacity="0.12"/>
  <circle cx="928.5" cy="500.9" r="4.4" fill="#4CB648" opacity="0.12"/>
  <circle cx="739.9" cy="487.6" r="4.1" fill="#4CB648" opacity="0.12"/>
  <line x1="768.0" y1="158.4" x2="998.4" y2="158.4" stroke="#4CB648" stroke-width="2.5" opacity="0.2" stroke-linecap="round"/>
  <rect x="635.0" y="355.0" width="10" height="10" fill="#4CB648" opacity="0.2" transform="rotate(45 640.0 360.0)"/>

</svg>