<svg xmlns="http://www.w3.org/2000/svg" viewBox="0 0 1280 720" fill="none">
<defs>
  <linearGradient id="bg-2-9" x1="0" y1="0" x2="1" y2="1">
    <stop offset="0%" stop-color="#4CB648" stop-opacity="0.05"/>
    <stop offset="100%" stop-color="#A8E063" stop-opacity="0.03"/>
  </linearGradient>
</defs>
  <rect width="1280" height="720" fill="url(#bg-2-9)"/>
  <path d="M 849.0 -0.1 C 872.1 -3.5, 904.4 22.4, 928.5 42.8 C 952.5 63.2, 991.5 94.1, 993.2 122.3 C 995.0 150.5, 962.9 188.8, 938.8 212.2 C 914.8 235.5, 877.7 263.7, 849.0 262.5 C 820.2 261.3, 791.7 228.3, 766.4 204.9 C 741.1 181.5, 693.5 145.9, 697.4 122.3 C 701.3 98.6, 764.4 83.4, 789.7 63.0 C 814.9 42.6, 825.9 3.2, 849.0 -0.1 Z" fill="#4CB648" opacity="0.07"/>
  <path d="M 366.3 100.7 C 407.4 98.0, 476.6 126.1, 497.5 157.5 C 518.5 188.8, 493.3 246.2, 492.1 288.8 C 490.9 331.3, 511.2 377.7, 490.2 412.7 C 469.3 447.7, 407.3 499.0, 366.3 498.8 C 325.2 498.5, 266.5 446.1, 243.9 411.1 C 221.3 376.1, 229.5 328.4, 230.7 288.8 C 231.8 249.1, 228.3 204.8, 250.9 173.4 C 273.5 142.1, 325.1 103.4, 366.3 100.7 Z" fill="#A8E063" opacity="0.05"/>
  <circle cx="1087.4" cy="673.6" r="1.5" fill="#4CB648" opacity="0.11"/>
  <circle cx="273.8" cy="671.9" r="3.6" fill="#4CB648" opacity="0.11"/>
  <circle cx="483.5" cy="666.2" r="3.5" fill="#4CB648" opacity="0.11"/>
  <circle cx="904.6" cy="487.2" r="2.4" fill="#4CB648" opacity="0.11"/>
  <circle cx="1147.4" cy="661.7" r="3.1" fill="#4CB648" opacity="0.11"/>
  <circle cx="929.8" cy="155.1" r="3.1" fill="#4CB648" opacity="0.11"/>
  <circle cx="1211.3" cy="330.6" r="3.5" fill="#4CB648" opacity="0.11"/>
  <path d="M 352.0 162.0 L 576.0 558.0 L 704.0 558.0 L 928.0 162.0 Z" fill="#4CB648" opacity="0.06" stroke="#4CB648" stroke-width="1.5" opacity="0.2"/>
  <line x1="408.0" y1="261.0" x2="872.0" y2="261.0" stroke="#A8E063" stroke-width="0.8" opacity="0.12"/>
  <line x1="464.0" y1="360.0" x2="816.0" y2="360.0" stroke="#A8E063" stroke-width="0.8" opacity="0.12"/>
  <line x1="520.0" y1="459.0" x2="760.0" y2="459.0" stroke="#A8E063" stroke-width="0.8" opacity="0.12"/>
  <circle cx="696.6" cy="456.9" r="2.6" fill="#4CB648" opacity="0.20"/>
  <circle cx="667.0" cy="493.4" r="4.5" fill="#A8E063" opacity="0.17"/>
  <circle cx="671.6" cy="436.0" r="3.6" fill="#A8E063" opacity="0.22"/>
  <circle cx="788.2" cy="172.0" r="2.8" fill="#4CB648" opacity="0.20"/>
  <circle cx="518.7" cy="300.7" r="4.7" fill="#4CB648" opacity="0.11"/>
  <circle cx="552.6" cy="293.0" r="4.7" fill="#A8E063" opacity="0.15"/>
  <circle cx="766.0" cy="189.4" r="2.6" fill="#A8E063" opacity="0.14"/>
  <circle cx="494.3" cy="177.4" r="3.3" fill="#4CB648" opacity="0.11"/>
  <circle cx="580.7" cy="527.2" r="2.1" fill="#4CB648" opacity="0.24"/>
  <circle cx="569.2" cy="181.4" r="3.6" fill="#4CB648" opacity="0.14"/>
  <circle cx="594.6" cy="305.7" r="2.7" fill="#4CB648" opacity="0.13"/>
  <circle cx="761.9" cy="174.3" r="4.8" fill="#4CB648" opacity="0.16"/>
  <circle cx="554.9" cy="370.7" r="5.8" fill="#4CB648" opacity="0.17"/>
  <circle cx="681.2" cy="256.1" r="5.5" fill="#A8E063" opacity="0.20"/>
  <circle cx="682.6" cy="192.6" r="4.6" fill="#A8E063" opacity="0.23"/>
  <circle cx="736.9" cy="216.2" r="5.6" fill="#A8E063" opacity="0.20"/>
  <circle cx="587.4" cy="373.1" r="3.7" fill="#A8E063" opacity="0.18"/>
  <circle cx="798.7" cy="265.8" r="4.1" fill="#A8E063" opacity="0.18"/>
  <circle cx="740.5" cy="233.7" r="2.9" fill="#4CB648" opacity="0.13"/>
  <circle cx="589.9" cy="208.6" r="2.4" fill="#4CB648" opacity="0.11"/>

</svg>