<svg xmlns="http://www.w3.org/2000/svg" viewBox="0 0 1280 720" fill="none">
<defs>
  <linearGradient id="bg-2-11" x1="0" y1="0" x2="1" y2="1">
    <stop offset="0%" stop-color="#4CB648" stop-opacity="0.05"/>
    <stop offset="100%" stop-color="#A8E063" stop-opacity="0.03"/>
  </linearGradient>
</defs>
  <rect width="1280" height="720" fill="url(#bg-2-11)"/>
  <path d="M 252.5 321.4 C 297.3 318.1, 363.3 378.8, 396.8 419.1 C 430.4 459.4, 461.5 523.0, 453.9 563.4 C 446.2 603.8, 384.3 629.3, 350.7 661.6 C 317.2 693.8, 293.6 748.7, 252.5 757.1 C 211.4 765.4, 143.7 744.0, 104.2 711.7 C 64.8 679.4, 11.8 608.8, 15.8 563.4 C 19.8 517.9, 88.6 479.3, 128.1 439.0 C 167.6 398.6, 207.7 324.7, 252.5 321.4 Z" fill="#4CB648" opacity="0.05"/>
  <path d="M 838.1 279.7 C 890.0 285.7, 936.7 326.0, 975.7 362.8 C 1014.7 399.6, 1078.0 460.5, 1072.0 500.5 C 1066.1 540.4, 979.1 566.3, 940.1 602.5 C 901.1 638.7, 880.1 709.7, 838.1 717.7 C 796.0 725.8, 715.5 686.9, 687.9 650.7 C 660.2 614.5, 675.9 554.5, 672.0 500.5 C 668.0 446.5, 636.4 363.3, 664.1 326.5 C 691.8 289.7, 786.1 273.6, 838.1 279.7 Z" fill="#A8E063" opacity="0.06"/>
  <circle cx="809.6" cy="509.5" r="2.6" fill="#4CB648" opacity="0.09"/>
  <circle cx="574.2" cy="386.4" r="3.6" fill="#4CB648" opacity="0.09"/>
  <circle cx="619.3" cy="575.5" r="3.0" fill="#4CB648" opacity="0.09"/>
  <circle cx="1205.4" cy="217.5" r="1.5" fill="#4CB648" opacity="0.09"/>
  <circle cx="831.1" cy="404.7" r="3.8" fill="#4CB648" opacity="0.09"/>
  <circle cx="1173.0" cy="315.9" r="3.8" fill="#4CB648" opacity="0.09"/>
  <circle cx="1160.9" cy="211.2" r="2.0" fill="#4CB648" opacity="0.09"/>
  <circle cx="1188.1" cy="66.3" r="2.8" fill="#4CB648" opacity="0.09"/>
  <circle cx="710.7" cy="577.7" r="2.6" fill="#4CB648" opacity="0.09"/>
  <circle cx="416.4" cy="551.1" r="3.2" fill="#4CB648" opacity="0.09"/>
  <circle cx="1170.9" cy="625.3" r="2.8" fill="#4CB648" opacity="0.09"/>
  <rect x="0" y="417.6" width="1280" height="302.4" fill="#4CB648" opacity="0.04"/>
  <path d="M 0 417.6 Q 80.0 424.6, 160.0 421.1 Q 240.0 411.7, 320.0 411.2 Q 400.0 416.6, 480.0 418.7 Q 560.0 418.0, 640.0 421.6 Q 720.0 411.9, 800.0 414.2 Q 880.0 421.4, 960.0 423.9 Q 1040.0 424.2, 1120.0 422.6 Q 1200.0 422.9, 1280.0 423.6" fill="none" stroke="#4CB648" stroke-width="1.5" opacity="0.15"/>
  <path d="M 448.5 367.1 C 457.3 368.1, 464.4 377.7, 470.1 386.2 C 475.8 394.8, 486.3 408.8, 482.7 418.4 C 479.1 428.0, 460.1 443.6, 448.5 443.7 C 436.9 443.8, 418.3 429.6, 413.1 419.1 C 407.9 408.6, 411.3 389.3, 417.2 380.6 C 423.2 371.9, 439.7 366.2, 448.5 367.1 Z" fill="#4CB648" opacity="0.07"/>
  <line x1="448.5" y1="416.0" x2="448.5" y2="432.6" stroke="#4CB648" stroke-width="1.5" opacity="0.12"/>
  <path d="M 643.4 356.2 C 659.7 356.1, 686.4 360.0, 692.8 370.9 C 699.1 381.8, 690.0 410.9, 681.8 421.5 C 673.6 432.1, 657.8 433.5, 643.4 434.5 C 629.0 435.4, 603.5 437.6, 595.4 427.1 C 587.4 416.6, 587.2 383.4, 595.2 371.5 C 603.2 359.7, 627.2 356.4, 643.4 356.2 Z" fill="#4CB648" opacity="0.13"/>
  <line x1="643.4" y1="423.5" x2="643.4" y2="432.6" stroke="#4CB648" stroke-width="1.5" opacity="0.12"/>
  <path d="M 988.2 355.4 C 999.1 355.2, 1018.1 361.0, 1022.4 369.1 C 1026.8 377.2, 1019.8 395.4, 1014.1 403.9 C 1008.4 412.4, 996.4 420.4, 988.2 420.2 C 979.9 419.9, 970.0 410.7, 964.7 402.4 C 959.5 394.2, 952.7 378.5, 956.6 370.7 C 960.5 362.8, 977.2 355.7, 988.2 355.4 Z" fill="#A8E063" opacity="0.09"/>
  <line x1="988.2" y1="405.7" x2="988.2" y2="432.6" stroke="#A8E063" stroke-width="1.5" opacity="0.12"/>
  <path d="M 460.9 360.0 C 470.5 359.8, 487.2 368.0, 490.6 375.3 C 494.0 382.7, 486.1 395.8, 481.1 404.2 C 476.2 412.5, 467.6 425.5, 460.9 425.4 C 454.3 425.4, 445.8 412.0, 441.2 403.9 C 436.6 395.7, 429.9 383.8, 433.2 376.5 C 436.5 369.2, 451.4 360.2, 460.9 360.0 Z" fill="#A8E063" opacity="0.06"/>
  <line x1="460.9" y1="405.9" x2="460.9" y2="432.6" stroke="#A8E063" stroke-width="1.5" opacity="0.12"/>
  <path d="M 218.8 377.6 C 225.4 378.0, 232.7 383.9, 236.5 389.9 C 240.3 395.9, 244.6 406.4, 241.7 413.4 C 238.7 420.3, 225.6 432.1, 218.8 431.7 C 211.9 431.3, 203.9 418.2, 200.3 410.8 C 196.6 403.4, 193.7 393.0, 196.8 387.5 C 199.9 381.9, 212.1 377.2, 218.8 377.6 Z" fill="#A8E063" opacity="0.08"/>
  <line x1="218.8" y1="413.1" x2="218.8" y2="432.6" stroke="#A8E063" stroke-width="1.5" opacity="0.12"/>
  <circle cx="354.8" cy="264.4" r="2.4" fill="#A8E063" opacity="0.08"/>
  <circle cx="172.4" cy="306.1" r="1.7" fill="#A8E063" opacity="0.08"/>
  <circle cx="421.1" cy="330.6" r="3.9" fill="#A8E063" opacity="0.08"/>
  <circle cx="683.4" cy="243.5" r="3.7" fill="#A8E063" opacity="0.08"/>
  <circle cx="463.1" cy="154.1" r="3.3" fill="#A8E063" opacity="0.08"/>
  <circle cx="984.4" cy="304.4" r="2.8" fill="#A8E063" opacity="0.08"/>
  <path d="M 384.0 437.6 Q 640.0 457.6, 960.0 432.6" fill="none" stroke="#A8E063" stroke-width="2" opacity="0.12" stroke-linecap="round"/>

</svg>