<svg xmlns="http://www.w3.org/2000/svg" viewBox="0 0 1280 720" fill="none">
<defs>
  <linearGradient id="bg-2-3" x1="0" y1="0" x2="1" y2="1">
    <stop offset="0%" stop-color="#4CB648" stop-opacity="0.05"/>
    <stop offset="100%" stop-color="#A8E063" stop-opacity="0.03"/>
  </linearGradient>
</defs>
  <rect width="1280" height="720" fill="url(#bg-2-3)"/>
  <path d="M 518.5 367.1 C 558.0 366.6, 616.2 353.1, 638.7 374.4 C 661.1 395.6, 655.9 457.3, 653.2 494.6 C 650.5 531.9, 644.7 576.3, 622.2 598.4 C 599.8 620.5, 557.4 622.7, 518.5 627.1 C 479.5 631.4, 411.7 646.6, 388.6 624.5 C 365.5 602.4, 377.6 535.8, 379.7 494.6 C 381.8 453.4, 378.2 398.7, 401.3 377.5 C 424.5 356.2, 478.9 367.6, 518.5 367.1 Z" fill="#4CB648" opacity="0.05"/>
  <path d="M 215.6 -36.8 C 262.5 -28.5, 297.4 -25.6, 331.7 -0.2 C 366.0 25.3, 424.2 80.0, 421.5 115.9 C 418.7 151.9, 349.3 179.0, 315.0 215.3 C 280.7 251.7, 255.6 327.3, 215.6 334.2 C 175.6 341.1, 113.1 293.0, 74.9 256.6 C 36.7 220.3, -9.5 167.0, -13.6 115.9 C -17.8 64.9, 11.8 -24.2, 50.0 -49.7 C 88.2 -75.1, 168.6 -45.0, 215.6 -36.8 Z" fill="#A8E063" opacity="0.03"/>
  <circle cx="302.2" cy="629.2" r="2.2" fill="#4CB648" opacity="0.10"/>
  <circle cx="605.7" cy="670.2" r="3.4" fill="#4CB648" opacity="0.10"/>
  <circle cx="229.5" cy="195.5" r="2.7" fill="#4CB648" opacity="0.10"/>
  <circle cx="540.0" cy="605.0" r="1.5" fill="#4CB648" opacity="0.10"/>
  <circle cx="889.3" cy="496.4" r="2.3" fill="#4CB648" opacity="0.10"/>
  <circle cx="1165.5" cy="557.7" r="3.7" fill="#4CB648" opacity="0.10"/>
  <circle cx="400.9" cy="453.5" r="1.7" fill="#4CB648" opacity="0.10"/>
  <circle cx="870.7" cy="229.2" r="3.6" fill="#4CB648" opacity="0.10"/>
  <circle cx="931.8" cy="524.8" r="1.5" fill="#4CB648" opacity="0.10"/>
  <line x1="350.1" y1="441.0" x2="974.5" y2="441.0" stroke="#4CB648" stroke-width="0.5" opacity="0.1"/>
  <line x1="350.1" y1="360.0" x2="974.5" y2="360.0" stroke="#4CB648" stroke-width="0.5" opacity="0.1"/>
  <line x1="350.1" y1="279.0" x2="974.5" y2="279.0" stroke="#4CB648" stroke-width="0.5" opacity="0.1"/>
  <line x1="350.1" y1="198.0" x2="974.5" y2="198.0" stroke="#4CB648" stroke-width="0.5" opacity="0.1"/>
  <line x1="350.1" y1="522.0" x2="974.5" y2="522.0" stroke="#4CB648" stroke-width="1.5" opacity="0.2"/>
  <rect x="360.1" y="339.6" width="68.3" height="182.4" rx="4" fill="#4CB648" opacity="0.19"/>
  <rect x="360.1" y="339.6" width="68.3" height="182.4" rx="4" fill="none" stroke="#4CB648" stroke-width="1" opacity="0.25"/>
  <rect x="483.0" y="280.3" width="68.3" height="241.7" rx="4" fill="#A8E063" opacity="0.14"/>
  <rect x="483.0" y="280.3" width="68.3" height="241.7" rx="4" fill="none" stroke="#A8E063" stroke-width="1" opacity="0.25"/>
  <rect x="605.9" y="241.0" width="68.3" height="281.0" rx="4" fill="#4CB648" opacity="0.21"/>
  <rect x="605.9" y="241.0" width="68.3" height="281.0" rx="4" fill="none" stroke="#4CB648" stroke-width="1" opacity="0.25"/>
  <rect x="728.7" y="394.2" width="68.3" height="127.8" rx="4" fill="#A8E063" opacity="0.14"/>
  <rect x="728.7" y="394.2" width="68.3" height="127.8" rx="4" fill="none" stroke="#A8E063" stroke-width="1" opacity="0.25"/>
  <rect x="851.6" y="395.5" width="68.3" height="126.5" rx="4" fill="#4CB648" opacity="0.17"/>
  <rect x="851.6" y="395.5" width="68.3" height="126.5" rx="4" fill="none" stroke="#4CB648" stroke-width="1" opacity="0.25"/>

</svg>