<svg xmlns="http://www.w3.org/2000/svg" viewBox="0 0 1280 720" fill="none">
<defs>
  <linearGradient id="bg-11-7" x1="0" y1="0" x2="1" y2="1">
    <stop offset="0%" stop-color="#A8E063" stop-opacity="0.05"/>
    <stop offset="100%" stop-color="#4CB648" stop-opacity="0.03"/>
  </linearGradient>
</defs>
  <rect width="1280" height="720" fill="url(#bg-11-7)"/>
  <path d="M 403.5 128.6 C 430.2 130.9, 460.5 176.2, 476.9 200.5 C 493.3 224.7, 503.2 250.6, 501.9 273.9 C 500.7 297.2, 486.1 317.2, 469.6 340.1 C 453.2 362.9, 425.6 410.7, 403.5 410.8 C 381.3 410.8, 355.2 363.3, 336.9 340.5 C 318.5 317.7, 296.6 299.5, 293.1 273.9 C 289.7 248.3, 298.0 211.0, 316.4 186.8 C 334.7 162.6, 376.7 126.3, 403.5 128.6 Z" fill="#A8E063" opacity="0.03"/>
  <path d="M 254.2 -6.2 C 300.9 -7.3, 374.3 -4.4, 397.6 24.6 C 420.8 53.6, 393.9 120.2, 393.8 167.9 C 393.8 215.7, 420.4 279.9, 397.2 310.9 C 373.9 341.9, 291.4 364.2, 254.2 353.7 C 217.0 343.3, 206.5 279.2, 173.9 248.2 C 141.4 217.3, 68.4 204.2, 59.0 167.9 C 49.5 131.7, 84.6 59.9, 117.2 30.9 C 149.7 1.9, 207.5 -5.2, 254.2 -6.2 Z" fill="#4CB648" opacity="0.07"/>
  <circle cx="178.5" cy="242.2" r="3.4" fill="#A8E063" opacity="0.06"/>
  <circle cx="594.6" cy="518.5" r="3.5" fill="#A8E063" opacity="0.06"/>
  <circle cx="422.3" cy="345.6" r="3.6" fill="#A8E063" opacity="0.06"/>
  <circle cx="62.9" cy="485.2" r="1.6" fill="#A8E063" opacity="0.06"/>
  <circle cx="1102.3" cy="623.0" r="2.8" fill="#A8E063" opacity="0.06"/>
  <circle cx="861.7" cy="559.0" r="2.0" fill="#A8E063" opacity="0.06"/>
  <circle cx="1142.6" cy="300.9" r="1.5" fill="#A8E063" opacity="0.06"/>
  <circle cx="693.5" cy="678.3" r="2.4" fill="#A8E063" opacity="0.06"/>
  <line x1="256.0" y1="360.0" x2="1024.0" y2="360.0" stroke="#A8E063" stroke-width="2" opacity="0.2" stroke-linecap="round"/>
  <line x1="256.0" y1="360.0" x2="793.6" y2="360.0" stroke="#A8E063" stroke-width="3" opacity="0.15" stroke-linecap="round"/>
  <circle cx="256.0" cy="360.0" r="5" fill="#A8E063" opacity="0.3"/>
  <rect x="188.8" y="210.4" width="134.4" height="129.6" rx="8" fill="#A8E063" opacity="0.07"/>
  <rect x="188.8" y="210.4" width="134.4" height="129.6" rx="8" fill="none" stroke="#A8E063" stroke-width="1" opacity="0.2"/>
  <line x1="256.0" y1="355.0" x2="256.0" y2="340.0" stroke="#A8E063" stroke-width="0.8" opacity="0.15"/>
  <line x1="215.2" y1="275.2" x2="296.8" y2="275.2" stroke="#A8E063" stroke-width="1.5" opacity="0.1" stroke-linecap="round"/>
  <circle cx="448.0" cy="360.0" r="5" fill="#4CB648" opacity="0.3"/>
  <rect x="380.8" y="380.0" width="134.4" height="129.6" rx="8" fill="#4CB648" opacity="0.07"/>
  <rect x="380.8" y="380.0" width="134.4" height="129.6" rx="8" fill="none" stroke="#4CB648" stroke-width="1" opacity="0.2"/>
  <line x1="448.0" y1="365.0" x2="448.0" y2="380.0" stroke="#4CB648" stroke-width="0.8" opacity="0.15"/>
  <line x1="405.1" y1="444.8" x2="490.9" y2="444.8" stroke="#4CB648" stroke-width="1.5" opacity="0.1" stroke-linecap="round"/>
  <circle cx="640.0" cy="360.0" r="5" fill="#A8E063" opacity="0.3"/>
  <rect x="572.8" y="210.4" width="134.4" height="129.6" rx="8" fill="#A8E063" opacity="0.07"/>
  <rect x="572.8" y="210.4" width="134.4" height="129.6" rx="8" fill="none" stroke="#A8E063" stroke-width="1" opacity="0.2"/>
  <line x1="640.0" y1="355.0" x2="640.0" y2="340.0" stroke="#A8E063" stroke-width="0.8" opacity="0.15"/>
  <line x1="597.9" y1="275.2" x2="682.1" y2="275.2" stroke="#A8E063" stroke-width="1.5" opacity="0.1" stroke-linecap="round"/>
  <circle cx="832.0" cy="360.0" r="5" fill="#4CB648" opacity="0.3"/>
  <rect x="764.8" y="380.0" width="134.4" height="129.6" rx="8" fill="#4CB648" opacity="0.07"/>
  <rect x="764.8" y="380.0" width="134.4" height="129.6" rx="8" fill="none" stroke="#4CB648" stroke-width="1" opacity="0.2"/>
  <line x1="832.0" y1="365.0" x2="832.0" y2="380.0" stroke="#4CB648" stroke-width="0.8" opacity="0.15"/>
  <line x1="797.5" y1="444.8" x2="866.5" y2="444.8" stroke="#4CB648" stroke-width="1.5" opacity="0.1" stroke-linecap="round"/>
  <circle cx="1024.0" cy="360.0" r="5" fill="#A8E063" opacity="0.3"/>
  <rect x="956.8" y="210.4" width="134.4" height="129.6" rx="8" fill="#A8E063" opacity="0.07"/>
  <rect x="956.8" y="210.4" width="134.4" height="129.6" rx="8" fill="none" stroke="#A8E063" stroke-width="1" opacity="0.2"/>
  <line x1="1024.0" y1="355.0" x2="1024.0" y2="340.0" stroke="#A8E063" stroke-width="0.8" opacity="0.15"/>
  <line x1="980.8" y1="275.2" x2="1067.2" y2="275.2" stroke="#A8E063" stroke-width="1.5" opacity="0.1" stroke-linecap="round"/>

</svg>