<svg xmlns="http://www.w3.org/2000/svg" viewBox="0 0 1280 720" fill="none">
<defs>
  <linearGradient id="bg-11-3" x1="0" y1="0" x2="1" y2="1">
    <stop offset="0%" stop-color="#A8E063" stop-opacity="0.05"/>
    <stop offset="100%" stop-color="#4CB648" stop-opacity="0.03"/>
  </linearGradient>
</defs>
  <rect width="1280" height="720" fill="url(#bg-11-3)"/>
  <path d="M 903.6 197.0 C 942.4 196.0, 1002.4 215.2, 1022.9 242.7 C 1043.5 270.2, 1032.4 327.6, 1027.1 362.0 C 1021.7 396.4, 1011.4 423.5, 990.8 449.1 C 970.2 474.7, 931.7 516.6, 903.6 515.6 C 875.6 514.6, 853.2 469.0, 822.2 443.4 C 791.3 417.8, 723.2 394.4, 717.9 362.0 C 712.7 329.6, 759.7 276.5, 790.6 249.0 C 821.6 221.5, 864.9 198.1, 903.6 197.0 Z" fill="#A8E063" opacity="0.04"/>
  <path d="M 1045.2 434.3 C 1070.0 433.8, 1103.7 421.2, 1121.1 433.7 C 1138.6 446.3, 1148.8 483.2, 1149.9 509.6 C 1150.9 536.0, 1144.9 578.1, 1127.5 591.8 C 1110.1 605.5, 1069.9 594.5, 1045.2 591.8 C 1020.5 589.1, 995.6 589.3, 979.2 575.6 C 962.9 561.9, 948.4 532.7, 947.3 509.6 C 946.2 486.5, 956.2 449.5, 972.6 436.9 C 988.9 424.4, 1020.5 434.8, 1045.2 434.3 Z" fill="#4CB648" opacity="0.04"/>
  <circle cx="866.9" cy="272.9" r="1.9" fill="#A8E063" opacity="0.10"/>
  <circle cx="492.8" cy="385.2" r="1.5" fill="#A8E063" opacity="0.10"/>
  <circle cx="299.1" cy="616.3" r="2.6" fill="#A8E063" opacity="0.10"/>
  <circle cx="775.5" cy="339.5" r="1.6" fill="#A8E063" opacity="0.10"/>
  <circle cx="929.5" cy="486.2" r="3.7" fill="#A8E063" opacity="0.10"/>
  <circle cx="620.4" cy="262.2" r="3.2" fill="#A8E063" opacity="0.10"/>
  <circle cx="1011.4" cy="535.5" r="2.1" fill="#A8E063" opacity="0.10"/>
  <circle cx="789.2" cy="224.5" r="1.8" fill="#A8E063" opacity="0.10"/>
  <circle cx="62.8" cy="664.4" r="1.7" fill="#A8E063" opacity="0.10"/>
  <circle cx="887.2" cy="267.1" r="2.4" fill="#A8E063" opacity="0.10"/>
  <line x1="640.0" y1="144.0" x2="640.0" y2="576.0" stroke="#A8E063" stroke-width="1" opacity="0.15" stroke-dasharray="6 4"/>
  <path d="M 385.0 336.1 C 396.3 335.1, 418.0 337.3, 424.1 346.2 C 430.1 355.1, 427.6 381.5, 421.1 389.6 C 414.6 397.7, 396.0 395.6, 385.0 394.9 C 374.1 394.3, 360.4 392.8, 355.6 385.7 C 350.9 378.7, 351.8 360.7, 356.7 352.4 C 361.6 344.1, 373.8 337.2, 385.0 336.1 Z" fill="#4CB648" opacity="0.05"/>
  <path d="M 285.9 343.3 C 296.0 344.4, 305.3 356.9, 310.3 365.9 C 315.4 374.9, 320.2 389.1, 316.2 397.4 C 312.1 405.7, 295.2 416.2, 285.9 415.8 C 276.7 415.3, 266.5 404.1, 260.5 394.7 C 254.5 385.2, 245.8 367.8, 250.1 359.3 C 254.3 350.7, 275.9 342.1, 285.9 343.3 Z" fill="#4CB648" opacity="0.07"/>
  <path d="M 274.5 362.9 C 284.1 363.5, 292.7 368.5, 300.0 377.6 C 307.2 386.7, 322.2 408.3, 317.9 417.3 C 313.7 426.4, 286.7 433.3, 274.5 432.0 C 262.4 430.6, 250.5 418.9, 245.1 409.2 C 239.8 399.5, 237.6 381.5, 242.5 373.7 C 247.4 366.0, 265.0 362.2, 274.5 362.9 Z" fill="#4CB648" opacity="0.08"/>
  <line x1="281.6" y1="158.4" x2="512.0" y2="158.4" stroke="#4CB648" stroke-width="2" opacity="0.12" stroke-linecap="round"/>
  <path d="M 950.0 222.2 C 959.1 222.9, 969.1 229.4, 974.8 236.4 C 980.5 243.3, 986.1 256.2, 984.1 264.0 C 982.1 271.7, 971.0 278.8, 962.8 282.8 C 954.5 286.8, 941.2 291.5, 934.6 288.0 C 928.0 284.6, 925.7 271.6, 923.2 262.3 C 920.8 253.0, 915.4 238.9, 919.9 232.2 C 924.3 225.5, 940.8 221.5, 950.0 222.2 Z" fill="#A8E063" opacity="0.10"/>
  <path d="M 929.3 199.1 C 936.4 199.5, 945.3 203.2, 949.3 208.2 C 953.2 213.3, 954.4 223.0, 953.0 229.6 C 951.5 236.1, 946.0 245.0, 940.5 247.4 C 935.0 249.8, 925.5 246.9, 919.8 243.9 C 914.1 240.9, 908.6 235.7, 906.4 229.4 C 904.2 223.1, 902.6 211.0, 906.5 205.9 C 910.3 200.9, 922.2 198.7, 929.3 199.1 Z" fill="#A8E063" opacity="0.14"/>
  <path d="M 788.4 340.0 C 795.8 340.6, 803.9 349.4, 808.2 355.5 C 812.5 361.7, 815.3 370.5, 814.0 377.2 C 812.6 383.8, 805.6 393.5, 800.0 395.4 C 794.3 397.3, 785.2 392.0, 780.0 388.7 C 774.9 385.4, 771.7 381.9, 769.0 375.8 C 766.3 369.6, 760.6 357.7, 763.8 351.7 C 767.0 345.8, 781.0 339.4, 788.4 340.0 Z" fill="#A8E063" opacity="0.14"/>
  <path d="M 944.1 386.5 C 958.9 386.7, 978.3 388.9, 987.7 398.9 C 997.0 408.9, 1004.4 434.3, 1000.2 446.5 C 996.0 458.6, 975.2 467.0, 962.5 471.9 C 949.7 476.8, 938.4 479.6, 923.8 475.9 C 909.1 472.2, 878.8 462.6, 874.6 449.5 C 870.4 436.5, 887.0 407.9, 898.6 397.4 C 910.2 386.9, 929.2 386.2, 944.1 386.5 Z" fill="#A8E063" opacity="0.13"/>
  <path d="M 781.9 393.7 C 794.5 394.5, 807.8 411.1, 816.9 422.7 C 826.1 434.3, 838.4 449.5, 836.9 463.2 C 835.5 477.0, 820.2 501.2, 808.1 505.1 C 796.0 509.0, 778.2 493.5, 764.6 486.6 C 750.9 479.6, 730.2 474.7, 726.3 463.3 C 722.4 451.9, 731.8 429.7, 741.1 418.1 C 750.4 406.5, 769.3 393.0, 781.9 393.7 Z" fill="#A8E063" opacity="0.16"/>
  <circle cx="850.2" cy="389.9" r="3.2" fill="#A8E063" opacity="0.12"/>
  <circle cx="902.1" cy="297.7" r="3.8" fill="#A8E063" opacity="0.12"/>
  <circle cx="813.9" cy="356.6" r="2.0" fill="#A8E063" opacity="0.12"/>
  <circle cx="907.1" cy="269.6" r="3.6" fill="#A8E063" opacity="0.12"/>
  <circle cx="1079.0" cy="292.0" r="3.0" fill="#A8E063" opacity="0.12"/>
  <circle cx="1076.6" cy="488.6" r="3.2" fill="#A8E063" opacity="0.12"/>
  <circle cx="1043.2" cy="407.5" r="3.3" fill="#A8E063" opacity="0.12"/>
  <circle cx="838.4" cy="534.6" r="2.7" fill="#A8E063" opacity="0.12"/>
  <line x1="768.0" y1="158.4" x2="998.4" y2="158.4" stroke="#A8E063" stroke-width="2.5" opacity="0.2" stroke-linecap="round"/>
  <rect x="635.0" y="355.0" width="10" height="10" fill="#A8E063" opacity="0.2" transform="rotate(45 640.0 360.0)"/>

</svg>