<svg xmlns="http://www.w3.org/2000/svg" viewBox="0 0 1280 720" fill="none">
<defs>
  <linearGradient id="bg-11-2" x1="0" y1="0" x2="1" y2="1">
    <stop offset="0%" stop-color="#A8E063" stop-opacity="0.05"/>
    <stop offset="100%" stop-color="#4CB648" stop-opacity="0.03"/>
  </linearGradient>
</defs>
  <rect width="1280" height="720" fill="url(#bg-11-2)"/>
  <path d="M 854.4 91.4 C 889.4 93.3, 919.8 141.1, 953.8 170.9 C 987.8 200.8, 1058.5 237.3, 1058.4 270.3 C 1058.4 303.3, 987.3 334.6, 953.3 369.2 C 919.3 403.7, 891.8 473.2, 854.4 477.6 C 817.0 482.1, 753.9 430.5, 728.8 395.9 C 703.7 361.4, 701.4 309.7, 703.9 270.3 C 706.5 230.9, 718.9 189.6, 743.9 159.8 C 769.0 130.0, 819.4 89.6, 854.4 91.4 Z" fill="#A8E063" opacity="0.06"/>
  <circle cx="158.1" cy="504.3" r="1.9" fill="#A8E063" opacity="0.09"/>
  <circle cx="288.2" cy="338.2" r="3.9" fill="#A8E063" opacity="0.09"/>
  <circle cx="326.5" cy="76.0" r="1.5" fill="#A8E063" opacity="0.09"/>
  <circle cx="536.0" cy="630.4" r="4.0" fill="#A8E063" opacity="0.09"/>
  <circle cx="728.1" cy="411.6" r="3.6" fill="#A8E063" opacity="0.09"/>
  <circle cx="946.9" cy="161.3" r="3.4" fill="#A8E063" opacity="0.09"/>
  <path d="M 640.0 180.0 C 690.0 216.0, 700.0 324.0, 695.0 432.0 C 690.0 504.0, 670.0 561.6, 640.0 576.0" fill="none" stroke="#A8E063" stroke-width="2" opacity="0.2" stroke-linecap="round"/>
  <path d="M 640.0 180.0 C 590.0 216.0, 580.0 324.0, 585.0 432.0 C 590.0 504.0, 610.0 561.6, 640.0 576.0" fill="none" stroke="#A8E063" stroke-width="2" opacity="0.2" stroke-linecap="round"/>
  <circle cx="640.0" cy="244.8" r="21.5" fill="#A8E063" opacity="0.12"/>
  <circle cx="640.0" cy="244.8" r="21.5" fill="none" stroke="#A8E063" stroke-width="1.5" opacity="0.3"/>
  <circle cx="625.0" cy="374.4" r="15.8" fill="#4CB648" opacity="0.12"/>
  <circle cx="625.0" cy="374.4" r="15.8" fill="none" stroke="#4CB648" stroke-width="1.5" opacity="0.3"/>
  <circle cx="660.0" cy="446.4" r="21.0" fill="#A8E063" opacity="0.12"/>
  <circle cx="660.0" cy="446.4" r="21.0" fill="none" stroke="#A8E063" stroke-width="1.5" opacity="0.3"/>
  <line x1="640.0" y1="244.8" x2="625.0" y2="374.4" stroke="#A8E063" stroke-width="1.5" opacity="0.15" stroke-dasharray="4 3"/>
  <circle cx="636.3" cy="277.2" r="2" fill="#4CB648" opacity="0.2"/>
  <circle cx="632.5" cy="309.6" r="2" fill="#4CB648" opacity="0.2"/>
  <circle cx="628.8" cy="342.0" r="2" fill="#4CB648" opacity="0.2"/>
  <line x1="625.0" y1="374.4" x2="660.0" y2="446.4" stroke="#A8E063" stroke-width="1.5" opacity="0.15" stroke-dasharray="4 3"/>
  <circle cx="633.8" cy="392.4" r="2" fill="#4CB648" opacity="0.2"/>
  <circle cx="642.5" cy="410.4" r="2" fill="#4CB648" opacity="0.2"/>
  <circle cx="651.3" cy="428.4" r="2" fill="#4CB648" opacity="0.2"/>

</svg>