<svg xmlns="http://www.w3.org/2000/svg" viewBox="0 0 1280 720" fill="none">
<defs>
  <linearGradient id="bg-11-4" x1="0" y1="0" x2="1" y2="1">
    <stop offset="0%" stop-color="#A8E063" stop-opacity="0.05"/>
    <stop offset="100%" stop-color="#4CB648" stop-opacity="0.03"/>
  </linearGradient>
</defs>
  <rect width="1280" height="720" fill="url(#bg-11-4)"/>
  <path d="M 309.2 379.1 C 340.8 382.9, 368.8 413.6, 392.8 437.2 C 416.8 460.8, 452.4 492.2, 453.2 520.8 C 454.0 549.5, 421.6 585.0, 397.6 609.3 C 373.6 633.6, 336.7 668.6, 309.2 666.6 C 281.6 664.7, 250.0 621.8, 232.5 597.5 C 214.9 573.2, 208.8 551.3, 203.9 520.8 C 199.0 490.4, 185.4 438.3, 203.0 414.7 C 220.5 391.0, 277.5 375.4, 309.2 379.1 Z" fill="#A8E063" opacity="0.07"/>
  <circle cx="1140.5" cy="651.2" r="1.9" fill="#A8E063" opacity="0.08"/>
  <circle cx="757.9" cy="563.0" r="2.1" fill="#A8E063" opacity="0.08"/>
  <circle cx="326.5" cy="519.5" r="3.9" fill="#A8E063" opacity="0.08"/>
  <circle cx="398.7" cy="340.4" r="2.4" fill="#A8E063" opacity="0.08"/>
  <circle cx="549.1" cy="110.6" r="3.4" fill="#A8E063" opacity="0.08"/>
  <circle cx="470.7" cy="407.8" r="2.7" fill="#A8E063" opacity="0.08"/>
  <circle cx="746.5" cy="523.7" r="3.6" fill="#A8E063" opacity="0.08"/>
  <circle cx="290.7" cy="659.9" r="2.7" fill="#A8E063" opacity="0.08"/>
  <line x1="640.0" y1="144.0" x2="640.0" y2="576.0" stroke="#A8E063" stroke-width="1" opacity="0.15" stroke-dasharray="6 4"/>
  <path d="M 416.4 352.2 C 433.0 350.7, 468.4 368.7, 474.2 382.7 C 480.1 396.8, 461.2 419.9, 451.6 436.4 C 441.9 453.0, 428.4 481.8, 416.4 481.9 C 404.4 482.1, 386.6 452.3, 379.7 437.3 C 372.7 422.4, 368.6 406.3, 374.7 392.1 C 380.9 377.9, 399.8 353.8, 416.4 352.2 Z" fill="#4CB648" opacity="0.08"/>
  <path d="M 326.4 310.1 C 337.1 310.9, 346.9 330.8, 354.6 343.6 C 362.3 356.3, 377.3 375.4, 372.6 386.6 C 367.9 397.7, 341.7 410.5, 326.4 410.5 C 311.1 410.4, 286.9 398.1, 280.9 386.1 C 274.9 374.2, 282.7 351.7, 290.3 339.0 C 297.9 326.3, 315.7 309.3, 326.4 310.1 Z" fill="#4CB648" opacity="0.06"/>
  <path d="M 323.1 296.9 C 339.8 296.9, 361.7 312.9, 373.6 330.0 C 385.4 347.2, 402.3 384.4, 393.9 400.1 C 385.5 415.8, 347.1 424.0, 323.1 424.2 C 299.1 424.4, 258.2 417.1, 249.9 401.4 C 241.6 385.8, 261.0 347.8, 273.2 330.4 C 285.4 313.0, 306.3 297.0, 323.1 296.9 Z" fill="#4CB648" opacity="0.07"/>
  <line x1="281.6" y1="158.4" x2="512.0" y2="158.4" stroke="#4CB648" stroke-width="2" opacity="0.12" stroke-linecap="round"/>
  <path d="M 890.8 249.3 C 909.9 247.7, 943.3 273.4, 953.9 291.1 C 964.5 308.9, 959.7 336.9, 954.3 355.9 C 949.0 375.0, 937.0 397.7, 921.6 405.3 C 906.2 412.9, 880.7 409.0, 861.9 401.5 C 843.1 394.0, 812.4 377.0, 808.7 360.2 C 805.0 343.4, 825.9 319.1, 839.6 300.6 C 853.3 282.1, 871.8 250.9, 890.8 249.3 Z" fill="#A8E063" opacity="0.11"/>
  <path d="M 909.3 345.2 C 922.7 345.1, 940.3 357.9, 949.9 369.5 C 959.5 381.2, 970.0 402.3, 966.8 415.1 C 963.6 427.9, 945.2 438.3, 930.7 446.5 C 916.1 454.6, 896.1 468.3, 879.5 463.8 C 862.8 459.4, 832.3 435.5, 830.6 419.9 C 829.0 404.3, 856.3 382.6, 869.4 370.2 C 882.5 357.7, 895.8 345.3, 909.3 345.2 Z" fill="#A8E063" opacity="0.16"/>
  <path d="M 812.4 183.1 C 827.1 184.5, 842.7 200.3, 851.1 212.2 C 859.4 224.1, 864.5 240.1, 862.5 254.4 C 860.5 268.7, 851.3 291.4, 838.9 298.0 C 826.5 304.6, 800.3 301.2, 788.0 293.8 C 775.7 286.4, 769.3 268.8, 765.2 253.8 C 761.0 238.8, 755.2 215.4, 763.1 203.7 C 771.0 191.9, 797.8 181.7, 812.4 183.1 Z" fill="#A8E063" opacity="0.09"/>
  <path d="M 964.4 281.0 C 984.7 279.4, 1019.8 264.9, 1031.3 275.5 C 1042.7 286.0, 1040.5 327.9, 1033.1 344.5 C 1025.7 361.0, 1003.3 366.9, 986.7 375.0 C 970.1 383.2, 947.1 398.6, 933.4 393.2 C 919.6 387.8, 908.1 360.5, 904.1 342.5 C 900.2 324.5, 899.6 295.4, 909.7 285.1 C 919.7 274.9, 944.1 282.6, 964.4 281.0 Z" fill="#A8E063" opacity="0.14"/>
  <path d="M 910.8 198.2 C 920.0 198.8, 930.8 201.4, 936.0 207.5 C 941.2 213.6, 943.9 226.6, 941.9 234.7 C 940.0 242.8, 931.9 252.5, 924.5 255.9 C 917.1 259.4, 906.3 258.6, 897.4 255.4 C 888.6 252.2, 874.3 245.2, 871.5 236.6 C 868.7 227.9, 874.2 210.0, 880.7 203.6 C 887.3 197.2, 901.6 197.5, 910.8 198.2 Z" fill="#A8E063" opacity="0.13"/>
  <circle cx="1066.4" cy="329.1" r="3.1" fill="#A8E063" opacity="0.12"/>
  <circle cx="768.8" cy="464.2" r="2.8" fill="#A8E063" opacity="0.12"/>
  <circle cx="1035.2" cy="389.1" r="3.9" fill="#A8E063" opacity="0.12"/>
  <circle cx="768.3" cy="410.3" r="3.1" fill="#A8E063" opacity="0.12"/>
  <circle cx="817.5" cy="531.4" r="3.4" fill="#A8E063" opacity="0.12"/>
  <circle cx="1068.7" cy="353.8" r="2.2" fill="#A8E063" opacity="0.12"/>
  <circle cx="1063.6" cy="344.1" r="3.4" fill="#A8E063" opacity="0.12"/>
  <circle cx="753.7" cy="387.5" r="4.8" fill="#A8E063" opacity="0.12"/>
  <line x1="768.0" y1="158.4" x2="998.4" y2="158.4" stroke="#A8E063" stroke-width="2.5" opacity="0.2" stroke-linecap="round"/>
  <rect x="635.0" y="355.0" width="10" height="10" fill="#A8E063" opacity="0.2" transform="rotate(45 640.0 360.0)"/>

</svg>