<svg xmlns="http://www.w3.org/2000/svg" viewBox="0 0 1280 720" fill="none">
<defs>
  <linearGradient id="bg-12-5" x1="0" y1="0" x2="1" y2="1">
    <stop offset="0%" stop-color="#A8E063" stop-opacity="0.05"/>
    <stop offset="100%" stop-color="#2DAA6E" stop-opacity="0.03"/>
  </linearGradient>
</defs>
  <rect width="1280" height="720" fill="url(#bg-12-5)"/>
  <path d="M 1036.8 452.3 C 1066.9 453.1, 1110.2 472.9, 1124.8 494.7 C 1139.4 516.4, 1125.5 554.5, 1124.4 582.8 C 1123.3 611.0, 1132.9 645.4, 1118.3 664.3 C 1103.7 683.1, 1060.4 699.5, 1036.8 696.0 C 1013.1 692.5, 996.1 662.0, 976.4 643.1 C 956.7 624.2, 923.8 608.2, 918.4 582.8 C 913.0 557.3, 924.4 511.9, 944.2 490.2 C 963.9 468.4, 1006.7 451.6, 1036.8 452.3 Z" fill="#A8E063" opacity="0.04"/>
  <path d="M 1018.0 177.4 C 1050.3 177.2, 1097.2 189.9, 1115.5 211.9 C 1133.8 233.9, 1133.5 283.0, 1127.5 309.5 C 1121.5 336.0, 1097.6 352.9, 1079.4 370.9 C 1061.1 388.9, 1038.6 417.3, 1018.0 417.4 C 997.3 417.5, 971.1 389.7, 955.7 371.7 C 940.4 353.7, 931.5 335.9, 925.7 309.5 C 920.0 283.0, 906.0 234.9, 921.4 212.9 C 936.8 190.9, 985.6 177.5, 1018.0 177.4 Z" fill="#2DAA6E" opacity="0.04"/>
  <circle cx="185.7" cy="608.8" r="1.9" fill="#A8E063" opacity="0.07"/>
  <circle cx="1061.0" cy="618.2" r="1.8" fill="#A8E063" opacity="0.07"/>
  <circle cx="394.6" cy="431.4" r="2.9" fill="#A8E063" opacity="0.07"/>
  <circle cx="912.8" cy="467.8" r="4.0" fill="#A8E063" opacity="0.07"/>
  <circle cx="615.8" cy="126.3" r="2.9" fill="#A8E063" opacity="0.07"/>
  <circle cx="285.3" cy="539.8" r="3.4" fill="#A8E063" opacity="0.07"/>
  <circle cx="395.2" cy="314.7" r="2.1" fill="#A8E063" opacity="0.07"/>
  <circle cx="222.1" cy="551.9" r="3.7" fill="#A8E063" opacity="0.07"/>
  <line x1="640.0" y1="144.0" x2="640.0" y2="576.0" stroke="#A8E063" stroke-width="1" opacity="0.15" stroke-dasharray="6 4"/>
  <path d="M 372.0 444.5 C 383.4 445.7, 395.0 458.0, 400.2 467.6 C 405.5 477.2, 408.3 491.0, 403.6 502.1 C 398.9 513.2, 382.4 534.4, 372.0 534.3 C 361.6 534.2, 348.0 513.8, 341.3 501.6 C 334.6 489.3, 326.7 470.2, 331.9 460.7 C 337.0 451.2, 360.6 443.4, 372.0 444.5 Z" fill="#2DAA6E" opacity="0.08"/>
  <path d="M 335.9 274.9 C 356.0 274.8, 387.2 288.7, 396.6 305.1 C 406.1 321.4, 402.6 355.0, 392.5 372.8 C 382.4 390.7, 353.4 413.1, 335.9 412.3 C 318.4 411.5, 297.5 385.9, 287.5 368.1 C 277.5 350.3, 267.9 321.1, 275.9 305.5 C 284.0 290.0, 315.8 275.0, 335.9 274.9 Z" fill="#2DAA6E" opacity="0.05"/>
  <path d="M 319.9 280.6 C 339.7 280.1, 376.1 297.0, 382.0 311.6 C 387.9 326.1, 365.7 351.1, 355.4 367.9 C 345.0 384.7, 334.1 411.0, 319.9 412.3 C 305.8 413.6, 280.1 392.2, 270.6 375.9 C 261.2 359.6, 254.9 330.5, 263.1 314.6 C 271.4 298.8, 300.1 281.1, 319.9 280.6 Z" fill="#2DAA6E" opacity="0.05"/>
  <line x1="281.6" y1="158.4" x2="512.0" y2="158.4" stroke="#2DAA6E" stroke-width="2" opacity="0.12" stroke-linecap="round"/>
  <path d="M 988.7 193.8 C 1006.8 193.7, 1034.1 194.9, 1043.2 206.3 C 1052.2 217.7, 1048.1 246.8, 1043.0 262.2 C 1037.9 277.6, 1026.3 290.9, 1012.4 299.0 C 998.5 307.0, 973.7 316.4, 959.5 310.5 C 945.3 304.7, 931.2 281.1, 927.1 263.9 C 923.0 246.6, 924.5 218.5, 934.8 206.8 C 945.1 195.1, 970.7 193.9, 988.7 193.8 Z" fill="#A8E063" opacity="0.15"/>
  <path d="M 834.9 373.7 C 846.9 373.0, 867.3 371.9, 873.6 379.5 C 880.0 387.1, 876.9 408.6, 873.0 419.1 C 869.2 429.7, 859.2 439.2, 850.5 442.8 C 841.7 446.3, 831.7 444.0, 820.3 440.6 C 809.0 437.2, 785.6 431.8, 782.5 422.4 C 779.5 412.9, 793.1 392.1, 801.8 384.0 C 810.5 375.9, 822.9 374.5, 834.9 373.7 Z" fill="#A8E063" opacity="0.10"/>
  <path d="M 991.7 350.5 C 998.1 351.8, 1001.2 355.5, 1006.1 360.2 C 1011.0 364.8, 1021.4 371.8, 1021.2 378.3 C 1021.0 384.9, 1011.7 396.8, 1005.1 399.3 C 998.4 401.9, 987.0 397.4, 981.2 393.6 C 975.3 389.8, 972.3 383.4, 970.1 376.6 C 967.8 369.7, 964.2 356.9, 967.8 352.5 C 971.4 348.2, 985.3 349.2, 991.7 350.5 Z" fill="#A8E063" opacity="0.09"/>
  <path d="M 793.2 194.4 C 801.7 193.1, 819.6 192.9, 823.5 198.5 C 827.5 204.1, 819.1 218.7, 816.6 228.1 C 814.1 237.5, 814.5 251.6, 808.6 254.8 C 802.7 258.0, 787.8 251.8, 781.3 247.4 C 774.8 242.9, 771.0 235.1, 769.5 228.2 C 767.9 221.2, 768.0 211.5, 772.0 205.9 C 775.9 200.2, 784.6 195.6, 793.2 194.4 Z" fill="#A8E063" opacity="0.10"/>
  <path d="M 870.9 160.6 C 891.6 161.3, 921.0 183.6, 930.2 200.2 C 939.3 216.8, 930.9 242.0, 925.9 260.0 C 920.9 278.0, 915.4 297.6, 900.2 308.1 C 884.9 318.7, 849.2 331.3, 834.3 323.5 C 819.4 315.7, 815.3 282.5, 810.6 261.2 C 806.0 239.9, 796.3 212.7, 806.4 195.9 C 816.4 179.2, 850.3 159.9, 870.9 160.6 Z" fill="#A8E063" opacity="0.13"/>
  <circle cx="1058.1" cy="352.8" r="2.5" fill="#A8E063" opacity="0.12"/>
  <circle cx="1085.9" cy="182.4" r="4.2" fill="#A8E063" opacity="0.12"/>
  <circle cx="934.6" cy="366.2" r="3.3" fill="#A8E063" opacity="0.12"/>
  <circle cx="969.9" cy="434.8" r="2.1" fill="#A8E063" opacity="0.12"/>
  <circle cx="788.9" cy="311.6" r="4.2" fill="#A8E063" opacity="0.12"/>
  <circle cx="1009.3" cy="330.7" r="4.1" fill="#A8E063" opacity="0.12"/>
  <circle cx="766.9" cy="507.1" r="2.7" fill="#A8E063" opacity="0.12"/>
  <circle cx="932.4" cy="442.6" r="4.8" fill="#A8E063" opacity="0.12"/>
  <line x1="768.0" y1="158.4" x2="998.4" y2="158.4" stroke="#A8E063" stroke-width="2.5" opacity="0.2" stroke-linecap="round"/>
  <rect x="635.0" y="355.0" width="10" height="10" fill="#A8E063" opacity="0.2" transform="rotate(45 640.0 360.0)"/>

</svg>