<svg xmlns="http://www.w3.org/2000/svg" viewBox="0 0 1280 720" fill="none">
<defs>
  <linearGradient id="bg-12-7" x1="0" y1="0" x2="1" y2="1">
    <stop offset="0%" stop-color="#A8E063" stop-opacity="0.05"/>
    <stop offset="100%" stop-color="#2DAA6E" stop-opacity="0.03"/>
  </linearGradient>
</defs>
  <rect width="1280" height="720" fill="url(#bg-12-7)"/>
  <path d="M 554.7 385.8 C 595.1 386.8, 645.6 377.5, 672.8 399.4 C 700.0 421.4, 717.6 478.0, 717.7 517.5 C 717.8 557.0, 700.7 612.5, 673.5 636.3 C 646.4 660.0, 588.5 665.8, 554.7 660.0 C 521.0 654.1, 494.7 624.9, 471.1 601.2 C 447.4 577.4, 419.6 552.2, 412.8 517.5 C 406.0 482.8, 406.8 415.2, 430.4 393.2 C 454.1 371.2, 514.3 384.7, 554.7 385.8 Z" fill="#A8E063" opacity="0.03"/>
  <path d="M 339.9 89.4 C 364.0 85.0, 407.5 90.1, 425.4 107.3 C 443.4 124.6, 453.8 170.2, 447.9 192.9 C 442.0 215.5, 408.1 225.4, 390.1 243.0 C 372.1 260.5, 361.4 293.3, 339.9 298.1 C 318.5 302.9, 277.2 289.1, 261.2 271.6 C 245.2 254.1, 240.5 215.8, 243.8 192.9 C 247.1 169.9, 265.1 151.3, 281.2 134.1 C 297.2 116.8, 315.9 93.9, 339.9 89.4 Z" fill="#2DAA6E" opacity="0.06"/>
  <circle cx="173.6" cy="108.8" r="2.1" fill="#A8E063" opacity="0.07"/>
  <circle cx="351.6" cy="547.7" r="1.7" fill="#A8E063" opacity="0.07"/>
  <circle cx="408.3" cy="167.1" r="1.9" fill="#A8E063" opacity="0.07"/>
  <circle cx="635.0" cy="70.1" r="2.0" fill="#A8E063" opacity="0.07"/>
  <circle cx="894.3" cy="91.4" r="3.4" fill="#A8E063" opacity="0.07"/>
  <circle cx="776.4" cy="297.6" r="1.8" fill="#A8E063" opacity="0.07"/>
  <line x1="640.0" y1="144.0" x2="640.0" y2="576.0" stroke="#A8E063" stroke-width="1" opacity="0.15" stroke-dasharray="6 4"/>
  <path d="M 425.6 250.6 C 438.3 250.8, 454.8 274.5, 462.8 289.0 C 470.7 303.6, 479.5 327.8, 473.3 338.1 C 467.2 348.4, 441.2 351.1, 425.6 350.9 C 410.1 350.6, 386.5 347.3, 380.0 336.8 C 373.5 326.3, 378.9 302.3, 386.5 287.9 C 394.1 273.5, 412.9 250.4, 425.6 250.6 Z" fill="#2DAA6E" opacity="0.06"/>
  <path d="M 261.2 180.2 C 275.2 181.8, 287.0 191.6, 294.6 203.0 C 302.1 214.4, 311.9 237.1, 306.3 248.3 C 300.8 259.6, 276.4 270.3, 261.2 270.4 C 246.0 270.5, 223.5 261.8, 215.1 248.9 C 206.6 236.0, 202.7 204.4, 210.4 193.0 C 218.1 181.5, 247.2 178.5, 261.2 180.2 Z" fill="#2DAA6E" opacity="0.07"/>
  <path d="M 276.9 349.0 C 287.7 349.6, 299.0 360.1, 306.3 370.8 C 313.7 381.6, 325.9 405.6, 321.0 413.4 C 316.1 421.1, 289.5 418.4, 276.9 417.2 C 264.2 416.0, 251.2 414.4, 245.3 406.1 C 239.3 397.8, 235.9 376.7, 241.1 367.2 C 246.4 357.7, 266.0 348.4, 276.9 349.0 Z" fill="#2DAA6E" opacity="0.07"/>
  <line x1="281.6" y1="158.4" x2="512.0" y2="158.4" stroke="#2DAA6E" stroke-width="2" opacity="0.12" stroke-linecap="round"/>
  <path d="M 874.1 425.9 C 892.5 426.8, 912.4 434.3, 925.8 447.9 C 939.1 461.5, 958.7 491.9, 954.2 507.4 C 949.7 522.8, 917.0 533.7, 898.9 540.5 C 880.8 547.4, 862.6 554.3, 845.4 548.7 C 828.2 543.1, 800.8 524.7, 795.8 506.9 C 790.9 489.2, 802.6 455.9, 815.6 442.4 C 828.7 428.9, 855.7 425.0, 874.1 425.9 Z" fill="#A8E063" opacity="0.12"/>
  <path d="M 901.2 176.1 C 909.9 174.8, 925.1 187.2, 932.1 196.3 C 939.1 205.3, 945.4 220.4, 943.1 230.5 C 940.8 240.6, 928.4 252.2, 918.5 256.8 C 908.5 261.3, 890.6 262.8, 883.4 257.8 C 876.3 252.8, 875.9 235.8, 875.3 226.8 C 874.7 217.9, 875.7 212.5, 880.0 204.0 C 884.3 195.6, 892.5 177.4, 901.2 176.1 Z" fill="#A8E063" opacity="0.15"/>
  <path d="M 960.4 302.2 C 968.4 301.9, 980.5 298.7, 985.5 303.3 C 990.5 308.0, 993.0 323.2, 990.6 330.2 C 988.1 337.2, 978.1 342.1, 971.0 345.3 C 963.9 348.6, 955.2 351.9, 947.8 349.5 C 940.4 347.1, 928.0 338.5, 926.3 331.1 C 924.6 323.7, 932.0 310.1, 937.7 305.2 C 943.4 300.4, 952.4 302.5, 960.4 302.2 Z" fill="#A8E063" opacity="0.16"/>
  <path d="M 916.1 225.9 C 933.1 225.1, 961.4 233.9, 970.4 246.6 C 979.5 259.4, 975.5 287.2, 970.3 302.3 C 965.1 317.5, 951.9 331.7, 939.1 337.7 C 926.2 343.6, 909.0 343.2, 892.9 338.0 C 876.9 332.9, 846.7 321.1, 842.6 306.7 C 838.5 292.4, 856.0 265.3, 868.2 251.8 C 880.5 238.3, 899.0 226.8, 916.1 225.9 Z" fill="#A8E063" opacity="0.11"/>
  <path d="M 1016.6 432.5 C 1029.7 432.3, 1048.8 451.9, 1056.6 464.4 C 1064.4 476.8, 1066.9 494.9, 1063.5 507.0 C 1060.1 519.1, 1048.5 529.1, 1036.1 536.8 C 1023.8 544.5, 1002.1 557.5, 989.3 553.0 C 976.5 548.4, 961.2 523.9, 959.3 509.3 C 957.4 494.8, 968.5 478.3, 978.1 465.5 C 987.6 452.7, 1003.5 432.7, 1016.6 432.5 Z" fill="#A8E063" opacity="0.13"/>
  <circle cx="1001.3" cy="265.9" r="4.0" fill="#A8E063" opacity="0.12"/>
  <circle cx="874.0" cy="358.6" r="3.1" fill="#A8E063" opacity="0.12"/>
  <circle cx="849.4" cy="433.9" r="4.8" fill="#A8E063" opacity="0.12"/>
  <circle cx="802.7" cy="205.6" r="2.7" fill="#A8E063" opacity="0.12"/>
  <circle cx="1014.2" cy="386.7" r="4.4" fill="#A8E063" opacity="0.12"/>
  <circle cx="1025.7" cy="414.0" r="3.0" fill="#A8E063" opacity="0.12"/>
  <circle cx="970.7" cy="376.8" r="4.8" fill="#A8E063" opacity="0.12"/>
  <circle cx="1042.9" cy="275.1" r="4.5" fill="#A8E063" opacity="0.12"/>
  <line x1="768.0" y1="158.4" x2="998.4" y2="158.4" stroke="#A8E063" stroke-width="2.5" opacity="0.2" stroke-linecap="round"/>
  <rect x="635.0" y="355.0" width="10" height="10" fill="#A8E063" opacity="0.2" transform="rotate(45 640.0 360.0)"/>

</svg>