<svg xmlns="http://www.w3.org/2000/svg" viewBox="0 0 1280 720" fill="none">
<defs>
  <linearGradient id="bg-12-6" x1="0" y1="0" x2="1" y2="1">
    <stop offset="0%" stop-color="#A8E063" stop-opacity="0.05"/>
    <stop offset="100%" stop-color="#2DAA6E" stop-opacity="0.03"/>
  </linearGradient>
</defs>
  <rect width="1280" height="720" fill="url(#bg-12-6)"/>
  <path d="M 990.1 112.4 C 1020.0 113.3, 1062.2 96.1, 1077.3 110.3 C 1092.4 124.5, 1086.0 173.9, 1080.6 197.6 C 1075.2 221.3, 1060.1 235.8, 1045.0 252.5 C 1029.9 269.2, 1011.4 294.6, 990.1 297.6 C 968.7 300.7, 939.0 287.5, 916.8 270.8 C 894.5 254.2, 859.8 225.2, 856.6 197.6 C 853.4 170.0, 875.5 119.5, 897.8 105.3 C 920.0 91.1, 960.1 111.6, 990.1 112.4 Z" fill="#A8E063" opacity="0.04"/>
  <circle cx="85.4" cy="255.2" r="2.0" fill="#A8E063" opacity="0.11"/>
  <circle cx="311.8" cy="280.2" r="2.9" fill="#A8E063" opacity="0.11"/>
  <circle cx="553.1" cy="176.7" r="2.7" fill="#A8E063" opacity="0.11"/>
  <circle cx="823.8" cy="507.3" r="2.6" fill="#A8E063" opacity="0.11"/>
  <circle cx="412.0" cy="420.8" r="2.1" fill="#A8E063" opacity="0.11"/>
  <circle cx="128.1" cy="95.2" r="4.0" fill="#A8E063" opacity="0.11"/>
  <circle cx="181.2" cy="602.8" r="2.2" fill="#A8E063" opacity="0.11"/>
  <circle cx="621.9" cy="49.9" r="2.3" fill="#A8E063" opacity="0.11"/>
  <circle cx="991.5" cy="169.2" r="3.3" fill="#A8E063" opacity="0.11"/>
  <circle cx="376.7" cy="395.1" r="2.8" fill="#A8E063" opacity="0.11"/>
  <circle cx="613.5" cy="659.2" r="1.7" fill="#A8E063" opacity="0.11"/>
  <line x1="256.0" y1="360.0" x2="1024.0" y2="360.0" stroke="#A8E063" stroke-width="2" opacity="0.2" stroke-linecap="round"/>
  <line x1="256.0" y1="360.0" x2="793.6" y2="360.0" stroke="#A8E063" stroke-width="3" opacity="0.15" stroke-linecap="round"/>
  <circle cx="256.0" cy="360.0" r="5" fill="#A8E063" opacity="0.3"/>
  <rect x="188.8" y="210.4" width="134.4" height="129.6" rx="8" fill="#A8E063" opacity="0.07"/>
  <rect x="188.8" y="210.4" width="134.4" height="129.6" rx="8" fill="none" stroke="#A8E063" stroke-width="1" opacity="0.2"/>
  <line x1="256.0" y1="355.0" x2="256.0" y2="340.0" stroke="#A8E063" stroke-width="0.8" opacity="0.15"/>
  <line x1="219.3" y1="275.2" x2="292.7" y2="275.2" stroke="#A8E063" stroke-width="1.5" opacity="0.1" stroke-linecap="round"/>
  <circle cx="448.0" cy="360.0" r="5" fill="#2DAA6E" opacity="0.3"/>
  <rect x="380.8" y="380.0" width="134.4" height="129.6" rx="8" fill="#2DAA6E" opacity="0.07"/>
  <rect x="380.8" y="380.0" width="134.4" height="129.6" rx="8" fill="none" stroke="#2DAA6E" stroke-width="1" opacity="0.2"/>
  <line x1="448.0" y1="365.0" x2="448.0" y2="380.0" stroke="#2DAA6E" stroke-width="0.8" opacity="0.15"/>
  <line x1="418.4" y1="444.8" x2="477.6" y2="444.8" stroke="#2DAA6E" stroke-width="1.5" opacity="0.1" stroke-linecap="round"/>
  <circle cx="640.0" cy="360.0" r="5" fill="#A8E063" opacity="0.3"/>
  <rect x="572.8" y="210.4" width="134.4" height="129.6" rx="8" fill="#A8E063" opacity="0.07"/>
  <rect x="572.8" y="210.4" width="134.4" height="129.6" rx="8" fill="none" stroke="#A8E063" stroke-width="1" opacity="0.2"/>
  <line x1="640.0" y1="355.0" x2="640.0" y2="340.0" stroke="#A8E063" stroke-width="0.8" opacity="0.15"/>
  <line x1="600.0" y1="275.2" x2="680.0" y2="275.2" stroke="#A8E063" stroke-width="1.5" opacity="0.1" stroke-linecap="round"/>
  <circle cx="832.0" cy="360.0" r="5" fill="#2DAA6E" opacity="0.3"/>
  <rect x="764.8" y="380.0" width="134.4" height="129.6" rx="8" fill="#2DAA6E" opacity="0.07"/>
  <rect x="764.8" y="380.0" width="134.4" height="129.6" rx="8" fill="none" stroke="#2DAA6E" stroke-width="1" opacity="0.2"/>
  <line x1="832.0" y1="365.0" x2="832.0" y2="380.0" stroke="#2DAA6E" stroke-width="0.8" opacity="0.15"/>
  <line x1="787.6" y1="444.8" x2="876.4" y2="444.8" stroke="#2DAA6E" stroke-width="1.5" opacity="0.1" stroke-linecap="round"/>
  <circle cx="1024.0" cy="360.0" r="5" fill="#A8E063" opacity="0.3"/>
  <rect x="956.8" y="210.4" width="134.4" height="129.6" rx="8" fill="#A8E063" opacity="0.07"/>
  <rect x="956.8" y="210.4" width="134.4" height="129.6" rx="8" fill="none" stroke="#A8E063" stroke-width="1" opacity="0.2"/>
  <line x1="1024.0" y1="355.0" x2="1024.0" y2="340.0" stroke="#A8E063" stroke-width="0.8" opacity="0.15"/>
  <line x1="989.4" y1="275.2" x2="1058.6" y2="275.2" stroke="#A8E063" stroke-width="1.5" opacity="0.1" stroke-linecap="round"/>

</svg>