<svg xmlns="http://www.w3.org/2000/svg" viewBox="0 0 1280 720" fill="none">
<defs>
  <linearGradient id="bg-12-3" x1="0" y1="0" x2="1" y2="1">
    <stop offset="0%" stop-color="#A8E063" stop-opacity="0.05"/>
    <stop offset="100%" stop-color="#2DAA6E" stop-opacity="0.03"/>
  </linearGradient>
</defs>
  <rect width="1280" height="720" fill="url(#bg-12-3)"/>
  <path d="M 1023.1 -4.1 C 1060.9 -0.1, 1092.6 66.9, 1124.5 101.4 C 1156.3 135.8, 1206.3 161.0, 1214.2 202.7 C 1222.2 244.5, 1203.8 323.0, 1171.9 351.6 C 1140.1 380.2, 1071.2 376.0, 1023.1 374.6 C 974.9 373.1, 910.3 371.4, 883.1 342.7 C 855.9 314.1, 857.3 247.0, 859.8 202.7 C 862.2 158.5, 870.6 111.9, 897.8 77.5 C 925.0 43.0, 985.3 -8.1, 1023.1 -4.1 Z" fill="#A8E063" opacity="0.07"/>
  <path d="M 743.2 176.1 C 776.1 175.0, 811.3 191.5, 845.0 214.9 C 878.7 238.3, 947.1 284.5, 945.4 316.7 C 943.6 348.8, 868.2 382.8, 834.5 407.9 C 800.8 433.1, 780.3 460.9, 743.2 467.6 C 706.2 474.2, 640.4 472.9, 612.1 447.8 C 583.9 422.6, 567.9 354.4, 573.8 316.7 C 579.8 279.0, 619.8 244.9, 648.0 221.4 C 676.2 198.0, 710.4 177.2, 743.2 176.1 Z" fill="#2DAA6E" opacity="0.05"/>
  <circle cx="953.7" cy="528.6" r="1.7" fill="#A8E063" opacity="0.08"/>
  <circle cx="661.8" cy="267.7" r="3.5" fill="#A8E063" opacity="0.08"/>
  <circle cx="214.4" cy="168.7" r="2.9" fill="#A8E063" opacity="0.08"/>
  <circle cx="869.6" cy="440.8" r="1.9" fill="#A8E063" opacity="0.08"/>
  <circle cx="566.1" cy="508.0" r="3.5" fill="#A8E063" opacity="0.08"/>
  <circle cx="205.7" cy="389.8" r="2.4" fill="#A8E063" opacity="0.08"/>
  <circle cx="329.7" cy="471.0" r="2.1" fill="#A8E063" opacity="0.08"/>
  <circle cx="868.5" cy="468.9" r="3.1" fill="#A8E063" opacity="0.08"/>
  <circle cx="407.4" cy="179.8" r="2.8" fill="#A8E063" opacity="0.08"/>
  <line x1="640.0" y1="144.0" x2="640.0" y2="576.0" stroke="#A8E063" stroke-width="1" opacity="0.15" stroke-dasharray="6 4"/>
  <path d="M 391.1 404.6 C 409.2 406.8, 421.8 424.4, 434.1 441.8 C 446.3 459.2, 471.6 494.4, 464.5 508.9 C 457.3 523.5, 411.4 531.3, 391.1 528.9 C 370.9 526.5, 353.9 511.1, 342.9 494.4 C 332.0 477.7, 317.4 443.6, 325.4 428.7 C 333.5 413.7, 373.0 402.4, 391.1 404.6 Z" fill="#2DAA6E" opacity="0.05"/>
  <path d="M 387.4 381.0 C 401.8 380.7, 424.9 377.8, 432.3 387.5 C 439.8 397.2, 439.4 426.8, 432.0 439.2 C 424.5 451.6, 402.4 462.0, 387.4 462.0 C 372.5 462.1, 349.2 451.5, 342.3 439.5 C 335.5 427.4, 338.7 399.4, 346.2 389.7 C 353.8 379.9, 373.1 381.4, 387.4 381.0 Z" fill="#2DAA6E" opacity="0.08"/>
  <path d="M 418.2 270.8 C 432.2 269.4, 461.1 281.2, 467.5 293.4 C 473.9 305.6, 464.7 332.0, 456.5 344.0 C 448.3 355.9, 432.1 364.6, 418.2 365.3 C 404.3 365.9, 379.0 358.4, 373.2 347.8 C 367.4 337.2, 376.0 314.7, 383.5 301.8 C 391.0 289.0, 404.2 272.3, 418.2 270.8 Z" fill="#2DAA6E" opacity="0.05"/>
  <line x1="281.6" y1="158.4" x2="512.0" y2="158.4" stroke="#2DAA6E" stroke-width="2" opacity="0.12" stroke-linecap="round"/>
  <path d="M 972.2 326.5 C 982.6 327.0, 993.2 329.6, 1001.3 337.1 C 1009.3 344.6, 1023.2 362.8, 1020.6 371.3 C 1018.0 379.8, 996.5 384.3, 985.7 388.2 C 974.9 392.1, 965.8 397.3, 955.8 394.5 C 945.7 391.6, 928.3 381.0, 925.6 370.9 C 922.8 360.8, 931.5 341.4, 939.3 334.0 C 947.1 326.6, 961.9 325.9, 972.2 326.5 Z" fill="#A8E063" opacity="0.12"/>
  <path d="M 852.5 197.8 C 866.0 195.2, 894.5 211.3, 902.5 224.2 C 910.5 237.1, 904.8 259.5, 900.8 275.1 C 896.7 290.7, 890.2 311.8, 878.4 317.8 C 866.5 323.8, 844.7 317.7, 829.9 311.1 C 815.1 304.6, 790.9 290.4, 789.6 278.5 C 788.2 266.5, 811.2 252.9, 821.7 239.5 C 832.1 226.0, 839.0 200.3, 852.5 197.8 Z" fill="#A8E063" opacity="0.08"/>
  <path d="M 804.6 281.7 C 812.2 282.3, 820.9 289.8, 825.2 295.9 C 829.6 302.0, 831.7 310.5, 830.6 318.3 C 829.6 326.1, 826.0 338.6, 819.2 342.6 C 812.4 346.6, 796.8 346.5, 790.1 342.5 C 783.5 338.4, 781.0 326.4, 779.3 318.1 C 777.6 309.8, 775.7 298.7, 779.9 292.6 C 784.1 286.6, 797.1 281.2, 804.6 281.7 Z" fill="#A8E063" opacity="0.08"/>
  <path d="M 993.9 414.2 C 1013.1 412.9, 1047.4 436.9, 1056.2 453.7 C 1065.0 470.6, 1052.2 497.6, 1046.4 515.4 C 1040.6 533.2, 1034.4 553.7, 1021.4 560.5 C 1008.3 567.4, 986.4 562.8, 968.4 556.4 C 950.3 549.9, 917.5 537.7, 913.0 521.9 C 908.4 506.1, 927.5 479.3, 941.0 461.3 C 954.5 443.4, 974.7 415.5, 993.9 414.2 Z" fill="#A8E063" opacity="0.11"/>
  <path d="M 958.7 268.1 C 966.8 268.7, 974.6 269.7, 980.8 275.3 C 987.1 280.9, 997.6 293.6, 996.4 301.6 C 995.1 309.6, 982.4 319.1, 973.3 323.5 C 964.3 327.8, 950.5 331.5, 941.9 327.9 C 933.2 324.2, 923.2 310.9, 921.5 301.5 C 919.8 292.1, 925.6 277.1, 931.8 271.5 C 938.0 266.0, 950.5 267.5, 958.7 268.1 Z" fill="#A8E063" opacity="0.10"/>
  <circle cx="845.9" cy="397.6" r="3.8" fill="#A8E063" opacity="0.12"/>
  <circle cx="742.9" cy="267.3" r="4.2" fill="#A8E063" opacity="0.12"/>
  <circle cx="804.4" cy="229.7" r="3.6" fill="#A8E063" opacity="0.12"/>
  <circle cx="770.0" cy="271.2" r="4.8" fill="#A8E063" opacity="0.12"/>
  <circle cx="1032.1" cy="461.3" r="3.0" fill="#A8E063" opacity="0.12"/>
  <circle cx="977.1" cy="272.5" r="3.7" fill="#A8E063" opacity="0.12"/>
  <circle cx="708.1" cy="431.8" r="2.0" fill="#A8E063" opacity="0.12"/>
  <circle cx="1045.9" cy="275.4" r="2.2" fill="#A8E063" opacity="0.12"/>
  <line x1="768.0" y1="158.4" x2="998.4" y2="158.4" stroke="#A8E063" stroke-width="2.5" opacity="0.2" stroke-linecap="round"/>
  <rect x="635.0" y="355.0" width="10" height="10" fill="#A8E063" opacity="0.2" transform="rotate(45 640.0 360.0)"/>

</svg>