<svg xmlns="http://www.w3.org/2000/svg" viewBox="0 0 1280 720" fill="none">
<defs>
  <linearGradient id="bg-12-2" x1="0" y1="0" x2="1" y2="1">
    <stop offset="0%" stop-color="#A8E063" stop-opacity="0.05"/>
    <stop offset="100%" stop-color="#2DAA6E" stop-opacity="0.03"/>
  </linearGradient>
</defs>
  <rect width="1280" height="720" fill="url(#bg-12-2)"/>
  <path d="M 716.3 269.9 C 753.6 267.1, 802.7 317.2, 836.5 350.7 C 870.3 384.2, 923.9 435.8, 918.9 470.9 C 913.9 505.9, 840.3 534.3, 806.5 561.1 C 772.7 587.9, 752.6 625.3, 716.3 631.6 C 680.0 637.8, 614.3 625.3, 588.7 598.5 C 563.0 571.7, 558.4 509.4, 562.4 470.9 C 566.4 432.3, 587.1 400.8, 612.7 367.3 C 638.3 333.8, 679.0 272.6, 716.3 269.9 Z" fill="#A8E063" opacity="0.06"/>
  <circle cx="940.2" cy="510.5" r="3.3" fill="#A8E063" opacity="0.07"/>
  <circle cx="425.2" cy="397.5" r="3.8" fill="#A8E063" opacity="0.07"/>
  <circle cx="940.5" cy="88.1" r="2.0" fill="#A8E063" opacity="0.07"/>
  <circle cx="836.5" cy="195.0" r="3.1" fill="#A8E063" opacity="0.07"/>
  <circle cx="324.0" cy="668.2" r="2.1" fill="#A8E063" opacity="0.07"/>
  <circle cx="640.6" cy="517.2" r="2.1" fill="#A8E063" opacity="0.07"/>
  <circle cx="121.2" cy="157.6" r="3.3" fill="#A8E063" opacity="0.07"/>
  <circle cx="1067.8" cy="105.9" r="3.2" fill="#A8E063" opacity="0.07"/>
  <line x1="640.0" y1="144.0" x2="640.0" y2="576.0" stroke="#A8E063" stroke-width="1" opacity="0.15" stroke-dasharray="6 4"/>
  <path d="M 312.5 258.4 C 323.4 259.0, 335.8 277.7, 341.9 289.3 C 348.1 300.8, 354.4 319.2, 349.5 327.7 C 344.6 336.1, 323.3 341.0, 312.5 340.1 C 301.7 339.2, 290.4 331.5, 284.5 322.5 C 278.5 313.4, 272.0 296.3, 276.7 285.6 C 281.4 274.9, 301.6 257.8, 312.5 258.4 Z" fill="#2DAA6E" opacity="0.05"/>
  <path d="M 445.2 232.8 C 452.8 232.4, 464.5 245.0, 469.6 253.7 C 474.6 262.5, 479.6 276.4, 475.5 285.3 C 471.4 294.1, 454.3 307.4, 445.2 306.8 C 436.1 306.2, 424.3 290.4, 420.8 281.9 C 417.3 273.3, 420.1 263.8, 424.1 255.6 C 428.2 247.5, 437.6 233.1, 445.2 232.8 Z" fill="#2DAA6E" opacity="0.04"/>
  <path d="M 348.5 250.7 C 359.1 250.1, 378.4 264.7, 383.5 275.1 C 388.5 285.4, 384.6 303.3, 378.8 312.8 C 373.0 322.3, 358.8 331.9, 348.5 332.0 C 338.2 332.0, 321.9 322.2, 317.1 313.4 C 312.3 304.5, 314.5 289.1, 319.7 278.7 C 324.9 268.2, 337.8 251.3, 348.5 250.7 Z" fill="#2DAA6E" opacity="0.04"/>
  <line x1="281.6" y1="158.4" x2="512.0" y2="158.4" stroke="#2DAA6E" stroke-width="2" opacity="0.12" stroke-linecap="round"/>
  <path d="M 979.1 365.2 C 985.4 366.0, 991.8 370.4, 994.8 374.8 C 997.9 379.2, 998.6 386.2, 997.6 391.5 C 996.5 396.9, 993.2 404.3, 988.5 406.9 C 983.9 409.6, 976.5 409.5, 969.4 407.5 C 962.4 405.4, 948.1 401.1, 946.1 394.9 C 944.1 388.6, 951.9 374.9, 957.4 370.0 C 962.9 365.0, 972.9 364.4, 979.1 365.2 Z" fill="#A8E063" opacity="0.15"/>
  <path d="M 927.7 214.1 C 935.6 213.7, 948.4 220.2, 952.8 226.6 C 957.3 233.1, 955.4 243.0, 954.3 252.7 C 953.2 262.4, 953.0 281.2, 946.2 285.0 C 939.5 288.8, 921.9 280.7, 913.9 275.5 C 905.8 270.2, 899.4 261.2, 898.0 253.4 C 896.6 245.7, 900.5 235.5, 905.5 228.9 C 910.4 222.3, 919.8 214.4, 927.7 214.1 Z" fill="#A8E063" opacity="0.16"/>
  <path d="M 879.0 251.5 C 897.6 247.7, 939.5 270.7, 949.4 288.6 C 959.4 306.4, 945.4 338.5, 938.8 358.4 C 932.1 378.3, 923.4 402.3, 909.5 408.2 C 895.6 414.0, 873.1 401.4, 855.4 393.7 C 837.7 386.0, 806.2 375.7, 803.2 362.0 C 800.2 348.4, 824.8 330.1, 837.4 311.6 C 850.0 293.2, 860.3 255.3, 879.0 251.5 Z" fill="#A8E063" opacity="0.12"/>
  <path d="M 923.3 405.5 C 932.6 404.5, 948.8 414.0, 955.2 422.5 C 961.6 431.0, 965.0 448.5, 961.6 456.7 C 958.2 464.9, 943.5 468.4, 934.8 471.8 C 926.0 475.2, 918.0 479.6, 909.2 477.2 C 900.4 474.8, 883.8 465.4, 882.1 457.3 C 880.5 449.3, 892.6 437.6, 899.4 428.9 C 906.3 420.3, 914.0 406.6, 923.3 405.5 Z" fill="#A8E063" opacity="0.16"/>
  <path d="M 875.9 400.5 C 891.9 401.5, 909.5 418.4, 919.8 431.8 C 930.0 445.1, 939.9 465.0, 937.3 480.7 C 934.7 496.4, 918.2 520.7, 904.4 525.8 C 890.6 530.9, 871.8 518.2, 854.5 511.2 C 837.2 504.3, 805.6 498.2, 800.5 483.9 C 795.5 469.6, 811.6 439.3, 824.2 425.4 C 836.7 411.5, 860.0 399.4, 875.9 400.5 Z" fill="#A8E063" opacity="0.12"/>
  <circle cx="939.1" cy="470.8" r="3.0" fill="#A8E063" opacity="0.12"/>
  <circle cx="954.8" cy="243.5" r="4.4" fill="#A8E063" opacity="0.12"/>
  <circle cx="845.6" cy="293.3" r="3.5" fill="#A8E063" opacity="0.12"/>
  <circle cx="736.0" cy="242.9" r="4.6" fill="#A8E063" opacity="0.12"/>
  <circle cx="1083.3" cy="314.3" r="2.3" fill="#A8E063" opacity="0.12"/>
  <circle cx="950.2" cy="364.1" r="4.4" fill="#A8E063" opacity="0.12"/>
  <circle cx="1086.1" cy="275.3" r="2.7" fill="#A8E063" opacity="0.12"/>
  <circle cx="825.1" cy="490.8" r="4.7" fill="#A8E063" opacity="0.12"/>
  <line x1="768.0" y1="158.4" x2="998.4" y2="158.4" stroke="#A8E063" stroke-width="2.5" opacity="0.2" stroke-linecap="round"/>
  <rect x="635.0" y="355.0" width="10" height="10" fill="#A8E063" opacity="0.2" transform="rotate(45 640.0 360.0)"/>

</svg>