<svg xmlns="http://www.w3.org/2000/svg" viewBox="0 0 1280 720" fill="none">
<defs>
  <linearGradient id="bg-12-4" x1="0" y1="0" x2="1" y2="1">
    <stop offset="0%" stop-color="#A8E063" stop-opacity="0.05"/>
    <stop offset="100%" stop-color="#2DAA6E" stop-opacity="0.03"/>
  </linearGradient>
</defs>
  <rect width="1280" height="720" fill="url(#bg-12-4)"/>
  <path d="M 721.2 179.3 C 761.1 175.8, 827.6 172.6, 851.2 197.3 C 874.8 222.0, 864.9 286.0, 862.9 327.3 C 860.9 368.6, 862.7 426.6, 839.1 445.1 C 815.5 463.7, 762.7 436.3, 721.2 438.5 C 679.7 440.7, 611.4 477.0, 590.0 458.5 C 568.7 439.9, 589.4 367.4, 593.1 327.3 C 596.7 287.2, 590.7 242.7, 612.0 218.1 C 633.4 193.4, 681.4 182.7, 721.2 179.3 Z" fill="#A8E063" opacity="0.06"/>
  <circle cx="1184.2" cy="54.3" r="2.8" fill="#A8E063" opacity="0.09"/>
  <circle cx="619.7" cy="72.7" r="1.6" fill="#A8E063" opacity="0.09"/>
  <circle cx="1106.5" cy="534.9" r="2.9" fill="#A8E063" opacity="0.09"/>
  <circle cx="422.9" cy="238.6" r="2.5" fill="#A8E063" opacity="0.09"/>
  <circle cx="449.0" cy="627.4" r="1.7" fill="#A8E063" opacity="0.09"/>
  <circle cx="888.8" cy="49.3" r="1.7" fill="#A8E063" opacity="0.09"/>
  <line x1="640.0" y1="144.0" x2="640.0" y2="576.0" stroke="#A8E063" stroke-width="1" opacity="0.15" stroke-dasharray="6 4"/>
  <path d="M 335.8 383.5 C 347.0 384.8, 357.8 405.7, 362.4 416.5 C 367.1 427.2, 368.1 439.5, 363.7 447.9 C 359.3 456.4, 345.6 467.1, 335.8 467.4 C 326.0 467.7, 311.6 459.5, 304.9 449.7 C 298.2 439.9, 290.2 419.5, 295.4 408.5 C 300.6 397.5, 324.6 382.2, 335.8 383.5 Z" fill="#2DAA6E" opacity="0.06"/>
  <path d="M 312.0 284.3 C 325.8 284.8, 345.3 284.1, 350.8 292.4 C 356.3 300.6, 351.4 321.5, 344.9 333.8 C 338.5 346.0, 323.6 365.6, 312.0 366.0 C 300.5 366.3, 283.0 348.5, 275.6 335.8 C 268.3 323.0, 261.8 297.9, 267.9 289.3 C 274.0 280.7, 298.2 283.8, 312.0 284.3 Z" fill="#2DAA6E" opacity="0.08"/>
  <path d="M 431.0 204.1 C 444.9 203.1, 469.4 220.7, 477.8 235.2 C 486.2 249.7, 488.9 281.1, 481.1 291.1 C 473.3 301.1, 446.2 295.9, 431.0 295.1 C 415.7 294.3, 395.5 295.2, 389.5 286.2 C 383.4 277.2, 387.5 254.8, 394.5 241.1 C 401.4 227.4, 417.1 205.1, 431.0 204.1 Z" fill="#2DAA6E" opacity="0.05"/>
  <line x1="281.6" y1="158.4" x2="512.0" y2="158.4" stroke="#2DAA6E" stroke-width="2" opacity="0.12" stroke-linecap="round"/>
  <path d="M 827.7 268.6 C 841.9 266.7, 868.4 274.8, 877.3 286.3 C 886.1 297.9, 886.1 325.0, 880.9 338.0 C 875.8 351.0, 858.9 358.2, 846.1 364.2 C 833.4 370.1, 815.9 378.3, 804.6 373.7 C 793.4 369.2, 780.7 349.8, 778.6 337.1 C 776.5 324.3, 783.9 308.9, 792.1 297.4 C 800.3 286.0, 813.5 270.4, 827.7 268.6 Z" fill="#A8E063" opacity="0.13"/>
  <path d="M 953.8 254.4 C 970.3 253.9, 994.5 285.6, 1005.0 302.8 C 1015.5 320.1, 1019.5 339.3, 1016.7 358.0 C 1013.8 376.6, 1004.6 404.1, 988.0 414.5 C 971.4 424.9, 931.5 430.1, 916.9 420.3 C 902.4 410.5, 902.4 374.9, 900.6 355.8 C 898.8 336.7, 897.3 322.5, 906.2 305.6 C 915.1 288.7, 937.4 254.8, 953.8 254.4 Z" fill="#A8E063" opacity="0.17"/>
  <path d="M 816.7 381.0 C 832.2 383.5, 843.4 413.7, 853.9 429.1 C 864.5 444.5, 882.6 460.7, 880.1 473.3 C 877.6 486.0, 854.5 496.9, 838.9 505.0 C 823.3 513.2, 802.0 527.1, 786.2 522.1 C 770.3 517.2, 747.9 493.5, 743.7 475.5 C 739.4 457.5, 748.4 429.8, 760.6 414.1 C 772.7 398.3, 801.1 378.5, 816.7 381.0 Z" fill="#A8E063" opacity="0.10"/>
  <path d="M 992.8 454.2 C 1001.5 453.0, 1015.4 451.5, 1023.2 458.0 C 1031.1 464.5, 1042.8 484.6, 1039.8 493.0 C 1036.8 501.3, 1015.8 504.3, 1005.3 508.1 C 994.8 511.9, 984.1 518.8, 976.7 515.7 C 969.3 512.7, 961.6 498.0, 960.7 489.6 C 959.8 481.1, 965.9 471.0, 971.3 465.1 C 976.6 459.2, 984.2 455.3, 992.8 454.2 Z" fill="#A8E063" opacity="0.18"/>
  <path d="M 819.4 261.9 C 835.2 260.0, 862.2 287.0, 873.7 303.8 C 885.1 320.6, 891.5 344.1, 888.0 362.7 C 884.4 381.3, 868.6 408.0, 852.3 415.3 C 836.1 422.7, 810.6 415.1, 790.6 407.0 C 770.5 399.0, 734.0 382.3, 732.1 367.0 C 730.2 351.6, 764.6 332.4, 779.1 314.9 C 793.7 297.4, 803.7 263.7, 819.4 261.9 Z" fill="#A8E063" opacity="0.12"/>
  <circle cx="1030.7" cy="534.5" r="3.2" fill="#A8E063" opacity="0.12"/>
  <circle cx="954.8" cy="370.0" r="3.4" fill="#A8E063" opacity="0.12"/>
  <circle cx="1055.5" cy="402.4" r="2.3" fill="#A8E063" opacity="0.12"/>
  <circle cx="1071.2" cy="326.2" r="4.6" fill="#A8E063" opacity="0.12"/>
  <circle cx="730.8" cy="493.5" r="3.2" fill="#A8E063" opacity="0.12"/>
  <circle cx="854.7" cy="229.1" r="3.9" fill="#A8E063" opacity="0.12"/>
  <circle cx="984.7" cy="497.0" r="2.7" fill="#A8E063" opacity="0.12"/>
  <circle cx="786.2" cy="197.6" r="4.6" fill="#A8E063" opacity="0.12"/>
  <line x1="768.0" y1="158.4" x2="998.4" y2="158.4" stroke="#A8E063" stroke-width="2.5" opacity="0.2" stroke-linecap="round"/>
  <rect x="635.0" y="355.0" width="10" height="10" fill="#A8E063" opacity="0.2" transform="rotate(45 640.0 360.0)"/>

</svg>