<svg xmlns="http://www.w3.org/2000/svg" viewBox="0 0 1280 720" fill="none">
<defs>
  <linearGradient id="bg-grad-6" x1="0" y1="0" x2="1" y2="1">
    <stop offset="0%" stop-color="#2DAA6E" stop-opacity="0.06"/>
    <stop offset="100%" stop-color="#4CB648" stop-opacity="0.03"/>
  </linearGradient>
</defs>
  <rect width="1280" height="720" fill="url(#bg-grad-6)"/>
  <path d="M 481.6 -24.1 C 513.2 -24.4, 549.9 55.3, 577.4 90.3 C 604.9 125.3, 641.0 148.9, 646.3 186.1 C 651.6 223.3, 636.7 289.1, 609.2 313.7 C 581.8 338.3, 524.2 333.8, 481.6 333.8 C 439.0 333.9, 374.8 338.6, 353.7 314.0 C 332.6 289.4, 349.2 223.0, 354.9 186.1 C 360.6 149.1, 366.8 127.4, 387.9 92.4 C 409.0 57.3, 450.0 -23.8, 481.6 -24.1 Z" fill="#2DAA6E" opacity="0.06"/>
  <path d="M 517.7 129.2 C 577.0 115.2, 695.8 139.9, 737.6 186.0 C 779.4 232.1, 771.0 335.2, 768.4 405.9 C 765.8 476.6, 763.7 560.1, 722.0 610.2 C 680.2 660.2, 574.0 718.1, 517.7 706.3 C 461.3 694.6, 437.2 589.8, 383.9 539.7 C 330.5 489.6, 197.8 450.8, 197.5 405.9 C 197.1 360.9, 328.4 316.1, 381.8 270.0 C 435.2 223.9, 458.4 143.2, 517.7 129.2 Z" fill="#4CB648" opacity="0.06"/>
  <circle cx="587.3" cy="124.8" r="4.0" fill="#2DAA6E" opacity="0.16"/>
  <circle cx="987.4" cy="379.2" r="3.1" fill="#2DAA6E" opacity="0.16"/>
  <circle cx="554.5" cy="536.1" r="3.7" fill="#2DAA6E" opacity="0.16"/>
  <circle cx="372.9" cy="117.6" r="4.5" fill="#2DAA6E" opacity="0.16"/>
  <circle cx="619.3" cy="553.7" r="4.3" fill="#2DAA6E" opacity="0.16"/>
  <circle cx="640.2" cy="620.4" r="2.5" fill="#2DAA6E" opacity="0.16"/>
  <circle cx="669.9" cy="616.9" r="3.5" fill="#2DAA6E" opacity="0.16"/>
  <circle cx="225.0" cy="574.9" r="4.6" fill="#2DAA6E" opacity="0.16"/>
  <circle cx="246.1" cy="406.3" r="3.6" fill="#2DAA6E" opacity="0.16"/>
  <circle cx="916.4" cy="542.1" r="4.4" fill="#2DAA6E" opacity="0.16"/>
  <circle cx="453.4" cy="150.0" r="3.5" fill="#2DAA6E" opacity="0.16"/>
  <circle cx="453.9" cy="178.0" r="4.0" fill="#2DAA6E" opacity="0.16"/>
  <circle cx="369.4" cy="271.8" r="4.7" fill="#2DAA6E" opacity="0.16"/>
  <circle cx="1155.2" cy="493.3" r="3.2" fill="#2DAA6E" opacity="0.16"/>
  <circle cx="934.8" cy="217.6" r="3.3" fill="#2DAA6E" opacity="0.16"/>
  <circle cx="854.7" cy="211.8" r="3.9" fill="#2DAA6E" opacity="0.16"/>
  <circle cx="856.1" cy="473.2" r="2.2" fill="#2DAA6E" opacity="0.16"/>
  <path d="M 80 274.7205506078899 C 456.0345135629177 194.38433735631406, 927.053026529029 565.4462568461895, 1200 595.9550465922803" fill="none" stroke="#4CB648" stroke-width="2" opacity="0.1" stroke-linecap="round"/>

  <rect x="530" y="280" width="40" height="180" rx="8" fill="#2DAA6E" opacity="0.2"/>
  <rect x="600" y="240" width="40" height="220" rx="8" fill="#4CB648" opacity="0.25"/>
  <rect x="670" y="300" width="40" height="160" rx="8" fill="#2DAA6E" opacity="0.18"/>
  <rect x="530" y="280" width="40" height="180" rx="8" fill="none" stroke="#2DAA6E" stroke-width="1.5" opacity="0.4"/>
  <rect x="600" y="240" width="40" height="220" rx="8" fill="none" stroke="#4CB648" stroke-width="1.5" opacity="0.4"/>
  <rect x="670" y="300" width="40" height="160" rx="8" fill="none" stroke="#2DAA6E" stroke-width="1.5" opacity="0.4"/>
  <line x1="500" y1="460" x2="740" y2="460" stroke="#4CB648" stroke-width="2" opacity="0.3"/>
</svg>