<svg xmlns="http://www.w3.org/2000/svg" viewBox="0 0 1280 720" fill="none">
<defs>
  <linearGradient id="bg-6-8" x1="0" y1="0" x2="1" y2="1">
    <stop offset="0%" stop-color="#2DAA6E" stop-opacity="0.05"/>
    <stop offset="100%" stop-color="#4CB648" stop-opacity="0.03"/>
  </linearGradient>
</defs>
  <rect width="1280" height="720" fill="url(#bg-6-8)"/>
  <path d="M 361.2 -9.7 C 396.0 -5.6, 425.0 4.7, 453.4 26.0 C 481.9 47.3, 534.5 89.9, 532.0 118.2 C 529.5 146.5, 467.1 166.8, 438.6 195.6 C 410.2 224.4, 388.0 289.9, 361.2 290.9 C 334.4 291.9, 304.9 230.4, 277.8 201.6 C 250.7 172.8, 204.1 151.5, 198.6 118.2 C 193.1 84.9, 217.6 23.0, 244.7 1.7 C 271.8 -19.6, 326.4 -13.7, 361.2 -9.7 Z" fill="#2DAA6E" opacity="0.05"/>
  <circle cx="740.2" cy="593.8" r="2.2" fill="#2DAA6E" opacity="0.09"/>
  <circle cx="385.8" cy="585.8" r="2.8" fill="#2DAA6E" opacity="0.09"/>
  <circle cx="118.5" cy="362.4" r="2.9" fill="#2DAA6E" opacity="0.09"/>
  <circle cx="1055.4" cy="625.9" r="3.0" fill="#2DAA6E" opacity="0.09"/>
  <circle cx="125.9" cy="89.8" r="3.6" fill="#2DAA6E" opacity="0.09"/>
  <circle cx="722.7" cy="110.3" r="3.6" fill="#2DAA6E" opacity="0.09"/>
  <circle cx="457.1" cy="299.7" r="3.3" fill="#2DAA6E" opacity="0.09"/>
  <circle cx="146.5" cy="180.4" r="3.6" fill="#2DAA6E" opacity="0.09"/>
  <circle cx="215.2" cy="633.7" r="2.7" fill="#2DAA6E" opacity="0.09"/>
  <circle cx="211.5" cy="319.1" r="3.4" fill="#2DAA6E" opacity="0.09"/>
  <circle cx="867.4" cy="611.8" r="3.7" fill="#2DAA6E" opacity="0.09"/>
  <line x1="640.0" y1="144.0" x2="640.0" y2="576.0" stroke="#2DAA6E" stroke-width="1" opacity="0.15" stroke-dasharray="6 4"/>
  <path d="M 325.6 383.4 C 340.7 383.3, 360.7 398.4, 371.6 414.2 C 382.5 430.1, 398.6 460.9, 390.9 478.5 C 383.2 496.0, 347.4 519.5, 325.6 519.5 C 303.8 519.6, 267.5 496.1, 260.0 478.6 C 252.5 461.2, 269.7 430.7, 280.7 414.8 C 291.6 399.0, 310.4 383.5, 325.6 383.4 Z" fill="#4CB648" opacity="0.08"/>
  <path d="M 324.1 455.4 C 332.5 456.1, 341.2 467.9, 345.4 475.7 C 349.6 483.6, 353.0 495.6, 349.4 502.7 C 345.9 509.7, 332.4 518.1, 324.1 518.0 C 315.8 517.9, 304.6 510.0, 299.7 502.1 C 294.8 494.3, 290.7 478.9, 294.7 471.1 C 298.8 463.3, 315.6 454.6, 324.1 455.4 Z" fill="#4CB648" opacity="0.04"/>
  <path d="M 333.8 388.8 C 344.0 388.3, 362.2 399.1, 367.1 408.4 C 371.9 417.7, 368.5 432.5, 363.0 444.4 C 357.4 456.4, 346.1 478.6, 333.8 480.1 C 321.5 481.6, 293.6 464.9, 289.0 453.5 C 284.4 442.0, 298.6 422.4, 306.1 411.6 C 313.6 400.8, 323.7 389.4, 333.8 388.8 Z" fill="#4CB648" opacity="0.07"/>
  <line x1="281.6" y1="158.4" x2="512.0" y2="158.4" stroke="#4CB648" stroke-width="2" opacity="0.12" stroke-linecap="round"/>
  <path d="M 1018.8 319.0 C 1026.6 318.1, 1039.3 327.5, 1045.8 335.2 C 1052.2 343.0, 1059.8 357.7, 1057.3 365.6 C 1054.9 373.4, 1040.8 376.8, 1031.1 382.3 C 1021.3 387.8, 1005.7 401.7, 998.6 398.6 C 991.5 395.5, 988.3 373.4, 988.3 363.7 C 988.2 354.1, 993.4 348.1, 998.5 340.6 C 1003.6 333.2, 1010.9 319.9, 1018.8 319.0 Z" fill="#2DAA6E" opacity="0.14"/>
  <path d="M 892.1 232.9 C 905.9 233.0, 921.4 254.0, 933.3 268.0 C 945.1 282.0, 965.5 302.3, 963.1 317.1 C 960.6 331.8, 936.1 347.7, 918.8 356.3 C 901.5 365.0, 877.0 375.0, 859.3 368.8 C 841.7 362.5, 814.6 335.8, 813.1 318.9 C 811.5 302.0, 836.8 281.6, 849.9 267.3 C 863.1 252.9, 878.2 232.8, 892.1 232.9 Z" fill="#2DAA6E" opacity="0.15"/>
  <path d="M 995.6 388.5 C 1005.8 388.7, 1020.0 388.2, 1025.6 394.5 C 1031.1 400.7, 1031.5 417.0, 1028.9 425.9 C 1026.4 434.9, 1018.6 443.4, 1010.1 448.4 C 1001.5 453.4, 985.1 459.7, 977.6 455.8 C 970.0 452.0, 966.9 435.8, 964.7 425.4 C 962.5 415.0, 959.2 399.5, 964.3 393.4 C 969.5 387.2, 985.4 388.3, 995.6 388.5 Z" fill="#2DAA6E" opacity="0.11"/>
  <path d="M 987.8 251.9 C 996.6 252.3, 1004.8 263.4, 1012.7 271.9 C 1020.7 280.3, 1036.2 292.0, 1035.5 302.7 C 1034.9 313.4, 1019.5 332.3, 1009.0 335.8 C 998.4 339.4, 981.1 330.2, 972.2 324.1 C 963.3 318.0, 957.7 308.3, 955.6 299.1 C 953.5 290.0, 954.2 277.2, 959.6 269.3 C 964.9 261.4, 978.9 251.5, 987.8 251.9 Z" fill="#2DAA6E" opacity="0.09"/>
  <path d="M 979.5 470.7 C 987.0 470.0, 999.1 469.9, 1004.5 475.3 C 1009.9 480.6, 1014.5 496.2, 1011.9 502.6 C 1009.2 509.0, 996.0 510.6, 988.5 513.8 C 980.9 517.0, 971.2 524.3, 966.7 521.9 C 962.1 519.4, 962.5 506.4, 961.3 499.3 C 960.2 492.3, 956.8 484.2, 959.8 479.5 C 962.8 474.7, 972.1 471.4, 979.5 470.7 Z" fill="#2DAA6E" opacity="0.18"/>
  <circle cx="933.5" cy="472.1" r="4.5" fill="#2DAA6E" opacity="0.12"/>
  <circle cx="1045.7" cy="411.1" r="3.6" fill="#2DAA6E" opacity="0.12"/>
  <circle cx="1023.2" cy="286.6" r="2.8" fill="#2DAA6E" opacity="0.12"/>
  <circle cx="1052.7" cy="462.9" r="2.9" fill="#2DAA6E" opacity="0.12"/>
  <circle cx="1045.0" cy="309.2" r="2.8" fill="#2DAA6E" opacity="0.12"/>
  <circle cx="1020.3" cy="440.7" r="4.6" fill="#2DAA6E" opacity="0.12"/>
  <circle cx="1055.6" cy="316.3" r="4.8" fill="#2DAA6E" opacity="0.12"/>
  <circle cx="854.2" cy="337.8" r="4.3" fill="#2DAA6E" opacity="0.12"/>
  <line x1="768.0" y1="158.4" x2="998.4" y2="158.4" stroke="#2DAA6E" stroke-width="2.5" opacity="0.2" stroke-linecap="round"/>
  <rect x="635.0" y="355.0" width="10" height="10" fill="#2DAA6E" opacity="0.2" transform="rotate(45 640.0 360.0)"/>

</svg>