<svg xmlns="http://www.w3.org/2000/svg" viewBox="0 0 1280 720" fill="none">
<defs>
  <linearGradient id="bg-6-7" x1="0" y1="0" x2="1" y2="1">
    <stop offset="0%" stop-color="#2DAA6E" stop-opacity="0.05"/>
    <stop offset="100%" stop-color="#4CB648" stop-opacity="0.03"/>
  </linearGradient>
</defs>
  <rect width="1280" height="720" fill="url(#bg-6-7)"/>
  <path d="M 202.7 435.1 C 249.0 430.6, 320.9 423.0, 354.8 451.0 C 388.7 479.0, 404.7 550.8, 406.3 603.1 C 407.9 655.4, 398.2 732.5, 364.3 764.7 C 330.4 797.0, 245.9 807.2, 202.7 796.6 C 159.5 785.9, 136.6 733.1, 105.0 700.8 C 73.4 668.6, 17.8 640.3, 13.1 603.1 C 8.5 565.9, 45.6 505.6, 77.2 477.6 C 108.8 449.6, 156.4 439.5, 202.7 435.1 Z" fill="#2DAA6E" opacity="0.06"/>
  <path d="M 287.1 412.5 C 329.3 411.6, 387.5 416.6, 416.5 443.3 C 445.5 470.1, 469.4 537.8, 461.2 572.8 C 453.0 607.8, 396.5 629.8, 367.5 653.2 C 338.5 676.6, 315.2 711.7, 287.1 713.1 C 258.9 714.4, 219.9 684.8, 198.4 661.5 C 176.9 638.1, 164.0 608.2, 158.1 572.8 C 152.3 537.4, 141.8 475.7, 163.3 449.0 C 184.8 422.3, 244.9 413.5, 287.1 412.5 Z" fill="#4CB648" opacity="0.05"/>
  <circle cx="733.6" cy="178.3" r="3.2" fill="#2DAA6E" opacity="0.09"/>
  <circle cx="798.1" cy="176.9" r="3.8" fill="#2DAA6E" opacity="0.09"/>
  <circle cx="856.2" cy="109.0" r="3.5" fill="#2DAA6E" opacity="0.09"/>
  <circle cx="503.5" cy="354.1" r="2.6" fill="#2DAA6E" opacity="0.09"/>
  <circle cx="971.8" cy="130.0" r="3.8" fill="#2DAA6E" opacity="0.09"/>
  <circle cx="228.3" cy="480.5" r="2.2" fill="#2DAA6E" opacity="0.09"/>
  <circle cx="362.4" cy="220.7" r="2.5" fill="#2DAA6E" opacity="0.09"/>
  <circle cx="169.9" cy="260.5" r="3.8" fill="#2DAA6E" opacity="0.09"/>
  <circle cx="342.5" cy="450.3" r="3.2" fill="#2DAA6E" opacity="0.09"/>
  <circle cx="414.7" cy="465.1" r="2.0" fill="#2DAA6E" opacity="0.09"/>
  <circle cx="139.9" cy="178.5" r="2.6" fill="#2DAA6E" opacity="0.09"/>
  <path d="M 640.0 180.0 C 690.0 216.0, 700.0 324.0, 695.0 432.0 C 690.0 504.0, 670.0 561.6, 640.0 576.0" fill="none" stroke="#2DAA6E" stroke-width="2" opacity="0.2" stroke-linecap="round"/>
  <path d="M 640.0 180.0 C 590.0 216.0, 580.0 324.0, 585.0 432.0 C 590.0 504.0, 610.0 561.6, 640.0 576.0" fill="none" stroke="#2DAA6E" stroke-width="2" opacity="0.2" stroke-linecap="round"/>
  <circle cx="640.0" cy="244.8" r="18.4" fill="#2DAA6E" opacity="0.12"/>
  <circle cx="640.0" cy="244.8" r="18.4" fill="none" stroke="#2DAA6E" stroke-width="1.5" opacity="0.3"/>
  <circle cx="625.0" cy="374.4" r="17.7" fill="#4CB648" opacity="0.12"/>
  <circle cx="625.0" cy="374.4" r="17.7" fill="none" stroke="#4CB648" stroke-width="1.5" opacity="0.3"/>
  <circle cx="660.0" cy="446.4" r="21.5" fill="#2DAA6E" opacity="0.12"/>
  <circle cx="660.0" cy="446.4" r="21.5" fill="none" stroke="#2DAA6E" stroke-width="1.5" opacity="0.3"/>
  <line x1="640.0" y1="244.8" x2="625.0" y2="374.4" stroke="#2DAA6E" stroke-width="1.5" opacity="0.15" stroke-dasharray="4 3"/>
  <circle cx="636.3" cy="277.2" r="2" fill="#4CB648" opacity="0.2"/>
  <circle cx="632.5" cy="309.6" r="2" fill="#4CB648" opacity="0.2"/>
  <circle cx="628.8" cy="342.0" r="2" fill="#4CB648" opacity="0.2"/>
  <line x1="625.0" y1="374.4" x2="660.0" y2="446.4" stroke="#2DAA6E" stroke-width="1.5" opacity="0.15" stroke-dasharray="4 3"/>
  <circle cx="633.8" cy="392.4" r="2" fill="#4CB648" opacity="0.2"/>
  <circle cx="642.5" cy="410.4" r="2" fill="#4CB648" opacity="0.2"/>
  <circle cx="651.3" cy="428.4" r="2" fill="#4CB648" opacity="0.2"/>

</svg>