<svg xmlns="http://www.w3.org/2000/svg" viewBox="0 0 1280 720" fill="none">
<defs>
  <linearGradient id="bg-6-2" x1="0" y1="0" x2="1" y2="1">
    <stop offset="0%" stop-color="#2DAA6E" stop-opacity="0.05"/>
    <stop offset="100%" stop-color="#4CB648" stop-opacity="0.03"/>
  </linearGradient>
</defs>
  <rect width="1280" height="720" fill="url(#bg-6-2)"/>
  <path d="M 754.9 107.6 C 782.8 106.4, 828.2 103.7, 842.0 120.4 C 855.8 137.0, 838.5 179.2, 837.7 207.4 C 836.9 235.6, 850.8 271.9, 837.0 289.6 C 823.2 307.2, 783.1 312.5, 754.9 313.4 C 726.7 314.2, 679.8 312.2, 667.8 294.5 C 655.9 276.8, 682.0 235.3, 683.1 207.4 C 684.3 179.5, 662.7 143.8, 674.7 127.2 C 686.6 110.5, 727.0 108.7, 754.9 107.6 Z" fill="#2DAA6E" opacity="0.04"/>
  <circle cx="788.2" cy="596.8" r="2.5" fill="#2DAA6E" opacity="0.08"/>
  <circle cx="189.8" cy="307.5" r="2.8" fill="#2DAA6E" opacity="0.08"/>
  <circle cx="899.1" cy="622.2" r="2.4" fill="#2DAA6E" opacity="0.08"/>
  <circle cx="1120.4" cy="168.6" r="2.1" fill="#2DAA6E" opacity="0.08"/>
  <circle cx="1094.4" cy="651.7" r="2.1" fill="#2DAA6E" opacity="0.08"/>
  <circle cx="987.5" cy="644.0" r="2.4" fill="#2DAA6E" opacity="0.08"/>
  <circle cx="470.8" cy="301.2" r="1.9" fill="#2DAA6E" opacity="0.08"/>
  <circle cx="226.9" cy="550.8" r="3.9" fill="#2DAA6E" opacity="0.08"/>
  <circle cx="1112.6" cy="610.3" r="3.7" fill="#2DAA6E" opacity="0.08"/>
  <circle cx="288.0" cy="374.9" r="29.6" fill="#2DAA6E" opacity="0.1"/>
  <circle cx="288.0" cy="374.9" r="29.6" fill="none" stroke="#2DAA6E" stroke-width="1.8" opacity="0.3"/>
  <circle cx="288.0" cy="374.9" r="5.1" fill="#2DAA6E" opacity="0.2"/>
  <path d="M 321.6 374.9 Q 405.3 350.5, 489.0 373.4" fill="none" stroke="#2DAA6E" stroke-width="1.5" opacity="0.25" stroke-linecap="round"/>
  <circle cx="487.0" cy="373.4" r="3" fill="#2DAA6E" opacity="0.3"/>
  <circle cx="522.7" cy="362.1" r="29.6" fill="#4CB648" opacity="0.1"/>
  <circle cx="522.7" cy="362.1" r="29.6" fill="none" stroke="#4CB648" stroke-width="1.8" opacity="0.3"/>
  <circle cx="522.7" cy="362.1" r="7.3" fill="#4CB648" opacity="0.2"/>
  <path d="M 556.3 362.1 Q 640.0 344.2, 723.7 368.0" fill="none" stroke="#2DAA6E" stroke-width="1.5" opacity="0.25" stroke-linecap="round"/>
  <circle cx="721.7" cy="368.0" r="3" fill="#2DAA6E" opacity="0.3"/>
  <circle cx="757.3" cy="373.5" r="29.6" fill="#2DAA6E" opacity="0.1"/>
  <circle cx="757.3" cy="373.5" r="29.6" fill="none" stroke="#2DAA6E" stroke-width="1.8" opacity="0.3"/>
  <circle cx="757.3" cy="373.5" r="5.9" fill="#2DAA6E" opacity="0.2"/>
  <path d="M 791.0 373.5 Q 874.7 321.8, 958.4 347.8" fill="none" stroke="#2DAA6E" stroke-width="1.5" opacity="0.25" stroke-linecap="round"/>
  <circle cx="956.4" cy="347.8" r="3" fill="#2DAA6E" opacity="0.3"/>
  <circle cx="992.0" cy="364.0" r="29.6" fill="#4CB648" opacity="0.1"/>
  <circle cx="992.0" cy="364.0" r="29.6" fill="none" stroke="#4CB648" stroke-width="1.8" opacity="0.3"/>
  <circle cx="992.0" cy="364.0" r="5.2" fill="#4CB648" opacity="0.2"/>

</svg>