<svg xmlns="http://www.w3.org/2000/svg" viewBox="0 0 1280 720" fill="none">
<defs>
  <linearGradient id="bg-6-3" x1="0" y1="0" x2="1" y2="1">
    <stop offset="0%" stop-color="#2DAA6E" stop-opacity="0.05"/>
    <stop offset="100%" stop-color="#4CB648" stop-opacity="0.03"/>
  </linearGradient>
</defs>
  <rect width="1280" height="720" fill="url(#bg-6-3)"/>
  <path d="M 675.3 333.4 C 698.2 336.4, 714.5 365.6, 735.2 384.0 C 755.9 402.4, 799.7 424.1, 799.6 444.0 C 799.5 463.8, 755.4 478.8, 734.7 503.4 C 714.0 527.9, 696.5 589.8, 675.3 591.1 C 654.1 592.5, 626.8 536.2, 607.5 511.7 C 588.3 487.2, 561.4 468.2, 559.7 444.0 C 558.1 419.7, 578.5 384.9, 597.8 366.4 C 617.0 348.0, 652.4 330.5, 675.3 333.4 Z" fill="#2DAA6E" opacity="0.04"/>
  <path d="M 453.2 59.1 C 480.5 63.2, 504.1 75.8, 522.6 93.1 C 541.1 110.3, 558.2 133.5, 563.9 162.5 C 569.7 191.4, 575.7 237.9, 557.3 266.5 C 538.8 295.1, 485.2 336.8, 453.2 334.1 C 421.3 331.3, 382.4 278.7, 365.6 250.1 C 348.8 221.5, 353.7 192.8, 352.6 162.5 C 351.5 132.1, 342.1 85.4, 358.9 68.2 C 375.7 50.9, 425.9 54.9, 453.2 59.1 Z" fill="#4CB648" opacity="0.06"/>
  <circle cx="716.5" cy="648.6" r="2.9" fill="#2DAA6E" opacity="0.10"/>
  <circle cx="759.6" cy="597.7" r="2.2" fill="#2DAA6E" opacity="0.10"/>
  <circle cx="116.9" cy="334.4" r="3.2" fill="#2DAA6E" opacity="0.10"/>
  <circle cx="509.8" cy="665.7" r="3.6" fill="#2DAA6E" opacity="0.10"/>
  <circle cx="664.7" cy="632.4" r="2.6" fill="#2DAA6E" opacity="0.10"/>
  <circle cx="206.6" cy="309.8" r="3.7" fill="#2DAA6E" opacity="0.10"/>
  <circle cx="154.1" cy="472.4" r="3.5" fill="#2DAA6E" opacity="0.10"/>
  <circle cx="943.8" cy="152.2" r="3.6" fill="#2DAA6E" opacity="0.10"/>
  <circle cx="275.2" cy="431.4" r="2.8" fill="#2DAA6E" opacity="0.10"/>
  <line x1="640.0" y1="144.0" x2="640.0" y2="576.0" stroke="#2DAA6E" stroke-width="1" opacity="0.15" stroke-dasharray="6 4"/>
  <path d="M 304.0 346.2 C 316.0 346.6, 331.2 355.4, 337.8 365.6 C 344.3 375.9, 349.0 396.4, 343.4 407.8 C 337.7 419.2, 315.4 434.9, 304.0 433.9 C 292.6 433.0, 281.2 413.7, 274.9 401.9 C 268.5 390.1, 261.1 372.4, 266.0 363.1 C 270.8 353.8, 292.1 345.8, 304.0 346.2 Z" fill="#4CB648" opacity="0.04"/>
  <path d="M 433.9 398.8 C 449.8 398.1, 477.5 392.7, 485.1 402.6 C 492.8 412.6, 488.4 448.3, 479.9 458.7 C 471.3 469.1, 448.6 465.2, 433.9 464.9 C 419.3 464.5, 399.2 466.2, 391.8 456.5 C 384.5 446.8, 382.9 416.4, 389.9 406.8 C 396.9 397.2, 418.1 399.5, 433.9 398.8 Z" fill="#4CB648" opacity="0.04"/>
  <path d="M 342.4 366.5 C 361.5 367.3, 387.7 371.4, 395.6 384.0 C 403.5 396.6, 398.8 425.1, 389.9 442.2 C 381.1 459.3, 360.6 485.3, 342.4 486.7 C 324.2 488.0, 291.0 468.3, 280.7 450.3 C 270.4 432.4, 270.4 393.1, 280.7 379.2 C 291.0 365.2, 323.2 365.7, 342.4 366.5 Z" fill="#4CB648" opacity="0.05"/>
  <line x1="281.6" y1="158.4" x2="512.0" y2="158.4" stroke="#4CB648" stroke-width="2" opacity="0.12" stroke-linecap="round"/>
  <path d="M 819.6 168.2 C 831.3 166.7, 851.7 182.4, 860.2 194.0 C 868.6 205.6, 873.3 224.5, 870.4 237.9 C 867.5 251.3, 855.4 268.1, 842.9 274.6 C 830.4 281.1, 808.4 283.0, 795.2 277.1 C 781.9 271.2, 764.1 251.5, 763.3 239.2 C 762.5 226.8, 781.1 214.9, 790.4 203.0 C 799.8 191.2, 808.0 169.7, 819.6 168.2 Z" fill="#2DAA6E" opacity="0.15"/>
  <path d="M 805.5 341.1 C 815.7 342.1, 824.9 361.5, 832.1 371.8 C 839.4 382.0, 850.4 393.3, 848.9 402.9 C 847.4 412.5, 833.6 424.2, 823.0 429.4 C 812.5 434.6, 793.7 439.0, 785.7 434.1 C 777.7 429.2, 777.5 411.3, 775.1 399.9 C 772.7 388.5, 766.2 375.5, 771.3 365.7 C 776.4 355.9, 795.4 340.1, 805.5 341.1 Z" fill="#2DAA6E" opacity="0.16"/>
  <path d="M 963.2 465.1 C 970.8 465.1, 981.3 477.3, 986.2 484.8 C 991.2 492.3, 994.7 502.6, 992.9 509.9 C 991.1 517.1, 982.6 524.7, 975.4 528.3 C 968.1 532.0, 957.4 534.8, 949.4 532.0 C 941.4 529.1, 928.8 519.1, 927.4 511.3 C 925.9 503.5, 934.8 492.9, 940.8 485.2 C 946.8 477.5, 955.7 465.2, 963.2 465.1 Z" fill="#2DAA6E" opacity="0.11"/>
  <path d="M 895.6 299.2 C 905.3 300.7, 914.5 311.0, 919.3 318.5 C 924.1 325.9, 926.1 335.7, 924.6 344.0 C 923.1 352.3, 919.0 361.7, 910.4 368.2 C 901.9 374.8, 884.3 386.6, 873.5 383.3 C 862.7 380.1, 847.7 361.1, 845.6 348.8 C 843.5 336.6, 852.6 318.1, 861.0 309.8 C 869.3 301.5, 885.9 297.8, 895.6 299.2 Z" fill="#2DAA6E" opacity="0.17"/>
  <path d="M 786.0 217.3 C 801.9 218.9, 816.3 243.1, 827.6 258.0 C 838.9 272.8, 855.7 290.6, 853.8 306.5 C 851.9 322.4, 831.2 347.9, 816.0 353.4 C 800.9 358.8, 777.2 347.6, 762.8 339.4 C 748.3 331.2, 734.2 319.3, 729.1 304.1 C 724.0 288.9, 722.8 262.7, 732.3 248.2 C 741.8 233.8, 770.2 215.6, 786.0 217.3 Z" fill="#2DAA6E" opacity="0.15"/>
  <circle cx="977.5" cy="463.7" r="4.6" fill="#2DAA6E" opacity="0.12"/>
  <circle cx="730.3" cy="366.0" r="4.2" fill="#2DAA6E" opacity="0.12"/>
  <circle cx="930.9" cy="331.3" r="3.6" fill="#2DAA6E" opacity="0.12"/>
  <circle cx="779.4" cy="422.9" r="2.8" fill="#2DAA6E" opacity="0.12"/>
  <circle cx="964.4" cy="510.3" r="3.3" fill="#2DAA6E" opacity="0.12"/>
  <circle cx="1006.5" cy="524.3" r="3.0" fill="#2DAA6E" opacity="0.12"/>
  <circle cx="1013.6" cy="321.2" r="2.1" fill="#2DAA6E" opacity="0.12"/>
  <circle cx="877.6" cy="364.0" r="3.5" fill="#2DAA6E" opacity="0.12"/>
  <line x1="768.0" y1="158.4" x2="998.4" y2="158.4" stroke="#2DAA6E" stroke-width="2.5" opacity="0.2" stroke-linecap="round"/>
  <rect x="635.0" y="355.0" width="10" height="10" fill="#2DAA6E" opacity="0.2" transform="rotate(45 640.0 360.0)"/>

</svg>