<svg xmlns="http://www.w3.org/2000/svg" viewBox="0 0 1280 720" fill="none">
<defs>
  <linearGradient id="bg-6-4" x1="0" y1="0" x2="1" y2="1">
    <stop offset="0%" stop-color="#2DAA6E" stop-opacity="0.05"/>
    <stop offset="100%" stop-color="#4CB648" stop-opacity="0.03"/>
  </linearGradient>
</defs>
  <rect width="1280" height="720" fill="url(#bg-6-4)"/>
  <path d="M 1034.5 265.8 C 1071.4 268.7, 1107.8 256.5, 1136.6 275.1 C 1165.4 293.6, 1208.7 344.6, 1207.2 377.1 C 1205.7 409.6, 1156.1 449.4, 1127.4 470.0 C 1098.6 490.5, 1063.6 502.5, 1034.5 500.6 C 1005.5 498.7, 981.3 479.1, 953.1 458.6 C 924.8 438.0, 871.3 410.6, 865.0 377.1 C 858.8 343.7, 887.1 276.5, 915.4 258.0 C 943.6 239.4, 997.7 263.0, 1034.5 265.8 Z" fill="#2DAA6E" opacity="0.06"/>
  <circle cx="444.3" cy="536.8" r="3.7" fill="#2DAA6E" opacity="0.08"/>
  <circle cx="460.8" cy="309.9" r="3.7" fill="#2DAA6E" opacity="0.08"/>
  <circle cx="283.9" cy="646.8" r="3.6" fill="#2DAA6E" opacity="0.08"/>
  <circle cx="1059.4" cy="429.0" r="3.7" fill="#2DAA6E" opacity="0.08"/>
  <circle cx="982.5" cy="498.2" r="3.3" fill="#2DAA6E" opacity="0.08"/>
  <circle cx="829.8" cy="241.7" r="2.3" fill="#2DAA6E" opacity="0.08"/>
  <circle cx="77.1" cy="167.2" r="2.2" fill="#2DAA6E" opacity="0.08"/>
  <circle cx="735.1" cy="211.9" r="2.7" fill="#2DAA6E" opacity="0.08"/>
  <circle cx="288.0" cy="353.2" r="29.3" fill="#2DAA6E" opacity="0.1"/>
  <circle cx="288.0" cy="353.2" r="29.3" fill="none" stroke="#2DAA6E" stroke-width="1.8" opacity="0.3"/>
  <circle cx="288.0" cy="353.2" r="5.7" fill="#2DAA6E" opacity="0.2"/>
  <path d="M 321.3 353.2 Q 405.3 322.2, 489.4 365.3" fill="none" stroke="#2DAA6E" stroke-width="1.5" opacity="0.25" stroke-linecap="round"/>
  <circle cx="487.4" cy="365.3" r="3" fill="#2DAA6E" opacity="0.3"/>
  <circle cx="522.7" cy="364.4" r="29.3" fill="#4CB648" opacity="0.1"/>
  <circle cx="522.7" cy="364.4" r="29.3" fill="none" stroke="#4CB648" stroke-width="1.8" opacity="0.3"/>
  <circle cx="522.7" cy="364.4" r="5.9" fill="#4CB648" opacity="0.2"/>
  <path d="M 556.0 364.4 Q 640.0 333.2, 724.0 369.1" fill="none" stroke="#2DAA6E" stroke-width="1.5" opacity="0.25" stroke-linecap="round"/>
  <circle cx="722.0" cy="369.1" r="3" fill="#2DAA6E" opacity="0.3"/>
  <circle cx="757.3" cy="374.3" r="29.3" fill="#2DAA6E" opacity="0.1"/>
  <circle cx="757.3" cy="374.3" r="29.3" fill="none" stroke="#2DAA6E" stroke-width="1.8" opacity="0.3"/>
  <circle cx="757.3" cy="374.3" r="7.5" fill="#2DAA6E" opacity="0.2"/>
  <path d="M 790.6 374.3 Q 874.7 323.7, 958.7 345.3" fill="none" stroke="#2DAA6E" stroke-width="1.5" opacity="0.25" stroke-linecap="round"/>
  <circle cx="956.7" cy="345.3" r="3" fill="#2DAA6E" opacity="0.3"/>
  <circle cx="992.0" cy="356.1" r="29.3" fill="#4CB648" opacity="0.1"/>
  <circle cx="992.0" cy="356.1" r="29.3" fill="none" stroke="#4CB648" stroke-width="1.8" opacity="0.3"/>
  <circle cx="992.0" cy="356.1" r="6.0" fill="#4CB648" opacity="0.2"/>

</svg>