<svg xmlns="http://www.w3.org/2000/svg" viewBox="0 0 1280 720" fill="none">
<defs>
  <linearGradient id="bg-6-5" x1="0" y1="0" x2="1" y2="1">
    <stop offset="0%" stop-color="#2DAA6E" stop-opacity="0.05"/>
    <stop offset="100%" stop-color="#4CB648" stop-opacity="0.03"/>
  </linearGradient>
</defs>
  <rect width="1280" height="720" fill="url(#bg-6-5)"/>
  <path d="M 893.5 299.2 C 921.6 295.1, 964.5 283.9, 990.3 300.2 C 1016.1 316.5, 1048.1 364.6, 1048.2 396.9 C 1048.2 429.2, 1016.4 470.2, 990.6 494.0 C 964.8 517.8, 926.0 539.7, 893.5 539.8 C 861.0 540.0, 811.3 518.7, 795.6 494.9 C 779.9 471.0, 794.9 425.2, 799.2 396.9 C 803.6 368.6, 805.9 341.3, 821.6 325.0 C 837.3 308.7, 865.4 303.4, 893.5 299.2 Z" fill="#2DAA6E" opacity="0.06"/>
  <path d="M 466.2 213.5 C 510.8 224.0, 543.4 257.3, 568.4 286.5 C 593.3 315.7, 606.6 345.5, 615.7 388.7 C 624.9 431.9, 648.2 508.8, 623.2 545.7 C 598.3 582.6, 509.1 619.5, 466.2 610.0 C 423.3 600.6, 405.9 525.9, 365.9 489.0 C 325.9 452.1, 236.9 432.9, 226.1 388.7 C 215.3 344.4, 261.1 252.8, 301.1 223.6 C 341.1 194.4, 421.7 203.0, 466.2 213.5 Z" fill="#4CB648" opacity="0.06"/>
  <circle cx="429.0" cy="124.1" r="2.2" fill="#2DAA6E" opacity="0.09"/>
  <circle cx="343.9" cy="166.7" r="3.9" fill="#2DAA6E" opacity="0.09"/>
  <circle cx="661.1" cy="558.1" r="2.3" fill="#2DAA6E" opacity="0.09"/>
  <circle cx="374.5" cy="331.6" r="3.1" fill="#2DAA6E" opacity="0.09"/>
  <circle cx="196.0" cy="565.8" r="2.5" fill="#2DAA6E" opacity="0.09"/>
  <circle cx="1214.9" cy="420.1" r="2.1" fill="#2DAA6E" opacity="0.09"/>
  <circle cx="70.4" cy="168.1" r="3.3" fill="#2DAA6E" opacity="0.09"/>
  <line x1="350.1" y1="441.0" x2="974.5" y2="441.0" stroke="#2DAA6E" stroke-width="0.5" opacity="0.1"/>
  <line x1="350.1" y1="360.0" x2="974.5" y2="360.0" stroke="#2DAA6E" stroke-width="0.5" opacity="0.1"/>
  <line x1="350.1" y1="279.0" x2="974.5" y2="279.0" stroke="#2DAA6E" stroke-width="0.5" opacity="0.1"/>
  <line x1="350.1" y1="198.0" x2="974.5" y2="198.0" stroke="#2DAA6E" stroke-width="0.5" opacity="0.1"/>
  <line x1="350.1" y1="522.0" x2="974.5" y2="522.0" stroke="#2DAA6E" stroke-width="1.5" opacity="0.2"/>
  <rect x="360.1" y="405.7" width="68.3" height="116.3" rx="4" fill="#2DAA6E" opacity="0.18"/>
  <rect x="360.1" y="405.7" width="68.3" height="116.3" rx="4" fill="none" stroke="#2DAA6E" stroke-width="1" opacity="0.25"/>
  <rect x="483.0" y="233.3" width="68.3" height="288.7" rx="4" fill="#4CB648" opacity="0.21"/>
  <rect x="483.0" y="233.3" width="68.3" height="288.7" rx="4" fill="none" stroke="#4CB648" stroke-width="1" opacity="0.25"/>
  <rect x="605.9" y="375.2" width="68.3" height="146.8" rx="4" fill="#2DAA6E" opacity="0.13"/>
  <rect x="605.9" y="375.2" width="68.3" height="146.8" rx="4" fill="none" stroke="#2DAA6E" stroke-width="1" opacity="0.25"/>
  <rect x="728.7" y="246.8" width="68.3" height="275.2" rx="4" fill="#4CB648" opacity="0.16"/>
  <rect x="728.7" y="246.8" width="68.3" height="275.2" rx="4" fill="none" stroke="#4CB648" stroke-width="1" opacity="0.25"/>
  <rect x="851.6" y="402.6" width="68.3" height="119.4" rx="4" fill="#2DAA6E" opacity="0.16"/>
  <rect x="851.6" y="402.6" width="68.3" height="119.4" rx="4" fill="none" stroke="#2DAA6E" stroke-width="1" opacity="0.25"/>

</svg>