<svg xmlns="http://www.w3.org/2000/svg" viewBox="0 0 1280 720" fill="none">
<defs>
  <linearGradient id="bg-9-4" x1="0" y1="0" x2="1" y2="1">
    <stop offset="0%" stop-color="#2DAA6E" stop-opacity="0.05"/>
    <stop offset="100%" stop-color="#A8E063" stop-opacity="0.03"/>
  </linearGradient>
</defs>
  <rect width="1280" height="720" fill="url(#bg-9-4)"/>
  <path d="M 976.1 458.6 C 1003.0 454.6, 1045.1 472.5, 1068.8 493.8 C 1092.4 515.1, 1116.0 553.5, 1118.0 586.4 C 1120.0 619.4, 1104.6 669.8, 1081.0 691.3 C 1057.3 712.7, 1008.0 718.4, 976.1 715.3 C 944.2 712.2, 912.4 694.3, 889.7 672.8 C 867.1 651.3, 837.1 612.3, 840.0 586.4 C 843.0 560.6, 884.8 539.1, 907.5 517.8 C 930.1 496.5, 949.2 462.6, 976.1 458.6 Z" fill="#2DAA6E" opacity="0.03"/>
  <circle cx="784.9" cy="325.3" r="2.5" fill="#2DAA6E" opacity="0.09"/>
  <circle cx="403.9" cy="71.4" r="3.5" fill="#2DAA6E" opacity="0.09"/>
  <circle cx="959.6" cy="189.1" r="1.5" fill="#2DAA6E" opacity="0.09"/>
  <circle cx="356.2" cy="592.3" r="4.0" fill="#2DAA6E" opacity="0.09"/>
  <circle cx="814.1" cy="196.1" r="1.6" fill="#2DAA6E" opacity="0.09"/>
  <circle cx="834.9" cy="388.6" r="1.9" fill="#2DAA6E" opacity="0.09"/>
  <circle cx="600.1" cy="185.0" r="3.1" fill="#2DAA6E" opacity="0.09"/>
  <circle cx="1130.4" cy="372.7" r="3.9" fill="#2DAA6E" opacity="0.09"/>
  <circle cx="535.2" cy="428.6" r="3.1" fill="#2DAA6E" opacity="0.09"/>
  <circle cx="320.1" cy="215.0" r="1.6" fill="#2DAA6E" opacity="0.09"/>
  <circle cx="536.9" cy="139.1" r="3.6" fill="#2DAA6E" opacity="0.09"/>
  <rect x="326.8" y="175.2" width="626.4" height="86.4" rx="8" fill="#2DAA6E" opacity="0.08"/>
  <rect x="326.8" y="175.2" width="626.4" height="86.4" rx="8" fill="none" stroke="#2DAA6E" stroke-width="1.2" opacity="0.25"/>
  <circle cx="640.0" cy="218.4" r="6.0" fill="#2DAA6E" opacity="0.2"/>
  <line x1="496.3" y1="218.4" x2="799.7" y2="218.4" stroke="#2DAA6E" stroke-width="1.5" opacity="0.1" stroke-linecap="round"/>
  <rect x="410.2" y="269.6" width="459.5" height="86.4" rx="8" fill="#A8E063" opacity="0.11"/>
  <rect x="410.2" y="269.6" width="459.5" height="86.4" rx="8" fill="none" stroke="#A8E063" stroke-width="1.2" opacity="0.25"/>
  <circle cx="640.0" cy="312.8" r="7.1" fill="#A8E063" opacity="0.2"/>
  <line x1="527.9" y1="312.8" x2="768.1" y2="312.8" stroke="#A8E063" stroke-width="1.5" opacity="0.1" stroke-linecap="round"/>
  <rect x="493.3" y="364.0" width="293.4" height="86.4" rx="8" fill="#2DAA6E" opacity="0.14"/>
  <rect x="493.3" y="364.0" width="293.4" height="86.4" rx="8" fill="none" stroke="#2DAA6E" stroke-width="1.2" opacity="0.25"/>
  <circle cx="640.0" cy="407.2" r="8.8" fill="#2DAA6E" opacity="0.2"/>
  <line x1="583.7" y1="407.2" x2="712.3" y2="407.2" stroke="#2DAA6E" stroke-width="1.5" opacity="0.1" stroke-linecap="round"/>
  <rect x="568.7" y="458.4" width="142.7" height="86.4" rx="8" fill="#A8E063" opacity="0.17"/>
  <rect x="568.7" y="458.4" width="142.7" height="86.4" rx="8" fill="none" stroke="#A8E063" stroke-width="1.2" opacity="0.25"/>
  <circle cx="640.0" cy="501.6" r="9.4" fill="#A8E063" opacity="0.2"/>
  <line x1="619.2" y1="501.6" x2="676.8" y2="501.6" stroke="#A8E063" stroke-width="1.5" opacity="0.1" stroke-linecap="round"/>

</svg>