<svg xmlns="http://www.w3.org/2000/svg" viewBox="0 0 1280 720" fill="none">
<defs>
  <linearGradient id="bg-9-8" x1="0" y1="0" x2="1" y2="1">
    <stop offset="0%" stop-color="#2DAA6E" stop-opacity="0.05"/>
    <stop offset="100%" stop-color="#A8E063" stop-opacity="0.03"/>
  </linearGradient>
</defs>
  <rect width="1280" height="720" fill="url(#bg-9-8)"/>
  <path d="M 497.4 7.4 C 534.8 9.0, 587.2 6.8, 604.9 28.1 C 622.6 49.5, 603.5 99.8, 603.5 135.6 C 603.5 171.5, 622.6 227.3, 604.9 243.2 C 587.2 259.0, 531.6 232.5, 497.4 230.9 C 463.2 229.3, 425.0 249.4, 399.5 233.5 C 374.1 217.6, 347.9 171.5, 344.8 135.6 C 341.6 99.8, 355.0 40.0, 380.4 18.6 C 405.9 -2.7, 460.0 5.8, 497.4 7.4 Z" fill="#2DAA6E" opacity="0.06"/>
  <circle cx="194.3" cy="121.6" r="2.0" fill="#2DAA6E" opacity="0.11"/>
  <circle cx="1121.1" cy="671.0" r="1.6" fill="#2DAA6E" opacity="0.11"/>
  <circle cx="561.4" cy="163.1" r="1.9" fill="#2DAA6E" opacity="0.11"/>
  <circle cx="749.0" cy="417.8" r="2.3" fill="#2DAA6E" opacity="0.11"/>
  <circle cx="1075.7" cy="651.3" r="2.1" fill="#2DAA6E" opacity="0.11"/>
  <circle cx="109.3" cy="605.9" r="3.6" fill="#2DAA6E" opacity="0.11"/>
  <rect x="0" y="417.6" width="1280" height="302.4" fill="#2DAA6E" opacity="0.04"/>
  <path d="M 0 417.6 Q 80.0 425.0, 160.0 420.2 Q 240.0 416.5, 320.0 412.6 Q 400.0 419.3, 480.0 421.0 Q 560.0 413.1, 640.0 416.6 Q 720.0 418.3, 800.0 417.3 Q 880.0 411.1, 960.0 415.0 Q 1040.0 417.9, 1120.0 416.0 Q 1200.0 416.3, 1280.0 418.3" fill="none" stroke="#2DAA6E" stroke-width="1.5" opacity="0.15"/>
  <path d="M 907.7 365.5 C 924.0 365.0, 953.8 366.9, 958.9 376.6 C 964.0 386.3, 946.8 408.8, 938.3 423.7 C 929.8 438.6, 921.5 464.0, 907.7 466.1 C 894.0 468.1, 863.6 450.5, 855.9 436.0 C 848.2 421.5, 852.7 391.0, 861.3 379.3 C 870.0 367.5, 891.5 366.0, 907.7 365.5 Z" fill="#A8E063" opacity="0.13"/>
  <line x1="907.7" y1="429.6" x2="907.7" y2="432.6" stroke="#A8E063" stroke-width="1.5" opacity="0.12"/>
  <path d="M 666.7 342.2 C 678.8 341.2, 700.6 357.7, 708.3 370.9 C 715.9 384.1, 719.5 407.6, 712.6 421.4 C 705.6 435.1, 679.7 454.8, 666.7 453.5 C 653.7 452.2, 639.7 426.3, 634.5 413.5 C 629.3 400.8, 630.2 388.8, 635.6 376.9 C 641.0 365.1, 654.6 343.2, 666.7 342.2 Z" fill="#2DAA6E" opacity="0.09"/>
  <line x1="666.7" y1="420.5" x2="666.7" y2="432.6" stroke="#2DAA6E" stroke-width="1.5" opacity="0.12"/>
  <path d="M 264.2 352.1 C 277.6 352.8, 293.5 369.9, 300.4 382.4 C 307.3 395.0, 311.6 413.8, 305.6 427.2 C 299.6 440.6, 279.5 461.9, 264.2 462.8 C 248.9 463.6, 221.2 446.6, 213.8 432.4 C 206.5 418.2, 211.6 391.2, 220.0 377.8 C 228.4 364.4, 250.8 351.3, 264.2 352.1 Z" fill="#2DAA6E" opacity="0.13"/>
  <line x1="264.2" y1="429.2" x2="264.2" y2="432.6" stroke="#2DAA6E" stroke-width="1.5" opacity="0.12"/>
  <path d="M 566.2 365.5 C 573.0 366.1, 581.1 376.8, 583.8 383.0 C 586.6 389.2, 585.5 396.4, 582.5 402.7 C 579.6 409.0, 573.1 419.9, 566.2 420.7 C 559.3 421.5, 545.0 414.5, 541.1 407.7 C 537.2 400.9, 538.5 386.7, 542.7 379.7 C 546.8 372.7, 559.3 365.0, 566.2 365.5 Z" fill="#A8E063" opacity="0.06"/>
  <line x1="566.2" y1="404.4" x2="566.2" y2="432.6" stroke="#A8E063" stroke-width="1.5" opacity="0.12"/>
  <path d="M 574.3 357.9 C 584.6 357.2, 604.6 362.1, 608.4 369.5 C 612.2 376.9, 602.6 394.3, 596.9 402.3 C 591.3 410.2, 584.5 415.7, 574.3 417.2 C 564.1 418.7, 540.4 418.7, 535.8 411.4 C 531.2 404.1, 540.3 382.2, 546.7 373.3 C 553.2 364.4, 564.0 358.5, 574.3 357.9 Z" fill="#A8E063" opacity="0.14"/>
  <line x1="574.3" y1="407.2" x2="574.3" y2="432.6" stroke="#A8E063" stroke-width="1.5" opacity="0.12"/>
  <circle cx="218.5" cy="175.2" r="3.6" fill="#A8E063" opacity="0.08"/>
  <circle cx="331.8" cy="212.2" r="2.1" fill="#A8E063" opacity="0.08"/>
  <circle cx="416.6" cy="356.3" r="1.9" fill="#A8E063" opacity="0.08"/>
  <circle cx="384.3" cy="257.8" r="1.5" fill="#A8E063" opacity="0.08"/>
  <circle cx="1130.7" cy="246.0" r="3.4" fill="#A8E063" opacity="0.08"/>
  <circle cx="535.3" cy="187.0" r="2.9" fill="#A8E063" opacity="0.08"/>
  <path d="M 384.0 437.6 Q 640.0 457.6, 960.0 432.6" fill="none" stroke="#A8E063" stroke-width="2" opacity="0.12" stroke-linecap="round"/>

</svg>