<svg xmlns="http://www.w3.org/2000/svg" viewBox="0 0 1280 720" fill="none">
<defs>
  <linearGradient id="bg-9-6" x1="0" y1="0" x2="1" y2="1">
    <stop offset="0%" stop-color="#2DAA6E" stop-opacity="0.05"/>
    <stop offset="100%" stop-color="#A8E063" stop-opacity="0.03"/>
  </linearGradient>
</defs>
  <rect width="1280" height="720" fill="url(#bg-9-6)"/>
  <path d="M 905.1 225.1 C 940.5 226.1, 976.5 246.9, 1008.2 271.9 C 1039.8 296.8, 1092.0 337.5, 1095.1 374.9 C 1098.1 412.4, 1058.4 464.1, 1026.7 496.5 C 995.0 528.9, 949.9 565.2, 905.1 569.4 C 860.4 573.6, 789.2 554.2, 758.2 521.8 C 727.3 489.4, 713.3 417.6, 719.6 374.9 C 725.8 332.3, 765.0 290.8, 796.0 265.8 C 826.9 240.8, 869.7 224.1, 905.1 225.1 Z" fill="#2DAA6E" opacity="0.06"/>
  <circle cx="628.5" cy="628.9" r="3.5" fill="#2DAA6E" opacity="0.07"/>
  <circle cx="885.2" cy="261.5" r="2.5" fill="#2DAA6E" opacity="0.07"/>
  <circle cx="806.9" cy="510.2" r="3.0" fill="#2DAA6E" opacity="0.07"/>
  <circle cx="310.8" cy="263.4" r="2.9" fill="#2DAA6E" opacity="0.07"/>
  <circle cx="1029.7" cy="392.5" r="3.0" fill="#2DAA6E" opacity="0.07"/>
  <circle cx="798.5" cy="333.9" r="3.1" fill="#2DAA6E" opacity="0.07"/>
  <circle cx="676.6" cy="158.2" r="3.5" fill="#2DAA6E" opacity="0.07"/>
  <circle cx="816.7" cy="139.8" r="2.6" fill="#2DAA6E" opacity="0.07"/>
  <circle cx="565.0" cy="668.5" r="2.9" fill="#2DAA6E" opacity="0.07"/>
  <line x1="640.0" y1="144.0" x2="640.0" y2="576.0" stroke="#2DAA6E" stroke-width="1" opacity="0.15" stroke-dasharray="6 4"/>
  <path d="M 278.9 320.4 C 292.0 320.8, 308.1 325.8, 315.7 336.5 C 323.4 347.1, 330.7 374.9, 324.5 384.1 C 318.4 393.4, 293.3 392.7, 278.9 392.2 C 264.4 391.7, 245.0 391.1, 238.0 381.3 C 231.1 371.6, 230.2 343.8, 237.0 333.6 C 243.8 323.5, 265.7 319.9, 278.9 320.4 Z" fill="#A8E063" opacity="0.07"/>
  <path d="M 430.2 379.1 C 451.1 380.4, 477.8 404.3, 485.9 421.4 C 494.1 438.5, 488.6 462.8, 479.3 481.9 C 470.1 501.0, 448.6 534.7, 430.2 535.9 C 411.9 537.0, 380.8 509.2, 369.2 488.8 C 357.6 468.4, 350.5 431.7, 360.7 413.4 C 370.9 395.1, 409.4 377.7, 430.2 379.1 Z" fill="#A8E063" opacity="0.07"/>
  <path d="M 263.4 169.7 C 279.3 168.2, 312.1 174.0, 318.8 185.9 C 325.4 197.7, 312.4 227.1, 303.2 240.8 C 294.0 254.4, 279.9 265.9, 263.4 267.7 C 247.0 269.5, 211.3 263.9, 204.7 251.7 C 198.1 239.6, 214.0 208.6, 223.8 194.9 C 233.6 181.3, 247.6 171.2, 263.4 169.7 Z" fill="#A8E063" opacity="0.05"/>
  <line x1="281.6" y1="158.4" x2="512.0" y2="158.4" stroke="#A8E063" stroke-width="2" opacity="0.12" stroke-linecap="round"/>
  <path d="M 871.4 356.8 C 887.1 353.1, 925.3 356.4, 932.3 367.9 C 939.3 379.5, 920.0 410.7, 913.4 426.1 C 906.8 441.5, 904.2 452.4, 892.6 460.4 C 880.9 468.4, 855.2 479.6, 843.7 474.1 C 832.2 468.6, 824.6 441.4, 823.7 427.4 C 822.8 413.4, 830.3 401.8, 838.3 390.1 C 846.2 378.3, 855.8 360.5, 871.4 356.8 Z" fill="#2DAA6E" opacity="0.09"/>
  <path d="M 853.7 257.9 C 862.9 257.8, 876.4 263.9, 881.6 271.0 C 886.9 278.1, 886.9 291.1, 885.0 300.4 C 883.0 309.7, 877.1 324.1, 869.9 327.0 C 862.7 329.9, 851.2 321.9, 841.9 317.8 C 832.6 313.7, 816.5 310.0, 814.0 302.3 C 811.4 294.7, 820.0 279.1, 826.6 271.7 C 833.2 264.3, 844.5 258.1, 853.7 257.9 Z" fill="#2DAA6E" opacity="0.13"/>
  <path d="M 891.3 283.3 C 899.2 284.3, 906.2 296.9, 911.2 304.2 C 916.3 311.5, 922.6 319.3, 921.7 327.0 C 920.8 334.7, 913.1 347.2, 905.9 350.4 C 898.8 353.5, 887.5 349.6, 878.9 346.0 C 870.2 342.3, 856.4 336.6, 853.9 328.6 C 851.4 320.7, 857.7 305.8, 863.9 298.2 C 870.2 290.7, 883.4 282.3, 891.3 283.3 Z" fill="#2DAA6E" opacity="0.13"/>
  <path d="M 877.0 364.4 C 885.1 365.8, 892.5 377.1, 896.3 383.7 C 900.0 390.3, 900.3 396.5, 899.5 404.2 C 898.8 411.9, 897.8 426.4, 891.9 430.1 C 886.0 433.7, 870.7 430.4, 863.9 426.2 C 857.0 422.1, 853.5 413.5, 850.8 405.0 C 848.0 396.6, 843.1 382.3, 847.4 375.5 C 851.8 368.7, 868.8 363.1, 877.0 364.4 Z" fill="#2DAA6E" opacity="0.11"/>
  <path d="M 793.9 318.9 C 811.0 317.4, 841.1 334.3, 850.8 349.1 C 860.5 363.9, 855.0 386.5, 852.0 407.7 C 849.1 428.9, 846.7 470.9, 833.3 476.3 C 820.0 481.6, 791.4 450.5, 772.1 439.7 C 752.8 429.0, 721.6 425.5, 717.6 411.8 C 713.6 398.2, 735.4 373.4, 748.1 357.9 C 760.8 342.4, 776.8 320.4, 793.9 318.9 Z" fill="#2DAA6E" opacity="0.11"/>
  <circle cx="789.4" cy="320.6" r="2.9" fill="#2DAA6E" opacity="0.12"/>
  <circle cx="787.6" cy="426.0" r="3.8" fill="#2DAA6E" opacity="0.12"/>
  <circle cx="767.2" cy="233.2" r="3.3" fill="#2DAA6E" opacity="0.12"/>
  <circle cx="1059.8" cy="233.7" r="2.0" fill="#2DAA6E" opacity="0.12"/>
  <circle cx="938.9" cy="323.5" r="3.7" fill="#2DAA6E" opacity="0.12"/>
  <circle cx="1007.7" cy="209.1" r="4.8" fill="#2DAA6E" opacity="0.12"/>
  <circle cx="1076.6" cy="337.2" r="3.1" fill="#2DAA6E" opacity="0.12"/>
  <circle cx="711.8" cy="342.7" r="3.7" fill="#2DAA6E" opacity="0.12"/>
  <line x1="768.0" y1="158.4" x2="998.4" y2="158.4" stroke="#2DAA6E" stroke-width="2.5" opacity="0.2" stroke-linecap="round"/>
  <rect x="635.0" y="355.0" width="10" height="10" fill="#2DAA6E" opacity="0.2" transform="rotate(45 640.0 360.0)"/>

</svg>