<svg xmlns="http://www.w3.org/2000/svg" viewBox="0 0 1280 720" fill="none">
<defs>
  <linearGradient id="bg-9-3" x1="0" y1="0" x2="1" y2="1">
    <stop offset="0%" stop-color="#2DAA6E" stop-opacity="0.05"/>
    <stop offset="100%" stop-color="#A8E063" stop-opacity="0.03"/>
  </linearGradient>
</defs>
  <rect width="1280" height="720" fill="url(#bg-9-3)"/>
  <path d="M 297.0 140.7 C 316.8 143.1, 339.1 170.3, 349.2 186.7 C 359.3 203.0, 354.1 217.9, 357.7 238.9 C 361.3 259.9, 381.0 299.3, 370.9 312.8 C 360.7 326.4, 319.5 322.3, 297.0 320.2 C 274.4 318.0, 252.9 313.6, 235.8 300.1 C 218.7 286.5, 195.1 260.2, 194.1 238.9 C 193.2 217.6, 212.9 188.4, 230.0 172.0 C 247.2 155.6, 277.1 138.2, 297.0 140.7 Z" fill="#2DAA6E" opacity="0.04"/>
  <path d="M 544.9 85.5 C 589.4 83.2, 645.7 124.4, 685.1 160.2 C 724.6 196.0, 781.1 253.2, 781.5 300.4 C 782.0 347.5, 727.2 403.2, 687.7 443.2 C 648.3 483.2, 589.5 543.5, 544.9 540.4 C 500.4 537.4, 453.2 464.8, 420.5 424.8 C 387.8 384.8, 349.1 342.2, 348.7 300.4 C 348.4 258.6, 385.9 209.8, 418.6 174.0 C 451.3 138.2, 500.5 87.8, 544.9 85.5 Z" fill="#A8E063" opacity="0.06"/>
  <circle cx="1149.9" cy="102.0" r="2.7" fill="#2DAA6E" opacity="0.08"/>
  <circle cx="397.6" cy="461.8" r="2.7" fill="#2DAA6E" opacity="0.08"/>
  <circle cx="1068.1" cy="213.3" r="1.8" fill="#2DAA6E" opacity="0.08"/>
  <circle cx="468.7" cy="188.2" r="3.7" fill="#2DAA6E" opacity="0.08"/>
  <circle cx="178.9" cy="620.2" r="2.4" fill="#2DAA6E" opacity="0.08"/>
  <circle cx="142.1" cy="372.6" r="1.7" fill="#2DAA6E" opacity="0.08"/>
  <circle cx="991.6" cy="429.5" r="3.3" fill="#2DAA6E" opacity="0.08"/>
  <circle cx="620.3" cy="468.4" r="1.9" fill="#2DAA6E" opacity="0.08"/>
  <rect x="349.1" y="175.2" width="581.9" height="86.4" rx="8" fill="#2DAA6E" opacity="0.08"/>
  <rect x="349.1" y="175.2" width="581.9" height="86.4" rx="8" fill="none" stroke="#2DAA6E" stroke-width="1.2" opacity="0.25"/>
  <circle cx="640.0" cy="218.4" r="9.4" fill="#2DAA6E" opacity="0.2"/>
  <line x1="520.1" y1="218.4" x2="775.9" y2="218.4" stroke="#2DAA6E" stroke-width="1.5" opacity="0.1" stroke-linecap="round"/>
  <rect x="417.7" y="269.6" width="444.7" height="86.4" rx="8" fill="#A8E063" opacity="0.11"/>
  <rect x="417.7" y="269.6" width="444.7" height="86.4" rx="8" fill="none" stroke="#A8E063" stroke-width="1.2" opacity="0.25"/>
  <circle cx="640.0" cy="312.8" r="9.2" fill="#A8E063" opacity="0.2"/>
  <line x1="548.6" y1="312.8" x2="747.4" y2="312.8" stroke="#A8E063" stroke-width="1.5" opacity="0.1" stroke-linecap="round"/>
  <rect x="484.5" y="364.0" width="310.9" height="86.4" rx="8" fill="#2DAA6E" opacity="0.14"/>
  <rect x="484.5" y="364.0" width="310.9" height="86.4" rx="8" fill="none" stroke="#2DAA6E" stroke-width="1.2" opacity="0.25"/>
  <circle cx="640.0" cy="407.2" r="6.5" fill="#2DAA6E" opacity="0.2"/>
  <line x1="579.8" y1="407.2" x2="716.2" y2="407.2" stroke="#2DAA6E" stroke-width="1.5" opacity="0.1" stroke-linecap="round"/>
  <rect x="559.5" y="458.4" width="161.0" height="86.4" rx="8" fill="#A8E063" opacity="0.17"/>
  <rect x="559.5" y="458.4" width="161.0" height="86.4" rx="8" fill="none" stroke="#A8E063" stroke-width="1.2" opacity="0.25"/>
  <circle cx="640.0" cy="501.6" r="7.7" fill="#A8E063" opacity="0.2"/>
  <line x1="611.9" y1="501.6" x2="684.1" y2="501.6" stroke="#A8E063" stroke-width="1.5" opacity="0.1" stroke-linecap="round"/>

</svg>