<svg xmlns="http://www.w3.org/2000/svg" viewBox="0 0 1280 720" fill="none">
<defs>
  <linearGradient id="bg-9-5" x1="0" y1="0" x2="1" y2="1">
    <stop offset="0%" stop-color="#2DAA6E" stop-opacity="0.05"/>
    <stop offset="100%" stop-color="#A8E063" stop-opacity="0.03"/>
  </linearGradient>
</defs>
  <rect width="1280" height="720" fill="url(#bg-9-5)"/>
  <path d="M 295.3 352.9 C 315.3 351.5, 342.4 375.0, 359.5 392.3 C 376.6 409.6, 396.3 433.6, 397.8 456.5 C 399.4 479.5, 386.0 512.0, 368.9 530.1 C 351.8 548.3, 315.7 569.5, 295.3 565.4 C 274.8 561.3, 264.8 523.8, 246.2 505.7 C 227.5 487.5, 184.7 474.0, 183.6 456.5 C 182.4 439.0, 220.8 417.9, 239.4 400.7 C 258.0 383.4, 275.3 354.3, 295.3 352.9 Z" fill="#2DAA6E" opacity="0.04"/>
  <path d="M 208.4 28.5 C 257.4 31.6, 322.1 11.4, 346.1 35.6 C 370.1 59.7, 354.6 129.7, 352.3 173.4 C 350.1 217.1, 356.7 257.1, 332.7 297.7 C 308.7 338.3, 245.7 421.1, 208.4 417.0 C 171.0 412.9, 136.2 313.6, 108.7 273.0 C 81.3 232.4, 53.4 216.1, 43.9 173.4 C 34.4 130.7, 24.3 40.9, 51.7 16.7 C 79.1 -7.4, 159.3 25.3, 208.4 28.5 Z" fill="#A8E063" opacity="0.04"/>
  <circle cx="1114.7" cy="517.3" r="1.6" fill="#2DAA6E" opacity="0.07"/>
  <circle cx="1145.6" cy="92.9" r="2.2" fill="#2DAA6E" opacity="0.07"/>
  <circle cx="695.3" cy="318.7" r="3.7" fill="#2DAA6E" opacity="0.07"/>
  <circle cx="1207.0" cy="180.0" r="3.9" fill="#2DAA6E" opacity="0.07"/>
  <circle cx="298.7" cy="105.1" r="3.1" fill="#2DAA6E" opacity="0.07"/>
  <circle cx="700.7" cy="572.2" r="3.0" fill="#2DAA6E" opacity="0.07"/>
  <circle cx="133.2" cy="573.0" r="3.1" fill="#2DAA6E" opacity="0.07"/>
  <circle cx="208.2" cy="196.3" r="1.5" fill="#2DAA6E" opacity="0.07"/>
  <circle cx="471.1" cy="392.3" r="3.2" fill="#2DAA6E" opacity="0.07"/>
  <circle cx="419.7" cy="638.2" r="2.8" fill="#2DAA6E" opacity="0.07"/>
  <line x1="640.0" y1="144.0" x2="640.0" y2="576.0" stroke="#2DAA6E" stroke-width="1" opacity="0.15" stroke-dasharray="6 4"/>
  <path d="M 356.2 172.6 C 374.5 174.2, 396.4 184.5, 402.8 196.7 C 409.2 208.9, 402.5 229.2, 394.8 245.8 C 387.0 262.3, 372.6 293.8, 356.2 295.8 C 339.9 297.8, 307.3 275.9, 296.8 257.8 C 286.4 239.7, 283.5 201.5, 293.4 187.3 C 303.3 173.1, 338.0 171.1, 356.2 172.6 Z" fill="#A8E063" opacity="0.07"/>
  <path d="M 286.9 387.6 C 296.3 387.5, 310.6 400.1, 315.5 409.2 C 320.4 418.4, 321.0 432.6, 316.2 442.6 C 311.4 452.7, 296.1 469.9, 286.9 469.6 C 277.7 469.3, 265.5 450.7, 260.9 440.8 C 256.3 430.8, 255.0 418.6, 259.3 409.8 C 263.7 400.9, 277.6 387.7, 286.9 387.6 Z" fill="#A8E063" opacity="0.05"/>
  <path d="M 283.4 343.0 C 294.9 344.0, 307.0 354.5, 313.1 364.4 C 319.1 374.4, 324.6 395.3, 319.7 402.6 C 314.7 409.8, 293.2 409.3, 283.4 408.1 C 273.5 406.8, 266.9 403.1, 260.3 394.9 C 253.7 386.7, 240.0 367.4, 243.8 358.8 C 247.7 350.1, 271.8 342.1, 283.4 343.0 Z" fill="#A8E063" opacity="0.07"/>
  <line x1="281.6" y1="158.4" x2="512.0" y2="158.4" stroke="#A8E063" stroke-width="2" opacity="0.12" stroke-linecap="round"/>
  <path d="M 789.9 244.9 C 803.8 242.2, 832.7 250.0, 841.3 261.6 C 849.9 273.2, 846.5 300.5, 841.3 314.3 C 836.1 328.0, 822.6 337.6, 809.9 344.1 C 797.3 350.7, 776.9 358.7, 765.4 353.6 C 753.8 348.6, 741.8 326.5, 740.7 313.8 C 739.5 301.1, 750.2 289.0, 758.4 277.5 C 766.7 266.0, 776.1 247.5, 789.9 244.9 Z" fill="#2DAA6E" opacity="0.17"/>
  <path d="M 857.8 369.6 C 863.8 369.1, 873.3 371.4, 877.8 376.1 C 882.2 380.9, 885.7 391.1, 884.5 398.2 C 883.3 405.3, 877.1 415.7, 870.6 418.8 C 864.2 422.0, 852.0 420.6, 845.7 417.0 C 839.5 413.5, 834.0 404.0, 833.3 397.7 C 832.7 391.4, 837.6 383.9, 841.7 379.3 C 845.7 374.6, 851.7 370.2, 857.8 369.6 Z" fill="#2DAA6E" opacity="0.18"/>
  <path d="M 931.9 252.8 C 948.3 252.0, 975.1 249.6, 984.0 259.8 C 992.9 269.9, 990.0 298.6, 985.1 313.5 C 980.3 328.3, 966.9 343.9, 954.7 348.8 C 942.6 353.6, 928.2 347.6, 912.1 342.5 C 895.9 337.4, 862.5 331.2, 858.1 318.2 C 853.7 305.2, 873.3 275.3, 885.6 264.4 C 897.9 253.5, 915.5 253.6, 931.9 252.8 Z" fill="#2DAA6E" opacity="0.11"/>
  <path d="M 978.5 262.4 C 999.3 264.1, 1025.0 280.5, 1034.5 295.7 C 1044.1 310.9, 1039.9 335.1, 1035.8 353.5 C 1031.8 372.0, 1024.7 398.2, 1010.2 406.3 C 995.7 414.4, 962.6 411.1, 948.8 402.0 C 935.0 393.0, 933.8 371.5, 927.3 352.1 C 920.8 332.7, 901.2 300.6, 909.7 285.6 C 918.2 270.7, 957.7 260.8, 978.5 262.4 Z" fill="#2DAA6E" opacity="0.09"/>
  <path d="M 993.7 313.6 C 1007.8 313.5, 1029.1 313.5, 1036.5 322.4 C 1044.0 331.2, 1041.7 353.2, 1038.3 366.8 C 1034.9 380.3, 1027.8 396.6, 1016.2 403.5 C 1004.7 410.4, 982.8 413.7, 968.8 408.2 C 954.8 402.7, 935.3 384.8, 932.4 370.6 C 929.5 356.3, 941.3 332.4, 951.5 322.9 C 961.7 313.4, 979.5 313.7, 993.7 313.6 Z" fill="#2DAA6E" opacity="0.17"/>
  <circle cx="971.5" cy="385.0" r="3.4" fill="#2DAA6E" opacity="0.12"/>
  <circle cx="898.0" cy="252.5" r="3.5" fill="#2DAA6E" opacity="0.12"/>
  <circle cx="1025.3" cy="306.4" r="4.7" fill="#2DAA6E" opacity="0.12"/>
  <circle cx="760.1" cy="229.0" r="3.3" fill="#2DAA6E" opacity="0.12"/>
  <circle cx="1034.0" cy="250.5" r="2.2" fill="#2DAA6E" opacity="0.12"/>
  <circle cx="993.4" cy="240.6" r="4.4" fill="#2DAA6E" opacity="0.12"/>
  <circle cx="909.9" cy="266.4" r="4.4" fill="#2DAA6E" opacity="0.12"/>
  <circle cx="842.8" cy="537.2" r="4.1" fill="#2DAA6E" opacity="0.12"/>
  <line x1="768.0" y1="158.4" x2="998.4" y2="158.4" stroke="#2DAA6E" stroke-width="2.5" opacity="0.2" stroke-linecap="round"/>
  <rect x="635.0" y="355.0" width="10" height="10" fill="#2DAA6E" opacity="0.2" transform="rotate(45 640.0 360.0)"/>

</svg>