<svg xmlns="http://www.w3.org/2000/svg" viewBox="0 0 1280 720" fill="none">
<defs>
  <linearGradient id="bg-9-2" x1="0" y1="0" x2="1" y2="1">
    <stop offset="0%" stop-color="#2DAA6E" stop-opacity="0.05"/>
    <stop offset="100%" stop-color="#A8E063" stop-opacity="0.03"/>
  </linearGradient>
</defs>
  <rect width="1280" height="720" fill="url(#bg-9-2)"/>
  <path d="M 986.8 329.6 C 1028.9 330.7, 1082.9 306.9, 1109.8 327.0 C 1136.8 347.0, 1157.3 417.6, 1148.7 450.0 C 1140.0 482.3, 1084.8 496.9, 1057.8 521.0 C 1030.9 545.1, 1016.3 588.7, 986.8 594.5 C 957.3 600.3, 899.8 580.0, 880.9 555.9 C 862.0 531.8, 877.5 489.2, 873.6 450.0 C 869.6 410.7, 838.5 340.6, 857.4 320.5 C 876.3 300.5, 944.8 328.5, 986.8 329.6 Z" fill="#2DAA6E" opacity="0.04"/>
  <circle cx="525.5" cy="495.3" r="3.1" fill="#2DAA6E" opacity="0.06"/>
  <circle cx="348.8" cy="514.5" r="3.6" fill="#2DAA6E" opacity="0.06"/>
  <circle cx="837.2" cy="643.6" r="2.2" fill="#2DAA6E" opacity="0.06"/>
  <circle cx="181.8" cy="236.8" r="2.4" fill="#2DAA6E" opacity="0.06"/>
  <circle cx="230.8" cy="530.8" r="2.8" fill="#2DAA6E" opacity="0.06"/>
  <circle cx="855.0" cy="517.0" r="1.5" fill="#2DAA6E" opacity="0.06"/>
  <circle cx="632.5" cy="201.2" r="1.6" fill="#2DAA6E" opacity="0.06"/>
  <circle cx="593.7" cy="355.6" r="2.3" fill="#2DAA6E" opacity="0.06"/>
  <circle cx="954.6" cy="258.0" r="2.2" fill="#2DAA6E" opacity="0.06"/>
  <circle cx="354.8" cy="668.1" r="3.1" fill="#2DAA6E" opacity="0.06"/>
  <circle cx="459.5" cy="644.0" r="1.7" fill="#2DAA6E" opacity="0.06"/>
  <line x1="640.0" y1="144.0" x2="640.0" y2="576.0" stroke="#2DAA6E" stroke-width="1" opacity="0.15" stroke-dasharray="6 4"/>
  <path d="M 289.6 222.1 C 298.8 222.6, 310.5 234.7, 314.3 242.7 C 318.1 250.7, 316.6 263.3, 312.5 270.2 C 308.4 277.0, 297.1 284.1, 289.6 284.0 C 282.1 283.9, 272.7 277.1, 267.6 269.7 C 262.4 262.2, 255.2 247.1, 258.9 239.2 C 262.5 231.2, 280.4 221.5, 289.6 222.1 Z" fill="#A8E063" opacity="0.04"/>
  <path d="M 374.0 388.6 C 389.5 387.8, 417.2 384.0, 425.1 394.4 C 433.0 404.9, 429.9 437.6, 421.4 451.3 C 412.9 464.9, 387.1 477.8, 374.0 476.2 C 360.8 474.7, 349.4 454.9, 342.4 442.2 C 335.3 429.4, 326.6 408.5, 331.9 399.6 C 337.1 390.7, 358.4 389.5, 374.0 388.6 Z" fill="#A8E063" opacity="0.07"/>
  <path d="M 399.6 190.8 C 412.5 189.2, 438.8 185.0, 446.9 194.9 C 455.1 204.9, 456.4 239.9, 448.5 250.5 C 440.6 261.1, 412.8 260.3, 399.6 258.5 C 386.5 256.7, 374.6 248.6, 369.6 239.6 C 364.5 230.7, 364.4 212.9, 369.4 204.8 C 374.4 196.7, 386.7 192.5, 399.6 190.8 Z" fill="#A8E063" opacity="0.06"/>
  <line x1="281.6" y1="158.4" x2="512.0" y2="158.4" stroke="#A8E063" stroke-width="2" opacity="0.12" stroke-linecap="round"/>
  <path d="M 959.9 214.3 C 979.6 215.5, 1005.7 239.9, 1014.2 256.0 C 1022.8 272.1, 1016.3 295.7, 1011.1 310.9 C 1005.9 326.2, 995.6 341.6, 983.2 347.6 C 970.9 353.6, 953.7 352.3, 936.9 347.2 C 920.1 342.1, 889.1 333.4, 882.4 316.9 C 875.7 300.5, 883.6 265.8, 896.6 248.7 C 909.5 231.6, 940.3 213.1, 959.9 214.3 Z" fill="#2DAA6E" opacity="0.16"/>
  <path d="M 807.7 372.5 C 821.0 374.1, 834.3 386.9, 841.3 397.0 C 848.3 407.2, 852.5 422.5, 850.0 433.4 C 847.5 444.4, 837.9 454.8, 826.4 462.5 C 814.8 470.2, 791.9 484.5, 780.7 479.9 C 769.5 475.3, 762.2 450.4, 759.1 434.9 C 755.9 419.5, 753.8 397.6, 761.9 387.2 C 770.0 376.8, 794.5 370.8, 807.7 372.5 Z" fill="#2DAA6E" opacity="0.10"/>
  <path d="M 798.6 142.4 C 820.1 142.5, 853.8 152.1, 862.4 166.6 C 871.1 181.1, 856.4 211.1, 850.4 229.3 C 844.5 247.6, 839.2 270.3, 826.8 276.1 C 814.5 281.9, 790.3 271.6, 776.2 264.0 C 762.2 256.4, 749.8 246.6, 742.7 230.3 C 735.6 213.9, 724.4 180.4, 733.8 165.8 C 743.1 151.1, 777.2 142.2, 798.6 142.4 Z" fill="#2DAA6E" opacity="0.17"/>
  <path d="M 964.4 365.7 C 983.1 364.6, 1011.8 377.4, 1024.6 392.9 C 1037.4 408.4, 1045.6 438.8, 1041.2 458.5 C 1036.7 478.2, 1017.5 500.3, 998.1 511.1 C 978.7 521.8, 943.7 531.7, 924.8 523.0 C 905.9 514.4, 886.9 479.7, 884.8 459.1 C 882.7 438.5, 899.1 415.1, 912.4 399.5 C 925.7 383.9, 945.7 366.8, 964.4 365.7 Z" fill="#2DAA6E" opacity="0.14"/>
  <path d="M 959.5 457.4 C 968.8 458.3, 977.7 466.1, 983.6 473.3 C 989.6 480.5, 996.4 491.8, 995.1 500.6 C 993.9 509.5, 984.9 521.6, 975.9 526.6 C 967.0 531.5, 948.4 535.0, 941.3 530.3 C 934.3 525.6, 935.7 508.9, 933.5 498.5 C 931.3 488.0, 923.8 474.4, 928.2 467.5 C 932.5 460.6, 950.3 456.4, 959.5 457.4 Z" fill="#2DAA6E" opacity="0.08"/>
  <circle cx="746.8" cy="284.4" r="3.0" fill="#2DAA6E" opacity="0.12"/>
  <circle cx="764.4" cy="438.2" r="3.0" fill="#2DAA6E" opacity="0.12"/>
  <circle cx="855.6" cy="520.3" r="4.8" fill="#2DAA6E" opacity="0.12"/>
  <circle cx="1032.8" cy="419.4" r="3.2" fill="#2DAA6E" opacity="0.12"/>
  <circle cx="843.3" cy="408.6" r="2.7" fill="#2DAA6E" opacity="0.12"/>
  <circle cx="971.5" cy="215.4" r="3.4" fill="#2DAA6E" opacity="0.12"/>
  <circle cx="803.4" cy="183.9" r="2.8" fill="#2DAA6E" opacity="0.12"/>
  <circle cx="783.5" cy="440.5" r="5.0" fill="#2DAA6E" opacity="0.12"/>
  <line x1="768.0" y1="158.4" x2="998.4" y2="158.4" stroke="#2DAA6E" stroke-width="2.5" opacity="0.2" stroke-linecap="round"/>
  <rect x="635.0" y="355.0" width="10" height="10" fill="#2DAA6E" opacity="0.2" transform="rotate(45 640.0 360.0)"/>

</svg>