<svg xmlns="http://www.w3.org/2000/svg" viewBox="0 0 1280 720" fill="none">
<defs>
  <linearGradient id="bg-grad-3" x1="0" y1="0" x2="1" y2="1">
    <stop offset="0%" stop-color="#4CB648" stop-opacity="0.06"/>
    <stop offset="100%" stop-color="#2DAA6E" stop-opacity="0.03"/>
  </linearGradient>
</defs>
  <rect width="1280" height="720" fill="url(#bg-grad-3)"/>
  <path d="M 454.6 326.6 C 488.9 326.3, 532.8 354.5, 558.0 380.8 C 583.2 407.1, 606.1 450.1, 605.8 484.2 C 605.5 518.4, 581.2 565.7, 556.0 585.6 C 530.8 605.5, 486.8 605.3, 454.6 603.7 C 422.4 602.1, 377.8 595.8, 363.0 575.9 C 348.1 555.9, 367.4 516.5, 365.7 484.2 C 363.9 451.9, 337.7 408.4, 352.5 382.1 C 367.3 355.8, 420.4 326.8, 454.6 326.6 Z" fill="#4CB648" opacity="0.08"/>
  <path d="M 201.9 96.0 C 253.5 100.3, 316.2 105.5, 343.8 135.7 C 371.5 166.0, 361.0 223.2, 368.1 277.7 C 375.2 332.1, 414.2 431.6, 386.5 462.3 C 358.8 492.9, 255.2 469.8, 201.9 461.5 C 148.6 453.2, 99.7 443.4, 66.8 412.8 C 33.9 382.1, 10.0 328.2, 4.5 277.7 C -0.9 227.2, 1.1 140.1, 34.0 109.8 C 66.9 79.5, 150.3 91.7, 201.9 96.0 Z" fill="#2DAA6E" opacity="0.08"/>
  <path d="M 541.9 220.8 C 584.3 226.4, 624.4 266.7, 652.2 297.9 C 679.9 329.1, 708.0 370.9, 708.5 408.1 C 709.0 445.4, 683.2 496.8, 655.4 521.6 C 627.6 546.4, 583.0 553.6, 541.9 556.9 C 500.8 560.1, 445.2 566.0, 408.8 541.2 C 372.4 516.4, 325.4 454.3, 323.6 408.1 C 321.8 362.0, 361.6 295.4, 398.0 264.2 C 434.4 233.0, 499.6 215.2, 541.9 220.8 Z" fill="#4CB648" opacity="0.06"/>
  <circle cx="463.6" cy="297.0" r="3.7" fill="#4CB648" opacity="0.10"/>
  <circle cx="574.4" cy="579.0" r="3.4" fill="#4CB648" opacity="0.10"/>
  <circle cx="1084.3" cy="226.9" r="4.8" fill="#4CB648" opacity="0.10"/>
  <circle cx="118.3" cy="575.5" r="4.9" fill="#4CB648" opacity="0.10"/>
  <circle cx="1171.5" cy="60.5" r="4.5" fill="#4CB648" opacity="0.10"/>
  <circle cx="201.8" cy="80.7" r="3.5" fill="#4CB648" opacity="0.10"/>
  <circle cx="1084.1" cy="592.1" r="3.5" fill="#4CB648" opacity="0.10"/>
  <circle cx="598.2" cy="599.8" r="3.7" fill="#4CB648" opacity="0.10"/>
  <circle cx="407.0" cy="355.9" r="4.2" fill="#4CB648" opacity="0.10"/>
  <circle cx="131.2" cy="253.0" r="4.8" fill="#4CB648" opacity="0.10"/>
  <circle cx="892.0" cy="448.0" r="3.8" fill="#4CB648" opacity="0.10"/>
  <circle cx="621.5" cy="344.9" r="3.1" fill="#4CB648" opacity="0.10"/>
  <circle cx="437.6" cy="237.9" r="4.9" fill="#4CB648" opacity="0.10"/>
  <circle cx="859.2" cy="403.2" r="3.4" fill="#4CB648" opacity="0.10"/>
  <circle cx="601.3" cy="228.8" r="4.4" fill="#4CB648" opacity="0.10"/>
  <circle cx="129.2" cy="557.6" r="3.9" fill="#4CB648" opacity="0.10"/>
  <circle cx="1154.2" cy="108.7" r="2.6" fill="#4CB648" opacity="0.10"/>
  <circle cx="746.6" cy="624.0" r="4.3" fill="#4CB648" opacity="0.10"/>
  <circle cx="1046.6" cy="591.0" r="2.6" fill="#4CB648" opacity="0.10"/>
  <circle cx="479.8" cy="138.2" r="4.1" fill="#4CB648" opacity="0.10"/>
  <path d="M 80 187.20925436355174 C 460.68600160069764 97.13143478147686, 861.4914083853364 649.0818976890296, 1200 593.6851944308728" fill="none" stroke="#2DAA6E" stroke-width="2" opacity="0.1" stroke-linecap="round"/>

  <circle cx="580" cy="330" r="80" fill="#4CB648" opacity="0.15"/>
  <circle cx="660" cy="330" r="80" fill="#2DAA6E" opacity="0.15"/>
  <circle cx="620" cy="260" r="80" fill="#A8E063" opacity="0.15"/>
  <circle cx="580" cy="330" r="80" fill="none" stroke="#4CB648" stroke-width="2" opacity="0.4"/>
  <circle cx="660" cy="330" r="80" fill="none" stroke="#2DAA6E" stroke-width="2" opacity="0.4"/>
  <circle cx="620" cy="260" r="80" fill="none" stroke="#A8E063" stroke-width="2" opacity="0.4"/>
</svg>