<svg xmlns="http://www.w3.org/2000/svg" viewBox="0 0 1280 720" fill="none">
<defs>
  <linearGradient id="bg-3-7" x1="0" y1="0" x2="1" y2="1">
    <stop offset="0%" stop-color="#4CB648" stop-opacity="0.05"/>
    <stop offset="100%" stop-color="#2DAA6E" stop-opacity="0.03"/>
  </linearGradient>
</defs>
  <rect width="1280" height="720" fill="url(#bg-3-7)"/>
  <path d="M 745.6 105.7 C 775.3 111.3, 797.1 170.0, 818.1 197.3 C 839.1 224.7, 869.5 243.5, 871.6 269.9 C 873.8 296.2, 852.0 339.8, 831.0 355.3 C 810.0 370.8, 773.4 363.6, 745.6 363.0 C 717.7 362.4, 683.2 367.2, 663.7 351.7 C 644.3 336.2, 633.0 301.1, 629.0 269.9 C 625.1 238.6, 620.5 191.5, 639.9 164.2 C 659.3 136.8, 715.9 100.2, 745.6 105.7 Z" fill="#4CB648" opacity="0.05"/>
  <path d="M 508.7 143.9 C 538.0 140.1, 584.6 165.5, 607.9 189.6 C 631.2 213.8, 652.5 259.5, 648.7 288.8 C 645.0 318.1, 608.7 347.2, 585.4 365.4 C 562.1 383.6, 541.6 390.5, 508.7 397.8 C 475.8 405.2, 415.8 427.7, 388.0 409.5 C 360.2 391.3, 334.7 321.6, 342.1 288.8 C 349.4 255.9, 404.4 236.3, 432.2 212.2 C 460.0 188.0, 479.5 147.6, 508.7 143.9 Z" fill="#2DAA6E" opacity="0.04"/>
  <circle cx="927.7" cy="86.2" r="2.3" fill="#4CB648" opacity="0.10"/>
  <circle cx="1040.3" cy="199.8" r="3.4" fill="#4CB648" opacity="0.10"/>
  <circle cx="1173.0" cy="534.7" r="3.5" fill="#4CB648" opacity="0.10"/>
  <circle cx="725.1" cy="315.6" r="2.1" fill="#4CB648" opacity="0.10"/>
  <circle cx="468.0" cy="171.2" r="2.4" fill="#4CB648" opacity="0.10"/>
  <circle cx="801.2" cy="54.4" r="4.0" fill="#4CB648" opacity="0.10"/>
  <circle cx="1207.1" cy="635.7" r="2.9" fill="#4CB648" opacity="0.10"/>
  <circle cx="300.0" cy="308.9" r="1.7" fill="#4CB648" opacity="0.10"/>
  <circle cx="1108.2" cy="429.6" r="1.8" fill="#4CB648" opacity="0.10"/>
  <circle cx="321.4" cy="581.4" r="3.4" fill="#4CB648" opacity="0.10"/>
  <circle cx="640.0" cy="360.0" r="34.1" fill="#4CB648" opacity="0.12"/>
  <circle cx="640.0" cy="360.0" r="34.1" fill="none" stroke="#4CB648" stroke-width="2" opacity="0.35"/>
  <circle cx="640.0" cy="360.0" r="13.6" fill="#4CB648" opacity="0.15"/>
  <line x1="640.0" y1="325.9" x2="640.0" y2="163.7" stroke="#4CB648" stroke-width="1.5" opacity="0.2"/>
  <circle cx="640.0" cy="163.7" r="11.8" fill="#4CB648" opacity="0.1"/>
  <circle cx="640.0" cy="163.7" r="11.8" fill="none" stroke="#4CB648" stroke-width="1.2" opacity="0.3"/>
  <circle cx="640.0" cy="163.7" r="3" fill="#4CB648" opacity="0.25"/>
  <line x1="669.5" y1="343.0" x2="801.3" y2="266.9" stroke="#2DAA6E" stroke-width="1.5" opacity="0.2"/>
  <circle cx="801.3" cy="266.9" r="10.7" fill="#2DAA6E" opacity="0.1"/>
  <circle cx="801.3" cy="266.9" r="10.7" fill="none" stroke="#2DAA6E" stroke-width="1.2" opacity="0.3"/>
  <circle cx="801.3" cy="266.9" r="3" fill="#2DAA6E" opacity="0.25"/>
  <line x1="669.5" y1="377.0" x2="811.4" y2="458.9" stroke="#4CB648" stroke-width="1.5" opacity="0.2"/>
  <circle cx="811.4" cy="458.9" r="15.0" fill="#4CB648" opacity="0.1"/>
  <circle cx="811.4" cy="458.9" r="15.0" fill="none" stroke="#4CB648" stroke-width="1.2" opacity="0.3"/>
  <circle cx="811.4" cy="458.9" r="3" fill="#4CB648" opacity="0.25"/>
  <line x1="640.0" y1="394.1" x2="640.0" y2="542.1" stroke="#2DAA6E" stroke-width="1.5" opacity="0.2"/>
  <circle cx="640.0" cy="542.1" r="10.7" fill="#2DAA6E" opacity="0.1"/>
  <circle cx="640.0" cy="542.1" r="10.7" fill="none" stroke="#2DAA6E" stroke-width="1.2" opacity="0.3"/>
  <circle cx="640.0" cy="542.1" r="3" fill="#2DAA6E" opacity="0.25"/>
  <line x1="610.5" y1="377.0" x2="463.4" y2="462.0" stroke="#4CB648" stroke-width="1.5" opacity="0.2"/>
  <circle cx="463.4" cy="462.0" r="10.0" fill="#4CB648" opacity="0.1"/>
  <circle cx="463.4" cy="462.0" r="10.0" fill="none" stroke="#4CB648" stroke-width="1.2" opacity="0.3"/>
  <circle cx="463.4" cy="462.0" r="3" fill="#4CB648" opacity="0.25"/>
  <line x1="610.5" y1="343.0" x2="480.8" y2="268.1" stroke="#2DAA6E" stroke-width="1.5" opacity="0.2"/>
  <circle cx="480.8" cy="268.1" r="12.7" fill="#2DAA6E" opacity="0.1"/>
  <circle cx="480.8" cy="268.1" r="12.7" fill="none" stroke="#2DAA6E" stroke-width="1.2" opacity="0.3"/>
  <circle cx="480.8" cy="268.1" r="3" fill="#2DAA6E" opacity="0.25"/>

</svg>