<svg xmlns="http://www.w3.org/2000/svg" viewBox="0 0 1280 720" fill="none">
<defs>
  <linearGradient id="bg-3-8" x1="0" y1="0" x2="1" y2="1">
    <stop offset="0%" stop-color="#4CB648" stop-opacity="0.05"/>
    <stop offset="100%" stop-color="#2DAA6E" stop-opacity="0.03"/>
  </linearGradient>
</defs>
  <rect width="1280" height="720" fill="url(#bg-3-8)"/>
  <path d="M 924.9 292.9 C 977.2 286.7, 1073.1 280.3, 1100.3 312.8 C 1127.5 345.4, 1099.0 440.8, 1087.9 488.2 C 1076.8 535.5, 1060.9 571.3, 1033.7 597.0 C 1006.6 622.6, 959.5 643.9, 924.9 642.2 C 890.3 640.6, 856.5 612.7, 826.1 587.0 C 795.6 561.4, 748.9 527.7, 742.3 488.2 C 735.7 448.6, 756.2 382.4, 786.6 349.8 C 817.1 317.3, 872.7 299.1, 924.9 292.9 Z" fill="#4CB648" opacity="0.03"/>
  <circle cx="954.7" cy="619.2" r="3.3" fill="#4CB648" opacity="0.09"/>
  <circle cx="932.9" cy="139.6" r="2.3" fill="#4CB648" opacity="0.09"/>
  <circle cx="803.8" cy="659.0" r="1.5" fill="#4CB648" opacity="0.09"/>
  <circle cx="993.1" cy="68.8" r="2.4" fill="#4CB648" opacity="0.09"/>
  <circle cx="665.5" cy="315.2" r="3.1" fill="#4CB648" opacity="0.09"/>
  <circle cx="1163.7" cy="387.1" r="2.2" fill="#4CB648" opacity="0.09"/>
  <line x1="640.0" y1="144.0" x2="640.0" y2="576.0" stroke="#4CB648" stroke-width="1" opacity="0.15" stroke-dasharray="6 4"/>
  <path d="M 398.2 197.4 C 411.7 197.3, 433.6 202.4, 439.0 211.8 C 444.4 221.3, 437.5 245.2, 430.7 254.2 C 423.9 263.2, 409.1 265.8, 398.2 265.9 C 387.2 265.9, 371.7 263.5, 365.0 254.5 C 358.3 245.6, 352.4 221.7, 357.9 212.1 C 363.4 202.6, 384.6 197.4, 398.2 197.4 Z" fill="#2DAA6E" opacity="0.04"/>
  <path d="M 404.7 202.1 C 417.0 201.7, 437.7 205.7, 443.8 215.1 C 449.8 224.5, 447.5 247.4, 441.0 258.6 C 434.5 269.7, 417.6 281.5, 404.7 281.9 C 391.8 282.4, 369.2 272.2, 363.4 261.5 C 357.6 250.7, 363.0 227.4, 369.9 217.6 C 376.8 207.7, 392.4 202.6, 404.7 202.1 Z" fill="#2DAA6E" opacity="0.06"/>
  <path d="M 386.4 464.0 C 394.7 465.2, 400.6 479.7, 405.2 488.3 C 409.9 496.8, 417.5 509.2, 414.4 515.3 C 411.3 521.4, 394.9 525.3, 386.4 524.8 C 378.0 524.3, 368.7 519.6, 363.6 512.3 C 358.5 505.1, 351.9 489.4, 355.7 481.4 C 359.5 473.3, 378.2 462.9, 386.4 464.0 Z" fill="#2DAA6E" opacity="0.07"/>
  <line x1="281.6" y1="158.4" x2="512.0" y2="158.4" stroke="#2DAA6E" stroke-width="2" opacity="0.12" stroke-linecap="round"/>
  <path d="M 908.3 339.6 C 924.1 341.9, 932.6 377.1, 947.4 394.9 C 962.1 412.6, 996.9 427.8, 996.7 446.2 C 996.6 464.7, 967.9 495.7, 946.7 505.8 C 925.5 515.9, 887.7 517.2, 869.4 506.7 C 851.1 496.1, 839.7 463.2, 836.8 442.4 C 833.9 421.5, 840.3 398.5, 852.2 381.4 C 864.1 364.2, 892.4 337.4, 908.3 339.6 Z" fill="#4CB648" opacity="0.18"/>
  <path d="M 960.5 246.7 C 971.6 247.7, 983.5 254.3, 989.9 262.3 C 996.4 270.3, 1000.6 283.4, 999.2 294.6 C 997.8 305.7, 990.5 325.4, 981.5 329.3 C 972.5 333.1, 954.7 323.5, 945.1 317.7 C 935.6 311.8, 927.9 304.3, 924.3 294.0 C 920.6 283.7, 917.2 263.9, 923.2 256.0 C 929.2 248.1, 949.4 245.6, 960.5 246.7 Z" fill="#4CB648" opacity="0.18"/>
  <path d="M 940.7 434.6 C 956.7 436.2, 974.6 448.0, 982.8 459.6 C 991.1 471.3, 991.6 487.2, 990.3 504.5 C 988.9 521.8, 987.7 554.9, 974.5 563.4 C 961.2 571.9, 923.5 565.6, 910.7 555.5 C 897.9 545.4, 901.8 520.6, 897.7 503.0 C 893.7 485.5, 879.4 461.5, 886.6 450.1 C 893.7 438.7, 924.6 433.1, 940.7 434.6 Z" fill="#4CB648" opacity="0.10"/>
  <path d="M 794.7 195.4 C 806.9 195.4, 825.7 191.8, 831.3 198.4 C 836.9 205.0, 832.0 225.5, 828.3 235.2 C 824.5 244.9, 816.6 253.4, 808.8 256.7 C 801.0 260.1, 788.8 258.9, 781.4 255.1 C 774.1 251.4, 768.8 243.8, 764.9 234.3 C 761.0 224.9, 753.3 204.9, 758.3 198.4 C 763.2 192.0, 782.6 195.4, 794.7 195.4 Z" fill="#4CB648" opacity="0.14"/>
  <path d="M 793.6 269.4 C 810.5 271.2, 827.3 276.6, 837.5 287.8 C 847.6 299.0, 857.1 321.1, 854.4 336.7 C 851.8 352.2, 837.8 370.9, 821.6 381.0 C 805.5 391.1, 770.4 405.3, 757.7 397.4 C 744.9 389.5, 748.8 354.0, 745.2 333.8 C 741.5 313.7, 727.8 287.5, 735.9 276.8 C 744.0 266.0, 776.7 267.5, 793.6 269.4 Z" fill="#4CB648" opacity="0.10"/>
  <circle cx="1068.4" cy="401.6" r="2.9" fill="#4CB648" opacity="0.12"/>
  <circle cx="801.4" cy="371.9" r="3.0" fill="#4CB648" opacity="0.12"/>
  <circle cx="949.3" cy="211.2" r="5.0" fill="#4CB648" opacity="0.12"/>
  <circle cx="798.2" cy="184.7" r="2.1" fill="#4CB648" opacity="0.12"/>
  <circle cx="808.6" cy="400.9" r="3.5" fill="#4CB648" opacity="0.12"/>
  <circle cx="786.4" cy="189.1" r="4.2" fill="#4CB648" opacity="0.12"/>
  <circle cx="851.3" cy="200.9" r="4.1" fill="#4CB648" opacity="0.12"/>
  <circle cx="814.0" cy="392.0" r="3.6" fill="#4CB648" opacity="0.12"/>
  <line x1="768.0" y1="158.4" x2="998.4" y2="158.4" stroke="#4CB648" stroke-width="2.5" opacity="0.2" stroke-linecap="round"/>
  <rect x="635.0" y="355.0" width="10" height="10" fill="#4CB648" opacity="0.2" transform="rotate(45 640.0 360.0)"/>

</svg>