<svg xmlns="http://www.w3.org/2000/svg" viewBox="0 0 1280 720" fill="none">
<defs>
  <linearGradient id="bg-3-5" x1="0" y1="0" x2="1" y2="1">
    <stop offset="0%" stop-color="#4CB648" stop-opacity="0.05"/>
    <stop offset="100%" stop-color="#2DAA6E" stop-opacity="0.03"/>
  </linearGradient>
</defs>
  <rect width="1280" height="720" fill="url(#bg-3-5)"/>
  <path d="M 630.4 -31.7 C 664.1 -32.1, 701.5 6.5, 732.9 34.6 C 764.3 62.7, 814.2 98.5, 818.6 137.1 C 823.0 175.6, 790.7 233.7, 759.3 265.9 C 727.9 298.2, 665.1 338.7, 630.4 330.4 C 595.8 322.2, 583.0 248.5, 551.2 216.2 C 519.4 184.0, 443.1 166.9, 439.6 137.1 C 436.2 107.2, 498.8 65.4, 530.6 37.2 C 562.4 9.1, 596.7 -31.2, 630.4 -31.7 Z" fill="#4CB648" opacity="0.04"/>
  <path d="M 900.8 107.0 C 940.3 104.9, 1007.6 114.9, 1025.5 141.5 C 1043.4 168.0, 1013.7 230.3, 1008.0 266.2 C 1002.2 302.0, 1009.0 336.4, 991.2 356.6 C 973.3 376.8, 933.2 385.1, 900.8 387.4 C 868.4 389.7, 819.8 390.5, 796.7 370.3 C 773.6 350.1, 763.8 302.2, 762.4 266.2 C 761.1 230.2, 765.6 180.6, 788.6 154.0 C 811.7 127.5, 861.3 109.1, 900.8 107.0 Z" fill="#2DAA6E" opacity="0.05"/>
  <circle cx="540.8" cy="82.4" r="3.2" fill="#4CB648" opacity="0.09"/>
  <circle cx="521.2" cy="123.3" r="2.4" fill="#4CB648" opacity="0.09"/>
  <circle cx="831.2" cy="409.9" r="3.5" fill="#4CB648" opacity="0.09"/>
  <circle cx="288.8" cy="357.0" r="1.8" fill="#4CB648" opacity="0.09"/>
  <circle cx="498.2" cy="647.7" r="2.5" fill="#4CB648" opacity="0.09"/>
  <circle cx="97.1" cy="520.5" r="3.7" fill="#4CB648" opacity="0.09"/>
  <circle cx="628.5" cy="240.5" r="3.4" fill="#4CB648" opacity="0.09"/>
  <rect x="243.2" y="162.0" width="255.2" height="191.0" rx="10" fill="#4CB648" opacity="0.08"/>
  <rect x="243.2" y="162.0" width="255.2" height="191.0" rx="10" fill="none" stroke="#4CB648" stroke-width="1.2" opacity="0.25"/>
  <circle cx="370.8" cy="186.8" r="10.7" fill="#4CB648" opacity="0.15"/>
  <line x1="269.9" y1="267.1" x2="471.7" y2="267.1" stroke="#4CB648" stroke-width="2" opacity="0.12" stroke-linecap="round"/>
  <line x1="274.2" y1="281.1" x2="467.4" y2="281.1" stroke="#4CB648" stroke-width="2" opacity="0.12" stroke-linecap="round"/>
  <rect x="512.4" y="162.0" width="255.2" height="191.0" rx="10" fill="#2DAA6E" opacity="0.09"/>
  <rect x="512.4" y="162.0" width="255.2" height="191.0" rx="10" fill="none" stroke="#2DAA6E" stroke-width="1.2" opacity="0.25"/>
  <circle cx="640.0" cy="190.9" r="13.0" fill="#2DAA6E" opacity="0.15"/>
  <line x1="549.7" y1="267.1" x2="730.3" y2="267.1" stroke="#2DAA6E" stroke-width="2" opacity="0.12" stroke-linecap="round"/>
  <line x1="567.8" y1="281.1" x2="712.2" y2="281.1" stroke="#2DAA6E" stroke-width="2" opacity="0.12" stroke-linecap="round"/>
  <rect x="781.6" y="162.0" width="255.2" height="191.0" rx="10" fill="#4CB648" opacity="0.15"/>
  <rect x="781.6" y="162.0" width="255.2" height="191.0" rx="10" fill="none" stroke="#4CB648" stroke-width="1.2" opacity="0.25"/>
  <circle cx="909.2" cy="184.3" r="10.1" fill="#4CB648" opacity="0.15"/>
  <line x1="823.9" y1="267.1" x2="994.5" y2="267.1" stroke="#4CB648" stroke-width="2" opacity="0.12" stroke-linecap="round"/>
  <line x1="827.7" y1="281.1" x2="990.7" y2="281.1" stroke="#4CB648" stroke-width="2" opacity="0.12" stroke-linecap="round"/>
  <rect x="243.2" y="367.0" width="255.2" height="191.0" rx="10" fill="#2DAA6E" opacity="0.12"/>
  <rect x="243.2" y="367.0" width="255.2" height="191.0" rx="10" fill="none" stroke="#2DAA6E" stroke-width="1.2" opacity="0.25"/>
  <circle cx="370.8" cy="393.3" r="12.9" fill="#2DAA6E" opacity="0.15"/>
  <line x1="299.0" y1="472.1" x2="442.6" y2="472.1" stroke="#2DAA6E" stroke-width="2" opacity="0.12" stroke-linecap="round"/>
  <line x1="289.5" y1="486.1" x2="452.1" y2="486.1" stroke="#2DAA6E" stroke-width="2" opacity="0.12" stroke-linecap="round"/>
  <rect x="512.4" y="367.0" width="255.2" height="191.0" rx="10" fill="#4CB648" opacity="0.15"/>
  <rect x="512.4" y="367.0" width="255.2" height="191.0" rx="10" fill="none" stroke="#4CB648" stroke-width="1.2" opacity="0.25"/>
  <circle cx="640.0" cy="392.6" r="10.2" fill="#4CB648" opacity="0.15"/>
  <line x1="552.1" y1="472.1" x2="727.9" y2="472.1" stroke="#4CB648" stroke-width="2" opacity="0.12" stroke-linecap="round"/>
  <line x1="558.1" y1="486.1" x2="721.9" y2="486.1" stroke="#4CB648" stroke-width="2" opacity="0.12" stroke-linecap="round"/>
  <rect x="781.6" y="367.0" width="255.2" height="191.0" rx="10" fill="#2DAA6E" opacity="0.10"/>
  <rect x="781.6" y="367.0" width="255.2" height="191.0" rx="10" fill="none" stroke="#2DAA6E" stroke-width="1.2" opacity="0.25"/>
  <circle cx="909.2" cy="392.7" r="15.2" fill="#2DAA6E" opacity="0.15"/>
  <line x1="818.2" y1="472.1" x2="1000.2" y2="472.1" stroke="#2DAA6E" stroke-width="2" opacity="0.12" stroke-linecap="round"/>
  <line x1="827.6" y1="486.1" x2="990.8" y2="486.1" stroke="#2DAA6E" stroke-width="2" opacity="0.12" stroke-linecap="round"/>

</svg>