<svg xmlns="http://www.w3.org/2000/svg" viewBox="0 0 1280 720" fill="none">
<defs>
  <linearGradient id="bg-3-4" x1="0" y1="0" x2="1" y2="1">
    <stop offset="0%" stop-color="#4CB648" stop-opacity="0.05"/>
    <stop offset="100%" stop-color="#2DAA6E" stop-opacity="0.03"/>
  </linearGradient>
</defs>
  <rect width="1280" height="720" fill="url(#bg-3-4)"/>
  <path d="M 501.9 148.6 C 548.2 138.4, 639.3 106.8, 671.2 132.4 C 703.2 157.9, 703.3 254.8, 693.8 301.7 C 684.3 348.6, 646.1 374.4, 614.1 413.9 C 582.1 453.5, 538.8 539.7, 501.9 539.2 C 465.0 538.6, 416.2 450.3, 392.9 410.7 C 369.6 371.1, 362.0 338.0, 362.1 301.7 C 362.2 265.5, 370.1 218.8, 393.4 193.2 C 416.7 167.7, 455.6 158.7, 501.9 148.6 Z" fill="#4CB648" opacity="0.04"/>
  <circle cx="925.8" cy="598.5" r="2.8" fill="#4CB648" opacity="0.10"/>
  <circle cx="1111.7" cy="625.9" r="3.8" fill="#4CB648" opacity="0.10"/>
  <circle cx="1019.8" cy="350.5" r="2.7" fill="#4CB648" opacity="0.10"/>
  <circle cx="790.0" cy="536.8" r="2.9" fill="#4CB648" opacity="0.10"/>
  <circle cx="763.7" cy="349.4" r="3.4" fill="#4CB648" opacity="0.10"/>
  <circle cx="779.0" cy="536.6" r="2.6" fill="#4CB648" opacity="0.10"/>
  <circle cx="780.6" cy="562.8" r="2.6" fill="#4CB648" opacity="0.10"/>
  <circle cx="310.2" cy="526.8" r="3.4" fill="#4CB648" opacity="0.10"/>
  <circle cx="808.2" cy="167.7" r="3.7" fill="#4CB648" opacity="0.10"/>
  <circle cx="1016.7" cy="231.6" r="3.0" fill="#4CB648" opacity="0.10"/>
  <circle cx="342.5" cy="410.2" r="3.0" fill="#4CB648" opacity="0.10"/>
  <line x1="640.0" y1="144.0" x2="640.0" y2="576.0" stroke="#4CB648" stroke-width="1" opacity="0.15" stroke-dasharray="6 4"/>
  <path d="M 341.9 295.2 C 364.8 294.0, 406.6 303.2, 416.6 320.4 C 426.6 337.6, 414.5 382.8, 402.0 398.2 C 389.5 413.7, 359.8 414.5, 341.9 413.2 C 324.0 412.0, 305.2 405.0, 294.7 390.8 C 284.3 376.5, 271.6 343.4, 279.5 327.5 C 287.4 311.6, 319.1 296.3, 341.9 295.2 Z" fill="#2DAA6E" opacity="0.07"/>
  <path d="M 317.9 226.6 C 332.7 227.8, 349.3 252.2, 356.4 266.7 C 363.6 281.1, 367.0 303.1, 360.6 313.5 C 354.2 324.0, 332.6 329.0, 317.9 329.3 C 303.2 329.6, 280.5 326.9, 272.2 315.3 C 263.8 303.8, 260.2 274.8, 267.9 260.0 C 275.5 245.2, 303.1 225.5, 317.9 226.6 Z" fill="#2DAA6E" opacity="0.04"/>
  <path d="M 278.7 407.7 C 286.7 407.7, 299.1 416.5, 302.7 423.6 C 306.4 430.6, 304.6 442.9, 300.6 450.0 C 296.6 457.2, 287.5 465.4, 278.7 466.3 C 269.9 467.2, 251.8 462.4, 247.8 455.3 C 243.7 448.2, 249.5 431.4, 254.6 423.5 C 259.8 415.6, 270.7 407.7, 278.7 407.7 Z" fill="#2DAA6E" opacity="0.05"/>
  <line x1="281.6" y1="158.4" x2="512.0" y2="158.4" stroke="#2DAA6E" stroke-width="2" opacity="0.12" stroke-linecap="round"/>
  <path d="M 918.3 208.0 C 927.3 209.0, 933.9 229.6, 941.5 239.7 C 949.1 249.8, 965.6 260.7, 964.1 268.6 C 962.5 276.5, 943.1 281.7, 932.2 286.9 C 921.2 292.1, 908.8 302.9, 898.2 300.0 C 887.5 297.1, 870.2 280.6, 868.4 269.5 C 866.7 258.5, 879.5 244.1, 887.8 233.8 C 896.1 223.6, 909.4 207.0, 918.3 208.0 Z" fill="#4CB648" opacity="0.16"/>
  <path d="M 1019.8 186.8 C 1030.9 187.0, 1045.6 208.1, 1052.6 219.5 C 1059.6 230.9, 1063.5 243.0, 1061.8 255.2 C 1060.1 267.5, 1052.8 287.8, 1042.6 292.9 C 1032.3 298.1, 1012.0 292.3, 1000.2 286.3 C 988.4 280.2, 974.2 267.9, 971.8 256.6 C 969.3 245.3, 977.8 230.1, 985.8 218.5 C 993.8 206.9, 1008.7 186.7, 1019.8 186.8 Z" fill="#4CB648" opacity="0.14"/>
  <path d="M 873.2 334.5 C 883.3 334.0, 900.0 336.8, 905.4 343.8 C 910.8 350.9, 908.5 367.8, 905.5 376.9 C 902.4 386.0, 895.4 393.4, 887.0 398.3 C 878.7 403.3, 861.9 410.5, 855.3 406.7 C 848.6 402.9, 848.8 385.5, 847.0 375.5 C 845.3 365.5, 840.3 353.7, 844.7 346.8 C 849.0 340.0, 863.0 335.0, 873.2 334.5 Z" fill="#4CB648" opacity="0.17"/>
  <path d="M 903.5 172.9 C 918.4 174.3, 931.7 187.0, 942.9 199.2 C 954.0 211.3, 970.7 227.2, 970.6 245.8 C 970.5 264.4, 959.3 301.1, 942.2 310.8 C 925.1 320.5, 883.9 315.3, 868.2 304.0 C 852.4 292.8, 850.1 262.1, 847.7 243.3 C 845.3 224.4, 844.5 202.6, 853.8 190.8 C 863.1 179.1, 888.7 171.6, 903.5 172.9 Z" fill="#4CB648" opacity="0.09"/>
  <path d="M 918.9 202.8 C 930.9 201.3, 952.5 206.0, 960.4 215.4 C 968.3 224.8, 969.2 245.0, 966.5 259.4 C 963.9 273.8, 956.4 295.1, 944.4 301.6 C 932.5 308.0, 907.0 305.2, 895.0 298.1 C 883.0 291.0, 873.7 271.4, 872.6 259.1 C 871.5 246.8, 880.8 233.7, 888.5 224.3 C 896.2 214.9, 906.9 204.3, 918.9 202.8 Z" fill="#4CB648" opacity="0.09"/>
  <circle cx="960.3" cy="429.0" r="5.0" fill="#4CB648" opacity="0.12"/>
  <circle cx="871.6" cy="455.1" r="4.0" fill="#4CB648" opacity="0.12"/>
  <circle cx="922.6" cy="506.4" r="4.9" fill="#4CB648" opacity="0.12"/>
  <circle cx="839.1" cy="486.6" r="2.2" fill="#4CB648" opacity="0.12"/>
  <circle cx="1035.2" cy="340.9" r="4.3" fill="#4CB648" opacity="0.12"/>
  <circle cx="951.4" cy="192.6" r="2.8" fill="#4CB648" opacity="0.12"/>
  <circle cx="843.2" cy="405.9" r="3.8" fill="#4CB648" opacity="0.12"/>
  <circle cx="1005.5" cy="304.8" r="2.7" fill="#4CB648" opacity="0.12"/>
  <line x1="768.0" y1="158.4" x2="998.4" y2="158.4" stroke="#4CB648" stroke-width="2.5" opacity="0.2" stroke-linecap="round"/>
  <rect x="635.0" y="355.0" width="10" height="10" fill="#4CB648" opacity="0.2" transform="rotate(45 640.0 360.0)"/>

</svg>