<svg xmlns="http://www.w3.org/2000/svg" viewBox="0 0 1280 720" fill="none">
<defs>
  <linearGradient id="bg-grad-25" x1="0" y1="0" x2="1" y2="1">
    <stop offset="0%" stop-color="#4CB648" stop-opacity="0.06"/>
    <stop offset="100%" stop-color="#F5A623" stop-opacity="0.03"/>
  </linearGradient>
</defs>
  <rect width="1280" height="720" fill="url(#bg-grad-25)"/>
  <path d="M 742.9 168.0 C 790.3 170.7, 845.8 209.6, 877.2 244.7 C 908.5 279.9, 933.9 337.4, 930.8 379.0 C 927.7 420.7, 889.9 457.2, 858.5 494.7 C 827.2 532.1, 784.9 600.3, 742.9 603.8 C 700.8 607.3, 639.3 553.2, 606.1 515.8 C 572.9 478.3, 545.9 426.8, 543.6 379.0 C 541.4 331.2, 559.5 264.0, 592.7 228.8 C 625.9 193.6, 695.5 165.3, 742.9 168.0 Z" fill="#4CB648" opacity="0.08"/>
  <path d="M 626.3 -30.2 C 674.2 -42.1, 770.1 -65.7, 805.9 -36.9 C 841.7 -8.1, 840.6 82.3, 841.2 142.7 C 841.8 203.2, 845.2 289.6, 809.4 325.8 C 773.6 362.0, 675.3 371.8, 626.3 359.8 C 577.3 347.7, 549.4 289.8, 515.4 253.6 C 481.4 217.4, 421.8 179.2, 422.3 142.7 C 422.8 106.2, 484.3 63.5, 518.3 34.7 C 552.3 5.9, 578.4 -18.2, 626.3 -30.2 Z" fill="#F5A623" opacity="0.05"/>
  <path d="M 1044.0 76.3 C 1068.3 72.4, 1102.6 116.5, 1128.5 141.4 C 1154.3 166.4, 1200.2 198.9, 1199.0 225.9 C 1197.8 253.0, 1147.3 278.1, 1121.5 303.5 C 1095.6 328.8, 1074.3 373.5, 1044.0 377.9 C 1013.6 382.4, 961.3 355.8, 939.5 330.4 C 917.6 305.1, 905.6 253.6, 912.8 225.9 C 920.0 198.3, 960.8 189.6, 982.7 164.6 C 1004.5 139.7, 1019.7 80.2, 1044.0 76.3 Z" fill="#4CB648" opacity="0.09"/>
  <circle cx="673.3" cy="329.4" r="4.2" fill="#4CB648" opacity="0.14"/>
  <circle cx="756.8" cy="418.5" r="4.0" fill="#4CB648" opacity="0.14"/>
  <circle cx="186.2" cy="115.6" r="4.6" fill="#4CB648" opacity="0.14"/>
  <circle cx="396.6" cy="193.5" r="3.9" fill="#4CB648" opacity="0.14"/>
  <circle cx="1089.6" cy="597.2" r="3.8" fill="#4CB648" opacity="0.14"/>
  <circle cx="520.7" cy="449.3" r="2.8" fill="#4CB648" opacity="0.14"/>
  <circle cx="142.2" cy="87.7" r="3.0" fill="#4CB648" opacity="0.14"/>
  <circle cx="219.8" cy="644.7" r="2.7" fill="#4CB648" opacity="0.14"/>
  <circle cx="422.0" cy="598.1" r="3.3" fill="#4CB648" opacity="0.14"/>
  <circle cx="166.6" cy="504.0" r="3.7" fill="#4CB648" opacity="0.14"/>
  <circle cx="379.4" cy="348.6" r="2.7" fill="#4CB648" opacity="0.14"/>
  <circle cx="880.7" cy="604.5" r="4.4" fill="#4CB648" opacity="0.14"/>
  <circle cx="334.1" cy="554.1" r="2.6" fill="#4CB648" opacity="0.14"/>
  <path d="M 80 122.03263561241329 C 345.6320770084858 30.93900065869093, 923.1530785094947 434.7635655198246, 1200 533.2923419773579" fill="none" stroke="#F5A623" stroke-width="2" opacity="0.1" stroke-linecap="round"/>
  <line x1="580" y1="280" x2="700" y2="290" stroke="#4CB648" stroke-width="1.5" opacity="0.11"/>
  <line x1="580" y1="280" x2="640" y2="350" stroke="#4CB648" stroke-width="1.5" opacity="0.13"/>
  <line x1="580" y1="280" x2="560" y2="380" stroke="#4CB648" stroke-width="1.5" opacity="0.12"/>
  <line x1="580" y1="280" x2="600" y2="430" stroke="#4CB648" stroke-width="1.5" opacity="0.09"/>
  <line x1="580" y1="280" x2="640" y2="260" stroke="#4CB648" stroke-width="1.5" opacity="0.15"/>
  <line x1="580" y1="280" x2="530" y2="320" stroke="#4CB648" stroke-width="1.5" opacity="0.15"/>
  <line x1="700" y1="290" x2="640" y2="350" stroke="#4CB648" stroke-width="1.5" opacity="0.14"/>
  <line x1="700" y1="290" x2="720" y2="390" stroke="#4CB648" stroke-width="1.5" opacity="0.12"/>
  <line x1="700" y1="290" x2="680" y2="430" stroke="#4CB648" stroke-width="1.5" opacity="0.09"/>
  <line x1="700" y1="290" x2="640" y2="260" stroke="#4CB648" stroke-width="1.5" opacity="0.15"/>
  <line x1="700" y1="290" x2="750" y2="340" stroke="#4CB648" stroke-width="1.5" opacity="0.15"/>
  <line x1="640" y1="350" x2="560" y2="380" stroke="#4CB648" stroke-width="1.5" opacity="0.14"/>
  <line x1="640" y1="350" x2="720" y2="390" stroke="#4CB648" stroke-width="1.5" opacity="0.13"/>
  <line x1="640" y1="350" x2="600" y2="430" stroke="#4CB648" stroke-width="1.5" opacity="0.13"/>
  <line x1="640" y1="350" x2="680" y2="430" stroke="#4CB648" stroke-width="1.5" opacity="0.13"/>
  <line x1="640" y1="350" x2="640" y2="260" stroke="#4CB648" stroke-width="1.5" opacity="0.13"/>
  <line x1="640" y1="350" x2="530" y2="320" stroke="#4CB648" stroke-width="1.5" opacity="0.11"/>
  <line x1="640" y1="350" x2="750" y2="340" stroke="#4CB648" stroke-width="1.5" opacity="0.12"/>
  <line x1="560" y1="380" x2="600" y2="430" stroke="#4CB648" stroke-width="1.5" opacity="0.15"/>
  <line x1="560" y1="380" x2="680" y2="430" stroke="#4CB648" stroke-width="1.5" opacity="0.10"/>
  <line x1="560" y1="380" x2="640" y2="260" stroke="#4CB648" stroke-width="1.5" opacity="0.09"/>
  <line x1="560" y1="380" x2="530" y2="320" stroke="#4CB648" stroke-width="1.5" opacity="0.15"/>
  <line x1="720" y1="390" x2="600" y2="430" stroke="#4CB648" stroke-width="1.5" opacity="0.11"/>
  <line x1="720" y1="390" x2="680" y2="430" stroke="#4CB648" stroke-width="1.5" opacity="0.16"/>
  <line x1="720" y1="390" x2="640" y2="260" stroke="#4CB648" stroke-width="1.5" opacity="0.09"/>
  <line x1="720" y1="390" x2="750" y2="340" stroke="#4CB648" stroke-width="1.5" opacity="0.16"/>
  <line x1="600" y1="430" x2="680" y2="430" stroke="#4CB648" stroke-width="1.5" opacity="0.14"/>
  <line x1="600" y1="430" x2="530" y2="320" stroke="#4CB648" stroke-width="1.5" opacity="0.10"/>
  <line x1="680" y1="430" x2="750" y2="340" stroke="#4CB648" stroke-width="1.5" opacity="0.11"/>
  <line x1="640" y1="260" x2="530" y2="320" stroke="#4CB648" stroke-width="1.5" opacity="0.11"/>
  <line x1="640" y1="260" x2="750" y2="340" stroke="#4CB648" stroke-width="1.5" opacity="0.10"/>
  <circle cx="580" cy="280" r="8.6" fill="#F5A623" opacity="0.2"/>
  <circle cx="580" cy="280" r="8.6" fill="none" stroke="#F5A623" stroke-width="1.5" opacity="0.35"/>
  <circle cx="700" cy="290" r="11.8" fill="#4CB648" opacity="0.2"/>
  <circle cx="700" cy="290" r="11.8" fill="none" stroke="#4CB648" stroke-width="1.5" opacity="0.35"/>
  <circle cx="640" cy="350" r="8.6" fill="#4CB648" opacity="0.2"/>
  <circle cx="640" cy="350" r="8.6" fill="none" stroke="#4CB648" stroke-width="1.5" opacity="0.35"/>
  <circle cx="560" cy="380" r="8.3" fill="#F5A623" opacity="0.2"/>
  <circle cx="560" cy="380" r="8.3" fill="none" stroke="#F5A623" stroke-width="1.5" opacity="0.35"/>
  <circle cx="720" cy="390" r="9.1" fill="#4CB648" opacity="0.2"/>
  <circle cx="720" cy="390" r="9.1" fill="none" stroke="#4CB648" stroke-width="1.5" opacity="0.35"/>
  <circle cx="600" cy="430" r="8.3" fill="#4CB648" opacity="0.2"/>
  <circle cx="600" cy="430" r="8.3" fill="none" stroke="#4CB648" stroke-width="1.5" opacity="0.35"/>
  <circle cx="680" cy="430" r="10.2" fill="#F5A623" opacity="0.2"/>
  <circle cx="680" cy="430" r="10.2" fill="none" stroke="#F5A623" stroke-width="1.5" opacity="0.35"/>
  <circle cx="640" cy="260" r="11.6" fill="#4CB648" opacity="0.2"/>
  <circle cx="640" cy="260" r="11.6" fill="none" stroke="#4CB648" stroke-width="1.5" opacity="0.35"/>
  <circle cx="530" cy="320" r="11.9" fill="#4CB648" opacity="0.2"/>
  <circle cx="530" cy="320" r="11.9" fill="none" stroke="#4CB648" stroke-width="1.5" opacity="0.35"/>
  <circle cx="750" cy="340" r="7.0" fill="#F5A623" opacity="0.2"/>
  <circle cx="750" cy="340" r="7.0" fill="none" stroke="#F5A623" stroke-width="1.5" opacity="0.35"/>

</svg>