<svg xmlns="http://www.w3.org/2000/svg" viewBox="0 0 1280 720" fill="none">
<defs>
  <linearGradient id="bg-25-3" x1="0" y1="0" x2="1" y2="1">
    <stop offset="0%" stop-color="#4CB648" stop-opacity="0.05"/>
    <stop offset="100%" stop-color="#F5A623" stop-opacity="0.03"/>
  </linearGradient>
</defs>
  <rect width="1280" height="720" fill="url(#bg-25-3)"/>
  <path d="M 403.0 125.5 C 430.2 128.3, 458.8 129.7, 476.0 145.1 C 493.2 160.6, 501.9 189.4, 506.3 218.1 C 510.8 246.9, 519.8 297.7, 502.6 317.8 C 485.4 337.9, 431.4 343.4, 403.0 338.6 C 374.5 333.9, 350.9 309.3, 331.9 289.2 C 313.0 269.1, 292.6 245.0, 289.4 218.1 C 286.3 191.3, 293.9 143.4, 312.8 127.9 C 331.7 112.5, 375.8 122.6, 403.0 125.5 Z" fill="#4CB648" opacity="0.05"/>
  <path d="M 422.9 259.9 C 445.2 266.0, 455.9 280.5, 471.4 294.4 C 487.0 308.2, 512.1 322.9, 516.0 343.0 C 519.9 363.1, 510.4 400.2, 494.9 415.0 C 479.4 429.8, 447.2 431.3, 422.9 431.7 C 398.5 432.0, 367.9 431.8, 348.8 417.0 C 329.7 402.3, 310.0 369.6, 308.1 343.0 C 306.2 316.4, 318.3 271.4, 337.4 257.6 C 356.6 243.7, 400.5 253.7, 422.9 259.9 Z" fill="#F5A623" opacity="0.04"/>
  <circle cx="1033.5" cy="639.1" r="2.1" fill="#4CB648" opacity="0.09"/>
  <circle cx="702.9" cy="467.6" r="1.6" fill="#4CB648" opacity="0.09"/>
  <circle cx="320.7" cy="540.3" r="2.8" fill="#4CB648" opacity="0.09"/>
  <circle cx="348.6" cy="661.5" r="2.8" fill="#4CB648" opacity="0.09"/>
  <circle cx="782.5" cy="295.3" r="3.8" fill="#4CB648" opacity="0.09"/>
  <circle cx="84.0" cy="354.1" r="2.9" fill="#4CB648" opacity="0.09"/>
  <circle cx="912.1" cy="505.6" r="2.6" fill="#4CB648" opacity="0.09"/>
  <circle cx="64.0" cy="463.6" r="2.3" fill="#4CB648" opacity="0.09"/>
  <circle cx="389.0" cy="294.2" r="2.1" fill="#4CB648" opacity="0.09"/>
  <circle cx="340.6" cy="78.6" r="2.4" fill="#4CB648" opacity="0.09"/>
  <line x1="256.0" y1="360.0" x2="1024.0" y2="360.0" stroke="#4CB648" stroke-width="2" opacity="0.2" stroke-linecap="round"/>
  <line x1="256.0" y1="360.0" x2="793.6" y2="360.0" stroke="#4CB648" stroke-width="3" opacity="0.15" stroke-linecap="round"/>
  <circle cx="256.0" cy="360.0" r="5" fill="#4CB648" opacity="0.3"/>
  <rect x="188.8" y="210.4" width="134.4" height="129.6" rx="8" fill="#4CB648" opacity="0.07"/>
  <rect x="188.8" y="210.4" width="134.4" height="129.6" rx="8" fill="none" stroke="#4CB648" stroke-width="1" opacity="0.2"/>
  <line x1="256.0" y1="355.0" x2="256.0" y2="340.0" stroke="#4CB648" stroke-width="0.8" opacity="0.15"/>
  <line x1="223.9" y1="275.2" x2="288.1" y2="275.2" stroke="#4CB648" stroke-width="1.5" opacity="0.1" stroke-linecap="round"/>
  <circle cx="448.0" cy="360.0" r="5" fill="#F5A623" opacity="0.3"/>
  <rect x="380.8" y="380.0" width="134.4" height="129.6" rx="8" fill="#F5A623" opacity="0.07"/>
  <rect x="380.8" y="380.0" width="134.4" height="129.6" rx="8" fill="none" stroke="#F5A623" stroke-width="1" opacity="0.2"/>
  <line x1="448.0" y1="365.0" x2="448.0" y2="380.0" stroke="#F5A623" stroke-width="0.8" opacity="0.15"/>
  <line x1="418.9" y1="444.8" x2="477.1" y2="444.8" stroke="#F5A623" stroke-width="1.5" opacity="0.1" stroke-linecap="round"/>
  <circle cx="640.0" cy="360.0" r="5" fill="#4CB648" opacity="0.3"/>
  <rect x="572.8" y="210.4" width="134.4" height="129.6" rx="8" fill="#4CB648" opacity="0.07"/>
  <rect x="572.8" y="210.4" width="134.4" height="129.6" rx="8" fill="none" stroke="#4CB648" stroke-width="1" opacity="0.2"/>
  <line x1="640.0" y1="355.0" x2="640.0" y2="340.0" stroke="#4CB648" stroke-width="0.8" opacity="0.15"/>
  <line x1="608.3" y1="275.2" x2="671.7" y2="275.2" stroke="#4CB648" stroke-width="1.5" opacity="0.1" stroke-linecap="round"/>
  <circle cx="832.0" cy="360.0" r="5" fill="#F5A623" opacity="0.3"/>
  <rect x="764.8" y="380.0" width="134.4" height="129.6" rx="8" fill="#F5A623" opacity="0.07"/>
  <rect x="764.8" y="380.0" width="134.4" height="129.6" rx="8" fill="none" stroke="#F5A623" stroke-width="1" opacity="0.2"/>
  <line x1="832.0" y1="365.0" x2="832.0" y2="380.0" stroke="#F5A623" stroke-width="0.8" opacity="0.15"/>
  <line x1="794.2" y1="444.8" x2="869.8" y2="444.8" stroke="#F5A623" stroke-width="1.5" opacity="0.1" stroke-linecap="round"/>
  <circle cx="1024.0" cy="360.0" r="5" fill="#4CB648" opacity="0.3"/>
  <rect x="956.8" y="210.4" width="134.4" height="129.6" rx="8" fill="#4CB648" opacity="0.07"/>
  <rect x="956.8" y="210.4" width="134.4" height="129.6" rx="8" fill="none" stroke="#4CB648" stroke-width="1" opacity="0.2"/>
  <line x1="1024.0" y1="355.0" x2="1024.0" y2="340.0" stroke="#4CB648" stroke-width="0.8" opacity="0.15"/>
  <line x1="982.1" y1="275.2" x2="1065.9" y2="275.2" stroke="#4CB648" stroke-width="1.5" opacity="0.1" stroke-linecap="round"/>

</svg>