<svg xmlns="http://www.w3.org/2000/svg" viewBox="0 0 1280 720" fill="none">
<defs>
  <linearGradient id="bg-25-6" x1="0" y1="0" x2="1" y2="1">
    <stop offset="0%" stop-color="#4CB648" stop-opacity="0.05"/>
    <stop offset="100%" stop-color="#F5A623" stop-opacity="0.03"/>
  </linearGradient>
</defs>
  <rect width="1280" height="720" fill="url(#bg-25-6)"/>
  <path d="M 637.6 341.3 C 684.5 333.5, 761.2 351.6, 801.6 386.4 C 842.0 421.3, 886.1 501.7, 880.1 550.4 C 874.1 599.1, 806.2 651.4, 765.8 678.6 C 725.4 705.8, 680.2 713.7, 637.6 713.6 C 595.0 713.4, 550.5 704.9, 510.3 677.7 C 470.0 650.5, 394.4 591.2, 396.1 550.4 C 397.7 509.6, 479.9 467.8, 520.1 432.9 C 560.4 398.1, 590.7 349.0, 637.6 341.3 Z" fill="#4CB648" opacity="0.06"/>
  <circle cx="908.8" cy="70.9" r="3.3" fill="#4CB648" opacity="0.10"/>
  <circle cx="886.8" cy="93.4" r="1.7" fill="#4CB648" opacity="0.10"/>
  <circle cx="532.4" cy="627.0" r="3.0" fill="#4CB648" opacity="0.10"/>
  <circle cx="132.6" cy="174.4" r="2.2" fill="#4CB648" opacity="0.10"/>
  <circle cx="898.3" cy="395.3" r="4.0" fill="#4CB648" opacity="0.10"/>
  <circle cx="77.4" cy="565.3" r="3.7" fill="#4CB648" opacity="0.10"/>
  <circle cx="1023.4" cy="662.3" r="1.7" fill="#4CB648" opacity="0.10"/>
  <path d="M 640.0 180.0 C 690.0 216.0, 700.0 324.0, 695.0 432.0 C 690.0 504.0, 670.0 561.6, 640.0 576.0" fill="none" stroke="#4CB648" stroke-width="2" opacity="0.2" stroke-linecap="round"/>
  <path d="M 640.0 180.0 C 590.0 216.0, 580.0 324.0, 585.0 432.0 C 590.0 504.0, 610.0 561.6, 640.0 576.0" fill="none" stroke="#4CB648" stroke-width="2" opacity="0.2" stroke-linecap="round"/>
  <circle cx="640.0" cy="244.8" r="18.4" fill="#4CB648" opacity="0.12"/>
  <circle cx="640.0" cy="244.8" r="18.4" fill="none" stroke="#4CB648" stroke-width="1.5" opacity="0.3"/>
  <circle cx="625.0" cy="374.4" r="19.7" fill="#F5A623" opacity="0.12"/>
  <circle cx="625.0" cy="374.4" r="19.7" fill="none" stroke="#F5A623" stroke-width="1.5" opacity="0.3"/>
  <circle cx="660.0" cy="446.4" r="20.2" fill="#4CB648" opacity="0.12"/>
  <circle cx="660.0" cy="446.4" r="20.2" fill="none" stroke="#4CB648" stroke-width="1.5" opacity="0.3"/>
  <line x1="640.0" y1="244.8" x2="625.0" y2="374.4" stroke="#4CB648" stroke-width="1.5" opacity="0.15" stroke-dasharray="4 3"/>
  <circle cx="636.3" cy="277.2" r="2" fill="#F5A623" opacity="0.2"/>
  <circle cx="632.5" cy="309.6" r="2" fill="#F5A623" opacity="0.2"/>
  <circle cx="628.8" cy="342.0" r="2" fill="#F5A623" opacity="0.2"/>
  <line x1="625.0" y1="374.4" x2="660.0" y2="446.4" stroke="#4CB648" stroke-width="1.5" opacity="0.15" stroke-dasharray="4 3"/>
  <circle cx="633.8" cy="392.4" r="2" fill="#F5A623" opacity="0.2"/>
  <circle cx="642.5" cy="410.4" r="2" fill="#F5A623" opacity="0.2"/>
  <circle cx="651.3" cy="428.4" r="2" fill="#F5A623" opacity="0.2"/>

</svg>