<svg xmlns="http://www.w3.org/2000/svg" viewBox="0 0 1280 720" fill="none">
<defs>
  <linearGradient id="bg-grad-21" x1="0" y1="0" x2="1" y2="1">
    <stop offset="0%" stop-color="#F5A623" stop-opacity="0.06"/>
    <stop offset="100%" stop-color="#F5C518" stop-opacity="0.03"/>
  </linearGradient>
</defs>
  <rect width="1280" height="720" fill="url(#bg-grad-21)"/>
  <path d="M 272.5 378.1 C 297.3 384.9, 310.5 434.0, 326.7 456.1 C 342.8 478.1, 364.4 487.4, 369.2 510.3 C 374.0 533.1, 371.6 580.0, 355.5 593.3 C 339.4 606.6, 296.4 594.0, 272.5 590.2 C 248.5 586.5, 233.2 584.0, 212.0 570.7 C 190.8 557.4, 151.0 536.1, 145.3 510.3 C 139.5 484.4, 156.5 437.5, 177.7 415.5 C 198.9 393.5, 247.6 371.4, 272.5 378.1 Z" fill="#F5A623" opacity="0.08"/>
  <path d="M 377.3 231.9 C 427.7 231.3, 499.4 298.8, 530.4 342.8 C 561.5 386.8, 567.9 449.1, 563.7 495.9 C 559.4 542.7, 536.0 588.1, 504.9 623.5 C 473.8 658.9, 428.0 700.2, 377.3 708.3 C 326.6 716.4, 233.9 707.7, 200.9 672.3 C 168.0 636.9, 175.2 550.2, 179.7 495.9 C 184.2 441.6, 195.1 390.6, 228.0 346.6 C 260.9 302.6, 326.9 232.5, 377.3 231.9 Z" fill="#F5C518" opacity="0.06"/>
  <path d="M 1068.9 149.2 C 1116.1 151.2, 1161.4 157.3, 1204.5 186.0 C 1247.6 214.8, 1326.8 275.9, 1327.3 321.6 C 1327.8 367.3, 1250.6 416.9, 1207.6 460.3 C 1164.5 503.7, 1115.1 582.0, 1068.9 582.0 C 1022.7 581.9, 976.1 503.6, 930.3 460.2 C 884.5 416.8, 795.4 369.3, 793.9 321.6 C 792.4 273.9, 875.4 202.7, 921.2 173.9 C 967.0 145.2, 1021.7 147.1, 1068.9 149.2 Z" fill="#F5A623" opacity="0.07"/>
  <circle cx="443.3" cy="523.0" r="3.6" fill="#F5A623" opacity="0.15"/>
  <circle cx="865.8" cy="513.9" r="4.9" fill="#F5A623" opacity="0.15"/>
  <circle cx="368.4" cy="284.5" r="2.1" fill="#F5A623" opacity="0.15"/>
  <circle cx="655.1" cy="405.8" r="3.0" fill="#F5A623" opacity="0.15"/>
  <circle cx="290.1" cy="94.6" r="3.2" fill="#F5A623" opacity="0.15"/>
  <circle cx="1153.2" cy="462.6" r="2.4" fill="#F5A623" opacity="0.15"/>
  <circle cx="604.7" cy="162.6" r="3.7" fill="#F5A623" opacity="0.15"/>
  <circle cx="268.9" cy="455.6" r="3.1" fill="#F5A623" opacity="0.15"/>
  <circle cx="1062.4" cy="424.1" r="4.3" fill="#F5A623" opacity="0.15"/>
  <circle cx="1148.8" cy="649.1" r="3.0" fill="#F5A623" opacity="0.15"/>
  <circle cx="875.5" cy="299.7" r="4.0" fill="#F5A623" opacity="0.15"/>
  <circle cx="712.2" cy="539.6" r="4.1" fill="#F5A623" opacity="0.15"/>
  <circle cx="177.4" cy="254.1" r="2.9" fill="#F5A623" opacity="0.15"/>
  <circle cx="111.3" cy="301.3" r="4.8" fill="#F5A623" opacity="0.15"/>
  <circle cx="539.7" cy="139.5" r="5.0" fill="#F5A623" opacity="0.15"/>
  <circle cx="1111.5" cy="371.2" r="2.6" fill="#F5A623" opacity="0.15"/>
  <circle cx="170.1" cy="217.0" r="2.2" fill="#F5A623" opacity="0.15"/>
  <path d="M 80 147.17963244765997 C 424.4588966947049 213.79917371086776, 813.920764438808 631.8691784515977, 1200 586.6546813864261" fill="none" stroke="#F5C518" stroke-width="2" opacity="0.1" stroke-linecap="round"/>

  <circle cx="640" cy="350" r="90" fill="none" stroke="#F5A623" stroke-width="1.5" opacity="0.25"/>
  <line x1="640" y1="260" x2="640" y2="440" stroke="#F5A623" stroke-width="1" opacity="0.15"/>
  <line x1="550" y1="350" x2="730" y2="350" stroke="#F5A623" stroke-width="1" opacity="0.15"/>
  <path d="M 640 260 A 90 90 0 0 1 730 350 L 640 350 Z" fill="#F5A623" opacity="0.12"/>
  <path d="M 730 350 A 90 90 0 0 1 640 440 L 640 350 Z" fill="#F5C518" opacity="0.1"/>
  <path d="M 640 440 A 90 90 0 0 1 550 350 L 640 350 Z" fill="#F5A623" opacity="0.08"/>
  <path d="M 550 350 A 90 90 0 0 1 640 260 L 640 350 Z" fill="#F5C518" opacity="0.14"/>
  <circle cx="685" cy="305" r="4" fill="#F5A623" opacity="0.4"/>
  <circle cx="685" cy="395" r="4" fill="#F5C518" opacity="0.4"/>
  <circle cx="595" cy="395" r="4" fill="#F5A623" opacity="0.35"/>
  <circle cx="595" cy="305" r="4" fill="#F5C518" opacity="0.4"/>
</svg>