<svg xmlns="http://www.w3.org/2000/svg" viewBox="0 0 1280 720" fill="none">
<defs>
  <linearGradient id="bg-21-6" x1="0" y1="0" x2="1" y2="1">
    <stop offset="0%" stop-color="#F5A623" stop-opacity="0.05"/>
    <stop offset="100%" stop-color="#F5C518" stop-opacity="0.03"/>
  </linearGradient>
</defs>
  <rect width="1280" height="720" fill="url(#bg-21-6)"/>
  <path d="M 396.0 197.7 C 436.9 198.0, 480.6 256.4, 517.8 292.5 C 555.0 328.6, 615.6 369.9, 619.3 414.3 C 623.1 458.7, 577.7 525.2, 540.5 558.8 C 503.3 592.5, 447.6 613.0, 396.0 616.4 C 344.4 619.9, 255.8 613.1, 230.9 579.4 C 205.9 545.8, 239.3 462.4, 246.3 414.3 C 253.2 366.2, 247.5 326.9, 272.4 290.8 C 297.4 254.7, 355.1 197.4, 396.0 197.7 Z" fill="#F5A623" opacity="0.06"/>
  <circle cx="1052.5" cy="664.2" r="2.8" fill="#F5A623" opacity="0.07"/>
  <circle cx="610.6" cy="153.4" r="2.3" fill="#F5A623" opacity="0.07"/>
  <circle cx="1163.5" cy="154.9" r="3.8" fill="#F5A623" opacity="0.07"/>
  <circle cx="1086.8" cy="609.4" r="3.1" fill="#F5A623" opacity="0.07"/>
  <circle cx="522.4" cy="556.6" r="3.6" fill="#F5A623" opacity="0.07"/>
  <circle cx="124.6" cy="82.0" r="3.4" fill="#F5A623" opacity="0.07"/>
  <line x1="640.0" y1="144.0" x2="640.0" y2="576.0" stroke="#F5A623" stroke-width="1" opacity="0.15" stroke-dasharray="6 4"/>
  <path d="M 379.8 342.1 C 393.2 342.4, 414.1 353.3, 419.0 363.5 C 423.9 373.6, 415.7 393.6, 409.1 403.0 C 402.6 412.4, 389.8 419.7, 379.8 419.8 C 369.9 419.9, 356.4 413.2, 349.5 403.6 C 342.6 394.0, 333.4 372.5, 338.4 362.2 C 343.5 352.0, 366.4 341.9, 379.8 342.1 Z" fill="#F5C518" opacity="0.07"/>
  <path d="M 403.7 306.5 C 413.4 305.5, 432.8 316.3, 438.1 325.9 C 443.3 335.4, 440.9 352.3, 435.2 363.9 C 429.4 375.5, 415.6 394.6, 403.7 395.4 C 391.8 396.2, 367.9 379.2, 363.9 368.7 C 360.0 358.1, 373.2 342.3, 379.9 332.0 C 386.5 321.6, 394.0 307.5, 403.7 306.5 Z" fill="#F5C518" opacity="0.08"/>
  <path d="M 405.7 301.8 C 419.3 303.7, 431.3 310.4, 436.8 319.5 C 442.2 328.6, 443.6 345.3, 438.4 356.3 C 433.2 367.2, 419.6 383.5, 405.7 385.2 C 391.9 386.9, 363.8 379.3, 355.4 366.5 C 347.0 353.6, 346.7 319.0, 355.1 308.2 C 363.5 297.4, 392.1 299.9, 405.7 301.8 Z" fill="#F5C518" opacity="0.08"/>
  <line x1="281.6" y1="158.4" x2="512.0" y2="158.4" stroke="#F5C518" stroke-width="2" opacity="0.12" stroke-linecap="round"/>
  <path d="M 847.3 389.9 C 863.2 388.0, 888.3 398.7, 902.1 413.0 C 915.9 427.3, 934.1 457.4, 930.2 475.6 C 926.3 493.9, 899.1 512.4, 878.9 522.4 C 858.8 532.4, 826.9 543.9, 809.2 535.7 C 791.5 527.6, 773.3 492.3, 772.8 473.7 C 772.4 455.1, 794.0 438.1, 806.4 424.1 C 818.8 410.1, 831.3 391.7, 847.3 389.9 Z" fill="#F5A623" opacity="0.16"/>
  <path d="M 884.2 307.8 C 893.5 309.4, 899.1 315.1, 906.1 322.0 C 913.1 328.9, 927.9 341.8, 926.3 349.0 C 924.8 356.2, 906.5 360.8, 896.6 365.2 C 886.8 369.6, 873.1 378.6, 867.0 375.3 C 860.8 371.9, 862.5 355.5, 859.7 345.0 C 857.0 334.6, 846.5 318.8, 850.5 312.6 C 854.6 306.4, 875.0 306.2, 884.2 307.8 Z" fill="#F5A623" opacity="0.11"/>
  <path d="M 845.2 226.3 C 858.9 228.3, 872.7 238.0, 878.8 247.4 C 884.9 256.7, 885.0 272.7, 882.0 282.5 C 878.9 292.2, 870.5 299.3, 860.5 305.8 C 850.6 312.4, 831.2 325.7, 822.2 321.9 C 813.2 318.1, 810.7 297.4, 806.4 283.0 C 802.1 268.5, 790.0 244.7, 796.5 235.2 C 803.0 225.8, 831.5 224.3, 845.2 226.3 Z" fill="#F5A623" opacity="0.18"/>
  <path d="M 874.6 189.3 C 890.1 190.0, 910.6 198.3, 918.5 209.2 C 926.4 220.2, 924.6 239.3, 922.0 255.1 C 919.4 270.8, 915.0 297.2, 903.2 303.6 C 891.3 310.0, 863.4 301.7, 850.8 293.6 C 838.3 285.5, 832.1 269.7, 827.8 254.9 C 823.6 240.1, 817.5 215.9, 825.3 205.0 C 833.1 194.0, 859.1 188.6, 874.6 189.3 Z" fill="#F5A623" opacity="0.17"/>
  <path d="M 996.0 415.6 C 1007.8 414.0, 1028.4 427.5, 1037.2 438.9 C 1046.1 450.3, 1052.1 470.6, 1049.0 483.9 C 1045.9 497.2, 1031.4 512.8, 1018.7 518.8 C 1006.0 524.8, 985.0 525.8, 972.9 519.9 C 960.8 513.9, 947.2 495.1, 946.2 483.2 C 945.1 471.2, 958.1 459.4, 966.4 448.2 C 974.7 436.9, 984.2 417.1, 996.0 415.6 Z" fill="#F5A623" opacity="0.17"/>
  <circle cx="816.8" cy="192.0" r="4.2" fill="#F5A623" opacity="0.12"/>
  <circle cx="875.5" cy="424.9" r="4.7" fill="#F5A623" opacity="0.12"/>
  <circle cx="1038.7" cy="231.9" r="3.7" fill="#F5A623" opacity="0.12"/>
  <circle cx="1017.6" cy="494.3" r="2.8" fill="#F5A623" opacity="0.12"/>
  <circle cx="1001.4" cy="489.2" r="3.0" fill="#F5A623" opacity="0.12"/>
  <circle cx="728.5" cy="489.9" r="3.8" fill="#F5A623" opacity="0.12"/>
  <circle cx="921.5" cy="411.9" r="2.9" fill="#F5A623" opacity="0.12"/>
  <circle cx="732.2" cy="223.0" r="3.5" fill="#F5A623" opacity="0.12"/>
  <line x1="768.0" y1="158.4" x2="998.4" y2="158.4" stroke="#F5A623" stroke-width="2.5" opacity="0.2" stroke-linecap="round"/>
  <rect x="635.0" y="355.0" width="10" height="10" fill="#F5A623" opacity="0.2" transform="rotate(45 640.0 360.0)"/>

</svg>