<svg xmlns="http://www.w3.org/2000/svg" viewBox="0 0 1280 720" fill="none">
<defs>
  <linearGradient id="bg-21-3" x1="0" y1="0" x2="1" y2="1">
    <stop offset="0%" stop-color="#F5A623" stop-opacity="0.05"/>
    <stop offset="100%" stop-color="#F5C518" stop-opacity="0.03"/>
  </linearGradient>
</defs>
  <rect width="1280" height="720" fill="url(#bg-21-3)"/>
  <path d="M 875.4 336.8 C 913.6 336.8, 970.2 306.7, 989.8 323.5 C 1009.3 340.4, 995.1 402.4, 992.5 437.9 C 990.0 473.4, 993.8 510.1, 974.3 536.8 C 954.8 563.5, 905.9 600.6, 875.4 598.2 C 844.9 595.7, 812.4 548.7, 791.3 522.0 C 770.2 495.3, 754.1 471.0, 749.0 437.9 C 743.9 404.8, 739.8 340.2, 760.8 323.3 C 781.9 306.5, 837.3 336.8, 875.4 336.8 Z" fill="#F5A623" opacity="0.03"/>
  <path d="M 465.2 152.1 C 497.7 150.8, 545.3 183.2, 566.2 209.6 C 587.1 236.0, 588.2 274.4, 590.7 310.6 C 593.3 346.8, 602.6 397.7, 581.7 427.0 C 560.8 456.4, 503.7 487.2, 465.2 486.8 C 426.8 486.4, 380.5 454.1, 351.1 424.7 C 321.8 395.3, 285.6 345.2, 289.0 310.6 C 292.4 276.0, 342.2 243.4, 371.6 217.0 C 401.0 190.5, 432.8 153.3, 465.2 152.1 Z" fill="#F5C518" opacity="0.06"/>
  <circle cx="367.2" cy="347.0" r="1.5" fill="#F5A623" opacity="0.08"/>
  <circle cx="573.1" cy="162.7" r="4.0" fill="#F5A623" opacity="0.08"/>
  <circle cx="978.2" cy="596.5" r="2.8" fill="#F5A623" opacity="0.08"/>
  <circle cx="682.1" cy="448.6" r="3.4" fill="#F5A623" opacity="0.08"/>
  <circle cx="729.8" cy="226.3" r="2.9" fill="#F5A623" opacity="0.08"/>
  <circle cx="488.6" cy="572.4" r="1.7" fill="#F5A623" opacity="0.08"/>
  <circle cx="168.8" cy="554.6" r="2.5" fill="#F5A623" opacity="0.08"/>
  <circle cx="784.2" cy="577.6" r="3.1" fill="#F5A623" opacity="0.08"/>
  <circle cx="464.1" cy="194.9" r="2.0" fill="#F5A623" opacity="0.08"/>
  <line x1="256.0" y1="360.0" x2="1024.0" y2="360.0" stroke="#F5A623" stroke-width="2" opacity="0.2" stroke-linecap="round"/>
  <line x1="256.0" y1="360.0" x2="793.6" y2="360.0" stroke="#F5A623" stroke-width="3" opacity="0.15" stroke-linecap="round"/>
  <circle cx="256.0" cy="360.0" r="5" fill="#F5A623" opacity="0.3"/>
  <rect x="188.8" y="210.4" width="134.4" height="129.6" rx="8" fill="#F5A623" opacity="0.07"/>
  <rect x="188.8" y="210.4" width="134.4" height="129.6" rx="8" fill="none" stroke="#F5A623" stroke-width="1" opacity="0.2"/>
  <line x1="256.0" y1="355.0" x2="256.0" y2="340.0" stroke="#F5A623" stroke-width="0.8" opacity="0.15"/>
  <line x1="223.2" y1="275.2" x2="288.8" y2="275.2" stroke="#F5A623" stroke-width="1.5" opacity="0.1" stroke-linecap="round"/>
  <circle cx="448.0" cy="360.0" r="5" fill="#F5C518" opacity="0.3"/>
  <rect x="380.8" y="380.0" width="134.4" height="129.6" rx="8" fill="#F5C518" opacity="0.07"/>
  <rect x="380.8" y="380.0" width="134.4" height="129.6" rx="8" fill="none" stroke="#F5C518" stroke-width="1" opacity="0.2"/>
  <line x1="448.0" y1="365.0" x2="448.0" y2="380.0" stroke="#F5C518" stroke-width="0.8" opacity="0.15"/>
  <line x1="410.6" y1="444.8" x2="485.4" y2="444.8" stroke="#F5C518" stroke-width="1.5" opacity="0.1" stroke-linecap="round"/>
  <circle cx="640.0" cy="360.0" r="5" fill="#F5A623" opacity="0.3"/>
  <rect x="572.8" y="210.4" width="134.4" height="129.6" rx="8" fill="#F5A623" opacity="0.07"/>
  <rect x="572.8" y="210.4" width="134.4" height="129.6" rx="8" fill="none" stroke="#F5A623" stroke-width="1" opacity="0.2"/>
  <line x1="640.0" y1="355.0" x2="640.0" y2="340.0" stroke="#F5A623" stroke-width="0.8" opacity="0.15"/>
  <line x1="611.3" y1="275.2" x2="668.7" y2="275.2" stroke="#F5A623" stroke-width="1.5" opacity="0.1" stroke-linecap="round"/>
  <circle cx="832.0" cy="360.0" r="5" fill="#F5C518" opacity="0.3"/>
  <rect x="764.8" y="380.0" width="134.4" height="129.6" rx="8" fill="#F5C518" opacity="0.07"/>
  <rect x="764.8" y="380.0" width="134.4" height="129.6" rx="8" fill="none" stroke="#F5C518" stroke-width="1" opacity="0.2"/>
  <line x1="832.0" y1="365.0" x2="832.0" y2="380.0" stroke="#F5C518" stroke-width="0.8" opacity="0.15"/>
  <line x1="791.2" y1="444.8" x2="872.8" y2="444.8" stroke="#F5C518" stroke-width="1.5" opacity="0.1" stroke-linecap="round"/>
  <circle cx="1024.0" cy="360.0" r="5" fill="#F5A623" opacity="0.3"/>
  <rect x="956.8" y="210.4" width="134.4" height="129.6" rx="8" fill="#F5A623" opacity="0.07"/>
  <rect x="956.8" y="210.4" width="134.4" height="129.6" rx="8" fill="none" stroke="#F5A623" stroke-width="1" opacity="0.2"/>
  <line x1="1024.0" y1="355.0" x2="1024.0" y2="340.0" stroke="#F5A623" stroke-width="0.8" opacity="0.15"/>
  <line x1="984.3" y1="275.2" x2="1063.7" y2="275.2" stroke="#F5A623" stroke-width="1.5" opacity="0.1" stroke-linecap="round"/>

</svg>