<svg xmlns="http://www.w3.org/2000/svg" viewBox="0 0 1280 720" fill="none">
<defs>
  <linearGradient id="bg-21-2" x1="0" y1="0" x2="1" y2="1">
    <stop offset="0%" stop-color="#F5A623" stop-opacity="0.05"/>
    <stop offset="100%" stop-color="#F5C518" stop-opacity="0.03"/>
  </linearGradient>
</defs>
  <rect width="1280" height="720" fill="url(#bg-21-2)"/>
  <path d="M 194.4 -87.0 C 239.6 -88.5, 305.2 -34.6, 334.5 3.9 C 363.7 42.3, 375.9 103.2, 370.0 143.9 C 364.0 184.6, 328.0 216.3, 298.7 248.2 C 269.4 280.1, 230.8 333.7, 194.4 335.3 C 158.1 336.8, 121.6 289.6, 80.6 257.7 C 39.7 225.8, -48.6 184.7, -51.5 143.9 C -54.4 103.1, 22.3 51.3, 63.3 12.8 C 104.3 -25.7, 149.2 -85.5, 194.4 -87.0 Z" fill="#F5A623" opacity="0.05"/>
  <circle cx="1094.8" cy="102.8" r="2.4" fill="#F5A623" opacity="0.07"/>
  <circle cx="714.5" cy="678.6" r="1.7" fill="#F5A623" opacity="0.07"/>
  <circle cx="676.9" cy="461.6" r="3.1" fill="#F5A623" opacity="0.07"/>
  <circle cx="626.1" cy="379.9" r="3.6" fill="#F5A623" opacity="0.07"/>
  <circle cx="1204.4" cy="89.1" r="1.9" fill="#F5A623" opacity="0.07"/>
  <circle cx="931.3" cy="103.1" r="3.6" fill="#F5A623" opacity="0.07"/>
  <circle cx="1011.8" cy="313.4" r="3.1" fill="#F5A623" opacity="0.07"/>
  <circle cx="1149.4" cy="46.2" r="2.0" fill="#F5A623" opacity="0.07"/>
  <line x1="640.0" y1="144.0" x2="640.0" y2="576.0" stroke="#F5A623" stroke-width="1" opacity="0.15" stroke-dasharray="6 4"/>
  <path d="M 428.4 162.7 C 448.5 162.6, 481.5 182.8, 489.5 199.4 C 497.5 216.0, 486.7 248.8, 476.5 262.5 C 466.3 276.2, 444.5 281.5, 428.4 281.6 C 412.2 281.7, 389.4 276.5, 379.4 262.9 C 369.5 249.4, 360.4 216.9, 368.6 200.2 C 376.7 183.5, 408.2 162.8, 428.4 162.7 Z" fill="#F5C518" opacity="0.07"/>
  <path d="M 423.0 237.2 C 432.2 237.5, 444.1 249.1, 448.6 257.6 C 453.2 266.1, 454.4 281.5, 450.2 288.1 C 445.9 294.6, 432.2 296.9, 423.0 297.0 C 413.8 297.1, 399.9 295.5, 395.0 288.6 C 390.1 281.6, 388.8 263.9, 393.4 255.3 C 398.1 246.7, 413.8 236.8, 423.0 237.2 Z" fill="#F5C518" opacity="0.05"/>
  <path d="M 264.3 239.6 C 279.2 238.6, 309.4 245.0, 314.0 255.0 C 318.5 265.0, 300.0 288.2, 291.8 299.5 C 283.5 310.8, 275.8 321.5, 264.3 322.8 C 252.8 324.2, 229.2 318.1, 222.6 307.8 C 215.9 297.4, 217.5 272.0, 224.4 260.7 C 231.4 249.3, 249.4 240.5, 264.3 239.6 Z" fill="#F5C518" opacity="0.07"/>
  <line x1="281.6" y1="158.4" x2="512.0" y2="158.4" stroke="#F5C518" stroke-width="2" opacity="0.12" stroke-linecap="round"/>
  <path d="M 794.1 251.8 C 809.6 251.3, 835.1 257.9, 842.7 269.0 C 850.4 280.0, 845.1 305.6, 840.0 318.2 C 834.8 330.8, 824.2 336.7, 811.9 344.7 C 799.6 352.7, 777.5 370.4, 766.0 366.1 C 754.5 361.9, 745.8 335.0, 743.1 319.4 C 740.4 303.7, 741.1 283.5, 749.6 272.3 C 758.1 261.0, 778.6 252.4, 794.1 251.8 Z" fill="#F5A623" opacity="0.14"/>
  <path d="M 839.5 360.1 C 850.3 361.5, 861.2 376.5, 866.4 385.6 C 871.6 394.6, 872.4 404.9, 870.6 414.2 C 868.9 423.5, 863.1 438.5, 856.0 441.4 C 848.9 444.2, 838.0 435.2, 827.8 431.2 C 817.7 427.2, 799.6 426.2, 795.2 417.2 C 790.8 408.1, 794.1 386.3, 801.5 376.8 C 808.9 367.2, 828.7 358.6, 839.5 360.1 Z" fill="#F5A623" opacity="0.11"/>
  <path d="M 904.7 234.4 C 923.6 234.6, 946.1 247.5, 960.5 263.0 C 974.9 278.5, 994.1 306.5, 991.3 327.3 C 988.4 348.1, 963.4 379.7, 943.4 387.9 C 923.5 396.1, 887.0 387.8, 871.5 376.4 C 856.1 365.1, 854.7 338.9, 850.6 319.9 C 846.6 300.8, 838.4 276.1, 847.5 261.8 C 856.5 247.6, 885.9 234.2, 904.7 234.4 Z" fill="#F5A623" opacity="0.13"/>
  <path d="M 795.8 191.3 C 807.1 191.1, 826.2 200.9, 830.9 209.7 C 835.7 218.5, 827.7 234.2, 824.4 244.3 C 821.1 254.3, 818.6 265.8, 811.3 270.0 C 804.0 274.2, 791.4 273.0, 780.4 269.5 C 769.5 266.0, 748.8 258.8, 745.8 249.1 C 742.9 239.4, 754.3 221.0, 762.7 211.3 C 771.0 201.7, 784.4 191.6, 795.8 191.3 Z" fill="#F5A623" opacity="0.17"/>
  <path d="M 795.8 397.5 C 810.9 396.7, 834.5 413.7, 844.1 427.3 C 853.7 440.8, 857.3 464.2, 853.2 478.9 C 849.1 493.6, 832.9 509.8, 819.7 515.3 C 806.4 520.8, 784.6 518.6, 773.6 512.0 C 762.5 505.4, 756.9 488.8, 753.5 475.4 C 750.1 462.1, 746.3 444.9, 753.4 432.0 C 760.4 419.0, 780.7 398.2, 795.8 397.5 Z" fill="#F5A623" opacity="0.11"/>
  <circle cx="1028.6" cy="247.1" r="3.6" fill="#F5A623" opacity="0.12"/>
  <circle cx="1084.5" cy="371.3" r="4.4" fill="#F5A623" opacity="0.12"/>
  <circle cx="984.2" cy="406.9" r="4.4" fill="#F5A623" opacity="0.12"/>
  <circle cx="967.0" cy="341.9" r="2.4" fill="#F5A623" opacity="0.12"/>
  <circle cx="1066.2" cy="182.1" r="2.7" fill="#F5A623" opacity="0.12"/>
  <circle cx="826.0" cy="500.4" r="2.3" fill="#F5A623" opacity="0.12"/>
  <circle cx="944.0" cy="418.4" r="2.0" fill="#F5A623" opacity="0.12"/>
  <circle cx="981.5" cy="357.1" r="3.0" fill="#F5A623" opacity="0.12"/>
  <line x1="768.0" y1="158.4" x2="998.4" y2="158.4" stroke="#F5A623" stroke-width="2.5" opacity="0.2" stroke-linecap="round"/>
  <rect x="635.0" y="355.0" width="10" height="10" fill="#F5A623" opacity="0.2" transform="rotate(45 640.0 360.0)"/>

</svg>