<svg xmlns="http://www.w3.org/2000/svg" viewBox="0 0 1280 720" fill="none">
<defs>
  <linearGradient id="bg-grad-20" x1="0" y1="0" x2="1" y2="1">
    <stop offset="0%" stop-color="#F5C518" stop-opacity="0.06"/>
    <stop offset="100%" stop-color="#F5A623" stop-opacity="0.03"/>
  </linearGradient>
</defs>
  <rect width="1280" height="720" fill="url(#bg-grad-20)"/>
  <path d="M 370.5 281.0 C 434.5 274.9, 533.3 325.6, 580.7 376.5 C 628.2 427.5, 664.9 526.3, 655.3 586.7 C 645.6 647.1, 570.2 704.6, 522.7 738.9 C 475.3 773.2, 418.1 795.9, 370.5 792.7 C 323.0 789.5, 277.6 754.2, 237.4 719.8 C 197.2 685.5, 135.9 637.9, 129.2 586.7 C 122.4 535.6, 156.5 463.9, 196.8 413.0 C 237.0 362.0, 306.5 287.0, 370.5 281.0 Z" fill="#F5C518" opacity="0.05"/>
  <path d="M 489.4 23.5 C 544.1 30.8, 599.6 62.3, 631.6 98.6 C 663.7 134.8, 678.7 190.2, 681.9 240.8 C 685.0 291.5, 682.8 362.7, 650.7 402.2 C 618.7 441.8, 545.8 475.6, 489.4 478.3 C 432.9 480.9, 342.8 457.6, 312.1 418.1 C 281.5 378.5, 307.1 301.4, 305.6 240.8 C 304.2 180.3, 272.6 91.0, 303.3 54.8 C 333.9 18.5, 434.6 16.2, 489.4 23.5 Z" fill="#F5A623" opacity="0.10"/>
  <circle cx="812.0" cy="358.6" r="4.4" fill="#F5C518" opacity="0.12"/>
  <circle cx="712.1" cy="466.5" r="4.2" fill="#F5C518" opacity="0.12"/>
  <circle cx="927.2" cy="522.9" r="2.9" fill="#F5C518" opacity="0.12"/>
  <circle cx="1045.8" cy="342.9" r="4.4" fill="#F5C518" opacity="0.12"/>
  <circle cx="797.9" cy="584.2" r="4.2" fill="#F5C518" opacity="0.12"/>
  <circle cx="476.2" cy="492.2" r="2.9" fill="#F5C518" opacity="0.12"/>
  <circle cx="759.9" cy="490.9" r="3.0" fill="#F5C518" opacity="0.12"/>
  <circle cx="428.4" cy="280.6" r="4.2" fill="#F5C518" opacity="0.12"/>
  <circle cx="121.2" cy="632.7" r="4.0" fill="#F5C518" opacity="0.12"/>
  <circle cx="867.4" cy="370.7" r="3.3" fill="#F5C518" opacity="0.12"/>
  <circle cx="857.0" cy="83.3" r="3.1" fill="#F5C518" opacity="0.12"/>
  <circle cx="278.9" cy="529.1" r="2.8" fill="#F5C518" opacity="0.12"/>
  <circle cx="593.9" cy="496.9" r="2.0" fill="#F5C518" opacity="0.12"/>
  <circle cx="610.4" cy="188.1" r="2.3" fill="#F5C518" opacity="0.12"/>
  <path d="M 80 263.9658092521131 C 311.12874168902636 360.51926109939814, 971.7444885522127 387.67666718922555, 1200 451.14189172163606" fill="none" stroke="#F5A623" stroke-width="2" opacity="0.1" stroke-linecap="round"/>

  <path d="M 570 340 L 590 280 L 690 280 L 710 340 Z" fill="#F5C518" opacity="0.08" stroke="#F5C518" stroke-width="2" opacity="0.3"/>
  <path d="M 560 340 L 580 440 L 700 440 L 720 340 Z" fill="#F5C518" opacity="0.1" stroke="#F5C518" stroke-width="2" opacity="0.3"/>
  <line x1="555" y1="340" x2="725" y2="340" stroke="#F5A623" stroke-width="2.5" opacity="0.35"/>
  <path d="M 610 280 C 610 240, 640 220, 640 240 C 640 220, 670 240, 670 280" fill="none" stroke="#F5A623" stroke-width="2" opacity="0.3"/>
  <circle cx="620" cy="380" r="8" fill="#F5A623" opacity="0.15"/>
  <circle cx="660" cy="370" r="10" fill="#F5C518" opacity="0.15"/>
  <circle cx="640" cy="400" r="7" fill="#F5A623" opacity="0.12"/>
</svg>