<svg xmlns="http://www.w3.org/2000/svg" viewBox="0 0 1280 720" fill="none">
<defs>
  <linearGradient id="bg-20-2" x1="0" y1="0" x2="1" y2="1">
    <stop offset="0%" stop-color="#F5C518" stop-opacity="0.05"/>
    <stop offset="100%" stop-color="#F5A623" stop-opacity="0.03"/>
  </linearGradient>
</defs>
  <rect width="1280" height="720" fill="url(#bg-20-2)"/>
  <path d="M 580.7 443.7 C 621.2 452.7, 648.7 473.5, 675.4 498.4 C 702.1 523.3, 735.1 555.8, 740.8 593.1 C 746.6 630.5, 736.8 685.8, 710.1 722.5 C 683.4 759.2, 619.0 818.2, 580.7 813.4 C 542.4 808.5, 510.6 730.2, 480.3 693.5 C 450.1 656.7, 407.3 634.6, 399.3 593.1 C 391.3 551.6, 401.9 469.5, 432.2 444.6 C 462.4 419.7, 540.2 434.7, 580.7 443.7 Z" fill="#F5C518" opacity="0.06"/>
  <circle cx="834.5" cy="223.8" r="2.1" fill="#F5C518" opacity="0.06"/>
  <circle cx="398.9" cy="221.1" r="2.4" fill="#F5C518" opacity="0.06"/>
  <circle cx="429.3" cy="238.7" r="3.5" fill="#F5C518" opacity="0.06"/>
  <circle cx="269.9" cy="435.1" r="3.6" fill="#F5C518" opacity="0.06"/>
  <circle cx="953.1" cy="120.6" r="4.0" fill="#F5C518" opacity="0.06"/>
  <circle cx="1120.4" cy="660.3" r="2.8" fill="#F5C518" opacity="0.06"/>
  <circle cx="927.4" cy="104.3" r="3.3" fill="#F5C518" opacity="0.06"/>
  <rect x="351.9" y="175.2" width="576.2" height="86.4" rx="8" fill="#F5C518" opacity="0.08"/>
  <rect x="351.9" y="175.2" width="576.2" height="86.4" rx="8" fill="none" stroke="#F5C518" stroke-width="1.2" opacity="0.25"/>
  <circle cx="640.0" cy="218.4" r="9.4" fill="#F5C518" opacity="0.2"/>
  <line x1="485.7" y1="218.4" x2="810.3" y2="218.4" stroke="#F5C518" stroke-width="1.5" opacity="0.1" stroke-linecap="round"/>
  <rect x="408.8" y="269.6" width="462.4" height="86.4" rx="8" fill="#F5A623" opacity="0.11"/>
  <rect x="408.8" y="269.6" width="462.4" height="86.4" rx="8" fill="none" stroke="#F5A623" stroke-width="1.2" opacity="0.25"/>
  <circle cx="640.0" cy="312.8" r="7.8" fill="#F5A623" opacity="0.2"/>
  <line x1="562.6" y1="312.8" x2="733.4" y2="312.8" stroke="#F5A623" stroke-width="1.5" opacity="0.1" stroke-linecap="round"/>
  <rect x="478.1" y="364.0" width="323.8" height="86.4" rx="8" fill="#F5C518" opacity="0.14"/>
  <rect x="478.1" y="364.0" width="323.8" height="86.4" rx="8" fill="none" stroke="#F5C518" stroke-width="1.2" opacity="0.25"/>
  <circle cx="640.0" cy="407.2" r="7.7" fill="#F5C518" opacity="0.2"/>
  <line x1="567.8" y1="407.2" x2="728.2" y2="407.2" stroke="#F5C518" stroke-width="1.5" opacity="0.1" stroke-linecap="round"/>
  <rect x="558.0" y="458.4" width="164.0" height="86.4" rx="8" fill="#F5A623" opacity="0.17"/>
  <rect x="558.0" y="458.4" width="164.0" height="86.4" rx="8" fill="none" stroke="#F5A623" stroke-width="1.2" opacity="0.25"/>
  <circle cx="640.0" cy="501.6" r="9.3" fill="#F5A623" opacity="0.2"/>
  <line x1="621.1" y1="501.6" x2="674.9" y2="501.6" stroke="#F5A623" stroke-width="1.5" opacity="0.1" stroke-linecap="round"/>

</svg>