<svg xmlns="http://www.w3.org/2000/svg" viewBox="0 0 1280 720" fill="none">
<defs>
  <linearGradient id="bg-20-6" x1="0" y1="0" x2="1" y2="1">
    <stop offset="0%" stop-color="#F5C518" stop-opacity="0.05"/>
    <stop offset="100%" stop-color="#F5A623" stop-opacity="0.03"/>
  </linearGradient>
</defs>
  <rect width="1280" height="720" fill="url(#bg-20-6)"/>
  <path d="M 674.6 143.1 C 717.3 152.2, 752.5 226.5, 775.5 263.4 C 798.5 300.2, 804.0 322.2, 812.5 364.3 C 821.0 406.4, 849.4 490.4, 826.4 516.1 C 803.4 541.9, 717.2 526.9, 674.6 518.9 C 631.9 510.8, 594.3 493.8, 570.8 468.1 C 547.3 442.3, 542.2 407.5, 533.6 364.3 C 525.0 321.1, 495.7 245.8, 519.2 209.0 C 542.7 172.1, 631.8 134.1, 674.6 143.1 Z" fill="#F5C518" opacity="0.07"/>
  <circle cx="1159.6" cy="362.3" r="1.7" fill="#F5C518" opacity="0.11"/>
  <circle cx="1036.5" cy="477.8" r="2.8" fill="#F5C518" opacity="0.11"/>
  <circle cx="301.7" cy="82.7" r="3.7" fill="#F5C518" opacity="0.11"/>
  <circle cx="499.1" cy="607.7" r="2.7" fill="#F5C518" opacity="0.11"/>
  <circle cx="1216.4" cy="531.7" r="1.6" fill="#F5C518" opacity="0.11"/>
  <circle cx="417.0" cy="626.6" r="3.7" fill="#F5C518" opacity="0.11"/>
  <circle cx="1092.9" cy="352.3" r="1.6" fill="#F5C518" opacity="0.11"/>
  <circle cx="1177.7" cy="540.8" r="2.2" fill="#F5C518" opacity="0.11"/>
  <circle cx="861.7" cy="303.8" r="3.1" fill="#F5C518" opacity="0.11"/>
  <circle cx="638.8" cy="274.6" r="3.8" fill="#F5C518" opacity="0.11"/>
  <circle cx="288.0" cy="360.9" r="34.3" fill="#F5C518" opacity="0.1"/>
  <circle cx="288.0" cy="360.9" r="34.3" fill="none" stroke="#F5C518" stroke-width="1.8" opacity="0.3"/>
  <circle cx="288.0" cy="360.9" r="8.5" fill="#F5C518" opacity="0.2"/>
  <path d="M 326.3 360.9 Q 405.3 321.8, 484.3 359.9" fill="none" stroke="#F5C518" stroke-width="1.5" opacity="0.25" stroke-linecap="round"/>
  <circle cx="482.3" cy="359.9" r="3" fill="#F5C518" opacity="0.3"/>
  <circle cx="522.7" cy="353.2" r="34.3" fill="#F5A623" opacity="0.1"/>
  <circle cx="522.7" cy="353.2" r="34.3" fill="none" stroke="#F5A623" stroke-width="1.8" opacity="0.3"/>
  <circle cx="522.7" cy="353.2" r="6.4" fill="#F5A623" opacity="0.2"/>
  <path d="M 561.0 353.2 Q 640.0 335.6, 719.0 373.8" fill="none" stroke="#F5C518" stroke-width="1.5" opacity="0.25" stroke-linecap="round"/>
  <circle cx="717.0" cy="373.8" r="3" fill="#F5C518" opacity="0.3"/>
  <circle cx="757.3" cy="353.6" r="34.3" fill="#F5C518" opacity="0.1"/>
  <circle cx="757.3" cy="353.6" r="34.3" fill="none" stroke="#F5C518" stroke-width="1.8" opacity="0.3"/>
  <circle cx="757.3" cy="353.6" r="6.2" fill="#F5C518" opacity="0.2"/>
  <path d="M 795.7 353.6 Q 874.7 331.2, 953.7 352.8" fill="none" stroke="#F5C518" stroke-width="1.5" opacity="0.25" stroke-linecap="round"/>
  <circle cx="951.7" cy="352.8" r="3" fill="#F5C518" opacity="0.3"/>
  <circle cx="992.0" cy="352.5" r="34.3" fill="#F5A623" opacity="0.1"/>
  <circle cx="992.0" cy="352.5" r="34.3" fill="none" stroke="#F5A623" stroke-width="1.8" opacity="0.3"/>
  <circle cx="992.0" cy="352.5" r="5.9" fill="#F5A623" opacity="0.2"/>

</svg>