<svg xmlns="http://www.w3.org/2000/svg" viewBox="0 0 1280 720" fill="none">
<defs>
  <linearGradient id="bg-20-8" x1="0" y1="0" x2="1" y2="1">
    <stop offset="0%" stop-color="#F5C518" stop-opacity="0.05"/>
    <stop offset="100%" stop-color="#F5A623" stop-opacity="0.03"/>
  </linearGradient>
</defs>
  <rect width="1280" height="720" fill="url(#bg-20-8)"/>
  <path d="M 1020.5 124.0 C 1039.7 129.1, 1048.7 156.9, 1063.2 172.0 C 1077.7 187.2, 1106.9 199.8, 1107.7 214.8 C 1108.4 229.8, 1082.2 248.6, 1067.7 262.0 C 1053.2 275.4, 1039.4 292.2, 1020.5 295.4 C 1001.5 298.6, 966.8 294.7, 954.0 281.3 C 941.1 267.8, 944.3 238.0, 943.3 214.8 C 942.2 191.5, 934.6 156.9, 947.5 141.8 C 960.4 126.7, 1001.2 119.0, 1020.5 124.0 Z" fill="#F5C518" opacity="0.05"/>
  <circle cx="836.8" cy="333.9" r="2.8" fill="#F5C518" opacity="0.09"/>
  <circle cx="836.7" cy="125.6" r="3.5" fill="#F5C518" opacity="0.09"/>
  <circle cx="102.5" cy="186.2" r="2.4" fill="#F5C518" opacity="0.09"/>
  <circle cx="809.0" cy="106.0" r="3.9" fill="#F5C518" opacity="0.09"/>
  <circle cx="818.9" cy="74.4" r="1.9" fill="#F5C518" opacity="0.09"/>
  <circle cx="1154.7" cy="648.9" r="3.4" fill="#F5C518" opacity="0.09"/>
  <circle cx="261.1" cy="598.5" r="3.4" fill="#F5C518" opacity="0.09"/>
  <circle cx="938.2" cy="274.3" r="2.7" fill="#F5C518" opacity="0.09"/>
  <circle cx="503.4" cy="451.3" r="1.6" fill="#F5C518" opacity="0.09"/>
  <circle cx="491.5" cy="215.8" r="3.5" fill="#F5C518" opacity="0.09"/>
  <circle cx="775.5" cy="44.9" r="3.1" fill="#F5C518" opacity="0.09"/>
  <rect x="243.2" y="162.0" width="255.2" height="191.0" rx="10" fill="#F5C518" opacity="0.15"/>
  <rect x="243.2" y="162.0" width="255.2" height="191.0" rx="10" fill="none" stroke="#F5C518" stroke-width="1.2" opacity="0.25"/>
  <circle cx="370.8" cy="187.9" r="15.8" fill="#F5C518" opacity="0.15"/>
  <line x1="293.7" y1="267.1" x2="447.9" y2="267.1" stroke="#F5C518" stroke-width="2" opacity="0.12" stroke-linecap="round"/>
  <line x1="293.6" y1="281.1" x2="448.0" y2="281.1" stroke="#F5C518" stroke-width="2" opacity="0.12" stroke-linecap="round"/>
  <rect x="512.4" y="162.0" width="255.2" height="191.0" rx="10" fill="#F5A623" opacity="0.16"/>
  <rect x="512.4" y="162.0" width="255.2" height="191.0" rx="10" fill="none" stroke="#F5A623" stroke-width="1.2" opacity="0.25"/>
  <circle cx="640.0" cy="189.8" r="11.6" fill="#F5A623" opacity="0.15"/>
  <line x1="572.1" y1="267.1" x2="707.9" y2="267.1" stroke="#F5A623" stroke-width="2" opacity="0.12" stroke-linecap="round"/>
  <line x1="561.5" y1="281.1" x2="718.5" y2="281.1" stroke="#F5A623" stroke-width="2" opacity="0.12" stroke-linecap="round"/>
  <rect x="781.6" y="162.0" width="255.2" height="191.0" rx="10" fill="#F5C518" opacity="0.09"/>
  <rect x="781.6" y="162.0" width="255.2" height="191.0" rx="10" fill="none" stroke="#F5C518" stroke-width="1.2" opacity="0.25"/>
  <circle cx="909.2" cy="185.9" r="12.2" fill="#F5C518" opacity="0.15"/>
  <line x1="816.2" y1="267.1" x2="1002.2" y2="267.1" stroke="#F5C518" stroke-width="2" opacity="0.12" stroke-linecap="round"/>
  <line x1="814.9" y1="281.1" x2="1003.5" y2="281.1" stroke="#F5C518" stroke-width="2" opacity="0.12" stroke-linecap="round"/>
  <rect x="243.2" y="367.0" width="255.2" height="191.0" rx="10" fill="#F5A623" opacity="0.08"/>
  <rect x="243.2" y="367.0" width="255.2" height="191.0" rx="10" fill="none" stroke="#F5A623" stroke-width="1.2" opacity="0.25"/>
  <circle cx="370.8" cy="391.9" r="15.1" fill="#F5A623" opacity="0.15"/>
  <line x1="287.1" y1="472.1" x2="454.5" y2="472.1" stroke="#F5A623" stroke-width="2" opacity="0.12" stroke-linecap="round"/>
  <line x1="303.3" y1="486.1" x2="438.3" y2="486.1" stroke="#F5A623" stroke-width="2" opacity="0.12" stroke-linecap="round"/>
  <rect x="512.4" y="367.0" width="255.2" height="191.0" rx="10" fill="#F5C518" opacity="0.09"/>
  <rect x="512.4" y="367.0" width="255.2" height="191.0" rx="10" fill="none" stroke="#F5C518" stroke-width="1.2" opacity="0.25"/>
  <circle cx="640.0" cy="396.4" r="14.2" fill="#F5C518" opacity="0.15"/>
  <line x1="564.6" y1="472.1" x2="715.4" y2="472.1" stroke="#F5C518" stroke-width="2" opacity="0.12" stroke-linecap="round"/>
  <line x1="562.7" y1="486.1" x2="717.3" y2="486.1" stroke="#F5C518" stroke-width="2" opacity="0.12" stroke-linecap="round"/>
  <rect x="781.6" y="367.0" width="255.2" height="191.0" rx="10" fill="#F5A623" opacity="0.10"/>
  <rect x="781.6" y="367.0" width="255.2" height="191.0" rx="10" fill="none" stroke="#F5A623" stroke-width="1.2" opacity="0.25"/>
  <circle cx="909.2" cy="389.1" r="13.5" fill="#F5A623" opacity="0.15"/>
  <line x1="828.2" y1="472.1" x2="990.2" y2="472.1" stroke="#F5A623" stroke-width="2" opacity="0.12" stroke-linecap="round"/>
  <line x1="815.6" y1="486.1" x2="1002.8" y2="486.1" stroke="#F5A623" stroke-width="2" opacity="0.12" stroke-linecap="round"/>

</svg>