<svg xmlns="http://www.w3.org/2000/svg" viewBox="0 0 1280 720" fill="none">
<defs>
  <linearGradient id="bg-20-3" x1="0" y1="0" x2="1" y2="1">
    <stop offset="0%" stop-color="#F5C518" stop-opacity="0.05"/>
    <stop offset="100%" stop-color="#F5A623" stop-opacity="0.03"/>
  </linearGradient>
</defs>
  <rect width="1280" height="720" fill="url(#bg-20-3)"/>
  <path d="M 989.5 429.9 C 1008.5 429.2, 1034.3 442.8, 1048.4 457.2 C 1062.6 471.5, 1075.4 497.4, 1074.4 516.1 C 1073.4 534.7, 1056.5 551.8, 1042.4 568.9 C 1028.2 586.1, 1011.4 614.8, 989.5 619.0 C 967.7 623.3, 927.9 611.4, 911.4 594.2 C 894.8 577.1, 886.6 538.3, 890.4 516.1 C 894.2 493.8, 917.9 475.3, 934.4 460.9 C 950.9 446.5, 970.5 430.5, 989.5 429.9 Z" fill="#F5C518" opacity="0.07"/>
  <path d="M 742.6 107.9 C 786.6 111.5, 838.5 131.5, 863.6 160.5 C 888.7 189.4, 894.1 242.0, 893.2 281.4 C 892.3 320.8, 883.2 360.6, 858.1 396.9 C 833.0 433.1, 789.2 490.8, 742.6 498.9 C 696.1 507.0, 601.6 481.6, 578.7 445.3 C 555.8 409.1, 601.6 332.5, 605.2 281.4 C 608.7 230.3, 576.9 167.5, 599.8 138.6 C 622.8 109.7, 698.7 104.2, 742.6 107.9 Z" fill="#F5A623" opacity="0.03"/>
  <circle cx="628.9" cy="313.2" r="3.5" fill="#F5C518" opacity="0.08"/>
  <circle cx="773.3" cy="144.7" r="3.8" fill="#F5C518" opacity="0.08"/>
  <circle cx="1117.4" cy="190.2" r="2.4" fill="#F5C518" opacity="0.08"/>
  <circle cx="1048.1" cy="591.0" r="2.0" fill="#F5C518" opacity="0.08"/>
  <circle cx="253.0" cy="214.0" r="1.9" fill="#F5C518" opacity="0.08"/>
  <circle cx="763.1" cy="176.2" r="3.2" fill="#F5C518" opacity="0.08"/>
  <circle cx="396.2" cy="441.1" r="3.7" fill="#F5C518" opacity="0.08"/>
  <circle cx="1123.4" cy="65.5" r="3.5" fill="#F5C518" opacity="0.08"/>
  <circle cx="959.0" cy="40.0" r="1.7" fill="#F5C518" opacity="0.08"/>
  <line x1="640.0" y1="144.0" x2="640.0" y2="576.0" stroke="#F5C518" stroke-width="1" opacity="0.15" stroke-dasharray="6 4"/>
  <path d="M 411.4 242.4 C 431.9 243.8, 456.8 253.1, 465.6 267.6 C 474.4 282.1, 473.2 316.5, 464.2 329.4 C 455.1 342.3, 430.9 343.8, 411.4 345.0 C 391.8 346.1, 358.4 350.4, 346.9 336.1 C 335.5 321.8, 331.8 274.8, 342.5 259.2 C 353.3 243.6, 390.9 241.0, 411.4 242.4 Z" fill="#F5A623" opacity="0.08"/>
  <path d="M 335.3 265.6 C 352.7 267.8, 367.9 298.8, 375.8 315.6 C 383.6 332.4, 389.0 352.5, 382.3 366.1 C 375.5 379.8, 353.2 396.2, 335.3 397.5 C 317.3 398.8, 285.3 389.9, 274.6 374.0 C 263.9 358.1, 260.9 320.0, 271.0 301.9 C 281.1 283.8, 317.8 263.3, 335.3 265.6 Z" fill="#F5A623" opacity="0.08"/>
  <path d="M 273.5 255.7 C 282.5 255.8, 294.3 270.9, 299.8 280.7 C 305.2 290.6, 310.5 305.1, 306.1 314.7 C 301.7 324.4, 283.8 338.8, 273.5 338.5 C 263.1 338.2, 248.6 322.7, 244.0 312.9 C 239.3 303.2, 240.5 289.3, 245.4 279.7 C 250.3 270.2, 264.4 255.5, 273.5 255.7 Z" fill="#F5A623" opacity="0.05"/>
  <line x1="281.6" y1="158.4" x2="512.0" y2="158.4" stroke="#F5A623" stroke-width="2" opacity="0.12" stroke-linecap="round"/>
  <path d="M 929.0 432.6 C 937.2 432.9, 946.6 449.8, 952.7 458.8 C 958.8 467.7, 966.6 476.6, 965.7 486.1 C 964.8 495.6, 956.6 510.6, 947.3 515.8 C 938.0 521.0, 919.2 522.1, 910.0 517.2 C 900.7 512.2, 892.9 496.2, 891.7 486.2 C 890.6 476.2, 896.9 466.0, 903.1 457.1 C 909.3 448.1, 920.7 432.3, 929.0 432.6 Z" fill="#F5C518" opacity="0.15"/>
  <path d="M 811.9 340.0 C 820.1 339.3, 832.8 337.6, 838.9 343.1 C 845.0 348.6, 851.2 365.8, 848.5 373.0 C 845.7 380.2, 830.3 383.9, 822.4 386.3 C 814.4 388.8, 808.5 390.0, 800.8 387.7 C 793.1 385.5, 778.3 379.5, 776.4 372.7 C 774.6 365.9, 783.9 352.4, 789.8 347.0 C 795.7 341.5, 803.7 340.6, 811.9 340.0 Z" fill="#F5C518" opacity="0.18"/>
  <path d="M 838.2 248.3 C 855.3 244.9, 889.7 246.5, 902.4 259.8 C 915.2 273.2, 921.6 312.1, 914.7 328.6 C 907.8 345.0, 877.2 354.3, 861.0 358.5 C 844.8 362.7, 834.6 358.8, 817.6 353.9 C 800.6 349.0, 762.0 341.4, 759.0 329.2 C 756.0 316.9, 786.4 293.9, 799.6 280.4 C 812.8 266.9, 821.0 251.7, 838.2 248.3 Z" fill="#F5C518" opacity="0.10"/>
  <path d="M 981.8 295.4 C 990.0 296.3, 999.1 304.9, 1003.1 311.2 C 1007.0 317.6, 1006.9 326.0, 1005.7 333.7 C 1004.5 341.3, 1001.7 354.0, 995.7 357.2 C 989.8 360.3, 978.8 356.0, 970.0 352.6 C 961.2 349.3, 945.7 344.9, 943.0 337.1 C 940.2 329.3, 947.3 312.8, 953.8 305.8 C 960.2 298.9, 973.6 294.5, 981.8 295.4 Z" fill="#F5C518" opacity="0.16"/>
  <path d="M 774.7 302.9 C 795.4 304.5, 816.1 300.8, 831.1 313.5 C 846.1 326.2, 867.8 358.9, 864.5 379.0 C 861.1 399.1, 830.9 427.7, 811.1 434.3 C 791.3 440.9, 767.0 427.7, 745.7 418.5 C 724.5 409.4, 690.0 398.4, 683.4 379.3 C 676.9 360.3, 691.2 316.8, 706.4 304.1 C 721.6 291.3, 753.9 301.3, 774.7 302.9 Z" fill="#F5C518" opacity="0.12"/>
  <circle cx="714.3" cy="209.8" r="4.4" fill="#F5C518" opacity="0.12"/>
  <circle cx="902.8" cy="430.8" r="4.6" fill="#F5C518" opacity="0.12"/>
  <circle cx="916.2" cy="441.7" r="2.7" fill="#F5C518" opacity="0.12"/>
  <circle cx="922.7" cy="435.6" r="4.9" fill="#F5C518" opacity="0.12"/>
  <circle cx="857.7" cy="209.1" r="4.2" fill="#F5C518" opacity="0.12"/>
  <circle cx="950.8" cy="505.8" r="2.2" fill="#F5C518" opacity="0.12"/>
  <circle cx="842.0" cy="238.1" r="4.2" fill="#F5C518" opacity="0.12"/>
  <circle cx="862.2" cy="459.6" r="2.1" fill="#F5C518" opacity="0.12"/>
  <line x1="768.0" y1="158.4" x2="998.4" y2="158.4" stroke="#F5C518" stroke-width="2.5" opacity="0.2" stroke-linecap="round"/>
  <rect x="635.0" y="355.0" width="10" height="10" fill="#F5C518" opacity="0.2" transform="rotate(45 640.0 360.0)"/>

</svg>