<svg xmlns="http://www.w3.org/2000/svg" viewBox="0 0 1280 720" fill="none">
<defs>
  <linearGradient id="bg-grad-22" x1="0" y1="0" x2="1" y2="1">
    <stop offset="0%" stop-color="#F5A623" stop-opacity="0.06"/>
    <stop offset="100%" stop-color="#F5C518" stop-opacity="0.03"/>
  </linearGradient>
</defs>
  <rect width="1280" height="720" fill="url(#bg-grad-22)"/>
  <path d="M 824.8 136.6 C 874.2 140.5, 924.9 184.8, 961.3 221.8 C 997.7 258.8, 1032.4 302.2, 1043.0 358.3 C 1053.6 414.4, 1061.3 529.3, 1024.9 558.5 C 988.5 587.7, 889.6 535.5, 824.8 533.6 C 759.9 531.8, 676.8 576.6, 635.7 547.4 C 594.6 518.2, 573.5 416.5, 578.4 358.3 C 583.2 300.2, 623.7 235.3, 664.8 198.4 C 705.9 161.4, 775.4 132.7, 824.8 136.6 Z" fill="#F5A623" opacity="0.08"/>
  <path d="M 214.7 386.5 C 258.6 395.2, 290.6 463.2, 320.3 499.6 C 350.1 536.1, 387.1 564.0, 393.1 605.2 C 399.0 646.4, 385.9 709.7, 356.2 746.7 C 326.5 783.7, 258.0 830.9, 214.7 827.1 C 171.4 823.2, 137.7 760.7, 96.3 723.7 C 54.8 686.7, -27.6 651.2, -34.1 605.2 C -40.7 559.2, 15.7 484.1, 57.2 447.7 C 98.6 411.2, 170.9 377.9, 214.7 386.5 Z" fill="#F5C518" opacity="0.07"/>
  <circle cx="539.8" cy="452.7" r="4.3" fill="#F5A623" opacity="0.13"/>
  <circle cx="991.1" cy="363.4" r="3.1" fill="#F5A623" opacity="0.13"/>
  <circle cx="144.5" cy="590.9" r="4.2" fill="#F5A623" opacity="0.13"/>
  <circle cx="488.7" cy="218.4" r="2.1" fill="#F5A623" opacity="0.13"/>
  <circle cx="1130.6" cy="626.1" r="5.0" fill="#F5A623" opacity="0.13"/>
  <circle cx="297.3" cy="479.2" r="2.5" fill="#F5A623" opacity="0.13"/>
  <circle cx="1032.3" cy="155.5" r="4.4" fill="#F5A623" opacity="0.13"/>
  <circle cx="999.2" cy="516.0" r="2.3" fill="#F5A623" opacity="0.13"/>
  <circle cx="954.5" cy="613.2" r="4.0" fill="#F5A623" opacity="0.13"/>
  <circle cx="260.3" cy="404.5" r="4.7" fill="#F5A623" opacity="0.13"/>
  <circle cx="545.3" cy="191.4" r="4.0" fill="#F5A623" opacity="0.13"/>
  <circle cx="1171.6" cy="594.1" r="4.4" fill="#F5A623" opacity="0.13"/>
  <circle cx="1179.0" cy="511.0" r="3.6" fill="#F5A623" opacity="0.13"/>
  <path d="M 80 259.0712854638696 C 485.1044388487935 327.0948108751327, 983.7571245618165 525.8361246436834, 1200 577.166475681588" fill="none" stroke="#F5C518" stroke-width="2" opacity="0.1" stroke-linecap="round"/>
  <circle cx="580" cy="333.1285220235586" r="7.165727460384369" fill="#F5A623" opacity="0.25"/>
  <line x1="580" y1="340.29424948394296" x2="580" y2="368.95715932548046" stroke="#F5A623" stroke-width="1.7914318650960923" opacity="0.25"/>
  <line x1="566.5642610117793" y1="352.83427253961565" x2="593.4357389882207" y2="352.83427253961565" stroke="#F5A623" stroke-width="1.3435738988220693" opacity="0.2"/>
  <line x1="580" y1="368.95715932548046" x2="571.0428406745195" y2="386.8714779764414" stroke="#F5A623" stroke-width="1.3435738988220693" opacity="0.2"/>
  <line x1="580" y1="368.95715932548046" x2="588.9571593254805" y2="386.8714779764414" stroke="#F5A623" stroke-width="1.3435738988220693" opacity="0.2"/>
  <circle cx="620" cy="313.3191924840212" r="7.114882004261017" fill="#F5C518" opacity="0.25"/>
  <line x1="620" y1="320.4340744882822" x2="620" y2="348.89360250532627" stroke="#F5C518" stroke-width="1.7787205010652543" opacity="0.25"/>
  <line x1="606.6595962420106" y1="332.885117995739" x2="633.3404037579894" y2="332.885117995739" stroke="#F5C518" stroke-width="1.3340403757989407" opacity="0.2"/>
  <line x1="620" y1="348.89360250532627" x2="611.1063974946737" y2="366.6808075159788" stroke="#F5C518" stroke-width="1.3340403757989407" opacity="0.2"/>
  <line x1="620" y1="348.89360250532627" x2="628.8936025053263" y2="366.6808075159788" stroke="#F5C518" stroke-width="1.3340403757989407" opacity="0.2"/>
  <circle cx="660" cy="325.45233176928014" r="6.5460448615252975" fill="#F5A623" opacity="0.25"/>
  <line x1="660" y1="331.9983766308054" x2="660" y2="358.1825560769066" stroke="#F5A623" stroke-width="1.6365112153813244" opacity="0.25"/>
  <line x1="647.7261658846401" y1="343.4539551384747" x2="672.2738341153599" y2="343.4539551384747" stroke="#F5A623" stroke-width="1.2273834115359934" opacity="0.2"/>
  <line x1="660" y1="358.1825560769066" x2="651.8174439230934" y2="374.54766823071986" stroke="#F5A623" stroke-width="1.2273834115359934" opacity="0.2"/>
  <line x1="660" y1="358.1825560769066" x2="668.1825560769066" y2="374.54766823071986" stroke="#F5A623" stroke-width="1.2273834115359934" opacity="0.2"/>
  <circle cx="700" cy="330.526092720218" r="7.859708607941866" fill="#F5C518" opacity="0.25"/>
  <line x1="700" y1="338.38580132815986" x2="700" y2="369.82463575992733" stroke="#F5C518" stroke-width="1.9649271519854665" opacity="0.25"/>
  <line x1="685.263046360109" y1="352.14029139205815" x2="714.736953639891" y2="352.14029139205815" stroke="#F5C518" stroke-width="1.4736953639891" opacity="0.2"/>
  <line x1="700" y1="369.82463575992733" x2="690.1753642400727" y2="389.473907279782" stroke="#F5C518" stroke-width="1.4736953639891" opacity="0.2"/>
  <line x1="700" y1="369.82463575992733" x2="709.8246357599273" y2="389.473907279782" stroke="#F5C518" stroke-width="1.4736953639891" opacity="0.2"/>
  <circle cx="540" cy="342.7938314760104" r="7.254978273063898" fill="#F5A623" opacity="0.25"/>
  <line x1="540" y1="350.0488097490743" x2="540" y2="379.0687228413299" stroke="#F5A623" stroke-width="1.8137445682659745" opacity="0.25"/>
  <line x1="526.3969157380052" y1="362.7450217269361" x2="553.6030842619948" y2="362.7450217269361" stroke="#F5A623" stroke-width="1.360308426199481" opacity="0.2"/>
  <line x1="540" y1="379.0687228413299" x2="530.9312771586701" y2="397.2061685239896" stroke="#F5A623" stroke-width="1.360308426199481" opacity="0.2"/>
  <line x1="540" y1="379.0687228413299" x2="549.0687228413299" y2="397.2061685239896" stroke="#F5A623" stroke-width="1.360308426199481" opacity="0.2"/>
  <circle cx="640" cy="295.6744390502572" r="9.153482919931413" fill="#F5C518" opacity="0.25"/>
  <line x1="640" y1="304.82792197018864" x2="640" y2="341.44185364991426" stroke="#F5C518" stroke-width="2.2883707299828533" opacity="0.25"/>
  <line x1="622.8372195251286" y1="320.84651708006857" x2="657.1627804748714" y2="320.84651708006857" stroke="#F5C518" stroke-width="1.71627804748714" opacity="0.2"/>
  <line x1="640" y1="341.44185364991426" x2="628.5581463500857" y2="364.3255609497428" stroke="#F5C518" stroke-width="1.71627804748714" opacity="0.2"/>
  <line x1="640" y1="341.44185364991426" x2="651.4418536499143" y2="364.3255609497428" stroke="#F5C518" stroke-width="1.71627804748714" opacity="0.2"/>

</svg>