<svg xmlns="http://www.w3.org/2000/svg" viewBox="0 0 1280 720" fill="none">
<defs>
  <linearGradient id="bg-22-4" x1="0" y1="0" x2="1" y2="1">
    <stop offset="0%" stop-color="#F5A623" stop-opacity="0.05"/>
    <stop offset="100%" stop-color="#F5C518" stop-opacity="0.03"/>
  </linearGradient>
</defs>
  <rect width="1280" height="720" fill="url(#bg-22-4)"/>
  <path d="M 1017.1 454.8 C 1056.1 454.1, 1111.1 446.4, 1135.9 468.5 C 1160.7 490.5, 1166.7 548.6, 1165.8 587.2 C 1164.8 625.9, 1155.0 670.2, 1130.2 700.3 C 1105.5 730.4, 1055.8 767.0, 1017.1 768.0 C 978.5 768.9, 920.1 736.1, 898.4 706.0 C 876.7 675.8, 886.4 626.2, 887.0 587.2 C 887.6 548.3, 880.5 494.4, 902.2 472.3 C 923.9 450.2, 978.2 455.4, 1017.1 454.8 Z" fill="#F5A623" opacity="0.03"/>
  <circle cx="697.6" cy="405.0" r="3.1" fill="#F5A623" opacity="0.08"/>
  <circle cx="1093.1" cy="428.4" r="2.8" fill="#F5A623" opacity="0.08"/>
  <circle cx="215.5" cy="334.3" r="3.3" fill="#F5A623" opacity="0.08"/>
  <circle cx="90.7" cy="346.5" r="3.6" fill="#F5A623" opacity="0.08"/>
  <circle cx="552.2" cy="454.8" r="3.8" fill="#F5A623" opacity="0.08"/>
  <circle cx="983.1" cy="100.3" r="1.8" fill="#F5A623" opacity="0.08"/>
  <circle cx="761.8" cy="511.0" r="2.5" fill="#F5A623" opacity="0.08"/>
  <circle cx="102.1" cy="380.0" r="3.0" fill="#F5A623" opacity="0.08"/>
  <line x1="640.0" y1="144.0" x2="640.0" y2="576.0" stroke="#F5A623" stroke-width="1" opacity="0.15" stroke-dasharray="6 4"/>
  <path d="M 436.5 300.7 C 446.1 301.0, 457.6 302.8, 463.8 310.6 C 470.0 318.5, 478.2 338.0, 473.7 347.8 C 469.2 357.7, 447.3 370.9, 436.5 370.0 C 425.7 369.1, 413.8 352.6, 408.7 342.4 C 403.6 332.2, 401.4 315.7, 406.0 308.7 C 410.6 301.8, 426.9 300.4, 436.5 300.7 Z" fill="#F5C518" opacity="0.07"/>
  <path d="M 354.5 437.4 C 371.2 437.3, 395.4 449.3, 405.6 464.7 C 415.9 480.1, 424.6 516.2, 416.0 529.8 C 407.5 543.3, 371.1 548.5, 354.5 546.2 C 337.9 543.9, 324.8 529.5, 316.6 516.1 C 308.3 502.7, 298.9 478.9, 305.2 465.8 C 311.5 452.7, 337.8 437.6, 354.5 437.4 Z" fill="#F5C518" opacity="0.05"/>
  <path d="M 367.7 290.3 C 378.6 291.6, 387.2 309.3, 393.6 320.5 C 399.9 331.7, 410.0 348.3, 405.7 357.3 C 401.4 366.4, 379.6 375.4, 367.7 374.9 C 355.9 374.5, 341.2 364.9, 334.6 354.5 C 328.1 344.2, 322.8 323.4, 328.3 312.7 C 333.9 302.0, 356.9 289.0, 367.7 290.3 Z" fill="#F5C518" opacity="0.05"/>
  <line x1="281.6" y1="158.4" x2="512.0" y2="158.4" stroke="#F5C518" stroke-width="2" opacity="0.12" stroke-linecap="round"/>
  <path d="M 1003.3 401.3 C 1026.4 400.4, 1061.4 409.2, 1075.9 426.3 C 1090.3 443.4, 1095.6 481.1, 1089.9 503.9 C 1084.1 526.7, 1062.4 552.7, 1041.4 563.2 C 1020.3 573.6, 980.9 577.3, 963.6 566.6 C 946.2 555.9, 941.7 521.7, 937.3 499.2 C 932.9 476.7, 926.2 447.8, 937.2 431.4 C 948.2 415.1, 980.2 402.1, 1003.3 401.3 Z" fill="#F5A623" opacity="0.10"/>
  <path d="M 914.3 383.8 C 932.1 383.8, 954.6 397.9, 967.7 412.8 C 980.8 427.7, 995.9 453.7, 993.0 473.4 C 990.1 493.0, 968.5 523.5, 950.5 530.6 C 932.6 537.8, 902.9 525.9, 885.1 516.1 C 867.2 506.2, 847.6 488.8, 843.6 471.5 C 839.5 454.3, 849.0 427.4, 860.8 412.7 C 872.6 398.1, 896.5 383.8, 914.3 383.8 Z" fill="#F5A623" opacity="0.15"/>
  <path d="M 790.2 291.5 C 801.8 292.2, 815.8 318.9, 822.0 331.2 C 828.2 343.4, 828.6 352.3, 827.4 365.0 C 826.2 377.8, 824.5 402.0, 814.9 407.8 C 805.2 413.6, 780.3 406.7, 769.4 399.7 C 758.6 392.7, 752.7 377.9, 750.0 365.7 C 747.2 353.6, 746.0 339.0, 752.7 326.7 C 759.5 314.3, 778.7 290.7, 790.2 291.5 Z" fill="#F5A623" opacity="0.11"/>
  <path d="M 802.3 209.3 C 822.3 211.2, 846.1 214.0, 855.5 226.0 C 864.9 238.0, 862.3 263.7, 858.5 281.3 C 854.7 298.9, 845.8 325.8, 832.7 331.5 C 819.5 337.3, 797.8 323.4, 779.4 315.9 C 761.0 308.5, 729.7 303.5, 722.3 286.7 C 714.9 269.8, 721.9 227.8, 735.2 214.9 C 748.5 202.0, 782.2 207.5, 802.3 209.3 Z" fill="#F5A623" opacity="0.15"/>
  <path d="M 868.3 182.2 C 879.2 181.1, 900.4 183.6, 905.0 191.0 C 909.6 198.5, 899.5 216.5, 895.9 226.6 C 892.3 236.8, 890.6 247.4, 883.4 251.7 C 876.2 256.1, 863.3 256.2, 852.7 252.8 C 842.0 249.4, 821.7 240.7, 819.5 231.5 C 817.4 222.3, 831.7 205.8, 839.8 197.6 C 847.9 189.4, 857.4 183.3, 868.3 182.2 Z" fill="#F5A623" opacity="0.15"/>
  <circle cx="903.6" cy="477.7" r="3.0" fill="#F5A623" opacity="0.12"/>
  <circle cx="830.8" cy="454.7" r="4.1" fill="#F5A623" opacity="0.12"/>
  <circle cx="919.6" cy="499.4" r="3.3" fill="#F5A623" opacity="0.12"/>
  <circle cx="786.6" cy="317.0" r="4.3" fill="#F5A623" opacity="0.12"/>
  <circle cx="961.4" cy="359.9" r="3.8" fill="#F5A623" opacity="0.12"/>
  <circle cx="784.6" cy="331.0" r="2.6" fill="#F5A623" opacity="0.12"/>
  <circle cx="761.5" cy="492.8" r="3.5" fill="#F5A623" opacity="0.12"/>
  <circle cx="758.8" cy="532.7" r="4.1" fill="#F5A623" opacity="0.12"/>
  <line x1="768.0" y1="158.4" x2="998.4" y2="158.4" stroke="#F5A623" stroke-width="2.5" opacity="0.2" stroke-linecap="round"/>
  <rect x="635.0" y="355.0" width="10" height="10" fill="#F5A623" opacity="0.2" transform="rotate(45 640.0 360.0)"/>

</svg>