<svg xmlns="http://www.w3.org/2000/svg" viewBox="0 0 1280 720" fill="none">
<defs>
  <linearGradient id="bg-22-6" x1="0" y1="0" x2="1" y2="1">
    <stop offset="0%" stop-color="#F5A623" stop-opacity="0.05"/>
    <stop offset="100%" stop-color="#F5C518" stop-opacity="0.03"/>
  </linearGradient>
</defs>
  <rect width="1280" height="720" fill="url(#bg-22-6)"/>
  <path d="M 320.4 -26.0 C 358.1 -23.2, 395.5 -2.6, 425.1 23.0 C 454.7 48.6, 493.2 88.1, 497.9 127.7 C 502.6 167.4, 483.0 228.5, 453.4 260.7 C 423.8 292.9, 363.0 322.6, 320.4 320.8 C 277.8 319.1, 227.7 282.3, 198.0 250.1 C 168.2 218.0, 141.7 168.4, 141.9 127.7 C 142.0 87.1, 169.3 32.0, 199.0 6.4 C 228.8 -19.3, 282.7 -28.7, 320.4 -26.0 Z" fill="#F5A623" opacity="0.07"/>
  <circle cx="559.2" cy="75.3" r="1.9" fill="#F5A623" opacity="0.10"/>
  <circle cx="614.9" cy="306.2" r="3.1" fill="#F5A623" opacity="0.10"/>
  <circle cx="88.2" cy="536.0" r="3.0" fill="#F5A623" opacity="0.10"/>
  <circle cx="103.9" cy="102.5" r="2.7" fill="#F5A623" opacity="0.10"/>
  <circle cx="1102.5" cy="78.6" r="1.7" fill="#F5A623" opacity="0.10"/>
  <circle cx="1047.0" cy="522.2" r="2.2" fill="#F5A623" opacity="0.10"/>
  <path d="M 640.0 180.0 C 690.0 216.0, 700.0 324.0, 695.0 432.0 C 690.0 504.0, 670.0 561.6, 640.0 576.0" fill="none" stroke="#F5A623" stroke-width="2" opacity="0.2" stroke-linecap="round"/>
  <path d="M 640.0 180.0 C 590.0 216.0, 580.0 324.0, 585.0 432.0 C 590.0 504.0, 610.0 561.6, 640.0 576.0" fill="none" stroke="#F5A623" stroke-width="2" opacity="0.2" stroke-linecap="round"/>
  <circle cx="640.0" cy="244.8" r="17.0" fill="#F5A623" opacity="0.12"/>
  <circle cx="640.0" cy="244.8" r="17.0" fill="none" stroke="#F5A623" stroke-width="1.5" opacity="0.3"/>
  <circle cx="625.0" cy="374.4" r="16.9" fill="#F5C518" opacity="0.12"/>
  <circle cx="625.0" cy="374.4" r="16.9" fill="none" stroke="#F5C518" stroke-width="1.5" opacity="0.3"/>
  <circle cx="660.0" cy="446.4" r="16.1" fill="#F5A623" opacity="0.12"/>
  <circle cx="660.0" cy="446.4" r="16.1" fill="none" stroke="#F5A623" stroke-width="1.5" opacity="0.3"/>
  <line x1="640.0" y1="244.8" x2="625.0" y2="374.4" stroke="#F5A623" stroke-width="1.5" opacity="0.15" stroke-dasharray="4 3"/>
  <circle cx="636.3" cy="277.2" r="2" fill="#F5C518" opacity="0.2"/>
  <circle cx="632.5" cy="309.6" r="2" fill="#F5C518" opacity="0.2"/>
  <circle cx="628.8" cy="342.0" r="2" fill="#F5C518" opacity="0.2"/>
  <line x1="625.0" y1="374.4" x2="660.0" y2="446.4" stroke="#F5A623" stroke-width="1.5" opacity="0.15" stroke-dasharray="4 3"/>
  <circle cx="633.8" cy="392.4" r="2" fill="#F5C518" opacity="0.2"/>
  <circle cx="642.5" cy="410.4" r="2" fill="#F5C518" opacity="0.2"/>
  <circle cx="651.3" cy="428.4" r="2" fill="#F5C518" opacity="0.2"/>

</svg>