<svg xmlns="http://www.w3.org/2000/svg" viewBox="0 0 1280 720" fill="none">
<defs>
  <linearGradient id="bg-22-7" x1="0" y1="0" x2="1" y2="1">
    <stop offset="0%" stop-color="#F5A623" stop-opacity="0.05"/>
    <stop offset="100%" stop-color="#F5C518" stop-opacity="0.03"/>
  </linearGradient>
</defs>
  <rect width="1280" height="720" fill="url(#bg-22-7)"/>
  <path d="M 950.6 342.7 C 979.6 345.1, 1010.1 351.4, 1030.3 369.1 C 1050.6 386.8, 1066.1 416.3, 1072.1 448.8 C 1078.0 481.4, 1086.4 537.7, 1066.2 564.3 C 1045.9 591.0, 984.8 613.3, 950.6 608.9 C 916.5 604.6, 880.1 565.0, 861.1 538.3 C 842.2 511.6, 837.8 479.4, 837.0 448.8 C 836.2 418.2, 837.5 372.3, 856.4 354.6 C 875.3 336.9, 921.6 340.3, 950.6 342.7 Z" fill="#F5A623" opacity="0.04"/>
  <path d="M 468.9 276.9 C 510.3 284.0, 537.4 343.9, 571.7 377.9 C 606.0 411.8, 678.5 450.2, 674.7 480.6 C 670.9 511.1, 583.3 536.5, 549.0 560.7 C 514.7 585.0, 500.5 621.1, 468.9 626.0 C 437.3 631.0, 385.4 614.5, 359.3 590.3 C 333.1 566.0, 317.7 523.1, 311.7 480.6 C 305.8 438.1, 297.2 369.1, 323.4 335.2 C 349.6 301.2, 427.5 269.8, 468.9 276.9 Z" fill="#F5C518" opacity="0.07"/>
  <circle cx="542.8" cy="223.5" r="4.0" fill="#F5A623" opacity="0.08"/>
  <circle cx="121.6" cy="84.2" r="3.9" fill="#F5A623" opacity="0.08"/>
  <circle cx="653.1" cy="135.9" r="2.7" fill="#F5A623" opacity="0.08"/>
  <circle cx="667.8" cy="184.2" r="2.5" fill="#F5A623" opacity="0.08"/>
  <circle cx="613.7" cy="141.7" r="3.0" fill="#F5A623" opacity="0.08"/>
  <circle cx="191.7" cy="341.1" r="3.2" fill="#F5A623" opacity="0.08"/>
  <circle cx="728.9" cy="212.8" r="1.6" fill="#F5A623" opacity="0.08"/>
  <line x1="256.0" y1="360.0" x2="1024.0" y2="360.0" stroke="#F5A623" stroke-width="2" opacity="0.2" stroke-linecap="round"/>
  <line x1="256.0" y1="360.0" x2="793.6" y2="360.0" stroke="#F5A623" stroke-width="3" opacity="0.15" stroke-linecap="round"/>
  <circle cx="256.0" cy="360.0" r="5" fill="#F5A623" opacity="0.3"/>
  <rect x="188.8" y="210.4" width="134.4" height="129.6" rx="8" fill="#F5A623" opacity="0.07"/>
  <rect x="188.8" y="210.4" width="134.4" height="129.6" rx="8" fill="none" stroke="#F5A623" stroke-width="1" opacity="0.2"/>
  <line x1="256.0" y1="355.0" x2="256.0" y2="340.0" stroke="#F5A623" stroke-width="0.8" opacity="0.15"/>
  <line x1="223.2" y1="275.2" x2="288.8" y2="275.2" stroke="#F5A623" stroke-width="1.5" opacity="0.1" stroke-linecap="round"/>
  <circle cx="448.0" cy="360.0" r="5" fill="#F5C518" opacity="0.3"/>
  <rect x="380.8" y="380.0" width="134.4" height="129.6" rx="8" fill="#F5C518" opacity="0.07"/>
  <rect x="380.8" y="380.0" width="134.4" height="129.6" rx="8" fill="none" stroke="#F5C518" stroke-width="1" opacity="0.2"/>
  <line x1="448.0" y1="365.0" x2="448.0" y2="380.0" stroke="#F5C518" stroke-width="0.8" opacity="0.15"/>
  <line x1="405.8" y1="444.8" x2="490.2" y2="444.8" stroke="#F5C518" stroke-width="1.5" opacity="0.1" stroke-linecap="round"/>
  <circle cx="640.0" cy="360.0" r="5" fill="#F5A623" opacity="0.3"/>
  <rect x="572.8" y="210.4" width="134.4" height="129.6" rx="8" fill="#F5A623" opacity="0.07"/>
  <rect x="572.8" y="210.4" width="134.4" height="129.6" rx="8" fill="none" stroke="#F5A623" stroke-width="1" opacity="0.2"/>
  <line x1="640.0" y1="355.0" x2="640.0" y2="340.0" stroke="#F5A623" stroke-width="0.8" opacity="0.15"/>
  <line x1="599.9" y1="275.2" x2="680.1" y2="275.2" stroke="#F5A623" stroke-width="1.5" opacity="0.1" stroke-linecap="round"/>
  <circle cx="832.0" cy="360.0" r="5" fill="#F5C518" opacity="0.3"/>
  <rect x="764.8" y="380.0" width="134.4" height="129.6" rx="8" fill="#F5C518" opacity="0.07"/>
  <rect x="764.8" y="380.0" width="134.4" height="129.6" rx="8" fill="none" stroke="#F5C518" stroke-width="1" opacity="0.2"/>
  <line x1="832.0" y1="365.0" x2="832.0" y2="380.0" stroke="#F5C518" stroke-width="0.8" opacity="0.15"/>
  <line x1="798.2" y1="444.8" x2="865.8" y2="444.8" stroke="#F5C518" stroke-width="1.5" opacity="0.1" stroke-linecap="round"/>
  <circle cx="1024.0" cy="360.0" r="5" fill="#F5A623" opacity="0.3"/>
  <rect x="956.8" y="210.4" width="134.4" height="129.6" rx="8" fill="#F5A623" opacity="0.07"/>
  <rect x="956.8" y="210.4" width="134.4" height="129.6" rx="8" fill="none" stroke="#F5A623" stroke-width="1" opacity="0.2"/>
  <line x1="1024.0" y1="355.0" x2="1024.0" y2="340.0" stroke="#F5A623" stroke-width="0.8" opacity="0.15"/>
  <line x1="993.2" y1="275.2" x2="1054.8" y2="275.2" stroke="#F5A623" stroke-width="1.5" opacity="0.1" stroke-linecap="round"/>

</svg>