<svg xmlns="http://www.w3.org/2000/svg" viewBox="0 0 1280 720" fill="none">
<defs>
  <linearGradient id="bg-22-2" x1="0" y1="0" x2="1" y2="1">
    <stop offset="0%" stop-color="#F5A623" stop-opacity="0.05"/>
    <stop offset="100%" stop-color="#F5C518" stop-opacity="0.03"/>
  </linearGradient>
</defs>
  <rect width="1280" height="720" fill="url(#bg-22-2)"/>
  <path d="M 436.4 100.8 C 492.8 102.9, 565.4 97.5, 599.5 129.5 C 633.6 161.4, 646.4 243.7, 640.9 292.6 C 635.4 341.4, 600.6 385.9, 566.6 422.7 C 532.5 459.5, 478.4 514.5, 436.4 513.1 C 394.4 511.7, 354.1 450.9, 314.8 414.2 C 275.5 377.4, 209.5 342.0, 200.6 292.6 C 191.6 243.1, 221.8 149.2, 261.1 117.2 C 300.4 85.3, 380.0 98.8, 436.4 100.8 Z" fill="#F5A623" opacity="0.06"/>
  <circle cx="1094.4" cy="75.5" r="2.1" fill="#F5A623" opacity="0.08"/>
  <circle cx="538.2" cy="312.5" r="3.8" fill="#F5A623" opacity="0.08"/>
  <circle cx="614.7" cy="123.8" r="2.8" fill="#F5A623" opacity="0.08"/>
  <circle cx="142.0" cy="543.9" r="3.2" fill="#F5A623" opacity="0.08"/>
  <circle cx="777.9" cy="175.0" r="3.4" fill="#F5A623" opacity="0.08"/>
  <circle cx="399.7" cy="256.4" r="1.6" fill="#F5A623" opacity="0.08"/>
  <circle cx="870.7" cy="675.7" r="3.9" fill="#F5A623" opacity="0.08"/>
  <circle cx="1042.3" cy="677.6" r="3.6" fill="#F5A623" opacity="0.08"/>
  <circle cx="542.4" cy="159.4" r="2.8" fill="#F5A623" opacity="0.08"/>
  <circle cx="746.9" cy="543.9" r="3.6" fill="#F5A623" opacity="0.08"/>
  <line x1="640.0" y1="144.0" x2="640.0" y2="576.0" stroke="#F5A623" stroke-width="1" opacity="0.15" stroke-dasharray="6 4"/>
  <path d="M 409.0 239.5 C 425.7 240.6, 443.1 244.9, 453.6 258.5 C 464.2 272.0, 479.7 304.3, 472.2 320.8 C 464.8 337.3, 429.5 357.7, 409.0 357.4 C 388.5 357.1, 358.3 336.4, 349.1 318.8 C 339.8 301.3, 343.5 265.4, 353.4 252.2 C 363.4 239.0, 392.3 238.5, 409.0 239.5 Z" fill="#F5C518" opacity="0.07"/>
  <path d="M 261.1 260.4 C 275.7 261.7, 289.5 282.5, 298.2 297.3 C 307.0 312.1, 319.8 335.1, 313.6 349.1 C 307.4 363.0, 275.6 382.5, 261.1 380.8 C 246.6 379.1, 234.8 353.9, 226.4 338.7 C 218.0 323.6, 204.9 302.7, 210.6 289.6 C 216.4 276.6, 246.5 259.1, 261.1 260.4 Z" fill="#F5C518" opacity="0.07"/>
  <path d="M 372.1 262.9 C 383.5 262.7, 402.1 284.2, 407.5 296.3 C 412.9 308.4, 410.5 324.8, 404.6 335.5 C 398.7 346.2, 382.8 360.4, 372.1 360.3 C 361.5 360.2, 346.3 345.2, 340.8 334.8 C 335.4 324.4, 334.2 309.8, 339.4 297.9 C 344.6 285.9, 360.8 263.2, 372.1 262.9 Z" fill="#F5C518" opacity="0.04"/>
  <line x1="281.6" y1="158.4" x2="512.0" y2="158.4" stroke="#F5C518" stroke-width="2" opacity="0.12" stroke-linecap="round"/>
  <path d="M 780.7 237.1 C 788.3 236.0, 804.3 234.7, 807.6 239.5 C 810.9 244.2, 802.8 257.6, 800.3 265.5 C 797.9 273.3, 797.7 284.0, 792.9 286.4 C 788.1 288.8, 776.7 283.5, 771.5 280.0 C 766.3 276.4, 763.5 271.0, 761.8 265.3 C 760.2 259.5, 758.3 250.4, 761.5 245.7 C 764.6 241.0, 773.0 238.1, 780.7 237.1 Z" fill="#F5A623" opacity="0.11"/>
  <path d="M 960.2 340.8 C 978.4 340.0, 1010.6 341.1, 1017.6 352.2 C 1024.7 363.4, 1007.6 390.8, 1002.4 407.7 C 997.3 424.6, 999.2 444.4, 987.0 453.7 C 974.7 462.9, 943.5 470.2, 928.8 463.2 C 914.1 456.3, 902.3 429.8, 898.9 412.0 C 895.4 394.3, 898.0 368.5, 908.2 356.6 C 918.4 344.7, 941.9 341.5, 960.2 340.8 Z" fill="#F5A623" opacity="0.10"/>
  <path d="M 1012.9 421.3 C 1018.8 421.7, 1025.4 425.5, 1029.0 429.9 C 1032.6 434.3, 1035.3 441.6, 1034.5 447.7 C 1033.7 453.8, 1029.6 463.8, 1024.3 466.5 C 1019.0 469.1, 1009.8 466.5, 1002.8 463.8 C 995.7 461.0, 983.3 455.9, 981.8 449.9 C 980.2 443.8, 988.3 432.1, 993.5 427.3 C 998.7 422.6, 1006.9 420.9, 1012.9 421.3 Z" fill="#F5A623" opacity="0.17"/>
  <path d="M 917.2 202.7 C 927.2 204.8, 934.0 214.7, 939.2 222.0 C 944.3 229.3, 949.1 238.1, 948.1 246.5 C 947.1 255.0, 940.4 269.6, 933.2 272.6 C 926.0 275.7, 915.5 268.6, 905.0 264.8 C 894.5 261.1, 874.5 259.5, 870.2 250.2 C 865.9 240.9, 871.4 217.1, 879.2 209.2 C 887.1 201.3, 907.2 200.6, 917.2 202.7 Z" fill="#F5A623" opacity="0.16"/>
  <path d="M 866.8 321.9 C 873.7 321.0, 887.6 324.0, 891.0 329.3 C 894.5 334.5, 889.4 345.5, 887.6 353.3 C 885.8 361.0, 885.0 373.3, 880.0 375.8 C 874.9 378.3, 864.8 371.6, 857.4 368.2 C 850.0 364.9, 836.8 361.2, 835.6 355.7 C 834.4 350.2, 844.8 340.7, 850.0 335.1 C 855.2 329.5, 860.0 322.9, 866.8 321.9 Z" fill="#F5A623" opacity="0.16"/>
  <circle cx="748.1" cy="199.4" r="4.4" fill="#F5A623" opacity="0.12"/>
  <circle cx="927.6" cy="480.9" r="2.1" fill="#F5A623" opacity="0.12"/>
  <circle cx="856.9" cy="491.2" r="3.2" fill="#F5A623" opacity="0.12"/>
  <circle cx="983.6" cy="527.4" r="4.7" fill="#F5A623" opacity="0.12"/>
  <circle cx="740.0" cy="398.3" r="4.2" fill="#F5A623" opacity="0.12"/>
  <circle cx="868.0" cy="422.3" r="2.2" fill="#F5A623" opacity="0.12"/>
  <circle cx="818.2" cy="379.3" r="2.1" fill="#F5A623" opacity="0.12"/>
  <circle cx="908.5" cy="419.2" r="4.9" fill="#F5A623" opacity="0.12"/>
  <line x1="768.0" y1="158.4" x2="998.4" y2="158.4" stroke="#F5A623" stroke-width="2.5" opacity="0.2" stroke-linecap="round"/>
  <rect x="635.0" y="355.0" width="10" height="10" fill="#F5A623" opacity="0.2" transform="rotate(45 640.0 360.0)"/>

</svg>