<svg xmlns="http://www.w3.org/2000/svg" viewBox="0 0 1280 720" fill="none">
<defs>
  <linearGradient id="bg-grad-5" x1="0" y1="0" x2="1" y2="1">
    <stop offset="0%" stop-color="#4CB648" stop-opacity="0.06"/>
    <stop offset="100%" stop-color="#2DAA6E" stop-opacity="0.03"/>
  </linearGradient>
</defs>
  <rect width="1280" height="720" fill="url(#bg-grad-5)"/>
  <path d="M 370.1 388.5 C 400.2 393.0, 415.6 437.4, 447.0 462.5 C 478.4 487.7, 549.0 504.3, 558.4 539.4 C 567.9 574.5, 535.2 651.3, 503.8 673.1 C 472.4 694.9, 405.2 679.9, 370.1 670.4 C 335.0 661.0, 317.9 638.3, 293.0 616.5 C 268.1 594.6, 225.0 569.6, 220.6 539.4 C 216.1 509.2, 241.2 460.5, 266.1 435.4 C 291.0 410.2, 340.0 384.0, 370.1 388.5 Z" fill="#4CB648" opacity="0.07"/>
  <path d="M 466.5 -52.3 C 527.7 -64.1, 630.8 -14.2, 685.4 37.3 C 740.0 88.7, 799.7 188.8, 794.1 256.2 C 788.5 323.6, 706.6 398.8, 652.0 441.7 C 597.4 484.7, 534.0 508.2, 466.5 513.9 C 398.9 519.6, 289.5 518.8, 246.9 475.8 C 204.2 432.9, 198.9 317.6, 210.7 256.2 C 222.6 194.9, 275.2 159.1, 317.9 107.6 C 360.5 56.2, 405.2 -40.6, 466.5 -52.3 Z" fill="#2DAA6E" opacity="0.08"/>
  <path d="M 1065.2 296.6 C 1095.0 297.4, 1124.8 319.1, 1152.3 341.0 C 1179.9 362.9, 1222.8 391.4, 1230.6 428.1 C 1238.3 464.8, 1226.1 530.3, 1198.6 561.4 C 1171.0 592.5, 1102.4 622.2, 1065.2 614.9 C 1028.1 607.5, 1005.1 548.7, 975.8 517.6 C 946.5 486.4, 889.7 458.3, 889.3 428.1 C 889.0 397.9, 944.2 358.3, 973.5 336.4 C 1002.8 314.5, 1035.4 295.8, 1065.2 296.6 Z" fill="#4CB648" opacity="0.05"/>
  <circle cx="1081.8" cy="147.0" r="2.1" fill="#4CB648" opacity="0.11"/>
  <circle cx="530.2" cy="85.2" r="3.9" fill="#4CB648" opacity="0.11"/>
  <circle cx="128.1" cy="107.1" r="4.7" fill="#4CB648" opacity="0.11"/>
  <circle cx="80.9" cy="475.0" r="2.5" fill="#4CB648" opacity="0.11"/>
  <circle cx="709.5" cy="160.6" r="4.9" fill="#4CB648" opacity="0.11"/>
  <circle cx="637.0" cy="413.5" r="4.2" fill="#4CB648" opacity="0.11"/>
  <circle cx="934.6" cy="439.1" r="3.8" fill="#4CB648" opacity="0.11"/>
  <circle cx="556.1" cy="209.2" r="3.9" fill="#4CB648" opacity="0.11"/>
  <circle cx="710.7" cy="441.0" r="3.2" fill="#4CB648" opacity="0.11"/>
  <circle cx="1064.1" cy="64.3" r="3.5" fill="#4CB648" opacity="0.11"/>
  <circle cx="580.8" cy="354.9" r="4.9" fill="#4CB648" opacity="0.11"/>
  <circle cx="878.5" cy="113.8" r="2.9" fill="#4CB648" opacity="0.11"/>
  <circle cx="431.5" cy="606.7" r="2.1" fill="#4CB648" opacity="0.11"/>
  <circle cx="991.5" cy="559.6" r="2.8" fill="#4CB648" opacity="0.11"/>
  <path d="M 80 287.0226787868887 C 451.1376722715795 295.40179218165576, 862.7253379207104 470.3987929970026, 1200 414.74077864550054" fill="none" stroke="#2DAA6E" stroke-width="2" opacity="0.1" stroke-linecap="round"/>
  <path d="M 0 230 Q 80 215, 160 230 Q 240 245, 320 230 Q 400 215, 480 230 Q 560 245, 640 230 Q 720 215, 800 230 Q 880 245, 960 230 Q 1040 215, 1120 230 Q 1200 245, 1280 230" fill="none" stroke="#4CB648" stroke-width="2.5" opacity="0.15" stroke-linecap="round"/>
  <path d="M 0 270 Q 64 247, 128 270 Q 192 293, 256 270 Q 320 247, 384 270 Q 448 293, 512 270 Q 576 247, 640 270 Q 704 293, 768 270 Q 832 247, 896 270 Q 960 293, 1024 270 Q 1088 247, 1152 270 Q 1216 293, 1280 270" fill="none" stroke="#2DAA6E" stroke-width="2.5" opacity="0.22999999999999998" stroke-linecap="round"/>
  <path d="M 0 310 Q 80 279, 160 310 Q 240 341, 320 310 Q 400 279, 480 310 Q 560 341, 640 310 Q 720 279, 800 310 Q 880 341, 960 310 Q 1040 279, 1120 310 Q 1200 341, 1280 310" fill="none" stroke="#4CB648" stroke-width="2.5" opacity="0.31" stroke-linecap="round"/>
  <path d="M 0 350 Q 64 335, 128 350 Q 192 365, 256 350 Q 320 335, 384 350 Q 448 365, 512 350 Q 576 335, 640 350 Q 704 365, 768 350 Q 832 335, 896 350 Q 960 365, 1024 350 Q 1088 335, 1152 350 Q 1216 365, 1280 350" fill="none" stroke="#2DAA6E" stroke-width="2.5" opacity="0.15" stroke-linecap="round"/>
  <path d="M 0 390 Q 80 367, 160 390 Q 240 413, 320 390 Q 400 367, 480 390 Q 560 413, 640 390 Q 720 367, 800 390 Q 880 413, 960 390 Q 1040 367, 1120 390 Q 1200 413, 1280 390" fill="none" stroke="#4CB648" stroke-width="2.5" opacity="0.22999999999999998" stroke-linecap="round"/>
  <path d="M 0 430 Q 64 399, 128 430 Q 192 461, 256 430 Q 320 399, 384 430 Q 448 461, 512 430 Q 576 399, 640 430 Q 704 461, 768 430 Q 832 399, 896 430 Q 960 461, 1024 430 Q 1088 399, 1152 430 Q 1216 461, 1280 430" fill="none" stroke="#2DAA6E" stroke-width="2.5" opacity="0.31" stroke-linecap="round"/>
  <path d="M 0 470 Q 80 455, 160 470 Q 240 485, 320 470 Q 400 455, 480 470 Q 560 485, 640 470 Q 720 455, 800 470 Q 880 485, 960 470 Q 1040 455, 1120 470 Q 1200 485, 1280 470" fill="none" stroke="#4CB648" stroke-width="2.5" opacity="0.15" stroke-linecap="round"/>

</svg>