<svg xmlns="http://www.w3.org/2000/svg" viewBox="0 0 1280 720" fill="none">
<defs>
  <linearGradient id="bg-5-10" x1="0" y1="0" x2="1" y2="1">
    <stop offset="0%" stop-color="#4CB648" stop-opacity="0.05"/>
    <stop offset="100%" stop-color="#2DAA6E" stop-opacity="0.03"/>
  </linearGradient>
</defs>
  <rect width="1280" height="720" fill="url(#bg-5-10)"/>
  <path d="M 1063.8 126.4 C 1087.3 125.8, 1114.0 168.7, 1136.2 191.7 C 1158.4 214.6, 1194.3 237.4, 1196.9 264.0 C 1199.4 290.7, 1173.6 329.1, 1151.5 351.7 C 1129.3 374.3, 1091.5 401.0, 1063.8 399.5 C 1036.2 398.0, 1004.5 365.0, 985.4 342.4 C 966.4 319.8, 947.8 288.5, 949.4 264.0 C 951.1 239.5, 976.1 218.4, 995.2 195.4 C 1014.3 172.5, 1040.3 127.1, 1063.8 126.4 Z" fill="#4CB648" opacity="0.06"/>
  <circle cx="392.2" cy="599.7" r="3.5" fill="#4CB648" opacity="0.08"/>
  <circle cx="428.7" cy="490.8" r="2.6" fill="#4CB648" opacity="0.08"/>
  <circle cx="827.8" cy="668.7" r="2.9" fill="#4CB648" opacity="0.08"/>
  <circle cx="1077.8" cy="85.2" r="2.6" fill="#4CB648" opacity="0.08"/>
  <circle cx="284.4" cy="407.3" r="1.9" fill="#4CB648" opacity="0.08"/>
  <circle cx="562.2" cy="161.8" r="2.1" fill="#4CB648" opacity="0.08"/>
  <circle cx="1040.2" cy="482.8" r="3.1" fill="#4CB648" opacity="0.08"/>
  <circle cx="999.5" cy="317.9" r="2.8" fill="#4CB648" opacity="0.08"/>
  <circle cx="858.2" cy="351.4" r="3.4" fill="#4CB648" opacity="0.08"/>
  <circle cx="479.1" cy="624.3" r="2.2" fill="#4CB648" opacity="0.08"/>
  <circle cx="504.1" cy="323.9" r="3.6" fill="#4CB648" opacity="0.08"/>
  <rect x="243.2" y="162.0" width="255.2" height="191.0" rx="10" fill="#4CB648" opacity="0.11"/>
  <rect x="243.2" y="162.0" width="255.2" height="191.0" rx="10" fill="none" stroke="#4CB648" stroke-width="1.2" opacity="0.25"/>
  <circle cx="370.8" cy="191.1" r="10.1" fill="#4CB648" opacity="0.15"/>
  <line x1="272.2" y1="267.1" x2="469.4" y2="267.1" stroke="#4CB648" stroke-width="2" opacity="0.12" stroke-linecap="round"/>
  <line x1="274.1" y1="281.1" x2="467.5" y2="281.1" stroke="#4CB648" stroke-width="2" opacity="0.12" stroke-linecap="round"/>
  <rect x="512.4" y="162.0" width="255.2" height="191.0" rx="10" fill="#2DAA6E" opacity="0.14"/>
  <rect x="512.4" y="162.0" width="255.2" height="191.0" rx="10" fill="none" stroke="#2DAA6E" stroke-width="1.2" opacity="0.25"/>
  <circle cx="640.0" cy="184.3" r="14.9" fill="#2DAA6E" opacity="0.15"/>
  <line x1="575.9" y1="267.1" x2="704.1" y2="267.1" stroke="#2DAA6E" stroke-width="2" opacity="0.12" stroke-linecap="round"/>
  <line x1="539.4" y1="281.1" x2="740.6" y2="281.1" stroke="#2DAA6E" stroke-width="2" opacity="0.12" stroke-linecap="round"/>
  <rect x="781.6" y="162.0" width="255.2" height="191.0" rx="10" fill="#4CB648" opacity="0.13"/>
  <rect x="781.6" y="162.0" width="255.2" height="191.0" rx="10" fill="none" stroke="#4CB648" stroke-width="1.2" opacity="0.25"/>
  <circle cx="909.2" cy="187.0" r="11.7" fill="#4CB648" opacity="0.15"/>
  <line x1="827.8" y1="267.1" x2="990.6" y2="267.1" stroke="#4CB648" stroke-width="2" opacity="0.12" stroke-linecap="round"/>
  <line x1="820.9" y1="281.1" x2="997.5" y2="281.1" stroke="#4CB648" stroke-width="2" opacity="0.12" stroke-linecap="round"/>
  <rect x="243.2" y="367.0" width="255.2" height="191.0" rx="10" fill="#2DAA6E" opacity="0.14"/>
  <rect x="243.2" y="367.0" width="255.2" height="191.0" rx="10" fill="none" stroke="#2DAA6E" stroke-width="1.2" opacity="0.25"/>
  <circle cx="370.8" cy="391.6" r="15.0" fill="#2DAA6E" opacity="0.15"/>
  <line x1="301.1" y1="472.1" x2="440.5" y2="472.1" stroke="#2DAA6E" stroke-width="2" opacity="0.12" stroke-linecap="round"/>
  <line x1="269.6" y1="486.1" x2="472.0" y2="486.1" stroke="#2DAA6E" stroke-width="2" opacity="0.12" stroke-linecap="round"/>
  <rect x="512.4" y="367.0" width="255.2" height="191.0" rx="10" fill="#4CB648" opacity="0.15"/>
  <rect x="512.4" y="367.0" width="255.2" height="191.0" rx="10" fill="none" stroke="#4CB648" stroke-width="1.2" opacity="0.25"/>
  <circle cx="640.0" cy="394.4" r="13.1" fill="#4CB648" opacity="0.15"/>
  <line x1="561.1" y1="472.1" x2="718.9" y2="472.1" stroke="#4CB648" stroke-width="2" opacity="0.12" stroke-linecap="round"/>
  <line x1="574.6" y1="486.1" x2="705.4" y2="486.1" stroke="#4CB648" stroke-width="2" opacity="0.12" stroke-linecap="round"/>
  <rect x="781.6" y="367.0" width="255.2" height="191.0" rx="10" fill="#2DAA6E" opacity="0.13"/>
  <rect x="781.6" y="367.0" width="255.2" height="191.0" rx="10" fill="none" stroke="#2DAA6E" stroke-width="1.2" opacity="0.25"/>
  <circle cx="909.2" cy="389.5" r="13.6" fill="#2DAA6E" opacity="0.15"/>
  <line x1="832.3" y1="472.1" x2="986.1" y2="472.1" stroke="#2DAA6E" stroke-width="2" opacity="0.12" stroke-linecap="round"/>
  <line x1="840.6" y1="486.1" x2="977.8" y2="486.1" stroke="#2DAA6E" stroke-width="2" opacity="0.12" stroke-linecap="round"/>

</svg>