<svg xmlns="http://www.w3.org/2000/svg" viewBox="0 0 1280 720" fill="none">
<defs>
  <linearGradient id="bg-5-8" x1="0" y1="0" x2="1" y2="1">
    <stop offset="0%" stop-color="#4CB648" stop-opacity="0.05"/>
    <stop offset="100%" stop-color="#2DAA6E" stop-opacity="0.03"/>
  </linearGradient>
</defs>
  <rect width="1280" height="720" fill="url(#bg-5-8)"/>
  <path d="M 238.5 70.3 C 295.2 67.2, 377.9 68.1, 418.0 103.6 C 458.2 139.0, 489.9 233.8, 479.3 283.1 C 468.7 332.3, 394.5 375.4, 354.4 398.9 C 314.2 422.3, 274.1 426.8, 238.5 423.7 C 203.0 420.7, 178.8 404.0, 141.0 380.5 C 103.3 357.1, 22.4 326.1, 11.9 283.1 C 1.3 240.0, 39.9 157.7, 77.7 122.2 C 115.5 86.8, 181.8 73.4, 238.5 70.3 Z" fill="#4CB648" opacity="0.06"/>
  <circle cx="458.1" cy="662.8" r="3.8" fill="#4CB648" opacity="0.07"/>
  <circle cx="1063.7" cy="569.8" r="2.1" fill="#4CB648" opacity="0.07"/>
  <circle cx="1058.5" cy="630.3" r="2.3" fill="#4CB648" opacity="0.07"/>
  <circle cx="678.1" cy="346.4" r="2.7" fill="#4CB648" opacity="0.07"/>
  <circle cx="129.2" cy="42.0" r="4.0" fill="#4CB648" opacity="0.07"/>
  <circle cx="149.5" cy="275.9" r="1.8" fill="#4CB648" opacity="0.07"/>
  <circle cx="288.0" cy="366.9" r="33.2" fill="#4CB648" opacity="0.1"/>
  <circle cx="288.0" cy="366.9" r="33.2" fill="none" stroke="#4CB648" stroke-width="1.8" opacity="0.3"/>
  <circle cx="288.0" cy="366.9" r="8.2" fill="#4CB648" opacity="0.2"/>
  <path d="M 325.2 366.9 Q 405.3 337.6, 485.5 358.0" fill="none" stroke="#4CB648" stroke-width="1.5" opacity="0.25" stroke-linecap="round"/>
  <circle cx="483.5" cy="358.0" r="3" fill="#4CB648" opacity="0.3"/>
  <circle cx="522.7" cy="346.6" r="33.2" fill="#2DAA6E" opacity="0.1"/>
  <circle cx="522.7" cy="346.6" r="33.2" fill="none" stroke="#2DAA6E" stroke-width="1.8" opacity="0.3"/>
  <circle cx="522.7" cy="346.6" r="7.7" fill="#2DAA6E" opacity="0.2"/>
  <path d="M 559.9 346.6 Q 640.0 329.4, 720.1 367.3" fill="none" stroke="#4CB648" stroke-width="1.5" opacity="0.25" stroke-linecap="round"/>
  <circle cx="718.1" cy="367.3" r="3" fill="#4CB648" opacity="0.3"/>
  <circle cx="757.3" cy="357.8" r="33.2" fill="#4CB648" opacity="0.1"/>
  <circle cx="757.3" cy="357.8" r="33.2" fill="none" stroke="#4CB648" stroke-width="1.8" opacity="0.3"/>
  <circle cx="757.3" cy="357.8" r="5.2" fill="#4CB648" opacity="0.2"/>
  <path d="M 794.5 357.8 Q 874.7 336.0, 954.8 374.8" fill="none" stroke="#4CB648" stroke-width="1.5" opacity="0.25" stroke-linecap="round"/>
  <circle cx="952.8" cy="374.8" r="3" fill="#4CB648" opacity="0.3"/>
  <circle cx="992.0" cy="373.9" r="33.2" fill="#2DAA6E" opacity="0.1"/>
  <circle cx="992.0" cy="373.9" r="33.2" fill="none" stroke="#2DAA6E" stroke-width="1.8" opacity="0.3"/>
  <circle cx="992.0" cy="373.9" r="5.8" fill="#2DAA6E" opacity="0.2"/>

</svg>