<svg xmlns="http://www.w3.org/2000/svg" viewBox="0 0 1280 720" fill="none">
<defs>
  <linearGradient id="bg-5-3" x1="0" y1="0" x2="1" y2="1">
    <stop offset="0%" stop-color="#4CB648" stop-opacity="0.05"/>
    <stop offset="100%" stop-color="#2DAA6E" stop-opacity="0.03"/>
  </linearGradient>
</defs>
  <rect width="1280" height="720" fill="url(#bg-5-3)"/>
  <path d="M 197.9 162.4 C 226.7 160.5, 273.1 157.1, 289.9 174.5 C 306.7 191.8, 295.4 232.5, 298.7 266.5 C 302.0 300.5, 326.5 361.2, 309.7 378.3 C 292.9 395.4, 232.6 371.6, 197.9 369.0 C 163.2 366.4, 117.0 379.7, 101.7 362.7 C 86.4 345.6, 103.5 296.0, 106.0 266.5 C 108.6 237.0, 101.7 203.0, 117.0 185.6 C 132.3 168.3, 169.1 164.2, 197.9 162.4 Z" fill="#4CB648" opacity="0.06"/>
  <path d="M 411.2 94.8 C 441.1 92.3, 487.3 139.5, 508.3 167.8 C 529.2 196.1, 534.8 230.2, 537.1 264.8 C 539.4 299.5, 543.0 351.4, 522.1 375.7 C 501.1 399.9, 442.5 416.1, 411.2 410.4 C 380.0 404.7, 353.6 365.6, 334.7 341.4 C 315.8 317.1, 298.9 291.2, 298.0 264.8 C 297.1 238.4, 310.5 211.3, 329.3 182.9 C 348.2 154.6, 381.4 97.4, 411.2 94.8 Z" fill="#2DAA6E" opacity="0.07"/>
  <circle cx="388.3" cy="666.5" r="1.6" fill="#4CB648" opacity="0.08"/>
  <circle cx="732.1" cy="666.3" r="3.4" fill="#4CB648" opacity="0.08"/>
  <circle cx="796.1" cy="483.3" r="2.1" fill="#4CB648" opacity="0.08"/>
  <circle cx="569.3" cy="55.9" r="3.1" fill="#4CB648" opacity="0.08"/>
  <circle cx="248.3" cy="165.5" r="3.7" fill="#4CB648" opacity="0.08"/>
  <circle cx="779.7" cy="255.7" r="2.1" fill="#4CB648" opacity="0.08"/>
  <circle cx="1065.2" cy="395.7" r="2.4" fill="#4CB648" opacity="0.08"/>
  <line x1="640.0" y1="144.0" x2="640.0" y2="576.0" stroke="#4CB648" stroke-width="1" opacity="0.15" stroke-dasharray="6 4"/>
  <path d="M 279.4 288.5 C 293.0 289.1, 307.5 309.5, 316.9 324.5 C 326.2 339.5, 341.9 367.3, 335.7 378.6 C 329.4 389.9, 297.3 392.8, 279.4 392.3 C 261.5 391.8, 235.8 387.5, 228.4 375.6 C 221.0 363.6, 226.6 335.0, 235.1 320.5 C 243.6 306.0, 265.8 287.8, 279.4 288.5 Z" fill="#2DAA6E" opacity="0.04"/>
  <path d="M 313.1 154.1 C 332.8 151.0, 378.0 161.2, 388.6 178.7 C 399.2 196.2, 389.1 241.5, 376.5 258.9 C 363.9 276.2, 333.0 283.3, 313.1 282.6 C 293.2 281.9, 264.3 268.7, 257.2 254.6 C 250.1 240.4, 261.2 214.4, 270.6 197.7 C 279.9 181.0, 293.5 157.3, 313.1 154.1 Z" fill="#2DAA6E" opacity="0.08"/>
  <path d="M 414.6 390.4 C 433.8 388.6, 472.9 410.9, 481.7 428.9 C 490.5 446.8, 478.7 481.9, 467.5 498.1 C 456.3 514.3, 431.6 526.5, 414.6 526.1 C 397.7 525.7, 373.8 510.2, 365.8 495.8 C 357.8 481.4, 358.5 457.4, 366.6 439.9 C 374.8 422.3, 395.5 392.3, 414.6 390.4 Z" fill="#2DAA6E" opacity="0.04"/>
  <line x1="281.6" y1="158.4" x2="512.0" y2="158.4" stroke="#2DAA6E" stroke-width="2" opacity="0.12" stroke-linecap="round"/>
  <path d="M 796.5 404.9 C 811.7 407.7, 823.5 428.7, 831.8 441.3 C 840.1 454.0, 848.2 467.5, 846.4 480.8 C 844.7 494.2, 833.4 515.8, 821.5 521.3 C 809.6 526.7, 791.8 519.5, 775.2 513.7 C 758.7 507.9, 727.9 501.3, 722.1 486.4 C 716.3 471.6, 728.1 438.3, 740.5 424.7 C 752.9 411.2, 781.3 402.1, 796.5 404.9 Z" fill="#4CB648" opacity="0.17"/>
  <path d="M 811.2 385.8 C 829.2 382.7, 863.7 391.5, 876.6 406.6 C 889.6 421.7, 895.2 458.1, 888.9 476.5 C 882.7 494.8, 856.5 510.3, 839.1 516.6 C 821.7 522.8, 798.8 521.4, 784.6 514.0 C 770.5 506.5, 756.7 486.6, 754.1 471.8 C 751.5 457.0, 759.6 439.5, 769.1 425.1 C 778.6 410.8, 793.3 388.9, 811.2 385.8 Z" fill="#4CB648" opacity="0.14"/>
  <path d="M 842.3 156.2 C 863.0 155.0, 900.6 154.2, 909.1 166.7 C 917.6 179.3, 900.0 213.5, 893.3 231.7 C 886.6 249.8, 882.5 267.3, 869.1 275.6 C 855.6 283.9, 828.0 288.2, 812.7 281.4 C 797.5 274.6, 782.4 252.6, 777.7 234.8 C 773.0 216.9, 773.9 187.2, 784.7 174.1 C 795.4 161.0, 821.6 157.4, 842.3 156.2 Z" fill="#4CB648" opacity="0.16"/>
  <path d="M 912.4 259.9 C 924.1 259.9, 937.8 278.2, 947.5 290.1 C 957.2 302.1, 973.1 319.6, 970.7 331.4 C 968.4 343.3, 945.4 358.7, 933.3 361.4 C 921.2 364.2, 908.9 353.4, 898.1 347.9 C 887.2 342.4, 871.7 337.8, 868.2 328.2 C 864.8 318.6, 870.0 301.5, 877.3 290.1 C 884.7 278.7, 900.7 259.9, 912.4 259.9 Z" fill="#4CB648" opacity="0.13"/>
  <path d="M 966.9 203.4 C 981.4 201.3, 1009.6 195.5, 1018.5 204.6 C 1027.5 213.7, 1026.3 245.1, 1020.6 258.0 C 1014.9 270.9, 997.2 275.6, 984.3 281.9 C 971.3 288.1, 953.5 299.8, 942.9 295.5 C 932.4 291.2, 922.8 269.3, 920.9 256.3 C 918.9 243.2, 923.6 226.2, 931.3 217.4 C 938.9 208.5, 952.3 205.5, 966.9 203.4 Z" fill="#4CB648" opacity="0.17"/>
  <circle cx="784.5" cy="490.1" r="3.0" fill="#4CB648" opacity="0.12"/>
  <circle cx="704.8" cy="197.9" r="3.5" fill="#4CB648" opacity="0.12"/>
  <circle cx="790.1" cy="402.9" r="2.7" fill="#4CB648" opacity="0.12"/>
  <circle cx="723.7" cy="260.0" r="3.7" fill="#4CB648" opacity="0.12"/>
  <circle cx="963.3" cy="368.7" r="3.5" fill="#4CB648" opacity="0.12"/>
  <circle cx="875.6" cy="461.5" r="4.0" fill="#4CB648" opacity="0.12"/>
  <circle cx="789.7" cy="496.8" r="4.5" fill="#4CB648" opacity="0.12"/>
  <circle cx="743.2" cy="457.1" r="2.2" fill="#4CB648" opacity="0.12"/>
  <line x1="768.0" y1="158.4" x2="998.4" y2="158.4" stroke="#4CB648" stroke-width="2.5" opacity="0.2" stroke-linecap="round"/>
  <rect x="635.0" y="355.0" width="10" height="10" fill="#4CB648" opacity="0.2" transform="rotate(45 640.0 360.0)"/>

</svg>