<svg xmlns="http://www.w3.org/2000/svg" viewBox="0 0 1280 720" fill="none">
<defs>
  <linearGradient id="bg-5-7" x1="0" y1="0" x2="1" y2="1">
    <stop offset="0%" stop-color="#4CB648" stop-opacity="0.05"/>
    <stop offset="100%" stop-color="#2DAA6E" stop-opacity="0.03"/>
  </linearGradient>
</defs>
  <rect width="1280" height="720" fill="url(#bg-5-7)"/>
  <path d="M 509.4 478.9 C 530.5 482.2, 548.9 482.1, 562.9 493.5 C 576.9 504.8, 592.6 528.4, 593.4 547.0 C 594.2 565.7, 581.8 587.0, 567.8 605.4 C 553.8 623.8, 531.0 655.3, 509.4 657.5 C 487.7 659.6, 450.1 636.7, 438.1 618.3 C 426.0 599.9, 437.4 571.1, 437.1 547.0 C 436.8 522.9, 424.2 485.2, 436.2 473.9 C 448.3 462.5, 488.2 475.7, 509.4 478.9 Z" fill="#4CB648" opacity="0.04"/>
  <path d="M 976.0 61.2 C 1014.7 59.6, 1072.5 30.7, 1096.7 48.7 C 1120.8 66.8, 1127.7 136.1, 1120.8 169.4 C 1114.0 202.8, 1079.5 221.9, 1055.4 248.8 C 1031.2 275.7, 1008.9 324.4, 976.0 330.8 C 943.1 337.2, 876.2 314.3, 858.0 287.4 C 839.8 260.5, 865.9 207.7, 867.0 169.4 C 868.1 131.2, 846.4 76.1, 864.6 58.1 C 882.7 40.0, 937.3 62.7, 976.0 61.2 Z" fill="#2DAA6E" opacity="0.05"/>
  <circle cx="89.6" cy="213.5" r="2.2" fill="#4CB648" opacity="0.09"/>
  <circle cx="809.0" cy="48.3" r="2.6" fill="#4CB648" opacity="0.09"/>
  <circle cx="950.3" cy="604.7" r="2.7" fill="#4CB648" opacity="0.09"/>
  <circle cx="573.1" cy="159.7" r="3.5" fill="#4CB648" opacity="0.09"/>
  <circle cx="335.7" cy="463.6" r="3.4" fill="#4CB648" opacity="0.09"/>
  <circle cx="1219.8" cy="664.2" r="2.6" fill="#4CB648" opacity="0.09"/>
  <circle cx="719.6" cy="74.1" r="2.7" fill="#4CB648" opacity="0.09"/>
  <circle cx="722.5" cy="170.1" r="3.7" fill="#4CB648" opacity="0.09"/>
  <circle cx="960.5" cy="238.2" r="1.6" fill="#4CB648" opacity="0.09"/>
  <line x1="640.0" y1="144.0" x2="640.0" y2="576.0" stroke="#4CB648" stroke-width="1" opacity="0.15" stroke-dasharray="6 4"/>
  <path d="M 432.6 325.4 C 449.8 327.0, 468.2 333.2, 476.2 345.3 C 484.1 357.4, 487.6 385.5, 480.3 398.0 C 473.1 410.4, 451.3 418.4, 432.6 420.0 C 414.0 421.6, 378.2 421.5, 368.3 407.6 C 358.4 393.6, 362.6 349.9, 373.3 336.2 C 384.0 322.5, 415.5 323.9, 432.6 325.4 Z" fill="#2DAA6E" opacity="0.06"/>
  <path d="M 426.3 329.1 C 440.4 329.0, 457.6 356.8, 469.0 375.2 C 480.3 393.5, 501.3 422.4, 494.2 439.0 C 487.1 455.7, 444.4 477.8, 426.3 475.2 C 408.1 472.7, 392.2 440.2, 385.2 423.5 C 378.2 406.9, 377.2 391.2, 384.0 375.4 C 390.8 359.7, 412.1 329.1, 426.3 329.1 Z" fill="#2DAA6E" opacity="0.05"/>
  <path d="M 272.9 280.0 C 286.8 280.4, 305.7 296.6, 312.7 309.3 C 319.7 322.1, 321.4 341.5, 314.7 356.5 C 308.1 371.4, 286.5 399.2, 272.9 398.9 C 259.3 398.7, 240.6 370.4, 233.3 355.1 C 226.1 339.9, 222.9 319.8, 229.5 307.3 C 236.1 294.7, 259.0 279.7, 272.9 280.0 Z" fill="#2DAA6E" opacity="0.06"/>
  <line x1="281.6" y1="158.4" x2="512.0" y2="158.4" stroke="#2DAA6E" stroke-width="2" opacity="0.12" stroke-linecap="round"/>
  <path d="M 847.1 191.6 C 865.0 190.7, 895.9 201.4, 903.9 214.6 C 911.9 227.9, 900.4 254.6, 895.1 271.0 C 889.9 287.4, 885.4 304.9, 872.6 313.0 C 859.8 321.0, 835.3 325.3, 818.5 319.3 C 801.7 313.3, 775.4 293.8, 771.7 277.2 C 768.0 260.6, 783.9 233.9, 796.5 219.6 C 809.0 205.4, 829.2 192.4, 847.1 191.6 Z" fill="#4CB648" opacity="0.09"/>
  <path d="M 972.5 431.5 C 986.5 433.2, 1002.3 431.8, 1008.2 439.2 C 1014.0 446.5, 1009.3 461.8, 1007.7 475.6 C 1006.1 489.3, 1007.1 517.2, 998.6 521.6 C 990.0 525.9, 966.3 509.3, 956.1 501.7 C 945.9 494.0, 942.7 487.6, 937.5 475.6 C 932.3 463.5, 918.8 436.7, 924.7 429.4 C 930.5 422.0, 958.6 429.9, 972.5 431.5 Z" fill="#4CB648" opacity="0.17"/>
  <path d="M 978.8 447.9 C 987.5 447.4, 1001.7 448.1, 1006.4 453.8 C 1011.2 459.6, 1009.7 474.0, 1007.3 482.4 C 1005.0 490.8, 999.0 501.5, 992.5 504.2 C 985.9 506.9, 974.1 502.5, 967.8 498.7 C 961.5 494.9, 957.1 488.4, 954.8 481.3 C 952.6 474.3, 950.4 461.9, 954.4 456.4 C 958.4 450.8, 970.1 448.3, 978.8 447.9 Z" fill="#4CB648" opacity="0.17"/>
  <path d="M 983.3 293.9 C 998.8 295.7, 1011.1 309.7, 1023.0 322.5 C 1034.9 335.2, 1058.1 358.6, 1054.6 370.4 C 1051.1 382.1, 1019.0 384.8, 1002.0 392.9 C 984.9 400.9, 965.3 422.7, 952.3 418.5 C 939.3 414.3, 927.6 385.5, 923.9 367.7 C 920.2 349.9, 920.3 324.0, 930.2 311.7 C 940.1 299.4, 967.8 292.1, 983.3 293.9 Z" fill="#4CB648" opacity="0.16"/>
  <path d="M 963.6 278.7 C 981.3 277.7, 1012.7 270.2, 1020.4 279.7 C 1028.0 289.1, 1013.8 317.0, 1009.6 335.5 C 1005.4 354.0, 1006.8 384.2, 995.2 390.6 C 983.6 397.0, 952.4 383.1, 940.1 373.7 C 927.8 364.4, 925.6 349.3, 921.3 334.6 C 917.0 319.9, 907.2 294.9, 914.2 285.6 C 921.2 276.3, 945.9 279.7, 963.6 278.7 Z" fill="#4CB648" opacity="0.10"/>
  <circle cx="1014.8" cy="270.2" r="3.7" fill="#4CB648" opacity="0.12"/>
  <circle cx="1039.3" cy="435.5" r="4.9" fill="#4CB648" opacity="0.12"/>
  <circle cx="899.5" cy="199.0" r="2.9" fill="#4CB648" opacity="0.12"/>
  <circle cx="1021.5" cy="367.7" r="2.7" fill="#4CB648" opacity="0.12"/>
  <circle cx="920.6" cy="416.3" r="3.9" fill="#4CB648" opacity="0.12"/>
  <circle cx="928.8" cy="299.6" r="4.9" fill="#4CB648" opacity="0.12"/>
  <circle cx="727.2" cy="213.5" r="2.1" fill="#4CB648" opacity="0.12"/>
  <circle cx="960.6" cy="523.4" r="3.8" fill="#4CB648" opacity="0.12"/>
  <line x1="768.0" y1="158.4" x2="998.4" y2="158.4" stroke="#4CB648" stroke-width="2.5" opacity="0.2" stroke-linecap="round"/>
  <rect x="635.0" y="355.0" width="10" height="10" fill="#4CB648" opacity="0.2" transform="rotate(45 640.0 360.0)"/>

</svg>