<svg xmlns="http://www.w3.org/2000/svg" viewBox="0 0 1280 720" fill="none">
<defs>
  <linearGradient id="bg-5-5" x1="0" y1="0" x2="1" y2="1">
    <stop offset="0%" stop-color="#4CB648" stop-opacity="0.05"/>
    <stop offset="100%" stop-color="#2DAA6E" stop-opacity="0.03"/>
  </linearGradient>
</defs>
  <rect width="1280" height="720" fill="url(#bg-5-5)"/>
  <path d="M 925.1 318.3 C 970.4 326.0, 998.2 340.2, 1037.7 367.1 C 1077.2 394.0, 1154.0 434.0, 1162.2 479.7 C 1170.4 525.5, 1126.3 616.1, 1086.7 641.4 C 1047.2 666.7, 979.4 631.0, 925.1 631.5 C 870.8 631.9, 782.7 669.3, 760.8 644.0 C 738.9 618.8, 792.8 533.6, 793.7 479.7 C 794.6 425.9, 744.2 347.7, 766.1 320.8 C 788.0 293.9, 879.8 310.6, 925.1 318.3 Z" fill="#4CB648" opacity="0.05"/>
  <path d="M 617.1 358.1 C 632.8 357.5, 647.1 384.1, 666.1 399.2 C 685.2 414.2, 727.3 427.8, 731.3 448.2 C 735.3 468.5, 709.2 507.0, 690.1 521.2 C 671.1 535.5, 640.4 534.7, 617.1 533.7 C 593.8 532.7, 569.3 529.5, 550.1 515.2 C 530.9 500.9, 498.2 466.9, 501.8 448.2 C 505.5 429.5, 552.8 418.1, 572.0 403.1 C 591.2 388.1, 601.4 358.8, 617.1 358.1 Z" fill="#2DAA6E" opacity="0.04"/>
  <circle cx="182.5" cy="71.5" r="3.6" fill="#4CB648" opacity="0.08"/>
  <circle cx="555.8" cy="316.8" r="2.0" fill="#4CB648" opacity="0.08"/>
  <circle cx="682.1" cy="296.1" r="2.0" fill="#4CB648" opacity="0.08"/>
  <circle cx="924.2" cy="635.0" r="3.8" fill="#4CB648" opacity="0.08"/>
  <circle cx="747.6" cy="581.6" r="2.2" fill="#4CB648" opacity="0.08"/>
  <circle cx="689.2" cy="518.2" r="2.3" fill="#4CB648" opacity="0.08"/>
  <circle cx="1040.9" cy="619.3" r="2.1" fill="#4CB648" opacity="0.08"/>
  <circle cx="688.7" cy="331.6" r="3.1" fill="#4CB648" opacity="0.08"/>
  <circle cx="828.5" cy="644.3" r="3.0" fill="#4CB648" opacity="0.08"/>
  <rect x="317.8" y="175.2" width="644.4" height="86.4" rx="8" fill="#4CB648" opacity="0.08"/>
  <rect x="317.8" y="175.2" width="644.4" height="86.4" rx="8" fill="none" stroke="#4CB648" stroke-width="1.2" opacity="0.25"/>
  <circle cx="640.0" cy="218.4" r="7.2" fill="#4CB648" opacity="0.2"/>
  <line x1="517.1" y1="218.4" x2="778.9" y2="218.4" stroke="#4CB648" stroke-width="1.5" opacity="0.1" stroke-linecap="round"/>
  <rect x="391.5" y="269.6" width="496.9" height="86.4" rx="8" fill="#2DAA6E" opacity="0.11"/>
  <rect x="391.5" y="269.6" width="496.9" height="86.4" rx="8" fill="none" stroke="#2DAA6E" stroke-width="1.2" opacity="0.25"/>
  <circle cx="640.0" cy="312.8" r="9.2" fill="#2DAA6E" opacity="0.2"/>
  <line x1="518.3" y1="312.8" x2="777.7" y2="312.8" stroke="#2DAA6E" stroke-width="1.5" opacity="0.1" stroke-linecap="round"/>
  <rect x="485.4" y="364.0" width="309.1" height="86.4" rx="8" fill="#4CB648" opacity="0.14"/>
  <rect x="485.4" y="364.0" width="309.1" height="86.4" rx="8" fill="none" stroke="#4CB648" stroke-width="1.2" opacity="0.25"/>
  <circle cx="640.0" cy="407.2" r="9.3" fill="#4CB648" opacity="0.2"/>
  <line x1="584.7" y1="407.2" x2="711.3" y2="407.2" stroke="#4CB648" stroke-width="1.5" opacity="0.1" stroke-linecap="round"/>
  <rect x="569.3" y="458.4" width="141.5" height="86.4" rx="8" fill="#2DAA6E" opacity="0.17"/>
  <rect x="569.3" y="458.4" width="141.5" height="86.4" rx="8" fill="none" stroke="#2DAA6E" stroke-width="1.2" opacity="0.25"/>
  <circle cx="640.0" cy="501.6" r="7.3" fill="#2DAA6E" opacity="0.2"/>
  <line x1="625.3" y1="501.6" x2="670.7" y2="501.6" stroke="#2DAA6E" stroke-width="1.5" opacity="0.1" stroke-linecap="round"/>

</svg>