<svg xmlns="http://www.w3.org/2000/svg" viewBox="0 0 1280 720" fill="none">
<defs>
  <linearGradient id="bg-grad-13" x1="0" y1="0" x2="1" y2="1">
    <stop offset="0%" stop-color="#A8E063" stop-opacity="0.06"/>
    <stop offset="100%" stop-color="#4CB648" stop-opacity="0.03"/>
  </linearGradient>
</defs>
  <rect width="1280" height="720" fill="url(#bg-grad-13)"/>
  <path d="M 601.8 -79.9 C 667.9 -75.8, 739.5 -43.8, 788.0 0.6 C 836.5 45.1, 895.3 127.3, 892.8 186.8 C 890.3 246.4, 821.5 319.9, 773.0 358.1 C 724.5 396.2, 671.8 402.5, 601.8 415.5 C 531.8 428.4, 391.1 473.8, 353.0 435.7 C 314.8 397.6, 366.5 263.4, 372.8 186.8 C 379.2 110.2, 352.9 20.5, 391.0 -23.9 C 429.2 -68.4, 535.6 -84.0, 601.8 -79.9 Z" fill="#A8E063" opacity="0.08"/>
  <path d="M 907.6 226.0 C 946.4 231.3, 983.5 298.5, 1008.4 333.2 C 1033.3 367.8, 1056.3 399.8, 1056.9 434.0 C 1057.5 468.2, 1036.9 501.8, 1012.0 538.4 C 987.1 575.0, 946.7 649.4, 907.6 653.8 C 868.5 658.1, 798.1 601.0, 777.2 564.4 C 756.3 527.8, 782.4 477.7, 782.1 434.0 C 781.8 390.2, 754.5 336.4, 775.4 301.8 C 796.3 267.1, 868.8 220.8, 907.6 226.0 Z" fill="#4CB648" opacity="0.07"/>
  <path d="M 1060.4 24.5 C 1084.9 30.8, 1102.2 38.6, 1115.1 52.3 C 1128.1 66.1, 1133.0 83.7, 1138.1 107.0 C 1143.2 130.3, 1158.6 176.6, 1145.6 192.2 C 1132.7 207.9, 1087.0 202.9, 1060.4 201.0 C 1033.9 199.1, 998.8 196.7, 986.4 181.0 C 974.1 165.3, 989.4 134.8, 986.3 107.0 C 983.3 79.3, 955.7 28.4, 968.0 14.6 C 980.4 0.8, 1035.9 18.2, 1060.4 24.5 Z" fill="#A8E063" opacity="0.08"/>
  <circle cx="838.4" cy="349.1" r="4.8" fill="#A8E063" opacity="0.14"/>
  <circle cx="1148.0" cy="83.1" r="3.1" fill="#A8E063" opacity="0.14"/>
  <circle cx="965.8" cy="460.6" r="2.6" fill="#A8E063" opacity="0.14"/>
  <circle cx="854.3" cy="531.7" r="2.1" fill="#A8E063" opacity="0.14"/>
  <circle cx="368.4" cy="70.6" r="4.7" fill="#A8E063" opacity="0.14"/>
  <circle cx="722.6" cy="103.3" r="2.7" fill="#A8E063" opacity="0.14"/>
  <circle cx="150.4" cy="273.5" r="3.4" fill="#A8E063" opacity="0.14"/>
  <circle cx="481.7" cy="300.0" r="2.2" fill="#A8E063" opacity="0.14"/>
  <circle cx="802.7" cy="459.9" r="3.2" fill="#A8E063" opacity="0.14"/>
  <circle cx="697.7" cy="183.0" r="4.2" fill="#A8E063" opacity="0.14"/>
  <circle cx="504.0" cy="153.5" r="3.7" fill="#A8E063" opacity="0.14"/>
  <circle cx="493.8" cy="398.0" r="4.3" fill="#A8E063" opacity="0.14"/>
  <circle cx="1085.4" cy="228.6" r="2.8" fill="#A8E063" opacity="0.14"/>
  <circle cx="672.7" cy="93.5" r="2.7" fill="#A8E063" opacity="0.14"/>
  <circle cx="340.8" cy="200.0" r="3.2" fill="#A8E063" opacity="0.14"/>
  <path d="M 80 123.2860210351646 C 480.9204618446529 36.14038587547839, 933.6345303803682 657.384797045961, 1200 592.0302300713956" fill="none" stroke="#4CB648" stroke-width="2" opacity="0.1" stroke-linecap="round"/>

  <circle cx="560" cy="280" r="50" fill="#A8E063" opacity="0.1"/>
  <circle cx="560" cy="280" r="50" fill="none" stroke="#A8E063" stroke-width="2" opacity="0.35"/>
  <circle cx="720" cy="400" r="45" fill="#4CB648" opacity="0.1"/>
  <circle cx="720" cy="400" r="45" fill="none" stroke="#4CB648" stroke-width="2" opacity="0.35"/>
  <path d="M 600 310 C 640 340, 660 360, 680 380" fill="none" stroke="#A8E063" stroke-width="2.5" opacity="0.3" stroke-dasharray="6 4" stroke-linecap="round"/>
  <circle cx="560" cy="270" r="3" fill="#A8E063" opacity="0.4"/>
  <circle cx="550" cy="290" r="3" fill="#A8E063" opacity="0.4"/>
  <circle cx="575" cy="275" r="3" fill="#A8E063" opacity="0.4"/>
  <circle cx="720" cy="390" r="3" fill="#4CB648" opacity="0.4"/>
  <circle cx="710" cy="410" r="3" fill="#4CB648" opacity="0.4"/>
  <circle cx="730" cy="395" r="3" fill="#4CB648" opacity="0.4"/>
</svg>