<svg xmlns="http://www.w3.org/2000/svg" viewBox="0 0 1280 720" fill="none">
<defs>
  <linearGradient id="bg-13-6" x1="0" y1="0" x2="1" y2="1">
    <stop offset="0%" stop-color="#A8E063" stop-opacity="0.05"/>
    <stop offset="100%" stop-color="#4CB648" stop-opacity="0.03"/>
  </linearGradient>
</defs>
  <rect width="1280" height="720" fill="url(#bg-13-6)"/>
  <path d="M 869.6 71.8 C 888.7 74.4, 899.3 94.7, 919.2 109.2 C 939.2 123.7, 984.2 137.4, 989.1 158.8 C 994.0 180.3, 968.6 223.3, 948.7 237.9 C 928.8 252.6, 897.7 244.9, 869.6 246.7 C 841.5 248.4, 800.9 263.1, 780.0 248.5 C 759.0 233.8, 739.8 184.6, 743.9 158.8 C 748.0 133.1, 783.6 108.3, 804.6 93.8 C 825.5 79.3, 850.5 69.3, 869.6 71.8 Z" fill="#A8E063" opacity="0.06"/>
  <circle cx="1052.4" cy="212.6" r="2.5" fill="#A8E063" opacity="0.09"/>
  <circle cx="315.5" cy="53.8" r="3.8" fill="#A8E063" opacity="0.09"/>
  <circle cx="190.4" cy="397.1" r="3.4" fill="#A8E063" opacity="0.09"/>
  <circle cx="820.5" cy="645.9" r="3.4" fill="#A8E063" opacity="0.09"/>
  <circle cx="257.3" cy="284.4" r="1.5" fill="#A8E063" opacity="0.09"/>
  <circle cx="66.0" cy="461.2" r="3.3" fill="#A8E063" opacity="0.09"/>
  <circle cx="951.3" cy="435.9" r="3.6" fill="#A8E063" opacity="0.09"/>
  <circle cx="368.2" cy="94.1" r="3.8" fill="#A8E063" opacity="0.09"/>
  <circle cx="1005.9" cy="463.0" r="3.6" fill="#A8E063" opacity="0.09"/>
  <circle cx="707.3" cy="117.6" r="3.3" fill="#A8E063" opacity="0.09"/>
  <path d="M 640.0 180.0 C 690.0 216.0, 700.0 324.0, 695.0 432.0 C 690.0 504.0, 670.0 561.6, 640.0 576.0" fill="none" stroke="#A8E063" stroke-width="2" opacity="0.2" stroke-linecap="round"/>
  <path d="M 640.0 180.0 C 590.0 216.0, 580.0 324.0, 585.0 432.0 C 590.0 504.0, 610.0 561.6, 640.0 576.0" fill="none" stroke="#A8E063" stroke-width="2" opacity="0.2" stroke-linecap="round"/>
  <circle cx="640.0" cy="244.8" r="20.3" fill="#A8E063" opacity="0.12"/>
  <circle cx="640.0" cy="244.8" r="20.3" fill="none" stroke="#A8E063" stroke-width="1.5" opacity="0.3"/>
  <circle cx="625.0" cy="374.4" r="20.0" fill="#4CB648" opacity="0.12"/>
  <circle cx="625.0" cy="374.4" r="20.0" fill="none" stroke="#4CB648" stroke-width="1.5" opacity="0.3"/>
  <circle cx="660.0" cy="446.4" r="16.1" fill="#A8E063" opacity="0.12"/>
  <circle cx="660.0" cy="446.4" r="16.1" fill="none" stroke="#A8E063" stroke-width="1.5" opacity="0.3"/>
  <line x1="640.0" y1="244.8" x2="625.0" y2="374.4" stroke="#A8E063" stroke-width="1.5" opacity="0.15" stroke-dasharray="4 3"/>
  <circle cx="636.3" cy="277.2" r="2" fill="#4CB648" opacity="0.2"/>
  <circle cx="632.5" cy="309.6" r="2" fill="#4CB648" opacity="0.2"/>
  <circle cx="628.8" cy="342.0" r="2" fill="#4CB648" opacity="0.2"/>
  <line x1="625.0" y1="374.4" x2="660.0" y2="446.4" stroke="#A8E063" stroke-width="1.5" opacity="0.15" stroke-dasharray="4 3"/>
  <circle cx="633.8" cy="392.4" r="2" fill="#4CB648" opacity="0.2"/>
  <circle cx="642.5" cy="410.4" r="2" fill="#4CB648" opacity="0.2"/>
  <circle cx="651.3" cy="428.4" r="2" fill="#4CB648" opacity="0.2"/>

</svg>