<svg xmlns="http://www.w3.org/2000/svg" viewBox="0 0 1280 720" fill="none">
<defs>
  <linearGradient id="bg-13-5" x1="0" y1="0" x2="1" y2="1">
    <stop offset="0%" stop-color="#A8E063" stop-opacity="0.05"/>
    <stop offset="100%" stop-color="#4CB648" stop-opacity="0.03"/>
  </linearGradient>
</defs>
  <rect width="1280" height="720" fill="url(#bg-13-5)"/>
  <path d="M 486.8 305.1 C 508.5 308.7, 521.8 326.7, 541.2 341.9 C 560.6 357.1, 600.6 375.5, 603.3 396.4 C 606.1 417.2, 577.1 453.4, 557.6 467.2 C 538.2 481.0, 513.7 475.9, 486.8 479.3 C 459.8 482.6, 416.3 501.1, 395.9 487.3 C 375.4 473.5, 361.7 424.2, 364.2 396.4 C 366.7 368.5, 390.4 335.6, 410.8 320.4 C 431.2 305.2, 465.0 301.5, 486.8 305.1 Z" fill="#A8E063" opacity="0.03"/>
  <path d="M 413.8 245.4 C 458.5 235.6, 548.3 238.4, 577.3 269.7 C 606.2 300.9, 589.1 380.2, 587.6 433.1 C 586.0 486.1, 597.0 561.0, 568.0 587.4 C 539.1 613.7, 463.8 592.6, 413.8 591.2 C 363.8 589.7, 307.5 605.0, 268.3 578.6 C 229.1 552.3, 171.6 474.8, 178.5 433.1 C 185.3 391.5, 270.0 359.9, 309.3 328.6 C 348.5 297.3, 369.1 255.2, 413.8 245.4 Z" fill="#4CB648" opacity="0.04"/>
  <circle cx="647.9" cy="290.6" r="3.7" fill="#A8E063" opacity="0.08"/>
  <circle cx="876.9" cy="315.3" r="3.5" fill="#A8E063" opacity="0.08"/>
  <circle cx="690.6" cy="60.8" r="2.4" fill="#A8E063" opacity="0.08"/>
  <circle cx="111.2" cy="262.9" r="2.0" fill="#A8E063" opacity="0.08"/>
  <circle cx="508.7" cy="503.9" r="3.5" fill="#A8E063" opacity="0.08"/>
  <circle cx="509.0" cy="90.0" r="2.4" fill="#A8E063" opacity="0.08"/>
  <circle cx="447.4" cy="153.8" r="3.7" fill="#A8E063" opacity="0.08"/>
  <path d="M 640.0 180.0 C 690.0 216.0, 700.0 324.0, 695.0 432.0 C 690.0 504.0, 670.0 561.6, 640.0 576.0" fill="none" stroke="#A8E063" stroke-width="2" opacity="0.2" stroke-linecap="round"/>
  <path d="M 640.0 180.0 C 590.0 216.0, 580.0 324.0, 585.0 432.0 C 590.0 504.0, 610.0 561.6, 640.0 576.0" fill="none" stroke="#A8E063" stroke-width="2" opacity="0.2" stroke-linecap="round"/>
  <circle cx="640.0" cy="244.8" r="21.2" fill="#A8E063" opacity="0.12"/>
  <circle cx="640.0" cy="244.8" r="21.2" fill="none" stroke="#A8E063" stroke-width="1.5" opacity="0.3"/>
  <circle cx="625.0" cy="374.4" r="17.0" fill="#4CB648" opacity="0.12"/>
  <circle cx="625.0" cy="374.4" r="17.0" fill="none" stroke="#4CB648" stroke-width="1.5" opacity="0.3"/>
  <circle cx="660.0" cy="446.4" r="18.9" fill="#A8E063" opacity="0.12"/>
  <circle cx="660.0" cy="446.4" r="18.9" fill="none" stroke="#A8E063" stroke-width="1.5" opacity="0.3"/>
  <line x1="640.0" y1="244.8" x2="625.0" y2="374.4" stroke="#A8E063" stroke-width="1.5" opacity="0.15" stroke-dasharray="4 3"/>
  <circle cx="636.3" cy="277.2" r="2" fill="#4CB648" opacity="0.2"/>
  <circle cx="632.5" cy="309.6" r="2" fill="#4CB648" opacity="0.2"/>
  <circle cx="628.8" cy="342.0" r="2" fill="#4CB648" opacity="0.2"/>
  <line x1="625.0" y1="374.4" x2="660.0" y2="446.4" stroke="#A8E063" stroke-width="1.5" opacity="0.15" stroke-dasharray="4 3"/>
  <circle cx="633.8" cy="392.4" r="2" fill="#4CB648" opacity="0.2"/>
  <circle cx="642.5" cy="410.4" r="2" fill="#4CB648" opacity="0.2"/>
  <circle cx="651.3" cy="428.4" r="2" fill="#4CB648" opacity="0.2"/>

</svg>