<svg xmlns="http://www.w3.org/2000/svg" viewBox="0 0 1280 720" fill="none">
<defs>
  <linearGradient id="bg-13-4" x1="0" y1="0" x2="1" y2="1">
    <stop offset="0%" stop-color="#A8E063" stop-opacity="0.05"/>
    <stop offset="100%" stop-color="#4CB648" stop-opacity="0.03"/>
  </linearGradient>
</defs>
  <rect width="1280" height="720" fill="url(#bg-13-4)"/>
  <path d="M 425.0 489.0 C 454.1 486.0, 499.7 471.3, 521.5 487.1 C 543.2 502.8, 559.3 555.4, 555.3 583.6 C 551.3 611.8, 519.3 643.3, 497.6 656.2 C 475.9 669.1, 451.9 658.1, 425.0 660.8 C 398.0 663.5, 357.9 685.4, 336.1 672.5 C 314.3 659.6, 292.4 611.5, 294.2 583.6 C 295.9 555.7, 324.8 521.0, 346.6 505.2 C 368.4 489.5, 395.8 492.1, 425.0 489.0 Z" fill="#A8E063" opacity="0.05"/>
  <circle cx="242.9" cy="312.3" r="3.7" fill="#A8E063" opacity="0.07"/>
  <circle cx="657.4" cy="309.2" r="2.9" fill="#A8E063" opacity="0.07"/>
  <circle cx="802.7" cy="153.6" r="1.6" fill="#A8E063" opacity="0.07"/>
  <circle cx="473.4" cy="54.1" r="2.2" fill="#A8E063" opacity="0.07"/>
  <circle cx="669.9" cy="348.1" r="2.7" fill="#A8E063" opacity="0.07"/>
  <circle cx="1134.3" cy="615.0" r="2.2" fill="#A8E063" opacity="0.07"/>
  <circle cx="730.2" cy="326.8" r="3.3" fill="#A8E063" opacity="0.07"/>
  <circle cx="122.4" cy="236.9" r="2.4" fill="#A8E063" opacity="0.07"/>
  <circle cx="1118.3" cy="572.0" r="3.0" fill="#A8E063" opacity="0.07"/>
  <circle cx="527.0" cy="365.6" r="1.6" fill="#A8E063" opacity="0.07"/>
  <circle cx="288.0" cy="365.2" r="28.4" fill="#A8E063" opacity="0.1"/>
  <circle cx="288.0" cy="365.2" r="28.4" fill="none" stroke="#A8E063" stroke-width="1.8" opacity="0.3"/>
  <circle cx="288.0" cy="365.2" r="6.6" fill="#A8E063" opacity="0.2"/>
  <path d="M 320.4 365.2 Q 405.3 328.6, 490.2 359.4" fill="none" stroke="#A8E063" stroke-width="1.5" opacity="0.25" stroke-linecap="round"/>
  <circle cx="488.2" cy="359.4" r="3" fill="#A8E063" opacity="0.3"/>
  <circle cx="522.7" cy="359.3" r="28.4" fill="#4CB648" opacity="0.1"/>
  <circle cx="522.7" cy="359.3" r="28.4" fill="none" stroke="#4CB648" stroke-width="1.8" opacity="0.3"/>
  <circle cx="522.7" cy="359.3" r="7.0" fill="#4CB648" opacity="0.2"/>
  <path d="M 555.1 359.3 Q 640.0 331.9, 724.9 351.0" fill="none" stroke="#A8E063" stroke-width="1.5" opacity="0.25" stroke-linecap="round"/>
  <circle cx="722.9" cy="351.0" r="3" fill="#A8E063" opacity="0.3"/>
  <circle cx="757.3" cy="354.4" r="28.4" fill="#A8E063" opacity="0.1"/>
  <circle cx="757.3" cy="354.4" r="28.4" fill="none" stroke="#A8E063" stroke-width="1.8" opacity="0.3"/>
  <circle cx="757.3" cy="354.4" r="8.4" fill="#A8E063" opacity="0.2"/>
  <path d="M 789.8 354.4 Q 874.7 334.5, 959.6 369.4" fill="none" stroke="#A8E063" stroke-width="1.5" opacity="0.25" stroke-linecap="round"/>
  <circle cx="957.6" cy="369.4" r="3" fill="#A8E063" opacity="0.3"/>
  <circle cx="992.0" cy="363.3" r="28.4" fill="#4CB648" opacity="0.1"/>
  <circle cx="992.0" cy="363.3" r="28.4" fill="none" stroke="#4CB648" stroke-width="1.8" opacity="0.3"/>
  <circle cx="992.0" cy="363.3" r="5.3" fill="#4CB648" opacity="0.2"/>

</svg>