<svg xmlns="http://www.w3.org/2000/svg" viewBox="0 0 1280 720" fill="none">
<defs>
  <linearGradient id="bg-13-2" x1="0" y1="0" x2="1" y2="1">
    <stop offset="0%" stop-color="#A8E063" stop-opacity="0.05"/>
    <stop offset="100%" stop-color="#4CB648" stop-opacity="0.03"/>
  </linearGradient>
</defs>
  <rect width="1280" height="720" fill="url(#bg-13-2)"/>
  <path d="M 460.7 380.8 C 496.6 389.9, 515.2 438.1, 541.1 465.7 C 566.9 493.2, 606.6 510.1, 615.7 546.0 C 624.9 582.0, 622.0 652.7, 596.1 681.4 C 570.3 710.1, 501.9 722.3, 460.7 718.3 C 419.6 714.3, 369.3 686.1, 349.3 657.4 C 329.4 628.7, 344.8 587.0, 341.0 546.0 C 337.1 505.0, 306.1 438.9, 326.1 411.4 C 346.1 383.8, 424.9 371.8, 460.7 380.8 Z" fill="#A8E063" opacity="0.06"/>
  <circle cx="551.9" cy="563.5" r="2.4" fill="#A8E063" opacity="0.09"/>
  <circle cx="948.6" cy="141.3" r="2.7" fill="#A8E063" opacity="0.09"/>
  <circle cx="753.3" cy="362.7" r="2.5" fill="#A8E063" opacity="0.09"/>
  <circle cx="101.5" cy="342.0" r="2.6" fill="#A8E063" opacity="0.09"/>
  <circle cx="1124.2" cy="323.8" r="3.1" fill="#A8E063" opacity="0.09"/>
  <circle cx="865.9" cy="321.2" r="2.7" fill="#A8E063" opacity="0.09"/>
  <circle cx="976.2" cy="649.9" r="2.4" fill="#A8E063" opacity="0.09"/>
  <path d="M 640.0 180.0 C 690.0 216.0, 700.0 324.0, 695.0 432.0 C 690.0 504.0, 670.0 561.6, 640.0 576.0" fill="none" stroke="#A8E063" stroke-width="2" opacity="0.2" stroke-linecap="round"/>
  <path d="M 640.0 180.0 C 590.0 216.0, 580.0 324.0, 585.0 432.0 C 590.0 504.0, 610.0 561.6, 640.0 576.0" fill="none" stroke="#A8E063" stroke-width="2" opacity="0.2" stroke-linecap="round"/>
  <circle cx="640.0" cy="244.8" r="14.7" fill="#A8E063" opacity="0.12"/>
  <circle cx="640.0" cy="244.8" r="14.7" fill="none" stroke="#A8E063" stroke-width="1.5" opacity="0.3"/>
  <circle cx="625.0" cy="374.4" r="21.8" fill="#4CB648" opacity="0.12"/>
  <circle cx="625.0" cy="374.4" r="21.8" fill="none" stroke="#4CB648" stroke-width="1.5" opacity="0.3"/>
  <circle cx="660.0" cy="446.4" r="18.9" fill="#A8E063" opacity="0.12"/>
  <circle cx="660.0" cy="446.4" r="18.9" fill="none" stroke="#A8E063" stroke-width="1.5" opacity="0.3"/>
  <line x1="640.0" y1="244.8" x2="625.0" y2="374.4" stroke="#A8E063" stroke-width="1.5" opacity="0.15" stroke-dasharray="4 3"/>
  <circle cx="636.3" cy="277.2" r="2" fill="#4CB648" opacity="0.2"/>
  <circle cx="632.5" cy="309.6" r="2" fill="#4CB648" opacity="0.2"/>
  <circle cx="628.8" cy="342.0" r="2" fill="#4CB648" opacity="0.2"/>
  <line x1="625.0" y1="374.4" x2="660.0" y2="446.4" stroke="#A8E063" stroke-width="1.5" opacity="0.15" stroke-dasharray="4 3"/>
  <circle cx="633.8" cy="392.4" r="2" fill="#4CB648" opacity="0.2"/>
  <circle cx="642.5" cy="410.4" r="2" fill="#4CB648" opacity="0.2"/>
  <circle cx="651.3" cy="428.4" r="2" fill="#4CB648" opacity="0.2"/>

</svg>