<svg xmlns="http://www.w3.org/2000/svg" viewBox="0 0 1280 720" fill="none">
<defs>
  <linearGradient id="bg-grad-17" x1="0" y1="0" x2="1" y2="1">
    <stop offset="0%" stop-color="#F5C518" stop-opacity="0.06"/>
    <stop offset="100%" stop-color="#F5A623" stop-opacity="0.03"/>
  </linearGradient>
</defs>
  <rect width="1280" height="720" fill="url(#bg-grad-17)"/>
  <path d="M 1060.5 20.9 C 1117.4 16.3, 1192.8 38.2, 1245.1 78.6 C 1297.5 119.0, 1376.2 203.3, 1374.5 263.2 C 1372.8 323.0, 1287.3 392.4, 1235.0 437.7 C 1182.7 483.0, 1130.4 523.3, 1060.5 535.0 C 990.7 546.7, 864.5 553.2, 815.8 507.9 C 767.1 462.6, 753.5 330.1, 768.2 263.2 C 782.9 196.3, 855.2 147.0, 903.9 106.6 C 952.7 66.2, 1003.7 25.6, 1060.5 20.9 Z" fill="#F5C518" opacity="0.06"/>
  <path d="M 855.0 -3.7 C 907.8 -16.1, 1005.2 8.1, 1050.5 49.6 C 1095.8 91.0, 1127.9 181.0, 1126.8 245.1 C 1125.8 309.2, 1089.4 401.1, 1044.1 434.2 C 998.8 467.3, 915.9 445.7, 855.0 443.6 C 794.0 441.5, 722.6 454.7, 678.4 421.6 C 634.3 388.5, 580.8 294.7, 590.0 245.1 C 599.2 195.5, 689.6 165.4, 733.8 123.9 C 777.9 82.4, 802.2 8.7, 855.0 -3.7 Z" fill="#F5A623" opacity="0.05"/>
  <path d="M 553.5 232.4 C 609.1 229.4, 691.7 170.3, 729.3 193.1 C 767.0 215.8, 790.3 321.4, 779.2 369.0 C 768.1 416.5, 700.5 453.3, 662.9 478.4 C 625.3 503.5, 591.4 518.0, 553.5 519.4 C 515.5 520.8, 466.8 512.0, 435.5 486.9 C 404.2 461.8, 372.4 414.9, 365.8 369.0 C 359.1 323.0, 364.3 233.9, 395.6 211.1 C 426.9 188.4, 497.8 235.4, 553.5 232.4 Z" fill="#F5C518" opacity="0.05"/>
  <circle cx="964.6" cy="165.4" r="4.9" fill="#F5C518" opacity="0.12"/>
  <circle cx="118.2" cy="614.0" r="2.9" fill="#F5C518" opacity="0.12"/>
  <circle cx="231.8" cy="269.7" r="4.2" fill="#F5C518" opacity="0.12"/>
  <circle cx="1181.0" cy="566.6" r="2.4" fill="#F5C518" opacity="0.12"/>
  <circle cx="688.3" cy="311.1" r="3.2" fill="#F5C518" opacity="0.12"/>
  <circle cx="514.4" cy="552.3" r="4.1" fill="#F5C518" opacity="0.12"/>
  <circle cx="1079.7" cy="643.0" r="3.3" fill="#F5C518" opacity="0.12"/>
  <circle cx="749.9" cy="405.9" r="2.8" fill="#F5C518" opacity="0.12"/>
  <circle cx="810.3" cy="528.7" r="4.5" fill="#F5C518" opacity="0.12"/>
  <circle cx="417.5" cy="540.7" r="2.4" fill="#F5C518" opacity="0.12"/>
  <circle cx="722.9" cy="507.6" r="3.8" fill="#F5C518" opacity="0.12"/>
  <circle cx="718.9" cy="490.4" r="4.6" fill="#F5C518" opacity="0.12"/>
  <circle cx="673.9" cy="97.6" r="4.3" fill="#F5C518" opacity="0.12"/>
  <circle cx="1054.6" cy="378.2" r="2.7" fill="#F5C518" opacity="0.12"/>
  <circle cx="199.9" cy="64.0" r="3.4" fill="#F5C518" opacity="0.12"/>
  <circle cx="824.9" cy="383.8" r="3.8" fill="#F5C518" opacity="0.12"/>
  <circle cx="594.5" cy="445.7" r="4.6" fill="#F5C518" opacity="0.12"/>
  <circle cx="974.1" cy="465.2" r="4.6" fill="#F5C518" opacity="0.12"/>
  <circle cx="411.1" cy="304.5" r="3.1" fill="#F5C518" opacity="0.12"/>
  <path d="M 80 261.08465706929564 C 441.0499854013324 339.78804941289127, 909.1601714957505 602.9893808066845, 1200 591.723335487768" fill="none" stroke="#F5A623" stroke-width="2" opacity="0.1" stroke-linecap="round"/>

  <circle cx="640" cy="350" r="95" fill="none" stroke="#F5C518" stroke-width="2" opacity="0.25"/>
  <path d="M 640 255 A 95 95 0 1 1 545 350" fill="none" stroke="#F5A623" stroke-width="4" opacity="0.3" stroke-linecap="round"/>  <line x1="640.0" y1="265.0" x2="640.0" y2="255.0" stroke="#F5C518" stroke-width="2.5" opacity="0.3"/>
  <line x1="682.5" y1="276.4" x2="687.5" y2="267.7" stroke="#F5C518" stroke-width="1.5" opacity="0.3"/>
  <line x1="713.6" y1="307.5" x2="722.3" y2="302.5" stroke="#F5C518" stroke-width="1.5" opacity="0.3"/>
  <line x1="725.0" y1="350.0" x2="735.0" y2="350.0" stroke="#F5C518" stroke-width="2.5" opacity="0.3"/>
  <line x1="713.6" y1="392.5" x2="722.3" y2="397.5" stroke="#F5C518" stroke-width="1.5" opacity="0.3"/>
  <line x1="682.5" y1="423.6" x2="687.5" y2="432.3" stroke="#F5C518" stroke-width="1.5" opacity="0.3"/>
  <line x1="640.0" y1="435.0" x2="640.0" y2="445.0" stroke="#F5C518" stroke-width="2.5" opacity="0.3"/>
  <line x1="597.5" y1="423.6" x2="592.5" y2="432.3" stroke="#F5C518" stroke-width="1.5" opacity="0.3"/>
  <line x1="566.4" y1="392.5" x2="557.7" y2="397.5" stroke="#F5C518" stroke-width="1.5" opacity="0.3"/>
  <line x1="555.0" y1="350.0" x2="545.0" y2="350.0" stroke="#F5C518" stroke-width="2.5" opacity="0.3"/>
  <line x1="566.4" y1="307.5" x2="557.7" y2="302.5" stroke="#F5C518" stroke-width="1.5" opacity="0.3"/>
  <line x1="597.5" y1="276.4" x2="592.5" y2="267.7" stroke="#F5C518" stroke-width="1.5" opacity="0.3"/>
  <circle cx="640" cy="350" r="4" fill="#F5C518" opacity="0.4"/>

</svg>