<svg xmlns="http://www.w3.org/2000/svg" viewBox="0 0 1280 720" fill="none">
<defs>
  <linearGradient id="bg-17-3" x1="0" y1="0" x2="1" y2="1">
    <stop offset="0%" stop-color="#F5C518" stop-opacity="0.05"/>
    <stop offset="100%" stop-color="#F5A623" stop-opacity="0.03"/>
  </linearGradient>
</defs>
  <rect width="1280" height="720" fill="url(#bg-17-3)"/>
  <path d="M 297.3 465.6 C 329.4 466.8, 367.5 469.6, 390.4 489.0 C 413.3 508.4, 435.3 551.7, 434.6 582.1 C 433.9 612.4, 409.1 651.8, 386.3 671.1 C 363.4 690.3, 326.5 698.1, 297.3 697.7 C 268.0 697.3, 229.6 688.0, 210.6 668.7 C 191.7 649.4, 186.0 613.2, 183.7 582.1 C 181.5 551.0, 178.4 501.6, 197.4 482.2 C 216.3 462.8, 265.1 464.5, 297.3 465.6 Z" fill="#F5C518" opacity="0.03"/>
  <path d="M 319.1 292.8 C 348.2 292.4, 380.2 337.6, 408.0 364.3 C 435.9 391.1, 487.0 424.3, 486.3 453.3 C 485.6 482.3, 431.8 508.9, 404.0 538.2 C 376.1 567.4, 345.8 630.5, 319.1 628.9 C 292.4 627.3, 262.6 557.8, 243.9 528.5 C 225.2 499.2, 208.6 480.2, 206.9 453.3 C 205.1 426.4, 214.4 394.0, 233.1 367.3 C 251.8 340.6, 289.9 293.3, 319.1 292.8 Z" fill="#F5A623" opacity="0.04"/>
  <circle cx="827.8" cy="44.9" r="3.7" fill="#F5C518" opacity="0.08"/>
  <circle cx="374.3" cy="192.1" r="1.6" fill="#F5C518" opacity="0.08"/>
  <circle cx="1014.1" cy="423.0" r="1.8" fill="#F5C518" opacity="0.08"/>
  <circle cx="880.9" cy="544.6" r="2.8" fill="#F5C518" opacity="0.08"/>
  <circle cx="1105.2" cy="51.2" r="2.8" fill="#F5C518" opacity="0.08"/>
  <circle cx="1162.6" cy="63.9" r="2.6" fill="#F5C518" opacity="0.08"/>
  <circle cx="936.3" cy="275.6" r="3.4" fill="#F5C518" opacity="0.08"/>
  <circle cx="976.7" cy="589.3" r="2.8" fill="#F5C518" opacity="0.08"/>
  <circle cx="800.6" cy="600.2" r="3.4" fill="#F5C518" opacity="0.08"/>
  <line x1="256.0" y1="360.0" x2="1024.0" y2="360.0" stroke="#F5C518" stroke-width="2" opacity="0.2" stroke-linecap="round"/>
  <line x1="256.0" y1="360.0" x2="793.6" y2="360.0" stroke="#F5C518" stroke-width="3" opacity="0.15" stroke-linecap="round"/>
  <circle cx="256.0" cy="360.0" r="5" fill="#F5C518" opacity="0.3"/>
  <rect x="188.8" y="210.4" width="134.4" height="129.6" rx="8" fill="#F5C518" opacity="0.07"/>
  <rect x="188.8" y="210.4" width="134.4" height="129.6" rx="8" fill="none" stroke="#F5C518" stroke-width="1" opacity="0.2"/>
  <line x1="256.0" y1="355.0" x2="256.0" y2="340.0" stroke="#F5C518" stroke-width="0.8" opacity="0.15"/>
  <line x1="219.3" y1="275.2" x2="292.7" y2="275.2" stroke="#F5C518" stroke-width="1.5" opacity="0.1" stroke-linecap="round"/>
  <circle cx="448.0" cy="360.0" r="5" fill="#F5A623" opacity="0.3"/>
  <rect x="380.8" y="380.0" width="134.4" height="129.6" rx="8" fill="#F5A623" opacity="0.07"/>
  <rect x="380.8" y="380.0" width="134.4" height="129.6" rx="8" fill="none" stroke="#F5A623" stroke-width="1" opacity="0.2"/>
  <line x1="448.0" y1="365.0" x2="448.0" y2="380.0" stroke="#F5A623" stroke-width="0.8" opacity="0.15"/>
  <line x1="401.0" y1="444.8" x2="495.0" y2="444.8" stroke="#F5A623" stroke-width="1.5" opacity="0.1" stroke-linecap="round"/>
  <circle cx="640.0" cy="360.0" r="5" fill="#F5C518" opacity="0.3"/>
  <rect x="572.8" y="210.4" width="134.4" height="129.6" rx="8" fill="#F5C518" opacity="0.07"/>
  <rect x="572.8" y="210.4" width="134.4" height="129.6" rx="8" fill="none" stroke="#F5C518" stroke-width="1" opacity="0.2"/>
  <line x1="640.0" y1="355.0" x2="640.0" y2="340.0" stroke="#F5C518" stroke-width="0.8" opacity="0.15"/>
  <line x1="596.5" y1="275.2" x2="683.5" y2="275.2" stroke="#F5C518" stroke-width="1.5" opacity="0.1" stroke-linecap="round"/>
  <circle cx="832.0" cy="360.0" r="5" fill="#F5A623" opacity="0.3"/>
  <rect x="764.8" y="380.0" width="134.4" height="129.6" rx="8" fill="#F5A623" opacity="0.07"/>
  <rect x="764.8" y="380.0" width="134.4" height="129.6" rx="8" fill="none" stroke="#F5A623" stroke-width="1" opacity="0.2"/>
  <line x1="832.0" y1="365.0" x2="832.0" y2="380.0" stroke="#F5A623" stroke-width="0.8" opacity="0.15"/>
  <line x1="785.1" y1="444.8" x2="878.9" y2="444.8" stroke="#F5A623" stroke-width="1.5" opacity="0.1" stroke-linecap="round"/>
  <circle cx="1024.0" cy="360.0" r="5" fill="#F5C518" opacity="0.3"/>
  <rect x="956.8" y="210.4" width="134.4" height="129.6" rx="8" fill="#F5C518" opacity="0.07"/>
  <rect x="956.8" y="210.4" width="134.4" height="129.6" rx="8" fill="none" stroke="#F5C518" stroke-width="1" opacity="0.2"/>
  <line x1="1024.0" y1="355.0" x2="1024.0" y2="340.0" stroke="#F5C518" stroke-width="0.8" opacity="0.15"/>
  <line x1="996.9" y1="275.2" x2="1051.1" y2="275.2" stroke="#F5C518" stroke-width="1.5" opacity="0.1" stroke-linecap="round"/>

</svg>