<svg xmlns="http://www.w3.org/2000/svg" viewBox="0 0 1280 720" fill="none">
<defs>
  <linearGradient id="bg-17-2" x1="0" y1="0" x2="1" y2="1">
    <stop offset="0%" stop-color="#F5C518" stop-opacity="0.05"/>
    <stop offset="100%" stop-color="#F5A623" stop-opacity="0.03"/>
  </linearGradient>
</defs>
  <rect width="1280" height="720" fill="url(#bg-17-2)"/>
  <path d="M 905.7 453.0 C 927.5 453.4, 947.5 511.1, 970.1 535.6 C 992.7 560.2, 1037.0 574.5, 1041.1 600.1 C 1045.2 625.7, 1017.5 663.3, 994.9 689.4 C 972.4 715.4, 935.5 756.3, 905.7 756.4 C 875.8 756.5, 831.8 716.0, 815.8 690.0 C 799.8 663.9, 805.8 626.2, 809.7 600.1 C 813.6 574.0, 823.1 558.0, 839.1 533.5 C 855.1 509.0, 883.8 452.7, 905.7 453.0 Z" fill="#F5C518" opacity="0.06"/>
  <circle cx="662.5" cy="624.8" r="2.3" fill="#F5C518" opacity="0.11"/>
  <circle cx="170.8" cy="120.6" r="3.1" fill="#F5C518" opacity="0.11"/>
  <circle cx="1066.0" cy="409.1" r="2.6" fill="#F5C518" opacity="0.11"/>
  <circle cx="1013.1" cy="587.7" r="3.9" fill="#F5C518" opacity="0.11"/>
  <circle cx="974.7" cy="114.0" r="3.3" fill="#F5C518" opacity="0.11"/>
  <circle cx="732.1" cy="532.5" r="3.4" fill="#F5C518" opacity="0.11"/>
  <circle cx="1091.9" cy="389.3" r="4.0" fill="#F5C518" opacity="0.11"/>
  <circle cx="105.3" cy="666.0" r="2.0" fill="#F5C518" opacity="0.11"/>
  <circle cx="88.8" cy="181.0" r="3.4" fill="#F5C518" opacity="0.11"/>
  <line x1="256.0" y1="360.0" x2="1024.0" y2="360.0" stroke="#F5C518" stroke-width="2" opacity="0.2" stroke-linecap="round"/>
  <line x1="256.0" y1="360.0" x2="793.6" y2="360.0" stroke="#F5C518" stroke-width="3" opacity="0.15" stroke-linecap="round"/>
  <circle cx="256.0" cy="360.0" r="5" fill="#F5C518" opacity="0.3"/>
  <rect x="188.8" y="210.4" width="134.4" height="129.6" rx="8" fill="#F5C518" opacity="0.07"/>
  <rect x="188.8" y="210.4" width="134.4" height="129.6" rx="8" fill="none" stroke="#F5C518" stroke-width="1" opacity="0.2"/>
  <line x1="256.0" y1="355.0" x2="256.0" y2="340.0" stroke="#F5C518" stroke-width="0.8" opacity="0.15"/>
  <line x1="226.5" y1="275.2" x2="285.5" y2="275.2" stroke="#F5C518" stroke-width="1.5" opacity="0.1" stroke-linecap="round"/>
  <circle cx="448.0" cy="360.0" r="5" fill="#F5A623" opacity="0.3"/>
  <rect x="380.8" y="380.0" width="134.4" height="129.6" rx="8" fill="#F5A623" opacity="0.07"/>
  <rect x="380.8" y="380.0" width="134.4" height="129.6" rx="8" fill="none" stroke="#F5A623" stroke-width="1" opacity="0.2"/>
  <line x1="448.0" y1="365.0" x2="448.0" y2="380.0" stroke="#F5A623" stroke-width="0.8" opacity="0.15"/>
  <line x1="402.5" y1="444.8" x2="493.5" y2="444.8" stroke="#F5A623" stroke-width="1.5" opacity="0.1" stroke-linecap="round"/>
  <circle cx="640.0" cy="360.0" r="5" fill="#F5C518" opacity="0.3"/>
  <rect x="572.8" y="210.4" width="134.4" height="129.6" rx="8" fill="#F5C518" opacity="0.07"/>
  <rect x="572.8" y="210.4" width="134.4" height="129.6" rx="8" fill="none" stroke="#F5C518" stroke-width="1" opacity="0.2"/>
  <line x1="640.0" y1="355.0" x2="640.0" y2="340.0" stroke="#F5C518" stroke-width="0.8" opacity="0.15"/>
  <line x1="605.1" y1="275.2" x2="674.9" y2="275.2" stroke="#F5C518" stroke-width="1.5" opacity="0.1" stroke-linecap="round"/>
  <circle cx="832.0" cy="360.0" r="5" fill="#F5A623" opacity="0.3"/>
  <rect x="764.8" y="380.0" width="134.4" height="129.6" rx="8" fill="#F5A623" opacity="0.07"/>
  <rect x="764.8" y="380.0" width="134.4" height="129.6" rx="8" fill="none" stroke="#F5A623" stroke-width="1" opacity="0.2"/>
  <line x1="832.0" y1="365.0" x2="832.0" y2="380.0" stroke="#F5A623" stroke-width="0.8" opacity="0.15"/>
  <line x1="805.0" y1="444.8" x2="859.0" y2="444.8" stroke="#F5A623" stroke-width="1.5" opacity="0.1" stroke-linecap="round"/>
  <circle cx="1024.0" cy="360.0" r="5" fill="#F5C518" opacity="0.3"/>
  <rect x="956.8" y="210.4" width="134.4" height="129.6" rx="8" fill="#F5C518" opacity="0.07"/>
  <rect x="956.8" y="210.4" width="134.4" height="129.6" rx="8" fill="none" stroke="#F5C518" stroke-width="1" opacity="0.2"/>
  <line x1="1024.0" y1="355.0" x2="1024.0" y2="340.0" stroke="#F5C518" stroke-width="0.8" opacity="0.15"/>
  <line x1="990.4" y1="275.2" x2="1057.6" y2="275.2" stroke="#F5C518" stroke-width="1.5" opacity="0.1" stroke-linecap="round"/>

</svg>