<svg xmlns="http://www.w3.org/2000/svg" viewBox="0 0 1280 720" fill="none">
<defs>
  <linearGradient id="bg-17-5" x1="0" y1="0" x2="1" y2="1">
    <stop offset="0%" stop-color="#F5C518" stop-opacity="0.05"/>
    <stop offset="100%" stop-color="#F5A623" stop-opacity="0.03"/>
  </linearGradient>
</defs>
  <rect width="1280" height="720" fill="url(#bg-17-5)"/>
  <path d="M 333.6 281.4 C 361.0 279.3, 400.1 286.9, 422.4 305.8 C 444.8 324.7, 467.2 364.5, 467.7 394.6 C 468.2 424.7, 447.8 463.7, 425.4 486.4 C 403.1 509.1, 366.0 529.0, 333.6 530.8 C 301.2 532.6, 248.0 519.8, 231.1 497.1 C 214.2 474.4, 227.7 424.3, 232.2 394.6 C 236.7 364.9, 241.0 337.7, 257.9 318.9 C 274.8 300.0, 306.2 283.6, 333.6 281.4 Z" fill="#F5C518" opacity="0.05"/>
  <path d="M 1059.3 158.7 C 1107.0 161.6, 1157.5 135.7, 1193.6 158.0 C 1229.7 180.2, 1272.7 244.3, 1275.9 292.3 C 1279.1 340.3, 1248.9 418.1, 1212.8 445.8 C 1176.7 473.5, 1107.6 461.3, 1059.3 458.5 C 1011.0 455.6, 944.3 456.2, 923.0 428.5 C 901.7 400.8, 934.1 340.3, 931.5 292.3 C 928.9 244.3, 886.2 162.7, 907.5 140.5 C 928.8 118.2, 1011.6 155.8, 1059.3 158.7 Z" fill="#F5A623" opacity="0.05"/>
  <circle cx="164.8" cy="566.6" r="1.9" fill="#F5C518" opacity="0.09"/>
  <circle cx="578.0" cy="533.8" r="2.7" fill="#F5C518" opacity="0.09"/>
  <circle cx="158.1" cy="466.6" r="2.3" fill="#F5C518" opacity="0.09"/>
  <circle cx="731.6" cy="236.0" r="3.2" fill="#F5C518" opacity="0.09"/>
  <circle cx="499.1" cy="217.5" r="2.7" fill="#F5C518" opacity="0.09"/>
  <circle cx="211.0" cy="571.9" r="3.2" fill="#F5C518" opacity="0.09"/>
  <circle cx="708.8" cy="198.1" r="3.2" fill="#F5C518" opacity="0.09"/>
  <circle cx="1055.5" cy="92.9" r="2.1" fill="#F5C518" opacity="0.09"/>
  <line x1="256.0" y1="360.0" x2="1024.0" y2="360.0" stroke="#F5C518" stroke-width="2" opacity="0.2" stroke-linecap="round"/>
  <line x1="256.0" y1="360.0" x2="793.6" y2="360.0" stroke="#F5C518" stroke-width="3" opacity="0.15" stroke-linecap="round"/>
  <circle cx="256.0" cy="360.0" r="5" fill="#F5C518" opacity="0.3"/>
  <rect x="188.8" y="210.4" width="134.4" height="129.6" rx="8" fill="#F5C518" opacity="0.07"/>
  <rect x="188.8" y="210.4" width="134.4" height="129.6" rx="8" fill="none" stroke="#F5C518" stroke-width="1" opacity="0.2"/>
  <line x1="256.0" y1="355.0" x2="256.0" y2="340.0" stroke="#F5C518" stroke-width="0.8" opacity="0.15"/>
  <line x1="220.6" y1="275.2" x2="291.4" y2="275.2" stroke="#F5C518" stroke-width="1.5" opacity="0.1" stroke-linecap="round"/>
  <circle cx="448.0" cy="360.0" r="5" fill="#F5A623" opacity="0.3"/>
  <rect x="380.8" y="380.0" width="134.4" height="129.6" rx="8" fill="#F5A623" opacity="0.07"/>
  <rect x="380.8" y="380.0" width="134.4" height="129.6" rx="8" fill="none" stroke="#F5A623" stroke-width="1" opacity="0.2"/>
  <line x1="448.0" y1="365.0" x2="448.0" y2="380.0" stroke="#F5A623" stroke-width="0.8" opacity="0.15"/>
  <line x1="418.2" y1="444.8" x2="477.8" y2="444.8" stroke="#F5A623" stroke-width="1.5" opacity="0.1" stroke-linecap="round"/>
  <circle cx="640.0" cy="360.0" r="5" fill="#F5C518" opacity="0.3"/>
  <rect x="572.8" y="210.4" width="134.4" height="129.6" rx="8" fill="#F5C518" opacity="0.07"/>
  <rect x="572.8" y="210.4" width="134.4" height="129.6" rx="8" fill="none" stroke="#F5C518" stroke-width="1" opacity="0.2"/>
  <line x1="640.0" y1="355.0" x2="640.0" y2="340.0" stroke="#F5C518" stroke-width="0.8" opacity="0.15"/>
  <line x1="606.6" y1="275.2" x2="673.4" y2="275.2" stroke="#F5C518" stroke-width="1.5" opacity="0.1" stroke-linecap="round"/>
  <circle cx="832.0" cy="360.0" r="5" fill="#F5A623" opacity="0.3"/>
  <rect x="764.8" y="380.0" width="134.4" height="129.6" rx="8" fill="#F5A623" opacity="0.07"/>
  <rect x="764.8" y="380.0" width="134.4" height="129.6" rx="8" fill="none" stroke="#F5A623" stroke-width="1" opacity="0.2"/>
  <line x1="832.0" y1="365.0" x2="832.0" y2="380.0" stroke="#F5A623" stroke-width="0.8" opacity="0.15"/>
  <line x1="799.9" y1="444.8" x2="864.1" y2="444.8" stroke="#F5A623" stroke-width="1.5" opacity="0.1" stroke-linecap="round"/>
  <circle cx="1024.0" cy="360.0" r="5" fill="#F5C518" opacity="0.3"/>
  <rect x="956.8" y="210.4" width="134.4" height="129.6" rx="8" fill="#F5C518" opacity="0.07"/>
  <rect x="956.8" y="210.4" width="134.4" height="129.6" rx="8" fill="none" stroke="#F5C518" stroke-width="1" opacity="0.2"/>
  <line x1="1024.0" y1="355.0" x2="1024.0" y2="340.0" stroke="#F5C518" stroke-width="0.8" opacity="0.15"/>
  <line x1="981.1" y1="275.2" x2="1066.9" y2="275.2" stroke="#F5C518" stroke-width="1.5" opacity="0.1" stroke-linecap="round"/>

</svg>