<svg xmlns="http://www.w3.org/2000/svg" viewBox="0 0 1280 720" fill="none">
<defs>
  <linearGradient id="bg-19-2" x1="0" y1="0" x2="1" y2="1">
    <stop offset="0%" stop-color="#F5C518" stop-opacity="0.05"/>
    <stop offset="100%" stop-color="#F5A623" stop-opacity="0.03"/>
  </linearGradient>
</defs>
  <rect width="1280" height="720" fill="url(#bg-19-2)"/>
  <path d="M 314.9 -40.0 C 354.3 -32.1, 386.7 26.7, 409.4 58.9 C 432.0 91.1, 449.1 119.9, 451.0 153.3 C 453.0 186.7, 443.6 223.9, 420.9 259.3 C 398.2 294.7, 352.8 363.1, 314.9 365.6 C 277.1 368.1, 228.6 309.7, 194.0 274.3 C 159.3 239.0, 110.7 197.1, 107.3 153.3 C 103.8 109.6, 138.7 43.9, 173.3 11.7 C 207.9 -20.5, 275.6 -47.8, 314.9 -40.0 Z" fill="#F5C518" opacity="0.04"/>
  <circle cx="843.1" cy="574.6" r="1.9" fill="#F5C518" opacity="0.10"/>
  <circle cx="1021.5" cy="625.0" r="2.4" fill="#F5C518" opacity="0.10"/>
  <circle cx="444.1" cy="653.4" r="2.9" fill="#F5C518" opacity="0.10"/>
  <circle cx="320.0" cy="352.9" r="3.8" fill="#F5C518" opacity="0.10"/>
  <circle cx="329.9" cy="488.6" r="3.3" fill="#F5C518" opacity="0.10"/>
  <circle cx="969.0" cy="97.2" r="1.8" fill="#F5C518" opacity="0.10"/>
  <circle cx="260.2" cy="95.6" r="1.7" fill="#F5C518" opacity="0.10"/>
  <circle cx="1041.1" cy="189.8" r="3.1" fill="#F5C518" opacity="0.10"/>
  <line x1="350.1" y1="441.0" x2="974.5" y2="441.0" stroke="#F5C518" stroke-width="0.5" opacity="0.1"/>
  <line x1="350.1" y1="360.0" x2="974.5" y2="360.0" stroke="#F5C518" stroke-width="0.5" opacity="0.1"/>
  <line x1="350.1" y1="279.0" x2="974.5" y2="279.0" stroke="#F5C518" stroke-width="0.5" opacity="0.1"/>
  <line x1="350.1" y1="198.0" x2="974.5" y2="198.0" stroke="#F5C518" stroke-width="0.5" opacity="0.1"/>
  <line x1="350.1" y1="522.0" x2="974.5" y2="522.0" stroke="#F5C518" stroke-width="1.5" opacity="0.2"/>
  <rect x="360.1" y="292.7" width="68.3" height="229.3" rx="4" fill="#F5C518" opacity="0.15"/>
  <rect x="360.1" y="292.7" width="68.3" height="229.3" rx="4" fill="none" stroke="#F5C518" stroke-width="1" opacity="0.25"/>
  <rect x="483.0" y="315.3" width="68.3" height="206.7" rx="4" fill="#F5A623" opacity="0.19"/>
  <rect x="483.0" y="315.3" width="68.3" height="206.7" rx="4" fill="none" stroke="#F5A623" stroke-width="1" opacity="0.25"/>
  <rect x="605.9" y="411.3" width="68.3" height="110.7" rx="4" fill="#F5C518" opacity="0.18"/>
  <rect x="605.9" y="411.3" width="68.3" height="110.7" rx="4" fill="none" stroke="#F5C518" stroke-width="1" opacity="0.25"/>
  <rect x="728.7" y="347.1" width="68.3" height="174.9" rx="4" fill="#F5A623" opacity="0.22"/>
  <rect x="728.7" y="347.1" width="68.3" height="174.9" rx="4" fill="none" stroke="#F5A623" stroke-width="1" opacity="0.25"/>
  <rect x="851.6" y="231.3" width="68.3" height="290.7" rx="4" fill="#F5C518" opacity="0.21"/>
  <rect x="851.6" y="231.3" width="68.3" height="290.7" rx="4" fill="none" stroke="#F5C518" stroke-width="1" opacity="0.25"/>

</svg>