<svg xmlns="http://www.w3.org/2000/svg" viewBox="0 0 1280 720" fill="none">
<defs>
  <linearGradient id="bg-19-4" x1="0" y1="0" x2="1" y2="1">
    <stop offset="0%" stop-color="#F5C518" stop-opacity="0.05"/>
    <stop offset="100%" stop-color="#F5A623" stop-opacity="0.03"/>
  </linearGradient>
</defs>
  <rect width="1280" height="720" fill="url(#bg-19-4)"/>
  <path d="M 861.7 526.7 C 886.9 524.1, 932.6 504.9, 945.0 517.2 C 957.3 529.5, 938.9 575.7, 935.8 600.4 C 932.7 625.1, 938.9 648.7, 926.5 665.2 C 914.2 681.8, 883.5 699.6, 861.7 699.7 C 840.0 699.9, 815.1 682.8, 795.9 666.3 C 776.7 649.7, 746.9 622.7, 746.6 600.4 C 746.3 578.2, 775.0 545.1, 794.2 532.9 C 813.4 520.6, 836.6 529.4, 861.7 526.7 Z" fill="#F5C518" opacity="0.03"/>
  <circle cx="265.8" cy="322.5" r="2.5" fill="#F5C518" opacity="0.07"/>
  <circle cx="808.3" cy="436.6" r="2.6" fill="#F5C518" opacity="0.07"/>
  <circle cx="1210.9" cy="267.2" r="3.4" fill="#F5C518" opacity="0.07"/>
  <circle cx="306.2" cy="305.9" r="1.7" fill="#F5C518" opacity="0.07"/>
  <circle cx="669.2" cy="415.2" r="3.0" fill="#F5C518" opacity="0.07"/>
  <circle cx="988.9" cy="616.1" r="3.7" fill="#F5C518" opacity="0.07"/>
  <circle cx="417.5" cy="353.7" r="2.0" fill="#F5C518" opacity="0.07"/>
  <circle cx="312.0" cy="440.9" r="2.9" fill="#F5C518" opacity="0.07"/>
  <circle cx="171.0" cy="121.5" r="3.0" fill="#F5C518" opacity="0.07"/>
  <circle cx="744.0" cy="398.4" r="3.8" fill="#F5C518" opacity="0.07"/>
  <line x1="640.0" y1="144.0" x2="640.0" y2="576.0" stroke="#F5C518" stroke-width="1" opacity="0.15" stroke-dasharray="6 4"/>
  <path d="M 276.7 205.3 C 289.3 205.2, 306.1 229.8, 315.1 245.3 C 324.1 260.9, 337.1 286.2, 330.7 298.7 C 324.3 311.2, 294.0 320.8, 276.7 320.4 C 259.4 320.0, 233.1 308.6, 226.9 296.2 C 220.8 283.9, 231.4 261.3, 239.7 246.1 C 248.0 231.0, 264.1 205.5, 276.7 205.3 Z" fill="#F5A623" opacity="0.06"/>
  <path d="M 423.9 431.8 C 443.2 431.9, 472.2 452.4, 481.6 469.7 C 491.0 487.0, 490.1 519.2, 480.5 535.6 C 470.9 552.0, 445.1 566.8, 423.9 568.1 C 402.7 569.5, 363.0 560.2, 353.3 543.7 C 343.6 527.3, 353.9 488.0, 365.7 469.3 C 377.5 450.7, 404.6 431.8, 423.9 431.8 Z" fill="#F5A623" opacity="0.07"/>
  <path d="M 354.8 447.0 C 369.5 445.6, 400.6 459.5, 406.2 471.8 C 411.8 484.1, 397.0 509.1, 388.4 520.8 C 379.8 532.6, 365.3 542.4, 354.8 542.0 C 344.3 541.6, 331.6 528.7, 325.5 518.4 C 319.4 508.1, 313.2 492.1, 318.1 480.2 C 323.0 468.3, 340.1 448.4, 354.8 447.0 Z" fill="#F5A623" opacity="0.05"/>
  <line x1="281.6" y1="158.4" x2="512.0" y2="158.4" stroke="#F5A623" stroke-width="2" opacity="0.12" stroke-linecap="round"/>
  <path d="M 835.6 361.5 C 843.1 362.3, 850.7 370.0, 854.9 375.9 C 859.2 381.8, 862.5 390.4, 861.2 397.1 C 860.0 403.8, 853.7 413.1, 847.6 416.0 C 841.4 419.0, 831.2 417.7, 824.4 414.7 C 817.5 411.7, 808.8 405.2, 806.5 397.9 C 804.1 390.7, 805.4 377.1, 810.2 371.0 C 815.1 364.9, 828.2 360.7, 835.6 361.5 Z" fill="#F5C518" opacity="0.12"/>
  <path d="M 806.8 241.7 C 813.8 242.0, 821.8 245.0, 826.9 250.3 C 832.0 255.6, 839.3 267.5, 837.5 273.4 C 835.7 279.2, 823.2 282.5, 816.0 285.6 C 808.8 288.7, 800.3 294.1, 794.5 291.9 C 788.6 289.6, 782.7 279.4, 781.1 272.2 C 779.4 265.0, 780.3 253.8, 784.6 248.7 C 788.9 243.6, 799.7 241.4, 806.8 241.7 Z" fill="#F5C518" opacity="0.10"/>
  <path d="M 838.8 387.4 C 851.4 386.2, 869.5 404.4, 881.1 417.7 C 892.6 431.0, 911.2 453.6, 907.9 467.1 C 904.7 480.6, 877.9 491.0, 861.6 498.5 C 845.2 506.0, 823.3 517.5, 809.7 511.9 C 796.1 506.3, 780.6 479.3, 780.0 464.8 C 779.3 450.3, 796.1 437.9, 805.9 425.0 C 815.7 412.2, 826.3 388.7, 838.8 387.4 Z" fill="#F5C518" opacity="0.15"/>
  <path d="M 857.4 215.7 C 865.3 215.6, 876.3 223.0, 881.3 229.6 C 886.3 236.3, 889.0 247.4, 887.3 255.4 C 885.7 263.5, 878.4 274.7, 871.4 277.7 C 864.5 280.6, 852.7 277.0, 845.6 273.2 C 838.6 269.4, 831.2 262.2, 829.3 255.1 C 827.4 247.9, 829.5 236.7, 834.2 230.1 C 838.9 223.6, 849.6 215.8, 857.4 215.7 Z" fill="#F5C518" opacity="0.15"/>
  <path d="M 925.3 277.2 C 934.7 276.9, 949.7 277.8, 954.7 283.9 C 959.6 290.1, 956.7 303.7, 954.9 314.2 C 953.2 324.6, 952.9 340.4, 944.3 346.8 C 935.6 353.3, 912.6 358.2, 903.3 353.0 C 894.0 347.8, 889.4 327.0, 888.5 315.8 C 887.6 304.5, 891.6 291.9, 897.7 285.4 C 903.8 279.0, 915.8 277.5, 925.3 277.2 Z" fill="#F5C518" opacity="0.11"/>
  <circle cx="955.1" cy="459.9" r="4.6" fill="#F5C518" opacity="0.12"/>
  <circle cx="713.3" cy="199.5" r="3.2" fill="#F5C518" opacity="0.12"/>
  <circle cx="1003.9" cy="430.4" r="3.8" fill="#F5C518" opacity="0.12"/>
  <circle cx="1032.9" cy="246.9" r="4.4" fill="#F5C518" opacity="0.12"/>
  <circle cx="977.9" cy="323.8" r="3.9" fill="#F5C518" opacity="0.12"/>
  <circle cx="1021.2" cy="456.9" r="2.0" fill="#F5C518" opacity="0.12"/>
  <circle cx="976.9" cy="289.4" r="4.9" fill="#F5C518" opacity="0.12"/>
  <circle cx="855.8" cy="432.1" r="2.4" fill="#F5C518" opacity="0.12"/>
  <line x1="768.0" y1="158.4" x2="998.4" y2="158.4" stroke="#F5C518" stroke-width="2.5" opacity="0.2" stroke-linecap="round"/>
  <rect x="635.0" y="355.0" width="10" height="10" fill="#F5C518" opacity="0.2" transform="rotate(45 640.0 360.0)"/>

</svg>