<svg xmlns="http://www.w3.org/2000/svg" viewBox="0 0 1280 720" fill="none">
<defs>
  <linearGradient id="bg-19-3" x1="0" y1="0" x2="1" y2="1">
    <stop offset="0%" stop-color="#F5C518" stop-opacity="0.05"/>
    <stop offset="100%" stop-color="#F5A623" stop-opacity="0.03"/>
  </linearGradient>
</defs>
  <rect width="1280" height="720" fill="url(#bg-19-3)"/>
  <path d="M 706.4 355.6 C 746.7 344.2, 833.0 336.0, 861.1 363.1 C 889.3 390.1, 883.7 474.7, 875.2 517.8 C 866.7 560.9, 838.3 598.0, 810.1 621.5 C 782.0 645.0, 748.6 651.3, 706.4 658.9 C 664.2 666.6, 582.0 690.8, 556.9 667.3 C 531.9 643.7, 545.4 557.2, 555.9 517.8 C 566.3 478.4, 594.5 458.0, 619.6 431.0 C 644.7 403.9, 666.2 366.9, 706.4 355.6 Z" fill="#F5C518" opacity="0.05"/>
  <path d="M 540.6 289.0 C 571.9 290.1, 606.9 308.6, 631.1 330.6 C 655.3 352.6, 688.0 393.1, 685.8 421.1 C 683.6 449.1, 642.1 483.3, 617.9 498.4 C 593.7 513.5, 567.3 510.9, 540.6 511.8 C 514.0 512.6, 478.7 518.7, 458.1 503.6 C 437.6 488.5, 419.7 451.0, 417.3 421.1 C 414.9 391.2, 423.3 346.3, 443.8 324.3 C 464.4 302.3, 509.4 288.0, 540.6 289.0 Z" fill="#F5A623" opacity="0.05"/>
  <circle cx="176.9" cy="643.9" r="2.2" fill="#F5C518" opacity="0.10"/>
  <circle cx="480.9" cy="282.1" r="4.0" fill="#F5C518" opacity="0.10"/>
  <circle cx="250.4" cy="75.9" r="3.4" fill="#F5C518" opacity="0.10"/>
  <circle cx="1164.2" cy="126.2" r="2.6" fill="#F5C518" opacity="0.10"/>
  <circle cx="410.3" cy="431.4" r="3.0" fill="#F5C518" opacity="0.10"/>
  <circle cx="1065.7" cy="615.7" r="2.2" fill="#F5C518" opacity="0.10"/>
  <circle cx="357.4" cy="77.9" r="3.7" fill="#F5C518" opacity="0.10"/>
  <circle cx="449.0" cy="406.8" r="3.8" fill="#F5C518" opacity="0.10"/>
  <circle cx="1047.3" cy="417.3" r="2.6" fill="#F5C518" opacity="0.10"/>
  <line x1="350.1" y1="441.0" x2="974.5" y2="441.0" stroke="#F5C518" stroke-width="0.5" opacity="0.1"/>
  <line x1="350.1" y1="360.0" x2="974.5" y2="360.0" stroke="#F5C518" stroke-width="0.5" opacity="0.1"/>
  <line x1="350.1" y1="279.0" x2="974.5" y2="279.0" stroke="#F5C518" stroke-width="0.5" opacity="0.1"/>
  <line x1="350.1" y1="198.0" x2="974.5" y2="198.0" stroke="#F5C518" stroke-width="0.5" opacity="0.1"/>
  <line x1="350.1" y1="522.0" x2="974.5" y2="522.0" stroke="#F5C518" stroke-width="1.5" opacity="0.2"/>
  <rect x="360.1" y="261.2" width="68.3" height="260.8" rx="4" fill="#F5C518" opacity="0.13"/>
  <rect x="360.1" y="261.2" width="68.3" height="260.8" rx="4" fill="none" stroke="#F5C518" stroke-width="1" opacity="0.25"/>
  <rect x="483.0" y="353.7" width="68.3" height="168.3" rx="4" fill="#F5A623" opacity="0.14"/>
  <rect x="483.0" y="353.7" width="68.3" height="168.3" rx="4" fill="none" stroke="#F5A623" stroke-width="1" opacity="0.25"/>
  <rect x="605.9" y="278.2" width="68.3" height="243.8" rx="4" fill="#F5C518" opacity="0.17"/>
  <rect x="605.9" y="278.2" width="68.3" height="243.8" rx="4" fill="none" stroke="#F5C518" stroke-width="1" opacity="0.25"/>
  <rect x="728.7" y="380.8" width="68.3" height="141.2" rx="4" fill="#F5A623" opacity="0.14"/>
  <rect x="728.7" y="380.8" width="68.3" height="141.2" rx="4" fill="none" stroke="#F5A623" stroke-width="1" opacity="0.25"/>
  <rect x="851.6" y="395.4" width="68.3" height="126.6" rx="4" fill="#F5C518" opacity="0.20"/>
  <rect x="851.6" y="395.4" width="68.3" height="126.6" rx="4" fill="none" stroke="#F5C518" stroke-width="1" opacity="0.25"/>

</svg>