<svg xmlns="http://www.w3.org/2000/svg" viewBox="0 0 1280 720" fill="none">
<defs>
  <linearGradient id="bg-8-10" x1="0" y1="0" x2="1" y2="1">
    <stop offset="0%" stop-color="#2DAA6E" stop-opacity="0.05"/>
    <stop offset="100%" stop-color="#4CB648" stop-opacity="0.03"/>
  </linearGradient>
</defs>
  <rect width="1280" height="720" fill="url(#bg-8-10)"/>
  <path d="M 314.8 101.3 C 354.5 94.9, 431.1 113.0, 453.0 143.0 C 474.9 173.0, 451.9 241.1, 446.0 281.2 C 440.0 321.3, 439.3 354.5, 417.5 383.8 C 395.6 413.2, 347.0 459.4, 314.8 457.3 C 282.7 455.2, 254.1 400.7, 224.7 371.3 C 195.3 342.0, 140.1 312.9, 138.5 281.2 C 136.8 249.5, 185.4 211.2, 214.8 181.2 C 244.2 151.2, 275.1 107.6, 314.8 101.3 Z" fill="#2DAA6E" opacity="0.06"/>
  <circle cx="1213.7" cy="679.5" r="2.4" fill="#2DAA6E" opacity="0.07"/>
  <circle cx="407.6" cy="145.7" r="1.7" fill="#2DAA6E" opacity="0.07"/>
  <circle cx="628.4" cy="189.2" r="3.5" fill="#2DAA6E" opacity="0.07"/>
  <circle cx="1077.5" cy="496.1" r="2.8" fill="#2DAA6E" opacity="0.07"/>
  <circle cx="1102.1" cy="349.3" r="2.5" fill="#2DAA6E" opacity="0.07"/>
  <circle cx="97.7" cy="382.3" r="3.4" fill="#2DAA6E" opacity="0.07"/>
  <circle cx="1192.6" cy="105.2" r="3.0" fill="#2DAA6E" opacity="0.07"/>
  <rect x="315.2" y="175.2" width="649.6" height="86.4" rx="8" fill="#2DAA6E" opacity="0.08"/>
  <rect x="315.2" y="175.2" width="649.6" height="86.4" rx="8" fill="none" stroke="#2DAA6E" stroke-width="1.2" opacity="0.25"/>
  <circle cx="640.0" cy="218.4" r="8.4" fill="#2DAA6E" opacity="0.2"/>
  <line x1="511.2" y1="218.4" x2="784.8" y2="218.4" stroke="#2DAA6E" stroke-width="1.5" opacity="0.1" stroke-linecap="round"/>
  <rect x="427.3" y="269.6" width="425.4" height="86.4" rx="8" fill="#4CB648" opacity="0.11"/>
  <rect x="427.3" y="269.6" width="425.4" height="86.4" rx="8" fill="none" stroke="#4CB648" stroke-width="1.2" opacity="0.25"/>
  <circle cx="640.0" cy="312.8" r="8.4" fill="#4CB648" opacity="0.2"/>
  <line x1="534.2" y1="312.8" x2="761.8" y2="312.8" stroke="#4CB648" stroke-width="1.5" opacity="0.1" stroke-linecap="round"/>
  <rect x="486.7" y="364.0" width="306.6" height="86.4" rx="8" fill="#2DAA6E" opacity="0.14"/>
  <rect x="486.7" y="364.0" width="306.6" height="86.4" rx="8" fill="none" stroke="#2DAA6E" stroke-width="1.2" opacity="0.25"/>
  <circle cx="640.0" cy="407.2" r="6.1" fill="#2DAA6E" opacity="0.2"/>
  <line x1="577.3" y1="407.2" x2="718.7" y2="407.2" stroke="#2DAA6E" stroke-width="1.5" opacity="0.1" stroke-linecap="round"/>
  <rect x="562.5" y="458.4" width="154.9" height="86.4" rx="8" fill="#4CB648" opacity="0.17"/>
  <rect x="562.5" y="458.4" width="154.9" height="86.4" rx="8" fill="none" stroke="#4CB648" stroke-width="1.2" opacity="0.25"/>
  <circle cx="640.0" cy="501.6" r="6.3" fill="#4CB648" opacity="0.2"/>
  <line x1="620.1" y1="501.6" x2="675.9" y2="501.6" stroke="#4CB648" stroke-width="1.5" opacity="0.1" stroke-linecap="round"/>

</svg>