<svg xmlns="http://www.w3.org/2000/svg" viewBox="0 0 1280 720" fill="none">
<defs>
  <linearGradient id="bg-8-11" x1="0" y1="0" x2="1" y2="1">
    <stop offset="0%" stop-color="#2DAA6E" stop-opacity="0.05"/>
    <stop offset="100%" stop-color="#4CB648" stop-opacity="0.03"/>
  </linearGradient>
</defs>
  <rect width="1280" height="720" fill="url(#bg-8-11)"/>
  <path d="M 518.5 46.2 C 554.3 37.2, 628.3 75.5, 653.0 108.3 C 677.8 141.0, 669.8 200.8, 667.0 242.8 C 664.1 284.7, 660.7 331.0, 636.0 360.2 C 611.2 389.3, 553.8 421.5, 518.5 417.6 C 483.3 413.7, 449.1 365.8, 424.6 336.7 C 400.1 307.6, 369.1 271.8, 371.4 242.8 C 373.7 213.7, 413.7 195.2, 438.3 162.5 C 462.8 129.7, 482.7 55.3, 518.5 46.2 Z" fill="#2DAA6E" opacity="0.06"/>
  <path d="M 477.2 513.9 C 503.6 514.9, 538.7 516.2, 553.6 532.0 C 568.6 547.7, 570.0 586.1, 566.8 608.4 C 563.6 630.7, 549.5 650.3, 534.6 665.8 C 519.6 681.2, 499.1 698.5, 477.2 701.2 C 455.3 704.0, 415.3 697.8, 403.3 682.4 C 391.3 666.9, 406.5 634.4, 405.2 608.4 C 403.8 582.4, 383.2 542.2, 395.3 526.4 C 407.3 510.7, 450.8 513.0, 477.2 513.9 Z" fill="#4CB648" opacity="0.04"/>
  <circle cx="370.4" cy="374.1" r="3.5" fill="#2DAA6E" opacity="0.08"/>
  <circle cx="720.5" cy="368.2" r="2.4" fill="#2DAA6E" opacity="0.08"/>
  <circle cx="876.1" cy="204.5" r="2.3" fill="#2DAA6E" opacity="0.08"/>
  <circle cx="796.1" cy="489.7" r="3.8" fill="#2DAA6E" opacity="0.08"/>
  <circle cx="454.5" cy="110.1" r="1.5" fill="#2DAA6E" opacity="0.08"/>
  <circle cx="129.9" cy="365.9" r="3.1" fill="#2DAA6E" opacity="0.08"/>
  <circle cx="797.8" cy="57.8" r="3.2" fill="#2DAA6E" opacity="0.08"/>
  <circle cx="473.5" cy="540.0" r="2.3" fill="#2DAA6E" opacity="0.08"/>
  <circle cx="306.1" cy="257.7" r="1.6" fill="#2DAA6E" opacity="0.08"/>
  <rect x="0" y="417.6" width="1280" height="302.4" fill="#2DAA6E" opacity="0.04"/>
  <path d="M 0 417.6 Q 80.0 414.0, 160.0 417.4 Q 240.0 429.1, 320.0 424.7 Q 400.0 415.8, 480.0 410.9 Q 560.0 425.1, 640.0 421.7 Q 720.0 423.9, 800.0 420.9 Q 880.0 417.6, 960.0 419.6 Q 1040.0 416.4, 1120.0 415.4 Q 1200.0 413.7, 1280.0 410.7" fill="none" stroke="#2DAA6E" stroke-width="1.5" opacity="0.15"/>
  <path d="M 609.9 369.3 C 619.7 368.8, 637.8 372.5, 641.7 379.5 C 645.7 386.6, 638.9 403.1, 633.6 411.5 C 628.3 420.0, 617.6 430.2, 609.9 430.0 C 602.3 429.9, 592.0 418.7, 587.6 410.8 C 583.2 402.9, 579.7 389.5, 583.4 382.6 C 587.2 375.7, 600.2 369.8, 609.9 369.3 Z" fill="#2DAA6E" opacity="0.09"/>
  <line x1="609.9" y1="414.1" x2="609.9" y2="432.6" stroke="#2DAA6E" stroke-width="1.5" opacity="0.12"/>
  <path d="M 990.2 354.2 C 998.2 354.3, 1009.8 371.7, 1013.4 380.3 C 1017.0 389.0, 1015.5 397.5, 1011.6 406.1 C 1007.8 414.7, 997.0 432.3, 990.2 432.1 C 983.5 431.9, 975.0 413.6, 970.9 404.9 C 966.8 396.1, 962.4 388.0, 965.7 379.5 C 968.9 371.1, 982.3 354.0, 990.2 354.2 Z" fill="#2DAA6E" opacity="0.07"/>
  <line x1="990.2" y1="409.0" x2="990.2" y2="432.6" stroke="#2DAA6E" stroke-width="1.5" opacity="0.12"/>
  <path d="M 281.2 351.2 C 290.6 351.4, 300.2 369.1, 308.3 381.4 C 316.3 393.6, 334.1 413.1, 329.6 424.9 C 325.1 436.8, 294.7 454.0, 281.2 452.5 C 267.7 451.0, 253.4 427.9, 248.5 415.9 C 243.6 403.8, 246.5 390.9, 251.9 380.1 C 257.4 369.3, 271.8 351.0, 281.2 351.2 Z" fill="#2DAA6E" opacity="0.11"/>
  <line x1="281.2" y1="418.9" x2="281.2" y2="432.6" stroke="#2DAA6E" stroke-width="1.5" opacity="0.12"/>
  <path d="M 904.2 366.8 C 914.8 365.7, 935.9 370.2, 942.0 379.4 C 948.1 388.7, 947.1 413.5, 940.8 422.3 C 934.5 431.2, 915.2 433.4, 904.2 432.7 C 893.3 432.0, 879.6 425.7, 875.3 417.9 C 871.0 410.2, 873.6 394.9, 878.4 386.3 C 883.2 377.8, 893.7 368.0, 904.2 366.8 Z" fill="#2DAA6E" opacity="0.08"/>
  <line x1="904.2" y1="420.2" x2="904.2" y2="432.6" stroke="#2DAA6E" stroke-width="1.5" opacity="0.12"/>
  <path d="M 331.6 351.9 C 341.2 351.3, 356.6 368.2, 363.3 379.8 C 370.1 391.4, 377.3 413.9, 372.0 421.4 C 366.8 428.9, 342.7 426.3, 331.6 424.9 C 320.5 423.5, 309.6 420.2, 305.3 413.3 C 301.1 406.3, 301.6 393.5, 306.0 383.3 C 310.4 373.1, 322.1 352.5, 331.6 351.9 Z" fill="#4CB648" opacity="0.08"/>
  <line x1="331.6" y1="416.4" x2="331.6" y2="432.6" stroke="#4CB648" stroke-width="1.5" opacity="0.12"/>
  <circle cx="975.8" cy="234.8" r="2.0" fill="#4CB648" opacity="0.08"/>
  <circle cx="756.9" cy="302.6" r="2.2" fill="#4CB648" opacity="0.08"/>
  <circle cx="688.7" cy="373.6" r="3.3" fill="#4CB648" opacity="0.08"/>
  <circle cx="1045.6" cy="177.2" r="3.7" fill="#4CB648" opacity="0.08"/>
  <circle cx="837.6" cy="250.7" r="4.0" fill="#4CB648" opacity="0.08"/>
  <circle cx="421.2" cy="373.2" r="3.3" fill="#4CB648" opacity="0.08"/>
  <path d="M 384.0 437.6 Q 640.0 457.6, 960.0 432.6" fill="none" stroke="#4CB648" stroke-width="2" opacity="0.12" stroke-linecap="round"/>

</svg>