<svg xmlns="http://www.w3.org/2000/svg" viewBox="0 0 1280 720" fill="none">
<defs>
  <linearGradient id="bg-8-9" x1="0" y1="0" x2="1" y2="1">
    <stop offset="0%" stop-color="#2DAA6E" stop-opacity="0.05"/>
    <stop offset="100%" stop-color="#4CB648" stop-opacity="0.03"/>
  </linearGradient>
</defs>
  <rect width="1280" height="720" fill="url(#bg-8-9)"/>
  <path d="M 597.7 56.1 C 618.2 55.8, 644.7 75.6, 659.8 91.9 C 674.9 108.2, 686.6 131.6, 688.3 154.0 C 689.9 176.3, 684.6 213.4, 669.5 225.7 C 654.4 238.1, 620.6 229.1, 597.7 228.0 C 574.9 227.0, 543.4 231.8, 532.3 219.4 C 521.1 207.1, 530.0 174.9, 530.8 154.0 C 531.7 133.0, 526.1 109.8, 537.3 93.5 C 548.4 77.2, 577.3 56.4, 597.7 56.1 Z" fill="#2DAA6E" opacity="0.03"/>
  <path d="M 1079.0 160.4 C 1103.2 162.1, 1136.2 169.4, 1146.4 184.6 C 1156.7 199.9, 1140.9 230.1, 1140.4 252.0 C 1139.9 274.0, 1153.7 299.2, 1143.5 316.6 C 1133.3 334.0, 1099.4 357.6, 1079.0 356.5 C 1058.6 355.4, 1037.6 327.2, 1021.2 309.8 C 1004.8 292.4, 983.9 274.6, 980.6 252.0 C 977.3 229.5, 985.0 189.7, 1001.4 174.4 C 1017.8 159.2, 1054.8 158.7, 1079.0 160.4 Z" fill="#4CB648" opacity="0.06"/>
  <circle cx="1093.2" cy="306.4" r="3.8" fill="#2DAA6E" opacity="0.11"/>
  <circle cx="287.4" cy="500.7" r="1.8" fill="#2DAA6E" opacity="0.11"/>
  <circle cx="839.0" cy="577.5" r="3.7" fill="#2DAA6E" opacity="0.11"/>
  <circle cx="986.0" cy="595.8" r="3.0" fill="#2DAA6E" opacity="0.11"/>
  <circle cx="1094.0" cy="308.4" r="3.2" fill="#2DAA6E" opacity="0.11"/>
  <circle cx="742.4" cy="565.8" r="3.7" fill="#2DAA6E" opacity="0.11"/>
  <circle cx="158.4" cy="204.0" r="1.8" fill="#2DAA6E" opacity="0.11"/>
  <rect x="308.9" y="175.2" width="662.2" height="86.4" rx="8" fill="#2DAA6E" opacity="0.08"/>
  <rect x="308.9" y="175.2" width="662.2" height="86.4" rx="8" fill="none" stroke="#2DAA6E" stroke-width="1.2" opacity="0.25"/>
  <circle cx="640.0" cy="218.4" r="8.8" fill="#2DAA6E" opacity="0.2"/>
  <line x1="461.4" y1="218.4" x2="834.6" y2="218.4" stroke="#2DAA6E" stroke-width="1.5" opacity="0.1" stroke-linecap="round"/>
  <rect x="418.9" y="269.6" width="442.2" height="86.4" rx="8" fill="#4CB648" opacity="0.11"/>
  <rect x="418.9" y="269.6" width="442.2" height="86.4" rx="8" fill="none" stroke="#4CB648" stroke-width="1.2" opacity="0.25"/>
  <circle cx="640.0" cy="312.8" r="6.5" fill="#4CB648" opacity="0.2"/>
  <line x1="545.7" y1="312.8" x2="750.3" y2="312.8" stroke="#4CB648" stroke-width="1.5" opacity="0.1" stroke-linecap="round"/>
  <rect x="487.6" y="364.0" width="304.8" height="86.4" rx="8" fill="#2DAA6E" opacity="0.14"/>
  <rect x="487.6" y="364.0" width="304.8" height="86.4" rx="8" fill="none" stroke="#2DAA6E" stroke-width="1.2" opacity="0.25"/>
  <circle cx="640.0" cy="407.2" r="6.3" fill="#2DAA6E" opacity="0.2"/>
  <line x1="566.9" y1="407.2" x2="729.1" y2="407.2" stroke="#2DAA6E" stroke-width="1.5" opacity="0.1" stroke-linecap="round"/>
  <rect x="567.4" y="458.4" width="145.3" height="86.4" rx="8" fill="#4CB648" opacity="0.17"/>
  <rect x="567.4" y="458.4" width="145.3" height="86.4" rx="8" fill="none" stroke="#4CB648" stroke-width="1.2" opacity="0.25"/>
  <circle cx="640.0" cy="501.6" r="9.7" fill="#4CB648" opacity="0.2"/>
  <line x1="613.4" y1="501.6" x2="682.6" y2="501.6" stroke="#4CB648" stroke-width="1.5" opacity="0.1" stroke-linecap="round"/>

</svg>