<svg xmlns="http://www.w3.org/2000/svg" viewBox="0 0 1280 720" fill="none">
<defs>
  <linearGradient id="bg-8-8" x1="0" y1="0" x2="1" y2="1">
    <stop offset="0%" stop-color="#2DAA6E" stop-opacity="0.05"/>
    <stop offset="100%" stop-color="#4CB648" stop-opacity="0.03"/>
  </linearGradient>
</defs>
  <rect width="1280" height="720" fill="url(#bg-8-8)"/>
  <path d="M 960.1 129.5 C 993.6 127.6, 1046.2 173.5, 1066.1 203.5 C 1085.9 233.5, 1075.2 270.2, 1079.2 309.5 C 1083.2 348.8, 1109.8 407.8, 1090.0 439.3 C 1070.1 470.8, 1003.4 498.4, 960.1 498.4 C 916.9 498.3, 864.9 470.6, 830.4 439.2 C 795.9 407.7, 747.2 346.9, 753.0 309.5 C 758.8 272.0, 830.8 244.7, 865.3 214.7 C 899.9 184.7, 926.7 131.4, 960.1 129.5 Z" fill="#2DAA6E" opacity="0.04"/>
  <circle cx="570.8" cy="510.7" r="2.0" fill="#2DAA6E" opacity="0.09"/>
  <circle cx="228.7" cy="543.0" r="1.8" fill="#2DAA6E" opacity="0.09"/>
  <circle cx="385.8" cy="108.6" r="1.6" fill="#2DAA6E" opacity="0.09"/>
  <circle cx="693.7" cy="650.4" r="2.0" fill="#2DAA6E" opacity="0.09"/>
  <circle cx="966.3" cy="263.2" r="3.6" fill="#2DAA6E" opacity="0.09"/>
  <circle cx="681.8" cy="124.1" r="2.5" fill="#2DAA6E" opacity="0.09"/>
  <circle cx="951.7" cy="141.5" r="3.7" fill="#2DAA6E" opacity="0.09"/>
  <rect x="316.5" y="175.2" width="647.1" height="86.4" rx="8" fill="#2DAA6E" opacity="0.08"/>
  <rect x="316.5" y="175.2" width="647.1" height="86.4" rx="8" fill="none" stroke="#2DAA6E" stroke-width="1.2" opacity="0.25"/>
  <circle cx="640.0" cy="218.4" r="9.4" fill="#2DAA6E" opacity="0.2"/>
  <line x1="497.6" y1="218.4" x2="798.4" y2="218.4" stroke="#2DAA6E" stroke-width="1.5" opacity="0.1" stroke-linecap="round"/>
  <rect x="406.4" y="269.6" width="467.3" height="86.4" rx="8" fill="#4CB648" opacity="0.11"/>
  <rect x="406.4" y="269.6" width="467.3" height="86.4" rx="8" fill="none" stroke="#4CB648" stroke-width="1.2" opacity="0.25"/>
  <circle cx="640.0" cy="312.8" r="6.3" fill="#4CB648" opacity="0.2"/>
  <line x1="551.9" y1="312.8" x2="744.1" y2="312.8" stroke="#4CB648" stroke-width="1.5" opacity="0.1" stroke-linecap="round"/>
  <rect x="487.1" y="364.0" width="305.9" height="86.4" rx="8" fill="#2DAA6E" opacity="0.14"/>
  <rect x="487.1" y="364.0" width="305.9" height="86.4" rx="8" fill="none" stroke="#2DAA6E" stroke-width="1.2" opacity="0.25"/>
  <circle cx="640.0" cy="407.2" r="7.3" fill="#2DAA6E" opacity="0.2"/>
  <line x1="569.4" y1="407.2" x2="726.6" y2="407.2" stroke="#2DAA6E" stroke-width="1.5" opacity="0.1" stroke-linecap="round"/>
  <rect x="567.4" y="458.4" width="145.2" height="86.4" rx="8" fill="#4CB648" opacity="0.17"/>
  <rect x="567.4" y="458.4" width="145.2" height="86.4" rx="8" fill="none" stroke="#4CB648" stroke-width="1.2" opacity="0.25"/>
  <circle cx="640.0" cy="501.6" r="8.0" fill="#4CB648" opacity="0.2"/>
  <line x1="625.6" y1="501.6" x2="670.4" y2="501.6" stroke="#4CB648" stroke-width="1.5" opacity="0.1" stroke-linecap="round"/>

</svg>