<svg xmlns="http://www.w3.org/2000/svg" viewBox="0 0 1280 720" fill="none">
<defs>
  <linearGradient id="bg-8-4" x1="0" y1="0" x2="1" y2="1">
    <stop offset="0%" stop-color="#2DAA6E" stop-opacity="0.05"/>
    <stop offset="100%" stop-color="#4CB648" stop-opacity="0.03"/>
  </linearGradient>
</defs>
  <rect width="1280" height="720" fill="url(#bg-8-4)"/>
  <path d="M 243.1 279.6 C 266.1 284.1, 287.4 321.2, 298.7 340.6 C 310.1 360.0, 308.8 375.3, 311.2 396.2 C 313.5 417.0, 323.9 447.9, 312.6 465.7 C 301.3 483.4, 267.5 501.7, 243.1 502.9 C 218.8 504.0, 183.4 490.5, 166.6 472.7 C 149.8 455.0, 143.3 422.7, 142.3 396.2 C 141.3 369.7, 143.9 333.2, 160.7 313.8 C 177.6 294.4, 220.1 275.2, 243.1 279.6 Z" fill="#2DAA6E" opacity="0.03"/>
  <circle cx="236.1" cy="392.2" r="2.9" fill="#2DAA6E" opacity="0.06"/>
  <circle cx="1210.6" cy="115.2" r="2.8" fill="#2DAA6E" opacity="0.06"/>
  <circle cx="379.4" cy="334.1" r="3.5" fill="#2DAA6E" opacity="0.06"/>
  <circle cx="819.2" cy="657.6" r="3.9" fill="#2DAA6E" opacity="0.06"/>
  <circle cx="232.3" cy="362.6" r="1.7" fill="#2DAA6E" opacity="0.06"/>
  <circle cx="872.2" cy="658.5" r="2.5" fill="#2DAA6E" opacity="0.06"/>
  <rect x="243.2" y="162.0" width="255.2" height="191.0" rx="10" fill="#2DAA6E" opacity="0.09"/>
  <rect x="243.2" y="162.0" width="255.2" height="191.0" rx="10" fill="none" stroke="#2DAA6E" stroke-width="1.2" opacity="0.25"/>
  <circle cx="370.8" cy="190.2" r="11.1" fill="#2DAA6E" opacity="0.15"/>
  <line x1="300.6" y1="267.1" x2="441.0" y2="267.1" stroke="#2DAA6E" stroke-width="2" opacity="0.12" stroke-linecap="round"/>
  <line x1="292.1" y1="281.1" x2="449.5" y2="281.1" stroke="#2DAA6E" stroke-width="2" opacity="0.12" stroke-linecap="round"/>
  <rect x="512.4" y="162.0" width="255.2" height="191.0" rx="10" fill="#4CB648" opacity="0.11"/>
  <rect x="512.4" y="162.0" width="255.2" height="191.0" rx="10" fill="none" stroke="#4CB648" stroke-width="1.2" opacity="0.25"/>
  <circle cx="640.0" cy="190.3" r="12.2" fill="#4CB648" opacity="0.15"/>
  <line x1="566.3" y1="267.1" x2="713.7" y2="267.1" stroke="#4CB648" stroke-width="2" opacity="0.12" stroke-linecap="round"/>
  <line x1="549.7" y1="281.1" x2="730.3" y2="281.1" stroke="#4CB648" stroke-width="2" opacity="0.12" stroke-linecap="round"/>
  <rect x="781.6" y="162.0" width="255.2" height="191.0" rx="10" fill="#2DAA6E" opacity="0.13"/>
  <rect x="781.6" y="162.0" width="255.2" height="191.0" rx="10" fill="none" stroke="#2DAA6E" stroke-width="1.2" opacity="0.25"/>
  <circle cx="909.2" cy="186.9" r="13.7" fill="#2DAA6E" opacity="0.15"/>
  <line x1="841.3" y1="267.1" x2="977.1" y2="267.1" stroke="#2DAA6E" stroke-width="2" opacity="0.12" stroke-linecap="round"/>
  <line x1="833.3" y1="281.1" x2="985.1" y2="281.1" stroke="#2DAA6E" stroke-width="2" opacity="0.12" stroke-linecap="round"/>
  <rect x="243.2" y="367.0" width="255.2" height="191.0" rx="10" fill="#4CB648" opacity="0.08"/>
  <rect x="243.2" y="367.0" width="255.2" height="191.0" rx="10" fill="none" stroke="#4CB648" stroke-width="1.2" opacity="0.25"/>
  <circle cx="370.8" cy="389.1" r="10.2" fill="#4CB648" opacity="0.15"/>
  <line x1="302.9" y1="472.1" x2="438.7" y2="472.1" stroke="#4CB648" stroke-width="2" opacity="0.12" stroke-linecap="round"/>
  <line x1="298.0" y1="486.1" x2="443.6" y2="486.1" stroke="#4CB648" stroke-width="2" opacity="0.12" stroke-linecap="round"/>
  <rect x="512.4" y="367.0" width="255.2" height="191.0" rx="10" fill="#2DAA6E" opacity="0.11"/>
  <rect x="512.4" y="367.0" width="255.2" height="191.0" rx="10" fill="none" stroke="#2DAA6E" stroke-width="1.2" opacity="0.25"/>
  <circle cx="640.0" cy="394.9" r="11.0" fill="#2DAA6E" opacity="0.15"/>
  <line x1="572.8" y1="472.1" x2="707.2" y2="472.1" stroke="#2DAA6E" stroke-width="2" opacity="0.12" stroke-linecap="round"/>
  <line x1="541.2" y1="486.1" x2="738.8" y2="486.1" stroke="#2DAA6E" stroke-width="2" opacity="0.12" stroke-linecap="round"/>
  <rect x="781.6" y="367.0" width="255.2" height="191.0" rx="10" fill="#4CB648" opacity="0.16"/>
  <rect x="781.6" y="367.0" width="255.2" height="191.0" rx="10" fill="none" stroke="#4CB648" stroke-width="1.2" opacity="0.25"/>
  <circle cx="909.2" cy="389.5" r="10.4" fill="#4CB648" opacity="0.15"/>
  <line x1="827.3" y1="472.1" x2="991.1" y2="472.1" stroke="#4CB648" stroke-width="2" opacity="0.12" stroke-linecap="round"/>
  <line x1="841.4" y1="486.1" x2="977.0" y2="486.1" stroke="#4CB648" stroke-width="2" opacity="0.12" stroke-linecap="round"/>

</svg>