<svg xmlns="http://www.w3.org/2000/svg" viewBox="0 0 1280 720" fill="none">
<defs>
  <linearGradient id="bg-8-3" x1="0" y1="0" x2="1" y2="1">
    <stop offset="0%" stop-color="#2DAA6E" stop-opacity="0.05"/>
    <stop offset="100%" stop-color="#4CB648" stop-opacity="0.03"/>
  </linearGradient>
</defs>
  <rect width="1280" height="720" fill="url(#bg-8-3)"/>
  <path d="M 442.9 345.7 C 470.3 344.0, 515.3 359.1, 530.3 379.2 C 545.3 399.3, 538.8 443.4, 532.8 466.5 C 526.9 489.7, 509.4 505.7, 494.4 518.0 C 479.4 530.3, 461.6 539.0, 442.9 540.5 C 424.3 542.0, 399.2 539.3, 382.5 527.0 C 365.7 514.7, 345.1 489.5, 342.3 466.5 C 339.6 443.6, 349.0 409.5, 365.8 389.4 C 382.5 369.2, 415.5 347.4, 442.9 345.7 Z" fill="#2DAA6E" opacity="0.07"/>
  <path d="M 387.5 67.2 C 416.8 67.7, 460.3 87.3, 473.9 108.6 C 487.6 130.0, 470.0 166.9, 469.4 195.1 C 468.7 223.2, 483.6 259.4, 470.0 277.5 C 456.3 295.7, 415.0 304.2, 387.5 304.2 C 360.0 304.2, 323.9 295.9, 304.9 277.7 C 286.0 259.5, 274.9 223.8, 273.8 195.1 C 272.6 166.4, 279.1 127.0, 298.1 105.6 C 317.0 84.3, 358.2 66.7, 387.5 67.2 Z" fill="#4CB648" opacity="0.03"/>
  <circle cx="541.0" cy="622.7" r="2.8" fill="#2DAA6E" opacity="0.11"/>
  <circle cx="508.7" cy="174.5" r="2.7" fill="#2DAA6E" opacity="0.11"/>
  <circle cx="582.2" cy="392.7" r="3.0" fill="#2DAA6E" opacity="0.11"/>
  <circle cx="958.8" cy="475.8" r="2.3" fill="#2DAA6E" opacity="0.11"/>
  <circle cx="941.7" cy="119.0" r="1.7" fill="#2DAA6E" opacity="0.11"/>
  <circle cx="684.2" cy="624.1" r="2.5" fill="#2DAA6E" opacity="0.11"/>
  <circle cx="220.0" cy="468.6" r="1.6" fill="#2DAA6E" opacity="0.11"/>
  <rect x="243.2" y="162.0" width="255.2" height="191.0" rx="10" fill="#2DAA6E" opacity="0.11"/>
  <rect x="243.2" y="162.0" width="255.2" height="191.0" rx="10" fill="none" stroke="#2DAA6E" stroke-width="1.2" opacity="0.25"/>
  <circle cx="370.8" cy="184.8" r="13.3" fill="#2DAA6E" opacity="0.15"/>
  <line x1="302.8" y1="267.1" x2="438.8" y2="267.1" stroke="#2DAA6E" stroke-width="2" opacity="0.12" stroke-linecap="round"/>
  <line x1="269.6" y1="281.1" x2="472.0" y2="281.1" stroke="#2DAA6E" stroke-width="2" opacity="0.12" stroke-linecap="round"/>
  <rect x="512.4" y="162.0" width="255.2" height="191.0" rx="10" fill="#4CB648" opacity="0.10"/>
  <rect x="512.4" y="162.0" width="255.2" height="191.0" rx="10" fill="none" stroke="#4CB648" stroke-width="1.2" opacity="0.25"/>
  <circle cx="640.0" cy="189.6" r="15.7" fill="#4CB648" opacity="0.15"/>
  <line x1="555.5" y1="267.1" x2="724.5" y2="267.1" stroke="#4CB648" stroke-width="2" opacity="0.12" stroke-linecap="round"/>
  <line x1="556.6" y1="281.1" x2="723.4" y2="281.1" stroke="#4CB648" stroke-width="2" opacity="0.12" stroke-linecap="round"/>
  <rect x="781.6" y="162.0" width="255.2" height="191.0" rx="10" fill="#2DAA6E" opacity="0.11"/>
  <rect x="781.6" y="162.0" width="255.2" height="191.0" rx="10" fill="none" stroke="#2DAA6E" stroke-width="1.2" opacity="0.25"/>
  <circle cx="909.2" cy="186.9" r="12.9" fill="#2DAA6E" opacity="0.15"/>
  <line x1="833.0" y1="267.1" x2="985.4" y2="267.1" stroke="#2DAA6E" stroke-width="2" opacity="0.12" stroke-linecap="round"/>
  <line x1="808.4" y1="281.1" x2="1010.0" y2="281.1" stroke="#2DAA6E" stroke-width="2" opacity="0.12" stroke-linecap="round"/>
  <rect x="243.2" y="367.0" width="255.2" height="191.0" rx="10" fill="#4CB648" opacity="0.10"/>
  <rect x="243.2" y="367.0" width="255.2" height="191.0" rx="10" fill="none" stroke="#4CB648" stroke-width="1.2" opacity="0.25"/>
  <circle cx="370.8" cy="392.7" r="14.8" fill="#4CB648" opacity="0.15"/>
  <line x1="298.5" y1="472.1" x2="443.1" y2="472.1" stroke="#4CB648" stroke-width="2" opacity="0.12" stroke-linecap="round"/>
  <line x1="293.3" y1="486.1" x2="448.3" y2="486.1" stroke="#4CB648" stroke-width="2" opacity="0.12" stroke-linecap="round"/>
  <rect x="512.4" y="367.0" width="255.2" height="191.0" rx="10" fill="#2DAA6E" opacity="0.09"/>
  <rect x="512.4" y="367.0" width="255.2" height="191.0" rx="10" fill="none" stroke="#2DAA6E" stroke-width="1.2" opacity="0.25"/>
  <circle cx="640.0" cy="395.4" r="15.8" fill="#2DAA6E" opacity="0.15"/>
  <line x1="546.3" y1="472.1" x2="733.7" y2="472.1" stroke="#2DAA6E" stroke-width="2" opacity="0.12" stroke-linecap="round"/>
  <line x1="543.8" y1="486.1" x2="736.2" y2="486.1" stroke="#2DAA6E" stroke-width="2" opacity="0.12" stroke-linecap="round"/>
  <rect x="781.6" y="367.0" width="255.2" height="191.0" rx="10" fill="#4CB648" opacity="0.15"/>
  <rect x="781.6" y="367.0" width="255.2" height="191.0" rx="10" fill="none" stroke="#4CB648" stroke-width="1.2" opacity="0.25"/>
  <circle cx="909.2" cy="392.4" r="10.2" fill="#4CB648" opacity="0.15"/>
  <line x1="833.1" y1="472.1" x2="985.3" y2="472.1" stroke="#4CB648" stroke-width="2" opacity="0.12" stroke-linecap="round"/>
  <line x1="836.5" y1="486.1" x2="981.9" y2="486.1" stroke="#4CB648" stroke-width="2" opacity="0.12" stroke-linecap="round"/>

</svg>