<svg xmlns="http://www.w3.org/2000/svg" viewBox="0 0 1280 720" fill="none">
<defs>
  <linearGradient id="bg-grad-10" x1="0" y1="0" x2="1" y2="1">
    <stop offset="0%" stop-color="#2DAA6E" stop-opacity="0.06"/>
    <stop offset="100%" stop-color="#4CB648" stop-opacity="0.03"/>
  </linearGradient>
</defs>
  <rect width="1280" height="720" fill="url(#bg-grad-10)"/>
  <path d="M 658.3 243.8 C 687.0 241.5, 733.8 217.0, 751.4 230.3 C 768.9 243.6, 764.1 292.7, 763.7 323.4 C 763.4 354.1, 766.8 392.3, 749.3 414.4 C 731.7 436.5, 687.8 456.8, 658.3 456.0 C 628.7 455.3, 592.7 431.8, 572.0 409.7 C 551.2 387.6, 532.6 351.0, 533.7 323.4 C 534.9 295.8, 558.1 257.3, 578.9 244.0 C 599.6 230.7, 629.5 246.1, 658.3 243.8 Z" fill="#2DAA6E" opacity="0.08"/>
  <path d="M 525.6 104.8 C 576.3 107.7, 628.9 126.5, 669.1 159.5 C 709.4 192.6, 762.1 250.3, 767.1 303.1 C 772.0 355.9, 739.1 443.3, 698.9 476.4 C 658.6 509.4, 576.0 508.7, 525.6 501.5 C 475.1 494.2, 434.1 465.7, 396.0 432.7 C 357.9 399.6, 302.2 351.5, 297.0 303.1 C 291.8 254.7, 326.7 175.3, 364.8 142.3 C 402.9 109.2, 474.8 101.9, 525.6 104.8 Z" fill="#4CB648" opacity="0.09"/>
  <circle cx="372.5" cy="408.6" r="2.1" fill="#2DAA6E" opacity="0.13"/>
  <circle cx="408.7" cy="649.1" r="4.6" fill="#2DAA6E" opacity="0.13"/>
  <circle cx="585.6" cy="597.0" r="2.4" fill="#2DAA6E" opacity="0.13"/>
  <circle cx="986.1" cy="93.0" r="4.3" fill="#2DAA6E" opacity="0.13"/>
  <circle cx="753.4" cy="638.7" r="2.3" fill="#2DAA6E" opacity="0.13"/>
  <circle cx="849.9" cy="127.8" r="2.9" fill="#2DAA6E" opacity="0.13"/>
  <circle cx="699.6" cy="427.9" r="2.5" fill="#2DAA6E" opacity="0.13"/>
  <circle cx="889.8" cy="491.9" r="4.5" fill="#2DAA6E" opacity="0.13"/>
  <circle cx="212.0" cy="637.3" r="3.4" fill="#2DAA6E" opacity="0.13"/>
  <circle cx="432.4" cy="125.6" r="2.3" fill="#2DAA6E" opacity="0.13"/>
  <circle cx="827.2" cy="222.0" r="3.0" fill="#2DAA6E" opacity="0.13"/>
  <circle cx="169.2" cy="289.7" r="2.4" fill="#2DAA6E" opacity="0.13"/>
  <circle cx="1101.3" cy="560.3" r="2.9" fill="#2DAA6E" opacity="0.13"/>
  <circle cx="333.3" cy="307.4" r="4.4" fill="#2DAA6E" opacity="0.13"/>
  <circle cx="459.5" cy="648.0" r="4.4" fill="#2DAA6E" opacity="0.13"/>
  <circle cx="686.1" cy="308.7" r="4.2" fill="#2DAA6E" opacity="0.13"/>
  <circle cx="140.0" cy="383.3" r="3.5" fill="#2DAA6E" opacity="0.13"/>
  <path d="M 80 203.83854280225933 C 335.8206156641245 166.1740987561643, 848.7159706186503 503.2584714703262, 1200 568.4465466067195" fill="none" stroke="#4CB648" stroke-width="2" opacity="0.1" stroke-linecap="round"/>
  <line x1="640.0" y1="200.0" x2="640.0" y2="200.0" stroke="#2DAA6E" stroke-width="1" opacity="0.2"/>
  <circle cx="640.0" cy="200.0" r="3" fill="#2DAA6E" opacity="0.4"/>
  <circle cx="640.0" cy="200.0" r="3" fill="#4CB648" opacity="0.4"/>
  <line x1="640.0" y1="200.0" x2="670.0" y2="217.8" stroke="#2DAA6E" stroke-width="2.5" opacity="0.35"/>
  <line x1="640.0" y1="200.0" x2="610.0" y2="217.8" stroke="#4CB648" stroke-width="2.5" opacity="0.35"/>
  <circle cx="670.0" cy="217.8" r="3" fill="#2DAA6E" opacity="0.4"/>
  <circle cx="610.0" cy="217.8" r="3" fill="#4CB648" opacity="0.4"/>
  <line x1="670.0" y1="217.8" x2="692.0" y2="235.6" stroke="#2DAA6E" stroke-width="2.5" opacity="0.35"/>
  <line x1="610.0" y1="217.8" x2="588.0" y2="235.6" stroke="#4CB648" stroke-width="2.5" opacity="0.35"/>
  <circle cx="692.0" cy="235.6" r="3" fill="#2DAA6E" opacity="0.4"/>
  <circle cx="588.0" cy="235.6" r="3" fill="#4CB648" opacity="0.4"/>
  <line x1="692.0" y1="235.6" x2="700.0" y2="253.3" stroke="#2DAA6E" stroke-width="2.5" opacity="0.35"/>
  <line x1="588.0" y1="235.6" x2="580.0" y2="253.3" stroke="#4CB648" stroke-width="2.5" opacity="0.35"/>
  <line x1="700.0" y1="253.3" x2="580.0" y2="253.3" stroke="#2DAA6E" stroke-width="1" opacity="0.2"/>
  <circle cx="700.0" cy="253.3" r="3" fill="#2DAA6E" opacity="0.4"/>
  <circle cx="580.0" cy="253.3" r="3" fill="#4CB648" opacity="0.4"/>
  <line x1="700.0" y1="253.3" x2="692.0" y2="271.1" stroke="#2DAA6E" stroke-width="2.5" opacity="0.35"/>
  <line x1="580.0" y1="253.3" x2="588.0" y2="271.1" stroke="#4CB648" stroke-width="2.5" opacity="0.35"/>
  <circle cx="692.0" cy="271.1" r="3" fill="#2DAA6E" opacity="0.4"/>
  <circle cx="588.0" cy="271.1" r="3" fill="#4CB648" opacity="0.4"/>
  <line x1="692.0" y1="271.1" x2="670.0" y2="288.9" stroke="#2DAA6E" stroke-width="2.5" opacity="0.35"/>
  <line x1="588.0" y1="271.1" x2="610.0" y2="288.9" stroke="#4CB648" stroke-width="2.5" opacity="0.35"/>
  <circle cx="670.0" cy="288.9" r="3" fill="#2DAA6E" opacity="0.4"/>
  <circle cx="610.0" cy="288.9" r="3" fill="#4CB648" opacity="0.4"/>
  <line x1="670.0" y1="288.9" x2="640.0" y2="306.7" stroke="#2DAA6E" stroke-width="2.5" opacity="0.35"/>
  <line x1="610.0" y1="288.9" x2="640.0" y2="306.7" stroke="#4CB648" stroke-width="2.5" opacity="0.35"/>
  <line x1="640.0" y1="306.7" x2="640.0" y2="306.7" stroke="#2DAA6E" stroke-width="1" opacity="0.2"/>
  <circle cx="640.0" cy="306.7" r="3" fill="#2DAA6E" opacity="0.4"/>
  <circle cx="640.0" cy="306.7" r="3" fill="#4CB648" opacity="0.4"/>
  <line x1="640.0" y1="306.7" x2="610.0" y2="324.4" stroke="#2DAA6E" stroke-width="2.5" opacity="0.35"/>
  <line x1="640.0" y1="306.7" x2="670.0" y2="324.4" stroke="#4CB648" stroke-width="2.5" opacity="0.35"/>
  <circle cx="610.0" cy="324.4" r="3" fill="#2DAA6E" opacity="0.4"/>
  <circle cx="670.0" cy="324.4" r="3" fill="#4CB648" opacity="0.4"/>
  <line x1="610.0" y1="324.4" x2="588.0" y2="342.2" stroke="#2DAA6E" stroke-width="2.5" opacity="0.35"/>
  <line x1="670.0" y1="324.4" x2="692.0" y2="342.2" stroke="#4CB648" stroke-width="2.5" opacity="0.35"/>
  <circle cx="588.0" cy="342.2" r="3" fill="#2DAA6E" opacity="0.4"/>
  <circle cx="692.0" cy="342.2" r="3" fill="#4CB648" opacity="0.4"/>
  <line x1="588.0" y1="342.2" x2="580.0" y2="360.0" stroke="#2DAA6E" stroke-width="2.5" opacity="0.35"/>
  <line x1="692.0" y1="342.2" x2="700.0" y2="360.0" stroke="#4CB648" stroke-width="2.5" opacity="0.35"/>
  <line x1="580.0" y1="360.0" x2="700.0" y2="360.0" stroke="#2DAA6E" stroke-width="1" opacity="0.2"/>
  <circle cx="580.0" cy="360.0" r="3" fill="#2DAA6E" opacity="0.4"/>
  <circle cx="700.0" cy="360.0" r="3" fill="#4CB648" opacity="0.4"/>
  <line x1="580.0" y1="360.0" x2="588.0" y2="377.8" stroke="#2DAA6E" stroke-width="2.5" opacity="0.35"/>
  <line x1="700.0" y1="360.0" x2="692.0" y2="377.8" stroke="#4CB648" stroke-width="2.5" opacity="0.35"/>
  <circle cx="588.0" cy="377.8" r="3" fill="#2DAA6E" opacity="0.4"/>
  <circle cx="692.0" cy="377.8" r="3" fill="#4CB648" opacity="0.4"/>
  <line x1="588.0" y1="377.8" x2="610.0" y2="395.6" stroke="#2DAA6E" stroke-width="2.5" opacity="0.35"/>
  <line x1="692.0" y1="377.8" x2="670.0" y2="395.6" stroke="#4CB648" stroke-width="2.5" opacity="0.35"/>
  <circle cx="610.0" cy="395.6" r="3" fill="#2DAA6E" opacity="0.4"/>
  <circle cx="670.0" cy="395.6" r="3" fill="#4CB648" opacity="0.4"/>
  <line x1="610.0" y1="395.6" x2="640.0" y2="413.3" stroke="#2DAA6E" stroke-width="2.5" opacity="0.35"/>
  <line x1="670.0" y1="395.6" x2="640.0" y2="413.3" stroke="#4CB648" stroke-width="2.5" opacity="0.35"/>
  <line x1="640.0" y1="413.3" x2="640.0" y2="413.3" stroke="#2DAA6E" stroke-width="1" opacity="0.2"/>
  <circle cx="640.0" cy="413.3" r="3" fill="#2DAA6E" opacity="0.4"/>
  <circle cx="640.0" cy="413.3" r="3" fill="#4CB648" opacity="0.4"/>
  <line x1="640.0" y1="413.3" x2="670.0" y2="431.1" stroke="#2DAA6E" stroke-width="2.5" opacity="0.35"/>
  <line x1="640.0" y1="413.3" x2="610.0" y2="431.1" stroke="#4CB648" stroke-width="2.5" opacity="0.35"/>
  <circle cx="670.0" cy="431.1" r="3" fill="#2DAA6E" opacity="0.4"/>
  <circle cx="610.0" cy="431.1" r="3" fill="#4CB648" opacity="0.4"/>
  <line x1="670.0" y1="431.1" x2="692.0" y2="448.9" stroke="#2DAA6E" stroke-width="2.5" opacity="0.35"/>
  <line x1="610.0" y1="431.1" x2="588.0" y2="448.9" stroke="#4CB648" stroke-width="2.5" opacity="0.35"/>
  <circle cx="692.0" cy="448.9" r="3" fill="#2DAA6E" opacity="0.4"/>
  <circle cx="588.0" cy="448.9" r="3" fill="#4CB648" opacity="0.4"/>
  <line x1="692.0" y1="448.9" x2="700.0" y2="466.7" stroke="#2DAA6E" stroke-width="2.5" opacity="0.35"/>
  <line x1="588.0" y1="448.9" x2="580.0" y2="466.7" stroke="#4CB648" stroke-width="2.5" opacity="0.35"/>
  <line x1="700.0" y1="466.7" x2="580.0" y2="466.7" stroke="#2DAA6E" stroke-width="1" opacity="0.2"/>
  <circle cx="700.0" cy="466.7" r="3" fill="#2DAA6E" opacity="0.4"/>
  <circle cx="580.0" cy="466.7" r="3" fill="#4CB648" opacity="0.4"/>
  <line x1="700.0" y1="466.7" x2="692.0" y2="484.4" stroke="#2DAA6E" stroke-width="2.5" opacity="0.35"/>
  <line x1="580.0" y1="466.7" x2="588.0" y2="484.4" stroke="#4CB648" stroke-width="2.5" opacity="0.35"/>
  <circle cx="692.0" cy="484.4" r="3" fill="#2DAA6E" opacity="0.4"/>
  <circle cx="588.0" cy="484.4" r="3" fill="#4CB648" opacity="0.4"/>
  <line x1="692.0" y1="484.4" x2="670.0" y2="502.2" stroke="#2DAA6E" stroke-width="2.5" opacity="0.35"/>
  <line x1="588.0" y1="484.4" x2="610.0" y2="502.2" stroke="#4CB648" stroke-width="2.5" opacity="0.35"/>
  <circle cx="670.0" cy="502.2" r="3" fill="#2DAA6E" opacity="0.4"/>
  <circle cx="610.0" cy="502.2" r="3" fill="#4CB648" opacity="0.4"/>

</svg>