<svg xmlns="http://www.w3.org/2000/svg" viewBox="0 0 1280 720" fill="none">
<defs>
  <linearGradient id="bg-10-6" x1="0" y1="0" x2="1" y2="1">
    <stop offset="0%" stop-color="#2DAA6E" stop-opacity="0.05"/>
    <stop offset="100%" stop-color="#4CB648" stop-opacity="0.03"/>
  </linearGradient>
</defs>
  <rect width="1280" height="720" fill="url(#bg-10-6)"/>
  <path d="M 814.4 241.4 C 842.4 245.8, 868.3 242.1, 885.3 256.4 C 902.3 270.7, 919.2 306.4, 916.4 327.3 C 913.7 348.2, 885.7 363.9, 868.7 381.6 C 851.7 399.4, 834.3 431.8, 814.4 433.6 C 794.4 435.4, 768.8 410.3, 749.1 392.6 C 729.5 374.8, 701.8 354.4, 696.4 327.3 C 691.1 300.2, 697.5 244.5, 717.2 230.1 C 736.8 215.8, 786.3 237.0, 814.4 241.4 Z" fill="#2DAA6E" opacity="0.04"/>
  <circle cx="279.1" cy="199.1" r="3.6" fill="#2DAA6E" opacity="0.09"/>
  <circle cx="175.2" cy="182.9" r="3.3" fill="#2DAA6E" opacity="0.09"/>
  <circle cx="875.2" cy="145.4" r="3.2" fill="#2DAA6E" opacity="0.09"/>
  <circle cx="229.7" cy="334.4" r="2.5" fill="#2DAA6E" opacity="0.09"/>
  <circle cx="844.6" cy="204.9" r="3.7" fill="#2DAA6E" opacity="0.09"/>
  <circle cx="524.3" cy="629.8" r="3.5" fill="#2DAA6E" opacity="0.09"/>
  <circle cx="374.2" cy="432.0" r="2.1" fill="#2DAA6E" opacity="0.09"/>
  <circle cx="923.3" cy="488.7" r="2.1" fill="#2DAA6E" opacity="0.09"/>
  <circle cx="655.3" cy="363.3" r="2.8" fill="#2DAA6E" opacity="0.09"/>
  <circle cx="479.3" cy="284.0" r="1.5" fill="#2DAA6E" opacity="0.09"/>
  <circle cx="640.0" cy="360.0" r="201.6" fill="#2DAA6E" opacity="0.05"/>
  <circle cx="640.0" cy="360.0" r="201.6" fill="none" stroke="#2DAA6E" stroke-width="2" opacity="0.25"/>
  <circle cx="640.0" cy="360.0" r="131.0" fill="none" stroke="#4CB648" stroke-width="1" opacity="0.12"/>
  <path d="M 640.0 360.0 L 640.0 158.4 A 201.6 201.6 0 0 1 841.6 360.0 Z" fill="#2DAA6E" opacity="0.050"/>
  <line x1="640.0" y1="360.0" x2="640.0" y2="158.4" stroke="#2DAA6E" stroke-width="1" opacity="0.12"/>
  <path d="M 640.0 360.0 L 841.6 360.0 A 201.6 201.6 0 0 1 640.0 561.6 Z" fill="#4CB648" opacity="0.075"/>
  <line x1="640.0" y1="360.0" x2="841.6" y2="360.0" stroke="#2DAA6E" stroke-width="1" opacity="0.12"/>
  <path d="M 640.0 360.0 L 640.0 561.6 A 201.6 201.6 0 0 1 438.4 360.0 Z" fill="#2DAA6E" opacity="0.100"/>
  <line x1="640.0" y1="360.0" x2="640.0" y2="561.6" stroke="#2DAA6E" stroke-width="1" opacity="0.12"/>
  <path d="M 640.0 360.0 L 438.4 360.0 A 201.6 201.6 0 0 1 640.0 158.4 Z" fill="#4CB648" opacity="0.125"/>
  <line x1="640.0" y1="360.0" x2="438.4" y2="360.0" stroke="#2DAA6E" stroke-width="1" opacity="0.12"/>
  <circle cx="640.0" cy="360.0" r="4" fill="#2DAA6E" opacity="0.3"/>

</svg>