<svg xmlns="http://www.w3.org/2000/svg" viewBox="0 0 1280 720" fill="none">
<defs>
  <linearGradient id="bg-10-4" x1="0" y1="0" x2="1" y2="1">
    <stop offset="0%" stop-color="#2DAA6E" stop-opacity="0.05"/>
    <stop offset="100%" stop-color="#4CB648" stop-opacity="0.03"/>
  </linearGradient>
</defs>
  <rect width="1280" height="720" fill="url(#bg-10-4)"/>
  <path d="M 301.9 366.7 C 341.6 359.6, 405.6 403.1, 442.3 438.5 C 479.1 473.8, 516.4 526.0, 522.4 578.9 C 528.5 631.8, 515.4 722.4, 478.7 755.7 C 441.9 789.0, 354.0 785.5, 301.9 778.7 C 249.8 771.9, 200.9 748.3, 165.8 715.0 C 130.8 681.7, 85.4 617.9, 91.8 578.9 C 98.2 539.9, 169.2 516.6, 204.2 481.2 C 239.2 445.9, 262.2 373.8, 301.9 366.7 Z" fill="#2DAA6E" opacity="0.04"/>
  <circle cx="194.4" cy="554.2" r="3.8" fill="#2DAA6E" opacity="0.08"/>
  <circle cx="492.1" cy="608.9" r="2.4" fill="#2DAA6E" opacity="0.08"/>
  <circle cx="134.1" cy="317.6" r="1.7" fill="#2DAA6E" opacity="0.08"/>
  <circle cx="488.8" cy="290.8" r="4.0" fill="#2DAA6E" opacity="0.08"/>
  <circle cx="509.4" cy="316.1" r="2.5" fill="#2DAA6E" opacity="0.08"/>
  <circle cx="519.3" cy="330.6" r="2.1" fill="#2DAA6E" opacity="0.08"/>
  <circle cx="509.3" cy="256.3" r="1.9" fill="#2DAA6E" opacity="0.08"/>
  <line x1="256.0" y1="360.0" x2="1024.0" y2="360.0" stroke="#2DAA6E" stroke-width="2" opacity="0.2" stroke-linecap="round"/>
  <line x1="256.0" y1="360.0" x2="793.6" y2="360.0" stroke="#2DAA6E" stroke-width="3" opacity="0.15" stroke-linecap="round"/>
  <circle cx="256.0" cy="360.0" r="5" fill="#2DAA6E" opacity="0.3"/>
  <rect x="188.8" y="210.4" width="134.4" height="129.6" rx="8" fill="#2DAA6E" opacity="0.07"/>
  <rect x="188.8" y="210.4" width="134.4" height="129.6" rx="8" fill="none" stroke="#2DAA6E" stroke-width="1" opacity="0.2"/>
  <line x1="256.0" y1="355.0" x2="256.0" y2="340.0" stroke="#2DAA6E" stroke-width="0.8" opacity="0.15"/>
  <line x1="209.5" y1="275.2" x2="302.5" y2="275.2" stroke="#2DAA6E" stroke-width="1.5" opacity="0.1" stroke-linecap="round"/>
  <circle cx="448.0" cy="360.0" r="5" fill="#4CB648" opacity="0.3"/>
  <rect x="380.8" y="380.0" width="134.4" height="129.6" rx="8" fill="#4CB648" opacity="0.07"/>
  <rect x="380.8" y="380.0" width="134.4" height="129.6" rx="8" fill="none" stroke="#4CB648" stroke-width="1" opacity="0.2"/>
  <line x1="448.0" y1="365.0" x2="448.0" y2="380.0" stroke="#4CB648" stroke-width="0.8" opacity="0.15"/>
  <line x1="419.5" y1="444.8" x2="476.5" y2="444.8" stroke="#4CB648" stroke-width="1.5" opacity="0.1" stroke-linecap="round"/>
  <circle cx="640.0" cy="360.0" r="5" fill="#2DAA6E" opacity="0.3"/>
  <rect x="572.8" y="210.4" width="134.4" height="129.6" rx="8" fill="#2DAA6E" opacity="0.07"/>
  <rect x="572.8" y="210.4" width="134.4" height="129.6" rx="8" fill="none" stroke="#2DAA6E" stroke-width="1" opacity="0.2"/>
  <line x1="640.0" y1="355.0" x2="640.0" y2="340.0" stroke="#2DAA6E" stroke-width="0.8" opacity="0.15"/>
  <line x1="601.9" y1="275.2" x2="678.1" y2="275.2" stroke="#2DAA6E" stroke-width="1.5" opacity="0.1" stroke-linecap="round"/>
  <circle cx="832.0" cy="360.0" r="5" fill="#4CB648" opacity="0.3"/>
  <rect x="764.8" y="380.0" width="134.4" height="129.6" rx="8" fill="#4CB648" opacity="0.07"/>
  <rect x="764.8" y="380.0" width="134.4" height="129.6" rx="8" fill="none" stroke="#4CB648" stroke-width="1" opacity="0.2"/>
  <line x1="832.0" y1="365.0" x2="832.0" y2="380.0" stroke="#4CB648" stroke-width="0.8" opacity="0.15"/>
  <line x1="786.1" y1="444.8" x2="877.9" y2="444.8" stroke="#4CB648" stroke-width="1.5" opacity="0.1" stroke-linecap="round"/>
  <circle cx="1024.0" cy="360.0" r="5" fill="#2DAA6E" opacity="0.3"/>
  <rect x="956.8" y="210.4" width="134.4" height="129.6" rx="8" fill="#2DAA6E" opacity="0.07"/>
  <rect x="956.8" y="210.4" width="134.4" height="129.6" rx="8" fill="none" stroke="#2DAA6E" stroke-width="1" opacity="0.2"/>
  <line x1="1024.0" y1="355.0" x2="1024.0" y2="340.0" stroke="#2DAA6E" stroke-width="0.8" opacity="0.15"/>
  <line x1="983.5" y1="275.2" x2="1064.5" y2="275.2" stroke="#2DAA6E" stroke-width="1.5" opacity="0.1" stroke-linecap="round"/>

</svg>