<svg xmlns="http://www.w3.org/2000/svg" viewBox="0 0 1280 720" fill="none">
<defs>
  <linearGradient id="bg-10-8" x1="0" y1="0" x2="1" y2="1">
    <stop offset="0%" stop-color="#2DAA6E" stop-opacity="0.05"/>
    <stop offset="100%" stop-color="#4CB648" stop-opacity="0.03"/>
  </linearGradient>
</defs>
  <rect width="1280" height="720" fill="url(#bg-10-8)"/>
  <path d="M 547.0 531.4 C 567.4 526.8, 610.2 522.9, 622.1 536.2 C 634.0 549.5, 618.2 586.1, 618.4 611.3 C 618.6 636.5, 635.0 671.9, 623.1 687.5 C 611.2 703.0, 572.0 705.2, 547.0 704.9 C 521.9 704.5, 487.2 701.0, 472.9 685.4 C 458.5 669.8, 456.5 631.6, 460.9 611.3 C 465.3 591.0, 484.9 577.0, 499.3 563.7 C 513.6 550.3, 526.5 536.0, 547.0 531.4 Z" fill="#2DAA6E" opacity="0.04"/>
  <circle cx="732.4" cy="220.2" r="2.9" fill="#2DAA6E" opacity="0.08"/>
  <circle cx="609.8" cy="376.6" r="1.8" fill="#2DAA6E" opacity="0.08"/>
  <circle cx="493.1" cy="339.3" r="3.9" fill="#2DAA6E" opacity="0.08"/>
  <circle cx="432.4" cy="64.1" r="3.5" fill="#2DAA6E" opacity="0.08"/>
  <circle cx="670.0" cy="428.6" r="1.8" fill="#2DAA6E" opacity="0.08"/>
  <circle cx="1170.0" cy="676.1" r="2.0" fill="#2DAA6E" opacity="0.08"/>
  <rect x="352.0" y="144.0" width="576.0" height="432.0" rx="14" fill="#2DAA6E" opacity="0.05"/>
  <rect x="352.0" y="144.0" width="576.0" height="432.0" rx="14" fill="none" stroke="#2DAA6E" stroke-width="1.5" opacity="0.25"/>
  <rect x="352.0" y="144.0" width="576.0" height="40" rx="14" fill="#2DAA6E" opacity="0.08"/>
  <circle cx="380.0" cy="164.0" r="10" fill="#4CB648" opacity="0.2"/>
  <line x1="398.0" y1="164.0" x2="755.2" y2="164.0" stroke="#2DAA6E" stroke-width="2.5" opacity="0.15" stroke-linecap="round"/>
  <line x1="372.0" y1="204.0" x2="663.3" y2="204.0" stroke="#4CB648" stroke-width="1.5" opacity="0.1" stroke-linecap="round"/>
  <circle cx="366.0" cy="204.0" r="2.5" fill="#4CB648" opacity="0.15"/>
  <line x1="372.0" y1="262.7" x2="726.3" y2="262.7" stroke="#2DAA6E" stroke-width="1.5" opacity="0.1" stroke-linecap="round"/>
  <circle cx="366.0" cy="262.7" r="2.5" fill="#2DAA6E" opacity="0.15"/>
  <line x1="372.0" y1="321.3" x2="810.0" y2="321.3" stroke="#2DAA6E" stroke-width="1.5" opacity="0.1" stroke-linecap="round"/>
  <circle cx="366.0" cy="321.3" r="2.5" fill="#2DAA6E" opacity="0.15"/>
  <line x1="372.0" y1="380.0" x2="724.4" y2="380.0" stroke="#4CB648" stroke-width="1.5" opacity="0.1" stroke-linecap="round"/>
  <circle cx="366.0" cy="380.0" r="2.5" fill="#4CB648" opacity="0.15"/>
  <line x1="372.0" y1="438.7" x2="685.0" y2="438.7" stroke="#2DAA6E" stroke-width="1.5" opacity="0.1" stroke-linecap="round"/>
  <circle cx="366.0" cy="438.7" r="2.5" fill="#2DAA6E" opacity="0.15"/>
  <line x1="372.0" y1="497.3" x2="674.0" y2="497.3" stroke="#2DAA6E" stroke-width="1.5" opacity="0.1" stroke-linecap="round"/>
  <circle cx="366.0" cy="497.3" r="2.5" fill="#2DAA6E" opacity="0.15"/>

</svg>