<svg xmlns="http://www.w3.org/2000/svg" viewBox="0 0 1280 720" fill="none">
<defs>
  <linearGradient id="bg-10-7" x1="0" y1="0" x2="1" y2="1">
    <stop offset="0%" stop-color="#2DAA6E" stop-opacity="0.05"/>
    <stop offset="100%" stop-color="#4CB648" stop-opacity="0.03"/>
  </linearGradient>
</defs>
  <rect width="1280" height="720" fill="url(#bg-10-7)"/>
  <path d="M 654.0 268.9 C 678.0 273.4, 692.4 271.9, 712.6 284.3 C 732.7 296.6, 770.0 318.3, 775.0 342.8 C 780.0 367.3, 762.6 417.5, 742.4 431.2 C 722.2 445.0, 683.6 425.3, 654.0 425.5 C 624.4 425.6, 580.8 445.8, 564.8 432.1 C 548.7 418.3, 557.1 371.9, 557.8 342.8 C 558.4 313.7, 552.5 269.7, 568.5 257.4 C 584.6 245.0, 630.0 264.4, 654.0 268.9 Z" fill="#2DAA6E" opacity="0.06"/>
  <path d="M 1006.5 429.1 C 1036.8 426.7, 1087.6 411.9, 1104.9 428.1 C 1122.2 444.4, 1113.5 497.0, 1110.2 526.5 C 1106.9 556.1, 1102.4 589.6, 1085.1 605.2 C 1067.8 620.8, 1036.9 615.7, 1006.5 619.9 C 976.0 624.1, 929.6 646.0, 902.5 630.5 C 875.5 614.9, 840.9 557.8, 844.3 526.5 C 847.7 495.3, 895.7 459.1, 922.8 442.8 C 949.8 426.6, 976.1 431.6, 1006.5 429.1 Z" fill="#4CB648" opacity="0.07"/>
  <circle cx="327.7" cy="434.3" r="3.3" fill="#2DAA6E" opacity="0.09"/>
  <circle cx="868.8" cy="430.5" r="1.6" fill="#2DAA6E" opacity="0.09"/>
  <circle cx="280.8" cy="401.5" r="1.6" fill="#2DAA6E" opacity="0.09"/>
  <circle cx="562.3" cy="145.8" r="2.0" fill="#2DAA6E" opacity="0.09"/>
  <circle cx="230.0" cy="263.4" r="3.8" fill="#2DAA6E" opacity="0.09"/>
  <circle cx="593.9" cy="207.0" r="2.4" fill="#2DAA6E" opacity="0.09"/>
  <line x1="256.0" y1="360.0" x2="1024.0" y2="360.0" stroke="#2DAA6E" stroke-width="2" opacity="0.2" stroke-linecap="round"/>
  <line x1="256.0" y1="360.0" x2="793.6" y2="360.0" stroke="#2DAA6E" stroke-width="3" opacity="0.15" stroke-linecap="round"/>
  <circle cx="256.0" cy="360.0" r="5" fill="#2DAA6E" opacity="0.3"/>
  <rect x="188.8" y="210.4" width="134.4" height="129.6" rx="8" fill="#2DAA6E" opacity="0.07"/>
  <rect x="188.8" y="210.4" width="134.4" height="129.6" rx="8" fill="none" stroke="#2DAA6E" stroke-width="1" opacity="0.2"/>
  <line x1="256.0" y1="355.0" x2="256.0" y2="340.0" stroke="#2DAA6E" stroke-width="0.8" opacity="0.15"/>
  <line x1="225.0" y1="275.2" x2="287.0" y2="275.2" stroke="#2DAA6E" stroke-width="1.5" opacity="0.1" stroke-linecap="round"/>
  <circle cx="448.0" cy="360.0" r="5" fill="#4CB648" opacity="0.3"/>
  <rect x="380.8" y="380.0" width="134.4" height="129.6" rx="8" fill="#4CB648" opacity="0.07"/>
  <rect x="380.8" y="380.0" width="134.4" height="129.6" rx="8" fill="none" stroke="#4CB648" stroke-width="1" opacity="0.2"/>
  <line x1="448.0" y1="365.0" x2="448.0" y2="380.0" stroke="#4CB648" stroke-width="0.8" opacity="0.15"/>
  <line x1="415.8" y1="444.8" x2="480.2" y2="444.8" stroke="#4CB648" stroke-width="1.5" opacity="0.1" stroke-linecap="round"/>
  <circle cx="640.0" cy="360.0" r="5" fill="#2DAA6E" opacity="0.3"/>
  <rect x="572.8" y="210.4" width="134.4" height="129.6" rx="8" fill="#2DAA6E" opacity="0.07"/>
  <rect x="572.8" y="210.4" width="134.4" height="129.6" rx="8" fill="none" stroke="#2DAA6E" stroke-width="1" opacity="0.2"/>
  <line x1="640.0" y1="355.0" x2="640.0" y2="340.0" stroke="#2DAA6E" stroke-width="0.8" opacity="0.15"/>
  <line x1="605.3" y1="275.2" x2="674.7" y2="275.2" stroke="#2DAA6E" stroke-width="1.5" opacity="0.1" stroke-linecap="round"/>
  <circle cx="832.0" cy="360.0" r="5" fill="#4CB648" opacity="0.3"/>
  <rect x="764.8" y="380.0" width="134.4" height="129.6" rx="8" fill="#4CB648" opacity="0.07"/>
  <rect x="764.8" y="380.0" width="134.4" height="129.6" rx="8" fill="none" stroke="#4CB648" stroke-width="1" opacity="0.2"/>
  <line x1="832.0" y1="365.0" x2="832.0" y2="380.0" stroke="#4CB648" stroke-width="0.8" opacity="0.15"/>
  <line x1="795.2" y1="444.8" x2="868.8" y2="444.8" stroke="#4CB648" stroke-width="1.5" opacity="0.1" stroke-linecap="round"/>
  <circle cx="1024.0" cy="360.0" r="5" fill="#2DAA6E" opacity="0.3"/>
  <rect x="956.8" y="210.4" width="134.4" height="129.6" rx="8" fill="#2DAA6E" opacity="0.07"/>
  <rect x="956.8" y="210.4" width="134.4" height="129.6" rx="8" fill="none" stroke="#2DAA6E" stroke-width="1" opacity="0.2"/>
  <line x1="1024.0" y1="355.0" x2="1024.0" y2="340.0" stroke="#2DAA6E" stroke-width="0.8" opacity="0.15"/>
  <line x1="992.5" y1="275.2" x2="1055.5" y2="275.2" stroke="#2DAA6E" stroke-width="1.5" opacity="0.1" stroke-linecap="round"/>

</svg>