<svg xmlns="http://www.w3.org/2000/svg" viewBox="0 0 1280 720" fill="none">
<defs>
  <linearGradient id="bg-15-2" x1="0" y1="0" x2="1" y2="1">
    <stop offset="0%" stop-color="#A8E063" stop-opacity="0.05"/>
    <stop offset="100%" stop-color="#4CB648" stop-opacity="0.03"/>
  </linearGradient>
</defs>
  <rect width="1280" height="720" fill="url(#bg-15-2)"/>
  <path d="M 838.5 394.3 C 874.1 393.0, 918.1 464.4, 949.1 500.5 C 980.2 536.7, 1018.1 567.4, 1024.9 611.2 C 1031.8 654.9, 1021.4 727.2, 990.3 763.0 C 959.3 798.8, 881.1 834.1, 838.5 826.0 C 796.0 818.0, 767.5 750.4, 735.1 714.6 C 702.7 678.8, 644.0 645.5, 644.1 611.2 C 644.2 576.8, 703.2 544.4, 735.6 508.3 C 768.0 472.1, 802.9 395.6, 838.5 394.3 Z" fill="#A8E063" opacity="0.07"/>
  <circle cx="313.6" cy="152.0" r="4.0" fill="#A8E063" opacity="0.09"/>
  <circle cx="326.6" cy="219.4" r="3.9" fill="#A8E063" opacity="0.09"/>
  <circle cx="843.4" cy="457.7" r="2.6" fill="#A8E063" opacity="0.09"/>
  <circle cx="1125.0" cy="461.4" r="1.8" fill="#A8E063" opacity="0.09"/>
  <circle cx="114.6" cy="652.3" r="1.7" fill="#A8E063" opacity="0.09"/>
  <circle cx="545.4" cy="359.0" r="4.0" fill="#A8E063" opacity="0.09"/>
  <circle cx="739.7" cy="96.6" r="3.1" fill="#A8E063" opacity="0.09"/>
  <circle cx="671.3" cy="114.8" r="3.4" fill="#A8E063" opacity="0.09"/>
  <circle cx="640.0" cy="360.0" r="201.6" fill="#A8E063" opacity="0.05"/>
  <circle cx="640.0" cy="360.0" r="201.6" fill="none" stroke="#A8E063" stroke-width="2" opacity="0.25"/>
  <circle cx="640.0" cy="360.0" r="131.0" fill="none" stroke="#4CB648" stroke-width="1" opacity="0.12"/>
  <path d="M 640.0 360.0 L 640.0 158.4 A 201.6 201.6 0 0 1 841.6 360.0 Z" fill="#A8E063" opacity="0.050"/>
  <line x1="640.0" y1="360.0" x2="640.0" y2="158.4" stroke="#A8E063" stroke-width="1" opacity="0.12"/>
  <path d="M 640.0 360.0 L 841.6 360.0 A 201.6 201.6 0 0 1 640.0 561.6 Z" fill="#4CB648" opacity="0.075"/>
  <line x1="640.0" y1="360.0" x2="841.6" y2="360.0" stroke="#A8E063" stroke-width="1" opacity="0.12"/>
  <path d="M 640.0 360.0 L 640.0 561.6 A 201.6 201.6 0 0 1 438.4 360.0 Z" fill="#A8E063" opacity="0.100"/>
  <line x1="640.0" y1="360.0" x2="640.0" y2="561.6" stroke="#A8E063" stroke-width="1" opacity="0.12"/>
  <path d="M 640.0 360.0 L 438.4 360.0 A 201.6 201.6 0 0 1 640.0 158.4 Z" fill="#4CB648" opacity="0.125"/>
  <line x1="640.0" y1="360.0" x2="438.4" y2="360.0" stroke="#A8E063" stroke-width="1" opacity="0.12"/>
  <circle cx="640.0" cy="360.0" r="4" fill="#A8E063" opacity="0.3"/>

</svg>