<svg xmlns="http://www.w3.org/2000/svg" viewBox="0 0 1280 720" fill="none">
<defs>
  <linearGradient id="bg-15-8" x1="0" y1="0" x2="1" y2="1">
    <stop offset="0%" stop-color="#A8E063" stop-opacity="0.05"/>
    <stop offset="100%" stop-color="#4CB648" stop-opacity="0.03"/>
  </linearGradient>
</defs>
  <rect width="1280" height="720" fill="url(#bg-15-8)"/>
  <path d="M 610.1 106.9 C 660.5 116.7, 699.8 180.6, 732.0 219.7 C 764.1 258.8, 801.1 299.1, 802.9 341.5 C 804.7 383.9, 774.9 439.6, 742.7 474.1 C 710.6 508.7, 658.3 544.7, 610.1 548.7 C 561.9 552.6, 492.3 532.5, 453.7 497.9 C 415.1 463.4, 382.6 397.7, 378.6 341.5 C 374.5 285.3, 390.8 199.9, 429.4 160.8 C 468.0 121.7, 559.7 97.1, 610.1 106.9 Z" fill="#A8E063" opacity="0.07"/>
  <circle cx="1184.8" cy="511.8" r="3.3" fill="#A8E063" opacity="0.10"/>
  <circle cx="242.9" cy="219.4" r="3.2" fill="#A8E063" opacity="0.10"/>
  <circle cx="753.7" cy="390.0" r="3.2" fill="#A8E063" opacity="0.10"/>
  <circle cx="70.7" cy="270.8" r="2.7" fill="#A8E063" opacity="0.10"/>
  <circle cx="272.8" cy="244.2" r="2.0" fill="#A8E063" opacity="0.10"/>
  <circle cx="540.3" cy="406.4" r="1.5" fill="#A8E063" opacity="0.10"/>
  <circle cx="968.7" cy="151.0" r="3.1" fill="#A8E063" opacity="0.10"/>
  <circle cx="451.9" cy="287.5" r="2.3" fill="#A8E063" opacity="0.10"/>
  <circle cx="731.5" cy="502.4" r="3.7" fill="#A8E063" opacity="0.10"/>
  <circle cx="552.9" cy="285.2" r="2.8" fill="#A8E063" opacity="0.10"/>
  <circle cx="1150.7" cy="649.2" r="1.9" fill="#A8E063" opacity="0.10"/>
  <line x1="256.0" y1="360.0" x2="1024.0" y2="360.0" stroke="#A8E063" stroke-width="2" opacity="0.2" stroke-linecap="round"/>
  <line x1="256.0" y1="360.0" x2="793.6" y2="360.0" stroke="#A8E063" stroke-width="3" opacity="0.15" stroke-linecap="round"/>
  <circle cx="256.0" cy="360.0" r="5" fill="#A8E063" opacity="0.3"/>
  <rect x="188.8" y="210.4" width="134.4" height="129.6" rx="8" fill="#A8E063" opacity="0.07"/>
  <rect x="188.8" y="210.4" width="134.4" height="129.6" rx="8" fill="none" stroke="#A8E063" stroke-width="1" opacity="0.2"/>
  <line x1="256.0" y1="355.0" x2="256.0" y2="340.0" stroke="#A8E063" stroke-width="0.8" opacity="0.15"/>
  <line x1="220.2" y1="275.2" x2="291.8" y2="275.2" stroke="#A8E063" stroke-width="1.5" opacity="0.1" stroke-linecap="round"/>
  <circle cx="448.0" cy="360.0" r="5" fill="#4CB648" opacity="0.3"/>
  <rect x="380.8" y="380.0" width="134.4" height="129.6" rx="8" fill="#4CB648" opacity="0.07"/>
  <rect x="380.8" y="380.0" width="134.4" height="129.6" rx="8" fill="none" stroke="#4CB648" stroke-width="1" opacity="0.2"/>
  <line x1="448.0" y1="365.0" x2="448.0" y2="380.0" stroke="#4CB648" stroke-width="0.8" opacity="0.15"/>
  <line x1="411.4" y1="444.8" x2="484.6" y2="444.8" stroke="#4CB648" stroke-width="1.5" opacity="0.1" stroke-linecap="round"/>
  <circle cx="640.0" cy="360.0" r="5" fill="#A8E063" opacity="0.3"/>
  <rect x="572.8" y="210.4" width="134.4" height="129.6" rx="8" fill="#A8E063" opacity="0.07"/>
  <rect x="572.8" y="210.4" width="134.4" height="129.6" rx="8" fill="none" stroke="#A8E063" stroke-width="1" opacity="0.2"/>
  <line x1="640.0" y1="355.0" x2="640.0" y2="340.0" stroke="#A8E063" stroke-width="0.8" opacity="0.15"/>
  <line x1="607.8" y1="275.2" x2="672.2" y2="275.2" stroke="#A8E063" stroke-width="1.5" opacity="0.1" stroke-linecap="round"/>
  <circle cx="832.0" cy="360.0" r="5" fill="#4CB648" opacity="0.3"/>
  <rect x="764.8" y="380.0" width="134.4" height="129.6" rx="8" fill="#4CB648" opacity="0.07"/>
  <rect x="764.8" y="380.0" width="134.4" height="129.6" rx="8" fill="none" stroke="#4CB648" stroke-width="1" opacity="0.2"/>
  <line x1="832.0" y1="365.0" x2="832.0" y2="380.0" stroke="#4CB648" stroke-width="0.8" opacity="0.15"/>
  <line x1="801.0" y1="444.8" x2="863.0" y2="444.8" stroke="#4CB648" stroke-width="1.5" opacity="0.1" stroke-linecap="round"/>
  <circle cx="1024.0" cy="360.0" r="5" fill="#A8E063" opacity="0.3"/>
  <rect x="956.8" y="210.4" width="134.4" height="129.6" rx="8" fill="#A8E063" opacity="0.07"/>
  <rect x="956.8" y="210.4" width="134.4" height="129.6" rx="8" fill="none" stroke="#A8E063" stroke-width="1" opacity="0.2"/>
  <line x1="1024.0" y1="355.0" x2="1024.0" y2="340.0" stroke="#A8E063" stroke-width="0.8" opacity="0.15"/>
  <line x1="993.1" y1="275.2" x2="1054.9" y2="275.2" stroke="#A8E063" stroke-width="1.5" opacity="0.1" stroke-linecap="round"/>

</svg>