<svg xmlns="http://www.w3.org/2000/svg" viewBox="0 0 1280 720" fill="none">
<defs>
  <linearGradient id="bg-grad-1" x1="0" y1="0" x2="1" y2="1">
    <stop offset="0%" stop-color="#4CB648" stop-opacity="0.06"/>
    <stop offset="100%" stop-color="#2DAA6E" stop-opacity="0.03"/>
  </linearGradient>
</defs>
  <rect width="1280" height="720" fill="url(#bg-grad-1)"/>
  <path d="M 550.7 395.1 C 595.6 397.9, 651.7 435.4, 676.8 468.7 C 701.8 501.9, 702.7 554.3, 701.2 594.7 C 699.6 635.2, 692.5 676.4, 667.4 711.4 C 642.3 746.4, 590.0 804.2, 550.7 804.6 C 511.5 804.9, 455.3 748.5, 431.9 713.5 C 408.5 678.5, 414.4 638.4, 410.3 594.7 C 406.2 551.1, 384.1 484.8, 407.5 451.5 C 430.9 418.3, 505.8 392.2, 550.7 395.1 Z" fill="#4CB648" opacity="0.08"/>
  <path d="M 563.8 259.7 C 615.7 251.3, 704.5 256.1, 744.6 291.6 C 784.8 327.0, 811.1 418.3, 804.9 472.4 C 798.7 526.5, 747.7 586.7, 707.5 616.2 C 667.4 645.6, 619.2 641.8, 563.8 649.3 C 508.4 656.8, 411.7 690.7, 375.0 661.2 C 338.3 631.7, 333.8 525.7, 343.5 472.4 C 353.1 419.2, 396.3 377.1, 433.0 341.6 C 469.7 306.2, 511.9 268.0, 563.8 259.7 Z" fill="#2DAA6E" opacity="0.09"/>
  <path d="M 671.4 270.7 C 713.0 268.1, 754.4 284.2, 804.0 313.4 C 853.7 342.6, 969.7 402.2, 969.3 446.0 C 968.9 489.8, 851.3 545.1, 801.7 576.3 C 752.0 607.4, 717.6 630.0, 671.4 632.9 C 625.2 635.7, 557.6 624.3, 524.2 593.2 C 490.8 562.0, 466.0 490.0, 471.0 446.0 C 476.1 402.0, 521.2 358.4, 554.6 329.2 C 588.0 300.0, 629.8 273.4, 671.4 270.7 Z" fill="#4CB648" opacity="0.06"/>
  <circle cx="1128.2" cy="200.6" r="2.3" fill="#4CB648" opacity="0.16"/>
  <circle cx="833.1" cy="405.2" r="3.1" fill="#4CB648" opacity="0.16"/>
  <circle cx="1148.2" cy="628.9" r="3.7" fill="#4CB648" opacity="0.16"/>
  <circle cx="882.4" cy="333.3" r="3.8" fill="#4CB648" opacity="0.16"/>
  <circle cx="467.9" cy="614.5" r="4.3" fill="#4CB648" opacity="0.16"/>
  <circle cx="466.9" cy="176.2" r="2.1" fill="#4CB648" opacity="0.16"/>
  <circle cx="535.8" cy="216.7" r="2.1" fill="#4CB648" opacity="0.16"/>
  <circle cx="978.5" cy="94.6" r="4.6" fill="#4CB648" opacity="0.16"/>
  <circle cx="1193.8" cy="363.2" r="3.1" fill="#4CB648" opacity="0.16"/>
  <circle cx="699.3" cy="264.9" r="4.2" fill="#4CB648" opacity="0.16"/>
  <circle cx="1128.3" cy="603.3" r="4.3" fill="#4CB648" opacity="0.16"/>
  <circle cx="807.1" cy="466.7" r="3.5" fill="#4CB648" opacity="0.16"/>
  <circle cx="138.7" cy="73.7" r="3.7" fill="#4CB648" opacity="0.16"/>
  <circle cx="560.5" cy="321.3" r="3.2" fill="#4CB648" opacity="0.16"/>
  <circle cx="696.8" cy="657.9" r="2.6" fill="#4CB648" opacity="0.16"/>
  <path d="M 80 217.6346552092582 C 489.5594298839569 214.2056457232684, 981.668451661244 539.231892162934, 1200 586.924530332908" fill="none" stroke="#2DAA6E" stroke-width="2" opacity="0.1" stroke-linecap="round"/>

  <path d="M 540 220 C 480 220, 420 280, 420 340 C 420 400, 480 440, 540 440 C 600 440, 700 420, 740 380 C 780 340, 800 280, 760 240 C 720 200, 660 220, 640 260 C 620 300, 640 360, 680 380" fill="none" stroke="#4CB648" stroke-width="4" opacity="0.6" stroke-linecap="round"/>
  <path d="M 540 260 C 500 260, 460 300, 460 340 C 460 380, 500 410, 540 410 C 580 410, 660 395, 700 365" fill="none" stroke="#2DAA6E" stroke-width="2.5" opacity="0.4" stroke-linecap="round"/>
</svg>