<svg xmlns="http://www.w3.org/2000/svg" viewBox="0 0 1280 720" fill="none">
<defs>
  <linearGradient id="bg-1-5" x1="0" y1="0" x2="1" y2="1">
    <stop offset="0%" stop-color="#4CB648" stop-opacity="0.05"/>
    <stop offset="100%" stop-color="#2DAA6E" stop-opacity="0.03"/>
  </linearGradient>
</defs>
  <rect width="1280" height="720" fill="url(#bg-1-5)"/>
  <path d="M 677.6 -33.4 C 718.8 -27.7, 757.9 -12.0, 784.2 13.6 C 810.5 39.2, 839.3 88.7, 835.3 120.2 C 831.3 151.8, 786.5 172.0, 760.2 202.9 C 733.9 233.7, 712.3 298.1, 677.6 305.2 C 642.9 312.4, 575.5 276.7, 551.9 245.9 C 528.4 215.0, 538.9 164.6, 536.4 120.2 C 533.9 75.9, 513.5 5.3, 537.0 -20.3 C 560.6 -45.9, 636.4 -39.0, 677.6 -33.4 Z" fill="#4CB648" opacity="0.07"/>
  <path d="M 1002.6 402.6 C 1026.6 405.1, 1048.9 434.3, 1067.3 453.6 C 1085.7 472.9, 1110.5 494.3, 1113.0 518.3 C 1115.5 542.4, 1100.8 583.8, 1082.3 598.1 C 1063.9 612.5, 1025.2 608.6, 1002.6 604.6 C 979.9 600.7, 965.4 588.7, 946.6 574.3 C 927.7 560.0, 893.4 541.0, 889.5 518.3 C 885.5 495.7, 904.0 457.9, 922.8 438.6 C 941.7 419.3, 978.5 400.1, 1002.6 402.6 Z" fill="#2DAA6E" opacity="0.04"/>
  <circle cx="568.2" cy="479.3" r="3.7" fill="#4CB648" opacity="0.10"/>
  <circle cx="525.2" cy="670.2" r="3.7" fill="#4CB648" opacity="0.10"/>
  <circle cx="552.0" cy="124.4" r="2.3" fill="#4CB648" opacity="0.10"/>
  <circle cx="390.0" cy="196.2" r="2.2" fill="#4CB648" opacity="0.10"/>
  <circle cx="802.3" cy="100.5" r="3.8" fill="#4CB648" opacity="0.10"/>
  <circle cx="847.1" cy="470.9" r="3.5" fill="#4CB648" opacity="0.10"/>
  <circle cx="502.8" cy="607.5" r="3.6" fill="#4CB648" opacity="0.10"/>
  <circle cx="904.6" cy="58.1" r="2.9" fill="#4CB648" opacity="0.10"/>
  <circle cx="939.5" cy="533.0" r="2.2" fill="#4CB648" opacity="0.10"/>
  <circle cx="299.3" cy="619.8" r="2.6" fill="#4CB648" opacity="0.10"/>
  <circle cx="1108.7" cy="98.7" r="2.0" fill="#4CB648" opacity="0.10"/>
  <line x1="640.0" y1="144.0" x2="640.0" y2="576.0" stroke="#4CB648" stroke-width="1" opacity="0.15" stroke-dasharray="6 4"/>
  <path d="M 378.0 273.4 C 392.1 273.6, 409.9 303.6, 419.3 320.8 C 428.6 338.1, 440.8 358.9, 433.9 376.9 C 427.0 394.9, 398.5 428.0, 378.0 429.0 C 357.5 430.1, 318.1 401.6, 310.9 383.4 C 303.7 365.2, 323.8 338.1, 335.0 319.8 C 346.2 301.5, 364.0 273.2, 378.0 273.4 Z" fill="#2DAA6E" opacity="0.05"/>
  <path d="M 419.5 289.2 C 432.9 287.8, 460.7 286.4, 466.9 295.7 C 473.1 304.9, 464.6 330.8, 456.7 344.5 C 448.8 358.2, 433.3 376.8, 419.5 377.6 C 405.8 378.4, 379.6 361.6, 374.1 349.3 C 368.6 337.0, 378.9 314.0, 386.5 304.0 C 394.1 293.9, 406.1 290.6, 419.5 289.2 Z" fill="#2DAA6E" opacity="0.08"/>
  <path d="M 339.8 364.7 C 359.8 363.4, 397.5 369.8, 406.6 384.8 C 415.7 399.8, 405.6 436.6, 394.4 454.9 C 383.3 473.1, 360.8 492.6, 339.8 494.3 C 318.8 495.9, 277.3 481.5, 268.4 464.6 C 259.6 447.6, 274.9 409.3, 286.8 392.7 C 298.7 376.0, 319.9 366.0, 339.8 364.7 Z" fill="#2DAA6E" opacity="0.05"/>
  <line x1="281.6" y1="158.4" x2="512.0" y2="158.4" stroke="#2DAA6E" stroke-width="2" opacity="0.12" stroke-linecap="round"/>
  <path d="M 815.9 210.3 C 825.5 210.4, 838.6 212.5, 844.2 219.0 C 849.8 225.5, 850.1 237.1, 849.4 249.2 C 848.7 261.3, 848.0 288.0, 840.0 291.7 C 832.0 295.4, 811.7 278.3, 801.5 271.4 C 791.4 264.4, 781.3 258.9, 778.8 250.0 C 776.4 241.2, 780.4 224.8, 786.6 218.2 C 792.8 211.6, 806.3 210.2, 815.9 210.3 Z" fill="#4CB648" opacity="0.17"/>
  <path d="M 884.9 369.8 C 905.0 368.0, 943.3 383.9, 952.0 399.7 C 960.6 415.6, 943.6 447.5, 936.6 465.1 C 929.7 482.7, 924.4 495.4, 910.0 505.4 C 895.6 515.3, 864.3 531.2, 850.5 524.7 C 836.6 518.2, 830.1 485.5, 826.9 466.5 C 823.7 447.4, 821.6 426.6, 831.2 410.5 C 840.9 394.3, 864.8 371.5, 884.9 369.8 Z" fill="#4CB648" opacity="0.15"/>
  <path d="M 950.5 438.3 C 957.2 438.4, 965.6 449.6, 970.4 456.4 C 975.2 463.1, 980.3 471.5, 979.2 478.8 C 978.1 486.1, 970.3 498.3, 964.0 500.4 C 957.7 502.5, 949.0 494.7, 941.3 491.3 C 933.5 487.9, 919.4 485.7, 917.5 479.8 C 915.6 473.9, 924.4 462.7, 929.9 455.8 C 935.4 448.9, 943.7 438.2, 950.5 438.3 Z" fill="#4CB648" opacity="0.18"/>
  <path d="M 923.5 379.8 C 935.6 377.2, 962.0 380.2, 969.9 389.9 C 977.7 399.5, 974.5 423.6, 970.5 437.6 C 966.6 451.6, 957.9 467.2, 946.0 473.7 C 934.2 480.3, 910.7 483.0, 899.4 476.9 C 888.0 470.9, 878.4 449.1, 878.0 437.2 C 877.6 425.4, 889.3 415.2, 896.9 405.7 C 904.5 396.1, 911.3 382.5, 923.5 379.8 Z" fill="#4CB648" opacity="0.15"/>
  <path d="M 975.6 258.1 C 993.0 259.9, 1011.5 288.6, 1021.2 304.6 C 1030.9 320.6, 1035.9 336.9, 1033.8 354.3 C 1031.6 371.7, 1024.1 398.4, 1008.2 408.9 C 992.4 419.3, 957.4 425.5, 938.9 417.2 C 920.4 408.8, 900.9 379.4, 897.2 358.9 C 893.5 338.3, 903.6 310.8, 916.7 294.0 C 929.8 277.3, 958.1 256.3, 975.6 258.1 Z" fill="#4CB648" opacity="0.12"/>
  <circle cx="949.2" cy="451.8" r="2.9" fill="#4CB648" opacity="0.12"/>
  <circle cx="1078.1" cy="278.1" r="3.3" fill="#4CB648" opacity="0.12"/>
  <circle cx="938.4" cy="291.9" r="2.3" fill="#4CB648" opacity="0.12"/>
  <circle cx="725.1" cy="225.1" r="3.0" fill="#4CB648" opacity="0.12"/>
  <circle cx="1033.3" cy="200.7" r="3.2" fill="#4CB648" opacity="0.12"/>
  <circle cx="1049.9" cy="242.4" r="3.9" fill="#4CB648" opacity="0.12"/>
  <circle cx="753.1" cy="520.3" r="3.7" fill="#4CB648" opacity="0.12"/>
  <circle cx="838.7" cy="400.4" r="2.8" fill="#4CB648" opacity="0.12"/>
  <line x1="768.0" y1="158.4" x2="998.4" y2="158.4" stroke="#4CB648" stroke-width="2.5" opacity="0.2" stroke-linecap="round"/>
  <rect x="635.0" y="355.0" width="10" height="10" fill="#4CB648" opacity="0.2" transform="rotate(45 640.0 360.0)"/>

</svg>