<svg xmlns="http://www.w3.org/2000/svg" viewBox="0 0 1280 720" fill="none">
<defs>
  <linearGradient id="bg-1-3" x1="0" y1="0" x2="1" y2="1">
    <stop offset="0%" stop-color="#4CB648" stop-opacity="0.05"/>
    <stop offset="100%" stop-color="#2DAA6E" stop-opacity="0.03"/>
  </linearGradient>
</defs>
  <rect width="1280" height="720" fill="url(#bg-1-3)"/>
  <path d="M 935.4 496.5 C 963.9 494.1, 1012.1 499.9, 1028.1 519.1 C 1044.1 538.3, 1033.8 583.5, 1031.2 611.8 C 1028.7 640.2, 1028.6 664.6, 1012.6 689.1 C 996.6 713.6, 965.1 754.8, 935.4 758.8 C 905.6 762.8, 851.6 737.5, 834.2 713.0 C 816.7 688.6, 826.8 641.8, 830.6 611.8 C 834.4 581.9, 839.4 552.6, 856.9 533.3 C 874.3 514.1, 906.8 498.9, 935.4 496.5 Z" fill="#4CB648" opacity="0.06"/>
  <path d="M 379.7 265.1 C 400.3 261.4, 440.1 262.1, 452.2 276.0 C 464.3 289.9, 453.8 325.8, 452.3 348.5 C 450.8 371.2, 455.5 400.3, 443.4 412.1 C 431.3 424.0, 402.5 417.8, 379.7 419.4 C 357.0 420.9, 321.8 433.2, 306.8 421.4 C 291.8 409.6, 286.0 369.1, 289.7 348.5 C 293.3 327.9, 313.9 311.6, 328.9 297.7 C 343.9 283.7, 359.2 268.7, 379.7 265.1 Z" fill="#2DAA6E" opacity="0.05"/>
  <circle cx="343.2" cy="494.3" r="3.0" fill="#4CB648" opacity="0.09"/>
  <circle cx="771.0" cy="225.5" r="3.0" fill="#4CB648" opacity="0.09"/>
  <circle cx="780.0" cy="498.1" r="2.5" fill="#4CB648" opacity="0.09"/>
  <circle cx="624.7" cy="192.6" r="1.6" fill="#4CB648" opacity="0.09"/>
  <circle cx="579.9" cy="328.9" r="3.6" fill="#4CB648" opacity="0.09"/>
  <circle cx="447.2" cy="229.2" r="2.1" fill="#4CB648" opacity="0.09"/>
  <circle cx="937.9" cy="347.2" r="3.6" fill="#4CB648" opacity="0.09"/>
  <circle cx="456.6" cy="539.0" r="3.4" fill="#4CB648" opacity="0.09"/>
  <line x1="640.0" y1="144.0" x2="640.0" y2="576.0" stroke="#4CB648" stroke-width="1" opacity="0.15" stroke-dasharray="6 4"/>
  <path d="M 410.8 431.3 C 423.7 431.3, 440.8 449.8, 449.5 464.0 C 458.2 478.3, 469.7 504.5, 463.2 516.6 C 456.8 528.8, 428.0 537.1, 410.8 536.9 C 393.7 536.7, 366.8 527.6, 360.5 515.5 C 354.1 503.4, 364.2 478.3, 372.6 464.3 C 381.0 450.2, 398.0 431.3, 410.8 431.3 Z" fill="#2DAA6E" opacity="0.06"/>
  <path d="M 256.9 230.3 C 278.2 230.3, 315.0 240.1, 321.3 253.8 C 327.5 267.6, 305.1 298.1, 294.4 312.7 C 283.6 327.3, 271.9 339.9, 256.9 341.4 C 241.8 342.9, 214.7 336.0, 204.1 321.5 C 193.5 307.0, 184.4 269.5, 193.2 254.3 C 202.0 239.1, 235.5 230.4, 256.9 230.3 Z" fill="#2DAA6E" opacity="0.04"/>
  <path d="M 296.0 419.2 C 310.0 417.9, 338.6 438.6, 344.4 452.0 C 350.1 465.5, 338.4 489.5, 330.4 499.8 C 322.3 510.2, 306.9 514.3, 296.0 514.0 C 285.0 513.7, 270.5 507.2, 264.6 498.1 C 258.7 489.0, 255.2 472.6, 260.5 459.5 C 265.7 446.3, 282.0 420.4, 296.0 419.2 Z" fill="#2DAA6E" opacity="0.07"/>
  <line x1="281.6" y1="158.4" x2="512.0" y2="158.4" stroke="#2DAA6E" stroke-width="2" opacity="0.12" stroke-linecap="round"/>
  <path d="M 891.6 266.0 C 902.1 265.6, 914.8 292.0, 924.5 305.1 C 934.3 318.2, 952.3 333.4, 950.2 344.7 C 948.0 356.0, 925.3 367.1, 911.7 372.9 C 898.0 378.7, 879.3 384.7, 868.4 379.5 C 857.6 374.3, 847.6 353.7, 846.5 341.7 C 845.4 329.7, 854.3 320.2, 861.8 307.6 C 869.4 295.0, 881.2 266.4, 891.6 266.0 Z" fill="#4CB648" opacity="0.13"/>
  <path d="M 829.8 279.6 C 838.5 279.4, 853.2 286.4, 856.5 292.9 C 859.8 299.4, 852.4 311.8, 849.6 318.6 C 846.8 325.5, 845.1 330.0, 839.5 334.1 C 833.8 338.1, 822.7 345.2, 815.9 343.0 C 809.1 340.9, 800.4 329.4, 798.5 321.3 C 796.7 313.1, 799.5 301.0, 804.7 294.1 C 810.0 287.2, 821.2 279.8, 829.8 279.6 Z" fill="#4CB648" opacity="0.11"/>
  <path d="M 925.7 415.8 C 940.9 416.7, 957.4 431.7, 968.0 444.5 C 978.6 457.3, 991.1 476.5, 989.1 492.7 C 987.1 508.9, 971.8 533.5, 956.2 541.5 C 940.6 549.6, 909.1 549.5, 895.5 540.9 C 881.9 532.3, 877.7 506.8, 874.5 489.9 C 871.4 473.0, 868.3 451.6, 876.9 439.3 C 885.4 426.9, 910.5 415.0, 925.7 415.8 Z" fill="#4CB648" opacity="0.11"/>
  <path d="M 783.4 404.9 C 794.2 403.9, 812.9 411.1, 819.5 419.9 C 826.1 428.8, 826.0 446.4, 823.2 457.8 C 820.4 469.3, 812.4 483.9, 802.7 488.8 C 792.9 493.7, 773.3 492.7, 764.9 487.2 C 756.4 481.7, 753.6 466.1, 751.9 455.9 C 750.2 445.7, 749.5 434.5, 754.8 425.9 C 760.0 417.4, 772.6 405.9, 783.4 404.9 Z" fill="#4CB648" opacity="0.17"/>
  <path d="M 828.9 272.7 C 843.6 274.5, 856.2 291.8, 866.3 304.3 C 876.3 316.8, 890.3 332.1, 889.3 347.8 C 888.2 363.6, 873.1 394.9, 860.1 398.7 C 847.1 402.6, 825.0 379.8, 811.1 371.0 C 797.3 362.2, 782.2 358.8, 776.7 346.0 C 771.3 333.1, 769.8 306.1, 778.5 293.9 C 787.2 281.6, 814.3 271.0, 828.9 272.7 Z" fill="#4CB648" opacity="0.11"/>
  <circle cx="834.6" cy="489.0" r="3.8" fill="#4CB648" opacity="0.12"/>
  <circle cx="768.9" cy="449.7" r="2.9" fill="#4CB648" opacity="0.12"/>
  <circle cx="1058.5" cy="216.8" r="2.9" fill="#4CB648" opacity="0.12"/>
  <circle cx="1056.8" cy="276.7" r="3.6" fill="#4CB648" opacity="0.12"/>
  <circle cx="858.8" cy="218.2" r="4.2" fill="#4CB648" opacity="0.12"/>
  <circle cx="1068.8" cy="442.0" r="4.7" fill="#4CB648" opacity="0.12"/>
  <circle cx="1005.1" cy="495.3" r="3.1" fill="#4CB648" opacity="0.12"/>
  <circle cx="1067.2" cy="522.3" r="2.7" fill="#4CB648" opacity="0.12"/>
  <line x1="768.0" y1="158.4" x2="998.4" y2="158.4" stroke="#4CB648" stroke-width="2.5" opacity="0.2" stroke-linecap="round"/>
  <rect x="635.0" y="355.0" width="10" height="10" fill="#4CB648" opacity="0.2" transform="rotate(45 640.0 360.0)"/>

</svg>