<svg xmlns="http://www.w3.org/2000/svg" viewBox="0 0 1280 720" fill="none">
<defs>
  <linearGradient id="bg-1-4" x1="0" y1="0" x2="1" y2="1">
    <stop offset="0%" stop-color="#4CB648" stop-opacity="0.05"/>
    <stop offset="100%" stop-color="#2DAA6E" stop-opacity="0.03"/>
  </linearGradient>
</defs>
  <rect width="1280" height="720" fill="url(#bg-1-4)"/>
  <path d="M 662.9 119.5 C 686.4 113.8, 737.7 122.4, 750.9 140.5 C 764.1 158.7, 746.7 204.0, 742.0 228.6 C 737.2 253.1, 735.4 269.6, 722.2 287.9 C 709.0 306.3, 686.8 334.5, 662.9 338.7 C 638.9 342.8, 595.5 331.2, 578.6 312.8 C 561.6 294.5, 556.0 251.5, 561.2 228.6 C 566.3 205.6, 592.5 193.4, 609.5 175.2 C 626.4 157.0, 639.3 125.3, 662.9 119.5 Z" fill="#4CB648" opacity="0.05"/>
  <circle cx="1050.9" cy="589.1" r="2.6" fill="#4CB648" opacity="0.06"/>
  <circle cx="1138.1" cy="525.6" r="3.8" fill="#4CB648" opacity="0.06"/>
  <circle cx="1044.5" cy="483.8" r="2.1" fill="#4CB648" opacity="0.06"/>
  <circle cx="794.6" cy="511.8" r="1.6" fill="#4CB648" opacity="0.06"/>
  <circle cx="1209.6" cy="155.7" r="3.4" fill="#4CB648" opacity="0.06"/>
  <circle cx="263.4" cy="78.4" r="3.8" fill="#4CB648" opacity="0.06"/>
  <circle cx="683.6" cy="182.9" r="1.8" fill="#4CB648" opacity="0.06"/>
  <circle cx="682.7" cy="588.0" r="3.7" fill="#4CB648" opacity="0.06"/>
  <circle cx="651.6" cy="418.0" r="2.9" fill="#4CB648" opacity="0.06"/>
  <circle cx="325.5" cy="611.3" r="3.2" fill="#4CB648" opacity="0.06"/>
  <circle cx="128.6" cy="650.6" r="1.5" fill="#4CB648" opacity="0.06"/>
  <circle cx="640.0" cy="360.0" r="31.5" fill="#4CB648" opacity="0.12"/>
  <circle cx="640.0" cy="360.0" r="31.5" fill="none" stroke="#4CB648" stroke-width="2" opacity="0.35"/>
  <circle cx="640.0" cy="360.0" r="12.6" fill="#4CB648" opacity="0.15"/>
  <line x1="640.0" y1="328.5" x2="640.0" y2="168.6" stroke="#4CB648" stroke-width="1.5" opacity="0.2"/>
  <circle cx="640.0" cy="168.6" r="13.4" fill="#4CB648" opacity="0.1"/>
  <circle cx="640.0" cy="168.6" r="13.4" fill="none" stroke="#4CB648" stroke-width="1.2" opacity="0.3"/>
  <circle cx="640.0" cy="168.6" r="3" fill="#4CB648" opacity="0.25"/>
  <line x1="667.3" y1="344.3" x2="808.1" y2="262.9" stroke="#2DAA6E" stroke-width="1.5" opacity="0.2"/>
  <circle cx="808.1" cy="262.9" r="10.6" fill="#2DAA6E" opacity="0.1"/>
  <circle cx="808.1" cy="262.9" r="10.6" fill="none" stroke="#2DAA6E" stroke-width="1.2" opacity="0.3"/>
  <circle cx="808.1" cy="262.9" r="3" fill="#2DAA6E" opacity="0.25"/>
  <line x1="667.3" y1="375.7" x2="818.1" y2="462.8" stroke="#4CB648" stroke-width="1.5" opacity="0.2"/>
  <circle cx="818.1" cy="462.8" r="10.7" fill="#4CB648" opacity="0.1"/>
  <circle cx="818.1" cy="462.8" r="10.7" fill="none" stroke="#4CB648" stroke-width="1.2" opacity="0.3"/>
  <circle cx="818.1" cy="462.8" r="3" fill="#4CB648" opacity="0.25"/>
  <line x1="640.0" y1="391.5" x2="640.0" y2="569.7" stroke="#2DAA6E" stroke-width="1.5" opacity="0.2"/>
  <circle cx="640.0" cy="569.7" r="13.2" fill="#2DAA6E" opacity="0.1"/>
  <circle cx="640.0" cy="569.7" r="13.2" fill="none" stroke="#2DAA6E" stroke-width="1.2" opacity="0.3"/>
  <circle cx="640.0" cy="569.7" r="3" fill="#2DAA6E" opacity="0.25"/>
  <line x1="612.7" y1="375.7" x2="466.0" y2="460.4" stroke="#4CB648" stroke-width="1.5" opacity="0.2"/>
  <circle cx="466.0" cy="460.4" r="17.3" fill="#4CB648" opacity="0.1"/>
  <circle cx="466.0" cy="460.4" r="17.3" fill="none" stroke="#4CB648" stroke-width="1.2" opacity="0.3"/>
  <circle cx="466.0" cy="460.4" r="3" fill="#4CB648" opacity="0.25"/>
  <line x1="612.7" y1="344.3" x2="483.1" y2="269.4" stroke="#2DAA6E" stroke-width="1.5" opacity="0.2"/>
  <circle cx="483.1" cy="269.4" r="10.6" fill="#2DAA6E" opacity="0.1"/>
  <circle cx="483.1" cy="269.4" r="10.6" fill="none" stroke="#2DAA6E" stroke-width="1.2" opacity="0.3"/>
  <circle cx="483.1" cy="269.4" r="3" fill="#2DAA6E" opacity="0.25"/>

</svg>